<svg class="" viewBox="0 0 646 434" xmlns="http://www.w3.org/2000/svg"><path opacity=".32" d="M635.256 261.201v15.564c0 4.552-2.912 8.234-6.493 8.234H368.527c-3.615 0-6.527-3.682-6.527-8.234V115.201h16.434v137.8c0 4.552 2.912 8.234 6.527 8.234h250.295v-.034Z" fill="#CCD3E4"/><path opacity=".32" d="M378.434 91.57v23.63H362V99.804c0-4.552 2.912-8.234 6.527-8.234h9.907Z" fill="#C5C4C3"/><g opacity=".09"><path opacity=".2" d="M635.256 261.201v15.564c0 4.552-2.912 8.234-6.493 8.234H368.527c-3.615 0-6.527-3.682-6.527-8.234V115.201h16.434v137.8c0 4.552 2.912 8.234 6.527 8.234h250.295v-.034Z" fill="#000"/></g><g opacity=".09"><path opacity=".2" d="M378.434 91.57v23.63H362V99.804c0-4.552 2.912-8.234 6.527-8.234h9.907Z" fill="#000"/></g><path opacity=".32" d="M644.989 86.18v176.961c0 4.553-2.912 8.234-6.494 8.234H378.259c-3.615 0-6.527-3.681-6.527-8.234V86.181c0-4.552 2.912-8.234 6.527-8.234h260.203c3.581 0 6.527 3.682 6.527 8.234Z" fill="#D9E0F1"/><path d="M645 86.18v15.397H371.743V86.181c0-4.552 2.912-8.234 6.527-8.234h260.203c3.581 0 6.527 3.682 6.527 8.234Z" fill="#F6F6F6"/><g opacity=".3"><path opacity=".32" d="M383.421 94.145a4.284 4.284 0 1 0 0-8.568 4.284 4.284 0 0 0 0 8.568Z" fill="#CC0024"/></g><g opacity=".3"><path opacity=".32" d="M395.037 94.146a4.284 4.284 0 1 0 0-8.568 4.284 4.284 0 0 0 0 8.568Z" fill="#FFAB11"/></g><path opacity=".3" d="M406.679 94.145a4.284 4.284 0 1 0 0-8.568 4.284 4.284 0 0 0 0 8.568Z" fill="#00BC00"/><g opacity=".32"><path opacity=".1" d="m389.022 123.869 81.502.401c.87 0 1.54.703 1.54 1.574l-.134 29.421c0 .87-.703 1.539-1.573 1.539l-81.502-.401c-.87 0-1.54-.703-1.54-1.574l.134-29.421c.034-.87.737-1.573 1.573-1.539Z" fill="#FFB3B9"/></g><path opacity=".93" d="m391.409 127.853 22.158.1c.401 0 .703.335.703.736l-.101 23.53c0 .402-.335.703-.736.703l-22.158-.1c-.402 0-.703-.335-.703-.736l.101-23.53c0-.402.334-.737.736-.703Z" fill="#fff"/><path opacity=".1" d="m417.232 128.554 50.842.234c.234 0 .402.168.402.402v2.678a.387.387 0 0 1-.402.401l-50.842-.234a.386.386 0 0 1-.402-.401v-2.678c0-.201.167-.402.402-.402ZM417.199 133.742l50.842.234c.234 0 .401.168.401.402v2.678a.386.386 0 0 1-.401.401l-50.842-.234a.386.386 0 0 1-.402-.401v-2.678c0-.234.167-.402.402-.402ZM417.165 138.999l50.843.234c.234 0 .401.167.401.401v2.678a.387.387 0 0 1-.401.402l-50.843-.234a.387.387 0 0 1-.401-.402V139.4c0-.234.201-.401.401-.401ZM417.128 144.085l50.842.234c.235 0 .402.168.402.402v2.678a.386.386 0 0 1-.402.401l-50.842-.234a.386.386 0 0 1-.401-.402v-2.677c0-.235.2-.402.401-.402ZM417.061 149.141l38.726.2c.201 0 .335.168.335.335v2.778a.336.336 0 0 1-.335.335l-38.726-.201a.335.335 0 0 1-.334-.335v-2.778c0-.167.133-.334.334-.334Z" fill="#221E1F"/><path opacity=".32" d="M393.854 137.726c2.779.97 8 2.778 8 2.778l-2.678-8.033a8.554 8.554 0 0 0-5.322 5.255Z" fill="#FAAE41"/><path opacity=".32" d="m402.219 140.338 7.564-3.816c-1.874-3.715-6.192-5.522-10.141-4.25l2.577 8.066Z" fill="#3C8B90"/><path opacity=".32" d="M401.785 149.44a8.763 8.763 0 0 0 4.887-1.506l-4.853-6.962-7.967-2.912c-1.606 4.385.67 9.272 5.055 10.878.937.302 1.907.469 2.878.502Z" fill="#85CAAB"/><path d="M407.12 147.733a8.484 8.484 0 0 0 2.711-10.778l-7.564 3.816 4.853 6.962Z" fill="#61AF8E" opacity=".32"/><g opacity=".32"><path opacity=".1" d="m388.647 172.602 60.783.301c.636 0 1.171.703 1.138 1.573l-.134 29.421c0 .87-.536 1.54-1.171 1.54l-60.784-.302c-.636 0-1.171-.702-1.138-1.573l.134-29.421c0-.87.502-1.539 1.172-1.539Z" fill="#B9BEFF"/></g><path opacity=".1" d="m391.085 177.189 55.997.267c.234 0 .435.168.435.402v2.678c0 .234-.201.401-.435.401l-55.997-.267c-.234 0-.435-.168-.435-.402v-2.678c-.033-.234.168-.401.435-.401ZM391.048 182.344l55.997.268c.234 0 .435.167.435.402v2.677c0 .235-.201.402-.435.402l-55.997-.268c-.234 0-.435-.167-.435-.401v-2.678c0-.234.201-.402.435-.402ZM391.025 187.6l55.997.267c.234 0 .435.168.435.402v2.678c0 .234-.201.401-.435.401l-55.997-.267c-.234 0-.435-.168-.435-.402v-2.678c0-.201.201-.401.435-.401ZM390.987 192.686l55.997.267c.234 0 .435.168.435.402v2.678c0 .234-.201.401-.435.401l-55.997-.267c-.234 0-.435-.168-.435-.402v-2.678c0-.234.201-.401.435-.401ZM390.92 197.773l42.642.201c.2 0 .368.167.368.334v2.779c0 .2-.168.334-.368.334l-42.642-.201c-.201 0-.368-.167-.368-.334v-2.778c-.034-.201.167-.335.368-.335Z" fill="#221E1F"/><path opacity=".32" d="m389.022 216.919 81.502.402c.87 0 1.54.703 1.54 1.573l-.134 29.421c0 .87-.703 1.54-1.573 1.54l-81.502-.402c-.87 0-1.54-.703-1.54-1.573l.134-29.421c.034-.87.737-1.54 1.573-1.54Z" fill="#F4B74A"/><path opacity=".92" d="m391.409 220.906 22.158.1c.401 0 .703.335.703.736l-.101 23.53c0 .402-.335.703-.736.703l-22.158-.1c-.402 0-.703-.335-.703-.737l.101-23.53c0-.401.334-.702.736-.702Z" fill="#fff"/><path opacity=".23" d="m417.222 221.641 50.842.235c.235 0 .402.167.402.401v2.678a.387.387 0 0 1-.402.402l-50.842-.235a.387.387 0 0 1-.402-.401v-2.678c0-.234.168-.402.402-.402ZM417.185 226.795l50.842.234c.234 0 .402.168.402.402v2.678a.387.387 0 0 1-.402.401l-50.842-.234a.387.387 0 0 1-.402-.402v-2.677c0-.234.168-.402.402-.402ZM417.163 232.047l50.843.234c.234 0 .401.168.401.402v2.677a.386.386 0 0 1-.401.402l-50.843-.234a.387.387 0 0 1-.401-.402v-2.677c0-.201.201-.402.401-.402ZM417.128 237.137l50.842.234c.235 0 .402.167.402.402v2.677a.386.386 0 0 1-.402.402l-50.842-.234a.387.387 0 0 1-.401-.402v-2.678c0-.234.2-.401.401-.401ZM417.061 242.224l38.726.2c.201 0 .335.168.335.335v2.778a.336.336 0 0 1-.335.335l-38.726-.201a.335.335 0 0 1-.334-.335v-2.778c0-.2.133-.334.334-.334Z" fill="#fff"/><path opacity=".32" d="M393.854 230.776c2.779.971 8 2.778 8 2.778l-2.678-8.033a8.478 8.478 0 0 0-5.322 5.255Z" fill="#FAAE41"/><path opacity=".32" d="m402.219 233.388 7.564-3.816c-1.874-3.715-6.192-5.523-10.141-4.251l2.577 8.067Z" fill="#3C8B90"/><path opacity=".32" d="M401.785 242.489a8.77 8.77 0 0 0 4.887-1.506l-4.853-6.962-7.967-2.912c-1.606 4.385.67 9.271 5.055 10.878.937.301 1.907.469 2.878.502Z" fill="#85CAAB"/><path opacity=".32" d="M407.12 240.783a8.483 8.483 0 0 0 2.711-10.777l-7.564 3.815 4.853 6.962Z" fill="#61AF8E"/><path opacity=".32" d="M609.418 255.581H500.069c-7.397 0-13.388-5.992-13.388-13.389V132.843c0-7.397 5.991-13.388 13.388-13.388h109.349c7.397 0 13.389 5.991 13.389 13.388v109.349c0 7.397-5.992 13.389-13.389 13.389Z" fill="#F6B58F"/><path d="M518.981 149.375a5.522 5.522 0 0 0 5.522-5.522 5.522 5.522 0 1 0-11.045 0 5.522 5.522 0 0 0 5.523 5.522ZM587.828 144.588h-58.741a.742.742 0 0 1-.736-.736c0-.402.334-.736.736-.736h58.741c.402 0 .737.334.737.736a.743.743 0 0 1-.737.736ZM575.815 159.015h-45.554a.743.743 0 0 1-.737-.736c0-.402.335-.737.737-.737h45.554c.401 0 .736.335.736.737a.743.743 0 0 1-.736.736ZM584.684 170.026h-54.423a.743.743 0 0 1-.737-.736c0-.402.335-.737.737-.737h54.423c.402 0 .737.335.737.737a.743.743 0 0 1-.737.736ZM518.981 160.955a4.15 4.15 0 0 1-4.15-4.15c0-2.276 1.874-4.151 4.15-4.151a4.15 4.15 0 0 1 4.151 4.151c0 2.276-1.875 4.15-4.151 4.15Zm0-7.765a3.585 3.585 0 0 0-3.581 3.581 3.586 3.586 0 0 0 3.581 3.582 3.586 3.586 0 0 0 3.582-3.582 3.585 3.585 0 0 0-3.582-3.581ZM518.981 173.474a4.15 4.15 0 0 1-4.15-4.15c0-2.276 1.874-4.151 4.15-4.151a4.15 4.15 0 0 1 4.151 4.151c0 2.276-1.875 4.15-4.151 4.15Zm0-7.765a3.585 3.585 0 0 0-3.581 3.581 3.586 3.586 0 0 0 3.581 3.582 3.586 3.586 0 0 0 3.582-3.582 3.585 3.585 0 0 0-3.582-3.581ZM518.981 185.724a4.15 4.15 0 0 1-4.15-4.15 4.15 4.15 0 1 1 8.301 0 4.15 4.15 0 0 1-4.151 4.15Zm0-7.732a3.586 3.586 0 0 0-3.581 3.582 3.586 3.586 0 0 0 3.581 3.581 3.586 3.586 0 0 0 3.582-3.581 3.586 3.586 0 0 0-3.582-3.582ZM575.815 182.646h-45.554a.743.743 0 0 1-.737-.736c0-.402.335-.736.737-.736h45.554c.401 0 .736.334.736.736a.742.742 0 0 1-.736.736ZM518.981 203.63a5.522 5.522 0 1 0-.001-11.045 5.522 5.522 0 0 0 .001 11.045ZM587.828 198.811h-58.741a.742.742 0 0 1-.736-.736c0-.402.334-.736.736-.736h58.741c.402 0 .737.334.737.736a.743.743 0 0 1-.737.736ZM575.815 211.866h-45.554a.744.744 0 0 1-.737-.737c0-.401.335-.736.737-.736h45.554c.401 0 .736.335.736.736a.743.743 0 0 1-.736.737ZM584.684 223.915h-54.423a.743.743 0 0 1-.737-.736c0-.402.335-.737.737-.737h54.423c.402 0 .737.335.737.737a.743.743 0 0 1-.737.736ZM518.981 215.346a4.15 4.15 0 0 1-4.15-4.15c0-2.276 1.874-4.151 4.15-4.151a4.15 4.15 0 0 1 4.151 4.151c0 2.276-1.875 4.15-4.151 4.15Zm0-7.732a3.586 3.586 0 0 0-3.581 3.582 3.586 3.586 0 0 0 3.581 3.581 3.586 3.586 0 0 0 3.582-3.581 3.586 3.586 0 0 0-3.582-3.582ZM518.981 227.396a4.15 4.15 0 0 1-4.15-4.15 4.15 4.15 0 1 1 8.301 0c0 2.276-1.875 4.15-4.151 4.15Zm0-7.732a3.586 3.586 0 0 0-3.581 3.582 3.586 3.586 0 0 0 3.581 3.581 3.586 3.586 0 0 0 3.582-3.581 3.586 3.586 0 0 0-3.582-3.582ZM518.981 239.979a4.15 4.15 0 0 1 0-8.301 4.15 4.15 0 0 1 4.151 4.15c0 2.276-1.875 4.151-4.151 4.151Zm0-7.766a3.586 3.586 0 0 0-3.581 3.582 3.586 3.586 0 0 0 3.581 3.581 3.586 3.586 0 0 0 3.582-3.581 3.586 3.586 0 0 0-3.582-3.582ZM575.815 236.901h-45.554a.743.743 0 0 1-.737-.736c0-.402.335-.737.737-.737h45.554c.401 0 .736.335.736.737a.743.743 0 0 1-.736.736Z" fill="#fff"/><path opacity=".2" d="m616.521 77.947-9.807 23.63-.033.168-7.33 17.706-2.477 5.891-18.175 43.947-5.221 12.652-6.695 16.167-5.991 14.426-4.552 11.011-5.221 12.619-8.033 19.413-6.527 15.798h-36.35l6.561-15.798 8.535-20.651.468-1.138v-.034l2.678-6.393 2.878-6.995 9.205-22.258 6.694-16.167 5.255-12.652 4.552-11.012 5.958-14.426 7.665-18.509 2.443-5.891 7.33-17.706.067-.168 9.774-23.63h36.349ZM645 86.18v59.077l-16.434 39.696-5.757 13.891-23.463 56.733-6.527 15.798H556.47l6.527-15.798 8.033-19.413 5.221-12.619 10.51-25.437 30.09-72.733 1.138-2.778 7.933-19.179.77-1.841 9.773-23.63h1.975c3.615 0 6.56 3.682 6.56 8.234Z" fill="#fff"/><path opacity=".32" d="M413.519 234.326c-.033.134-.033.301-.067.435-.837 4.284-4.82 7.832-8.568 8.636-.134.033-.235.033-.368.067-.134.033-.302.033-.436.067h-.167c-.268.033-.669.033-1.138.033h-.067c-.971.034-2.41.034-4.485.034 0 0-1.673 0-3.146.133 0 0-.101 0-.235.034-.167 0-.803.067-1.338.1-.435.034-.737.034-.737.034l-1.305.067.636-1.138c.435-.77.803-1.908 1.138-3.414a3.659 3.659 0 0 0-.268-2.209 10.787 10.787 0 0 1-.87-5.891c.636-4.82 4.619-8.736 9.472-9.272.134 0 .301-.033.435-.033.101 0 .235 0 .335-.034h1.272c.067 0 .134 0 .234.034h.201c.167.033.301.033.469.067.033 0 .1 0 .167.033.033 0 .067 0 .1.034h.034c.067 0 .134.033.201.033.033 0 .1.034.134.034h.1l.402.1.401.1c.168.067.335.101.502.168h.034c.167.067.334.134.468.201.168.067.335.134.502.234 0 0 .034 0 .034.033h.033c.034.034.067.034.101.067 0 0 .033 0 .033.034.067.033.168.067.235.134.167.067.301.167.468.267.034.034.067.034.134.067a11.477 11.477 0 0 1 2.008 1.607c2.31 2.41 3.381 5.724 2.912 9.104Z" fill="#A4E0CF"/><path opacity=".21" d="M413.513 234.327c-.034.134-.034.302-.067.435-.837 4.285-4.82 7.833-8.569 8.636-.134.033-.234.033-.368.067-.134.033-.301.033-.435.067h-.167c-.369.033-.77.067-1.138.033h-.502c.267 0 .502-.033.769-.067 4.82-.535 8.77-4.418 9.439-9.204.469-3.381-.602-6.694-2.979-9.104a10.215 10.215 0 0 0-3.213-2.276 10.719 10.719 0 0 0-3.983-.971h1.238c.067 0 .134 0 .235.034h.201c.167.033.301.033.468.067a.37.37 0 0 1 .168.033c.033 0 .066 0 .1.033.067 0 .134.034.201.034s.134.033.201.033h.067l.401.101.402.1c.167.067.335.101.502.168h.033c.168.067.335.133.469.2.167.067.335.134.502.235l.201.1s.033 0 .033.034c.067.033.168.067.235.133.167.067.301.168.468.268.034.034.067.034.134.067a11.385 11.385 0 0 1 2.008 1.607c2.343 2.443 3.414 5.757 2.946 9.137Z" fill="#000"/><path opacity=".15" d="M393.593 243.663c.435-.769.803-1.907 1.138-3.414a3.66 3.66 0 0 0-.268-2.209c-.837-1.841-1.104-3.882-.87-5.891.636-4.853 4.619-8.735 9.472-9.271a10.715 10.715 0 0 1 5.456.77 10.715 10.715 0 0 0-7.029-1.573c-4.853.535-8.836 4.451-9.472 9.271-.268 2.008.033 4.05.87 5.891.335.736.435 1.506.268 2.209-.335 1.473-.703 2.644-1.138 3.414l-.636 1.138 1.305-.067c.034 0 .301-.033.737-.033l.167-.235Z" fill="#fff"/><path opacity=".32" d="M408.088 234.894a1.305 1.305 0 1 0 0-2.61 1.305 1.305 0 0 0 0 2.61ZM402.504 234.892a1.305 1.305 0 1 0 0-2.61 1.305 1.305 0 0 0 0 2.61ZM396.942 234.892a1.305 1.305 0 1 0 0-2.61 1.305 1.305 0 0 0 0 2.61Z" fill="#26252B"/><g opacity=".32"><path opacity=".41" d="M408.288 234.86h-.2a1.308 1.308 0 0 1-1.306-1.306c0-.703.569-1.305 1.306-1.305h.2c-.636.1-1.104.636-1.104 1.272 0 .703.468 1.238 1.104 1.339Z" fill="#fff"/></g><g opacity=".32"><path opacity=".41" d="M402.704 234.859h-.2a1.308 1.308 0 0 1-1.306-1.306c0-.703.569-1.305 1.306-1.305h.2c-.636.1-1.104.636-1.104 1.272 0 .703.468 1.238 1.104 1.339Z" fill="#fff"/></g><g opacity=".32"><path opacity=".41" d="M397.143 234.859h-.201a1.307 1.307 0 0 1 0-2.611h.201c-.636.1-1.105.636-1.105 1.272 0 .703.469 1.238 1.105 1.339Z" fill="#fff"/></g><path opacity=".14" d="M117.181 224.843H61.184v-20.394h49.501v-1.612H83.19v-19.639h27.495v-1.611h-46.53v-19.992h-1.611v19.992h-22.61v1.611h41.645v19.639H8.058v1.612h51.464v22.006H76.442v20.797h1.612v-20.797h39.127v-1.612Z" fill="#A4A4A5"/><path opacity=".1" d="M198.557 68.687h-60.831V46.53h53.781v-1.763h-29.862v-21.3h29.862v-1.763h-50.508V0h-1.762v21.704h-24.574v1.762h45.22v21.301H80.067v1.763h55.896v23.869h1.763v.05h16.618v22.61h1.762V70.45h42.451v-1.762Z" fill="#A4A4A5"/><path opacity=".14" d="M5.388 433.371h632.23a5.395 5.395 0 0 0 5.388-5.389v-.402a5.395 5.395 0 0 0-5.388-5.389H5.388A5.395 5.395 0 0 0 0 427.58v.402a5.395 5.395 0 0 0 5.388 5.389Z" fill="#AAA"/><path d="M246.546 211.952h-12.035v22.408h12.035v-22.408Z" fill="#E7A584"/><path d="m222.98 403.157-1.208 16.869h-8.41l1.36-21.049 8.258 4.18Z" fill="#F6B58F"/><path d="m234.563 418.163-8.309-2.518c-1.108-.403-3.021-.655-4.179-.504-1.763.152-2.216.353-3.878.957-2.216.806-4.431-.755-4.431-.755l-.504 5.892c-.05.554.353 1.007.906 1.007l19.64-.353c2.417-.05 3.021-2.971.755-3.726Z" fill="#75747A"/><path opacity=".1" d="M235.82 420.63c-.201-.453-.604-.856-1.259-1.107l-8.309-2.518c-1.107-.403-3.021-.605-4.179-.504-1.763.151-2.216.353-3.878.957-2.215.806-4.431-.755-4.431-.755l-.453 5.035c-.051-.151-.101-.302-.101-.453l.504-5.892s2.266 1.561 4.431.756c1.662-.605 2.115-.806 3.877-.957 1.159-.101 3.072.151 4.18.503l8.309 2.518c1.309.403 1.662 1.511 1.309 2.417Z" fill="#000"/><path d="m270.667 403.106 3.928 17.726 8.309-1.309-4.079-16.417h-8.158Z" fill="#F6B58F"/><path d="m294.235 418.113-8.309-2.518c-1.108-.403-3.021-.655-4.18-.504-1.762.151-2.215.353-3.877.957-2.216.806-4.431-.755-4.431-.755l-.504 5.891c-.05.554.352 1.007.906 1.007l19.64-.352c2.417-.05 3.021-2.921.755-3.726Z" fill="#75747A"/><path opacity=".1" d="M295.394 420.731c-.201-.403-.604-.755-1.208-.957l-8.309-2.517c-1.108-.403-3.022-.655-4.18-.504-1.762.151-2.216.352-3.877.957-2.216.805-4.432-.756-4.432-.756l-.403 4.734c-.1-.151-.1-.302-.1-.504l.503-5.891s2.266 1.561 4.432.755c1.661-.604 2.115-.806 3.877-.957 1.158-.1 3.072.151 4.18.504l8.309 2.518c1.41.453 1.712 1.712 1.208 2.618Z" fill="#000"/><path d="M218.951 302.04c-.654-.352.101 1.108.353 2.568.403 2.367-.101 4.885-1.41 6.899-.453.655-.806 1.209-.957 1.36-.403.403-5.287-6.647-5.388-7.201-.151-1.209.201-4.935.554-7.705 0-.151 0-.252-.051-.403-1.812-4.431-5.539-14.754-5.589-23.718a5.4 5.4 0 0 1 1.007-3.172l7.805 1.359s.051.403.101 1.108c.252 3.626 1.158 15.409 2.115 24.222 0 .151.05.252.151.403 1.36 1.813 3.374 4.381 3.626 4.784.302.604-.957.251-2.317-.504Z" fill="#F6B58F"/><path opacity=".1" d="M218.952 302.04c-.655-.352.101 1.058.352 2.568.403 2.417-.1 4.885-1.41 6.899-.453.655-.805 1.209-.906 1.36-.151.151-.755-.554-1.561-1.561a10.063 10.063 0 0 0 1.309-6.698c-.252-1.46-.957-2.92-.352-2.568 1.359.755 2.618 1.108 2.266.453-.202-.403-2.216-2.971-3.626-4.784a.567.567 0 0 1-.151-.402c-.453-4.382-.906-9.568-1.309-14.05-.353-4.482-.655-8.359-.806-10.172-.05-.705-.05-1.108-.05-1.108l-5.489-.957c.1-.151.151-.251.252-.403l7.805 1.36s.05.403.05 1.108c.151 1.813.453 5.69.806 10.172.352 4.482.856 9.618 1.309 14.05 0 .151.051.251.151.402 1.36 1.813 3.374 4.381 3.626 4.784.352.655-.906.302-2.266-.453Z" fill="#000"/><path d="M288.694 240.101c-.1.755.957-.453 2.267-1.259 2.064-1.259 4.582-1.662 6.949-1.208.805.151 1.41.302 1.611.352.504.201-4.28 7.352-4.733 7.604-1.058.604-4.684 1.611-7.352 2.316a.814.814 0 0 0-.353.202c-3.475 3.273-14.452 11.532-22.812 14.855-1.057.403-2.215.504-3.323.201l-1.561-7.754s.352-.152 1.007-.504c3.273-1.561 16.668-7.705 24.524-11.784.1-.05.251-.151.302-.302a311.991 311.991 0 0 1 3.122-5.136c.403-.453.554.856.352 2.417Z" fill="#F6B58F"/><path opacity=".1" d="M294.739 245.64c-1.058.604-4.684 1.612-7.352 2.317-.101.05-.252.1-.353.201-3.475 3.273-14.452 11.532-22.812 14.855-1.057.403-2.215.504-3.323.202l-.302-1.41c.705 0 1.41-.101 2.064-.353 8.36-3.273 19.337-11.532 22.812-14.855a.816.816 0 0 1 .352-.202c2.72-.705 6.345-1.712 7.353-2.316.352-.201 3.222-4.431 4.33-6.496.101 0 .252.05.353.05.805.151 1.41.302 1.611.353.504.252-4.28 7.402-4.733 7.654Z" fill="#000"/><path d="m251.129 270.718 25.783-13.697-4.029-8.208-8.107 3.626-4.079 1.913c-.403-4.784-2.065-18.481-2.72-19.538-.805-1.309-3.726 11.229-3.726 11.229l-1.41 11.985-1.511.705-.201 11.985Z" fill="#5553FF"/><path opacity=".1" d="m276.912 257.021-25.783 13.697.101-4.935 22.509-11.934-2.216-4.432 1.36-.554 4.029 8.158Z" fill="#fff"/><path d="M225.498 273.135c-12.891 22.61-13.646 39.077-12.287 79.413 0 3.374-2.568 13.747-3.273 17.877-.554 3.323-.05 27.797 3.978 40.335l9.165-.05c3.122-11.33 12.438-82.938 14.805-96.383 13.395 16.064 13.093 67.629 33.991 96.433l9.366-.1c-1.107-15.51-21.401-127.051-29.962-135.359l-25.783-2.166Z" fill="#75747A"/><path opacity=".09" d="m219.958 410.76-6.094.051c-4.028-12.539-4.481-37.013-3.978-40.336.705-4.18 3.273-14.553 3.273-17.877-1.359-40.336-.604-56.853 12.287-79.412l5.792.503c-12.64 22.359-13.395 38.876-12.036 78.909 0 3.374-2.568 13.748-3.273 17.877-.453 3.273 0 27.696 4.029 40.285Z" fill="#000"/><path opacity=".1" d="m281.142 410.71-9.366.101c0-.051-.05-.051-.05-.051h.755c-1.108-15.51-21.402-127.05-29.962-135.359l-17.474-1.51c.151-.252.252-.454.403-.705l25.732 2.266c8.561 8.208 28.855 119.698 29.962 135.258Z" fill="#fff"/><path d="M259.59 251.683c-.756 7.906-2.719 17.222-4.834 23.215-.051.101-.051.201-.101.302-.101.252-.151.453-.252.655a22.047 22.047 0 0 1-1.259 2.82c-18.078 5.64-29.308-1.712-29.308-1.712.051-1.008.101-1.964.152-2.921.201-3.374.352-6.647.302-9.518-.051-.705-.051-1.359-.101-2.064-.252-2.568-.806-4.734-2.014-6.244-.202-.252-.554-.101-.605.151 0 .251-.05.503-.1.755-.806 6.446-5.64 18.833-5.64 18.833-.302-.554-1.31-.906-2.619-1.107-3.021-.454-7.503-.202-7.503-.202 2.266-6.294 6.798-36.458 18.884-43.71.101-.05.252-.151.403-.201 3.827-2.216 10.222-4.331 10.222-4.331 5.64 3.576 11.28.957 11.28.957s7.05 1.41 9.266 2.518c.906.453 1.762 2.669 2.467 5.086a49.23 49.23 0 0 1 1.36 16.718Z" fill="#5553FF"/><path opacity=".1" d="m208.779 273.135 4.381 1.813c-3.021-.453-7.503-.201-7.503-.201 2.266-6.295 6.798-36.459 18.884-43.71.101-.05.252-.151.403-.201-8.561 11.078-14.251 36.911-16.165 42.299ZM245.691 276.056a22.808 22.808 0 0 1-1.208 2.669c-3.223 1.007-6.194 1.612-8.964 1.914-7.453-.856-11.683-3.626-11.683-3.626.051-1.007.101-1.964.151-2.921.202-3.374.353-6.647.303-9.517-.051-.705-.051-1.36-.101-2.065-.252-2.568-.806-4.733-2.014-6.244-.202-.252-.554-.101-.605.151a3.9 3.9 0 0 1-.1.755c-.303-.906-.353-1.611-.303-2.215.202-2.166 3.223-2.669 4.281-.756 2.367 4.23 4.028 10.827 3.726 17.978-.05 0 6.043 4.028 16.517 3.877Z" fill="#000"/><path opacity=".1" d="M259.59 251.683c-.756 7.906-2.72 17.222-4.835 23.214-.251.655-.453 1.209-.705 1.763-.1.252-.201.453-.302.655-.201.503-.453.956-.654 1.359-5.036 1.561-9.518 2.115-13.395 2.115h-1.108c-.302 0-.554 0-.806-.05-.252 0-.503-.051-.755-.051-.554-.05-1.058-.1-1.561-.151 2.769-.302 5.74-.906 8.963-1.913.403-.756.806-1.662 1.209-2.669 2.266-5.892 4.431-15.963 5.237-24.373.504-5.589.05-11.28-1.511-16.668-.705-2.417-1.561-4.633-2.467-5.086-1.058-.503-3.173-1.108-5.137-1.611 2.669-.051 4.532-.907 4.532-.907s7.05 1.41 9.266 2.518c.907.453 1.763 2.669 2.468 5.086 1.611 5.489 2.064 11.179 1.561 16.769Z" fill="#fff"/><path d="m253.647 201.427-5.237 3.727-2.871 6.999-5.035-2.366s-3.223 1.661-3.676 2.719c-.101.201-.252.654-.403 1.259-.252.755-.504 1.813-.806 2.82-.554 2.064-1.158 4.079-1.309 4.129-.302.05-1.007-.151-1.007-1.158s-.756-3.273-3.878-6.093c-3.122-2.77-3.676-9.971-3.676-9.971a8.083 8.083 0 0 1-2.467.101c-4.482-.403-8.209-3.979-8.712-8.41-.806-6.748 5.388-12.287 12.237-10.474 4.129 1.108 6.949 4.985 6.949 9.316v.05l.503-.05c1.511-1.058 5.59-1.662 7.755-1.964 1.158-.151 2.367-.151 3.576.101 7.251 1.46 8.057 9.265 8.057 9.265Z" fill="#26252B"/><path opacity=".1" d="m253.647 201.427-2.316 1.662c-.453-2.115-2.216-7.151-7.957-8.309-1.158-.252-2.366-.201-3.575-.05-2.165.251-6.244.906-7.755 1.964l-.503.05v-.101c0-4.28-2.82-8.208-6.95-9.316-3.374-.906-6.596-.05-8.862 1.914 2.064-3.576 6.395-5.741 11.028-4.482 4.129 1.108 6.949 4.985 6.949 9.316v.05l.503-.05c1.511-1.058 5.59-1.662 7.755-1.964 1.159-.151 2.367-.151 3.576.101 7.301 1.41 8.107 9.215 8.107 9.215Z" fill="#000"/><path d="M237.633 215.426c3.021 3.122 6.748 5.439 9.417 5.439 1.158 0 2.215-.202 3.122-.554 3.223-1.259 5.036-4.633 5.036-9.467 0-3.928-.907-8.863-2.871-11.985-1.41 2.115-6.445 9.467-9.668 9.467-3.777 0-5.036-5.036-7.554-2.518-2.467 2.468 1.108 8.158 2.417 9.518l.101.1Z" fill="#F6B58F"/><path opacity=".1" d="M246.547 220.815v1.611c-.353.05-.705.05-1.108.05-2.669 0-6.396-2.316-9.417-5.438l-.101-.101c-.1-.101-.201-.201-.302-.352.302-1.008.554-2.015.806-2.82.453.654.856 1.208 1.158 1.51l.101.101c2.769 2.921 6.244 5.187 8.863 5.439Z" fill="#000"/><path opacity=".1" d="M255.208 210.793c0 4.835-1.763 8.209-5.036 9.468-.906.352-1.964.553-3.122.553-.453 0-.957-.05-1.46-.201.403-.05.806-.201 1.208-.352 3.223-1.259 5.036-4.633 5.036-9.468 0-2.87-.504-6.244-1.511-9.064.907-1.208 1.612-2.266 2.015-2.87 1.964 3.122 2.87 8.057 2.87 11.934Z" fill="#fff"/><path d="M148.25 316.895h-7.15v105.296h7.15V316.895Z" fill="#824E37"/><path d="M418.414 322.787H132.992a3.428 3.428 0 0 1-3.425-3.424v-4.079a3.427 3.427 0 0 1 3.425-3.424h285.422a3.427 3.427 0 0 1 3.424 3.424v4.079c.051 1.863-1.51 3.424-3.424 3.424Z" fill="#B9663B"/><path opacity=".1" d="M421.889 315.385v3.827a3.588 3.588 0 0 1-3.575 3.575H133.093a3.588 3.588 0 0 1-3.575-3.575v-3.827c.05 1.963 1.611 3.524 3.575 3.524h285.171c1.963-.05 3.575-1.611 3.625-3.524Z" fill="#fff"/><path opacity=".1" d="M421.889 315.385v4.079c-.1-1.863-1.662-3.324-3.575-3.324H133.093c-1.914 0-3.424 1.461-3.575 3.324v-4.079a3.588 3.588 0 0 1 3.575-3.575h285.171c2.014 0 3.625 1.561 3.625 3.575Z" fill="#000"/><path d="M412.07 316.895h-7.151v105.296h7.151V316.895Z" fill="#824E37"/><path opacity=".1" d="M546.37 376.669h-8.208v11.884h8.208v-11.884Z" fill="#000"/><g opacity=".6"><path d="M533.364 384.152V332.69s-17.886 24.031 0 51.462Z" fill="#3485F4"/><path d="M533.367 332.689v51.436c17.886-27.404 0-51.436 0-51.436Z" fill="#1D5394"/><path d="M513.547 356.301s17.363 10.878 13.44 29.104c-.026-.026-16.866-10.25-13.44-29.104Z" fill="#1F589A"/><path d="M528.843 365.639c8.08-20.292-6.773-33.629-6.773-33.629s-8.524 18.044 6.773 33.629Z" fill="#152E59"/><path d="M532.236 403.684c13.676-26.28-8.524-42.44-8.524-42.44s-14.226 23.482 8.524 42.44Z" fill="#152E59"/><path d="M532.242 403.684c.079-.131.157-.288.21-.418-20.397-17.468-9.937-38.544-8.264-41.63-.313-.261-.496-.392-.496-.392s-14.2 23.482 8.55 42.44Z" fill="#1D5394"/><path d="m533.96 394.584 14.565-33.706s-18.514 10.695-14.565 33.706Z" fill="#3485F4"/><path d="m548.534 360.878-14.565 33.706c19.481-12.892 14.565-33.706 14.565-33.706Z" fill="#1D5394"/><path d="M542.837 399.054h-24.633v6.172h24.633v-6.172Z" fill="#4E86C5"/><path d="m519.877 405.225.078.758 1.674 16.762h17.52l2.118-16.762.079-.758h-21.469Z" fill="#4E86C5"/><path opacity=".1" d="M524.817 399.054h-1.882v6.172h1.882v-6.172Z" fill="#000"/><path opacity=".1" d="m523.817 405.224.053.759.889 16.761h1.647l-.889-16.761-.026-.759h-1.674Z" fill="#000"/><path opacity=".1" d="m519.823 405.225.079.942h17.101l.105-.942h-17.285Z" fill="#000"/><path opacity=".1" d="M534.911 422.745h4.289l2.092-16.762.104-.759h-4.288l-.079.759-2.118 16.762Z" fill="#000"/></g><path d="M384.273 195.888c-.756-.201-2.921-1.007-2.569-4.18 0-.201.051-.403.101-.604.051-.151.101-.453.101-.806.453.454.906.856 1.511 1.159 1.762 1.057 3.827 1.158 5.64.553-.202.504-.403 1.008-.454 1.562-.604 3.323-3.575 2.517-4.33 2.316Z" fill="#A0A0A0"/><path opacity=".1" d="M389.057 192.01a6.694 6.694 0 0 0-.352.907c-1.763.554-3.777.403-5.489-.604a5.113 5.113 0 0 1-1.41-1.108c0-.051 0-.101.05-.101.05-.151.101-.453.101-.806.453.454.906.856 1.51 1.159 1.713 1.057 3.777 1.208 5.59.553Z" fill="#000"/><path d="M388.402 194.175c.051-.151.051-.301.101-.452 0 .151-.05.301-.101.452Z" fill="#000"/><path d="M396.812 183.651a10.132 10.132 0 0 1-3.374 3.475c-.201.101-.403.252-.604.352-.05.051-2.619 1.964-3.777 4.583-1.813.604-3.877.503-5.64-.554a6.692 6.692 0 0 1-1.51-1.158c.05-1.108-.202-3.122-1.813-5.741-.101-.101-.151-.252-.252-.403-2.065-3.072-2.317-7.15-.353-10.524 2.77-4.784 8.863-6.396 13.647-3.626 4.784 2.719 6.446 8.812 3.676 13.596Z" fill="#FFBD16"/><path opacity=".1" d="M383.064 189.694c.051-1.007-.201-2.82-1.662-5.187-.05-.101-.151-.252-.201-.352-1.813-2.77-2.065-6.446-.302-9.518 2.467-4.28 8.007-5.791 12.287-3.273.201.101.403.252.604.403-4.179-2.015-9.265-.453-11.632 3.625-1.763 3.072-1.561 6.748.302 9.518.101.101.151.252.201.352 1.461 2.418 1.662 4.18 1.662 5.187.252.202-.856-.352-1.259-.755Z" fill="#fff"/><path opacity=".1" d="M396.812 183.651a10.14 10.14 0 0 1-3.374 3.475c-.202.101-.403.252-.605.352-.05.051-2.618 1.964-3.776 4.583-1.813.604-3.878.503-5.64-.554a6.336 6.336 0 0 1-.957-.655 6.823 6.823 0 0 0 4.582.051c1.159-2.569 3.727-4.532 3.777-4.583.202-.101.403-.201.605-.352a10.147 10.147 0 0 0 3.373-3.475c2.569-4.431 1.36-10.021-2.669-12.992.353.151.706.302 1.058.504 4.734 2.769 6.395 8.862 3.626 13.646Z" fill="#000"/><path d="M390.265 166.077s-1.158-1.309-.705-2.719c.453-1.41 1.461-.554 1.36.251-.101.806-.655 2.468-.655 2.468ZM379.639 168.746s-1.762.251-2.669-.907c-.906-1.158.353-1.51.957-1.007.655.554 1.712 1.914 1.712 1.914ZM375.863 176.349s-1.561.856-2.769.101c-1.259-.755-.202-1.561.553-1.259.705.252 2.216 1.158 2.216 1.158ZM399.632 171.616s1.511.906 2.769.201c1.259-.705.252-1.51-.503-1.309-.705.252-2.266 1.108-2.266 1.108ZM400.237 180.076s1.108 1.41 2.518 1.209c1.46-.202.806-1.31 0-1.36-.806-.05-2.518.151-2.518.151Z" fill="#FFBD16"/><path d="M310.601 281.394h43.76l6.244 30.415h-41.242l-8.762-30.415Z" fill="#A5A4A4"/><path d="M311.809 282.149h41.645l5.891 28.905h-39.177l-8.359-28.905Z" fill="#EDE4E4"/><path d="m319.362 311.809 38.02.504 23.013-1.058-19.79.554h-41.243Z" fill="#A5A4A4"/><path d="m353.102 286.984-38.825.503-1.057-4.179 39.631-.504.251 4.18Z" fill="#CCE0FF"/><path d="m354.36 291.465-38.775.453-.806-2.971 39.631-.503-.05 3.021ZM333.764 296.4l-16.668.202-.856-2.971 16.92-.252.604 3.021ZM334.62 300.177l-16.366.201-.856-2.971 16.366-.201.856 2.971ZM335.628 304.356l-15.913.202-.856-3.022 16.014-.201.755 3.021Z" fill="#C4C4C6"/><path d="m352.397 398.07 7.201 17.575 13.244-1.108-6.949-18.682-13.496 2.215ZM378.279 392.833l4.029 16.417 11.834.805-3.676-17.423-12.187.201Z" fill="#7B3E2C"/><path d="m368.158 412.019 9.77-5.388c1.309-.806 3.625-1.561 5.086-1.712 2.215-.201 2.87-.05 5.035.353 2.921.554 5.388-2.065 5.388-2.065l2.015 7.705c.201.705-.202 1.46-.856 1.561l-24.574 4.23c-3.123.604-4.533-3.123-1.864-4.684Z" fill="#26252B"/><path opacity=".1" d="M366.85 414.99c-.05-.856.353-1.762 1.36-2.366l9.769-5.389c1.309-.805 3.626-1.561 5.086-1.712 2.216-.201 2.87-.05 5.036.353 2.921.554 5.388-2.065 5.388-2.065l1.964 7.503c0-.1 0-.251-.05-.402l-2.015-7.705s-2.467 2.619-5.388 2.065c-2.216-.403-2.82-.554-5.036-.353-1.51.151-3.776.906-5.086 1.712l-9.769 5.388c-1.208.705-1.561 1.964-1.259 2.971Z" fill="#F2F5F7"/><path opacity=".1" d="m369.972 416.753 24.574-4.23c.655-.101 1.058-.856.906-1.561l-24.272 4.23c-2.215.352-3.525-1.41-3.172-3.072-2.468 1.612-1.007 5.137 1.964 4.633Z" fill="#000"/><path d="m343.786 418.616 11.028-5.791c1.46-.856 4.079-1.662 5.74-1.813 2.468-.151 3.223 0 5.64.504 3.273.705 6.094-2.216 6.094-2.216l2.064 8.712c.202.806-.302 1.611-1.007 1.712l-27.596 4.23c-3.424.554-4.935-3.626-1.963-5.338Z" fill="#26252B"/><path opacity=".1" d="M372.338 409.35s-2.82 2.871-6.093 2.216c-2.467-.503-3.172-.654-5.64-.503-1.662.1-4.28.956-5.74 1.812l-11.029 5.791c-1.41.806-1.812 2.166-1.51 3.324-.051-.957.453-2.014 1.611-2.669l11.028-5.791c1.511-.856 4.079-1.662 5.741-1.813 2.467-.151 3.223 0 5.64.504 3.273.705 6.143-2.216 6.143-2.216l-.151-.655Z" fill="#F2F5F7"/><path opacity=".1" d="m345.751 424.004 27.595-4.23c.756-.101 1.209-.906 1.007-1.712l-27.293 4.18c-2.468.352-3.928-1.662-3.475-3.525-2.719 1.813-1.208 5.791 2.166 5.287Z" fill="#000"/><path d="M407.789 247.453c3.424.504 6.748 4.734 8.46 7.302a54.82 54.82 0 0 0 3.626 4.834l7.603 19.388a10.091 10.091 0 0 1-1.259 9.668l-12.589 17.122s-7.805-3.223-8.258-8.057l14.049-13.748-19.74-16.869a10.838 10.838 0 0 1-4.28-10.323c.806-5.993 6.345-10.173 12.388-9.317Z" fill="#E1143D"/><path d="M421.335 317.6c0 8.108-5.69 14.705-12.69 14.705 0 0-18.934-1.31-22.459 2.618-1.208 1.36 7.655 61.385 7.655 61.385l-18.935 3.223s-10.675-48.494-11.934-54.939c-1.309-6.446-7.705-26.236 6.597-29.207 13.848-2.871 32.731-10.726 33.89-11.18.05 0 .05-.05.05-.05 1.561-.806 3.273-1.208 5.086-1.208 7.1 0 12.74 6.546 12.74 14.653Z" fill="#26252B"/><path opacity=".1" d="M369.971 344.592c1.158 5.841 10.071 46.429 11.683 53.781l-6.698 1.158s-10.675-48.494-11.934-54.939c-1.31-6.446-7.705-26.236 6.596-29.207 13.849-2.871 32.732-10.726 33.891-11.18.05 0 .05-.05.05-.05 1.561-.806 3.273-1.208 5.086-1.208 1.209 0 2.367.201 3.475.553-.554.202-1.058.403-1.612.655l-.05.05c-1.158.454-20.042 8.309-33.89 11.18-14.302 2.971-7.856 22.761-6.597 29.207Z" fill="#000"/><path d="m379.893 240.907.755 9.064h17.02l-5.69-11.783-12.085 2.719Z" fill="#70382B"/><path d="M331.751 270.617s-12.891-6.294-14.754-8.611c-1.864-2.316 8.963-.604 13.596-.302 0 0-4.331-7.704-2.568-6.697 1.41.806 7.05 6.445 8.51 9.165 1.46 2.769 2.77 4.179 2.77 4.179l-4.281 4.281-3.273-2.015Z" fill="#7B3E2C"/><path opacity=".1" d="m337.089 270.567-2.065 2.065-3.273-2.014s-12.892-6.295-14.755-8.611c-.805-.957.705-1.209 3.022-1.159 3.575 2.72 13.797 7.705 13.797 7.705l3.274 2.014Z" fill="#fff"/><path d="M375.209 209.988a4.047 4.047 0 0 0-2.065 2.719c-.453 1.863-.957 4.633-.302 5.842 1.007 1.964 2.165 11.431 3.525 12.337 1.41.957 4.129 6.395 4.784 7.604.654 1.259 2.719.856 6.093 3.777 3.374 2.92 6.798.302 6.798.302s2.669-9.467 4.381-11.683c1.712-2.216 1.158-9.618-1.309-12.287-2.468-2.619-13.294-6.093-13.798-8.51-.503-2.417-5.036-2.216-6.093-1.41-.453.403-1.259.906-2.014 1.309Z" fill="#26252B"/><path opacity=".1" d="M398.473 230.886c-1.712 2.216-4.381 11.683-4.381 11.683s-.907.705-2.216.957c.906-2.921 2.568-8.108 3.827-9.669 1.712-2.216 1.158-9.618-1.309-12.237-2.468-2.618-13.295-6.093-13.798-8.51-.504-2.367-5.036-2.216-6.093-1.41-.353.252-.806.554-1.31.856.303-1.108 1.008-2.014 2.015-2.518.755-.403 1.561-.856 2.064-1.259 1.058-.805 5.59-1.007 6.094 1.41.503 2.417 11.279 5.842 13.797 8.511 2.468 2.568 3.072 9.97 1.31 12.186Z" fill="#000"/><path d="M336.787 344.592c1.561 6.445 16.366 58.514 16.366 58.514l16.315-3.525s-10.121-59.673-9.567-61.385c.201-.654 4.884-1.662 10.574-2.669 2.518-.453 5.137-.503 7.705-.201 3.676.453 9.669 1.108 16.215 1.41 5.791.252 12.035.554 17.272-.101 14.906-1.863 9.669-23.416 9.669-23.416l-14.604 1.964c-1.208-6.949-7.503-12.186-15.056-12.186-2.166 0-4.23.453-6.093 1.208l-.051.051c-1.41.503-24.121 8.309-40.789 11.179-17.171 2.921-9.467 22.711-7.956 29.157Z" fill="#26252B"/><path opacity=".1" d="M404.265 309.291c-1.863-.805-3.978-1.208-6.144-1.208a16.24 16.24 0 0 0-6.093 1.208l-.05.051c-1.41.503-24.121 8.309-40.789 11.179-17.222 2.971-9.517 22.761-7.956 29.207 1.208 5.036 10.675 38.372 14.653 52.321l-4.683 1.007s-14.855-52.069-16.366-58.515c-1.561-6.446-9.265-26.236 7.957-29.207 16.668-2.87 39.379-10.726 40.789-11.179.05 0 .05-.05.05-.05 1.863-.806 3.928-1.209 6.093-1.209 5.187.05 9.82 2.568 12.539 6.395Z" fill="#fff"/><path opacity=".1" d="M411.718 336.635c-5.237.655-11.482.353-17.273.101-6.546-.302-12.539-.957-16.215-1.41a26.372 26.372 0 0 0-7.704.201c-5.69 1.008-10.374 2.015-10.575 2.669-.504 1.763 9.568 61.385 9.568 61.385l-16.316 3.525s-.906-3.223-2.316-8.158l12.085-2.618s-11.28-53.479-9.567-61.385c.151-.655 4.884-1.662 10.574-2.669 2.518-.453 5.137-.504 7.705-.201 3.676.453 9.669 1.107 16.215 1.41 5.791.251 12.035.553 17.272-.101 8.813-1.108 10.575-9.064 10.575-15.409l5.691-.756c-.101-.05 5.186 21.553-9.719 23.416Z" fill="#000"/><path d="M422.141 318.859s-8.51 3.324-20.042 1.662c-11.532-1.662-22.459-12.942-22.459-12.942s.503-.805 1.309-3.625c.403-1.36-2.669-11.23-5.993-21.603-.553-1.813-1.158-3.626-1.762-5.439-2.921-9.165-5.59-17.675-5.791-20.143-.504-5.791 10.222-9.416 10.222-9.416s21.805.503 27.042 0c7.352-.705 8.561 4.28 12.388 8.56 3.877 4.281 5.086 62.946 5.086 62.946Z" fill="#E1143D"/><path opacity=".1" d="M413.278 320.773c-3.122.302-6.949.403-11.179-.202-11.532-1.661-22.459-12.941-22.459-12.941s.503-.806 1.309-3.626c.403-1.36-2.669-11.23-5.993-21.603-.553-1.813-1.158-3.626-1.762-5.439-2.921-9.165-5.59-17.675-5.791-20.142-.504-5.791 10.222-9.417 10.222-9.417s-1.712 4.331-1.259 9.366c.202 2.468 2.871 10.978 5.792 20.143.553 1.813 1.158 3.626 1.762 5.438 3.324 10.424 6.395 20.244 5.992 21.604-.805 2.82-1.309 3.625-1.309 3.625s10.877 11.331 22.459 12.942c.756.101 1.511.201 2.216.252Z" fill="#fff"/><path opacity=".1" d="M422.141 318.859s-6.849 2.669-16.568 2.065c6.396-.403 10.525-2.065 10.525-2.065s-1.259-58.615-5.036-62.946c-3.122-3.525-4.482-7.503-8.963-8.409a84.696 84.696 0 0 0 2.568-.151c7.352-.705 8.56 4.28 12.388 8.56 3.877 4.281 5.086 62.946 5.086 62.946Z" fill="#191919"/><path d="M388.05 258.33c0 3.475-3.777 7.352-6.043 9.367-1.51 1.309-2.92 2.769-4.28 4.23l-14.603 16.164c-3.223 3.575-8.712 3.928-12.388.806l-19.639-16.668s2.115-8.158 6.798-9.266l16.215 13.596 13.294-23.516c1.863-3.374 5.489-5.69 9.618-5.69 6.093 0 11.028 4.884 11.028 10.977Z" fill="#E1143D"/><path opacity=".1" d="M388.049 258.33c0 .705-.151 1.41-.403 2.166a10.996 10.996 0 0 0-10.575-7.957c-4.129 0-7.755 2.317-9.618 5.691l-11.633 20.545c-.856 1.561-2.92 1.914-4.28.756-3.978-3.425-11.582-9.77-15.56-11.683a2.291 2.291 0 0 0-2.971 1.007l-1.863 3.424s2.114-8.158 6.798-9.265l16.215 13.596 13.294-23.517a10.918 10.918 0 0 1 9.618-5.69c6.043-.05 10.978 4.834 10.978 10.927Z" fill="#fff"/><path opacity=".1" d="M388.05 258.33c0 3.475-3.777 7.353-6.093 9.367-1.511 1.309-2.921 2.769-4.281 4.23l-14.603 16.114c-3.223 3.575-8.712 3.928-12.388.806l-19.639-16.668s.503-1.964 1.561-4.079l18.078 15.358c3.676 3.123 9.165 2.77 12.388-.805l14.603-16.114a48.374 48.374 0 0 1 4.281-4.23c1.812-1.612 4.532-4.331 5.589-7.151.353 1.007.504 2.065.504 3.172Z" fill="#191919"/><path opacity=".1" d="M391.524 261.805c0 3.475-3.777 7.352-6.043 9.366-1.511 1.31-2.921 2.77-4.28 4.23l-6.194 6.899c-.554-1.813-1.159-3.625-1.763-5.438l4.432-4.935a48.228 48.228 0 0 1 4.28-4.23c2.316-2.015 6.093-5.892 6.093-9.367a10.98 10.98 0 0 0-1.662-5.841c3.072 1.964 5.137 5.388 5.137 9.316Z" fill="#191919"/><path d="M373.446 220.512s-1.209 4.633-1.863 8.863c-.454 3.223-.353 6.144-.554 6.849-.454 1.661 2.417 5.186 5.942 5.891 3.525.705 7.05-1.46 7.604-1.661.554-.202-3.425-7.504-3.475-8.158 0 0 2.87-4.281.101-5.338-2.72-1.058-4.029 2.417-4.029 2.417h-1.057s1.863-4.633 1.51-6.194c-.352-1.611-4.179-2.669-4.179-2.669Z" fill="#7B3E2C"/><path opacity=".1" d="M380.496 242.216c-1.058.101-2.266.101-3.525-.151-3.525-.705-6.396-4.23-5.942-5.892.201-.705.1-3.625.554-6.848.604-4.23 1.863-8.863 1.863-8.863s1.208.352 2.367.957c-.403 1.561-1.159 4.834-1.612 7.906-.453 3.223-.352 6.143-.554 6.848-.453 1.662 2.417 5.187 5.942 5.892.303.101.605.101.907.151Z" fill="#fff"/><path d="M431.407 422.191h.151a2.6 2.6 0 0 0 2.618-2.618l-.05-112.094h-5.338v112.094c0 1.41 1.209 2.618 2.619 2.618ZM423.047 422.192h.353a2.525 2.525 0 0 0 2.517-2.518v-83.19h-5.388v83.24c0 1.36 1.108 2.468 2.518 2.468Z" fill="#824E37"/><path d="M425.364 311.054h6.647a2.15 2.15 0 0 0 2.165-2.165v-54.386a2.15 2.15 0 0 0-2.165-2.165h-6.647a2.15 2.15 0 0 0-2.166 2.165v54.386a2.15 2.15 0 0 0 2.166 2.165Z" fill="#B9663B"/><path opacity=".11" d="M430.349 311.054h-4.935a2.257 2.257 0 0 1-2.266-2.266v-54.184a2.257 2.257 0 0 1 2.266-2.266h4.935c-1.208 0-2.215 1.007-2.215 2.266v54.234a2.235 2.235 0 0 0 2.215 2.216Z" fill="#000"/><path d="M367.102 349.325h64.356c1.51 0 2.719-1.309 2.719-2.921v-11.481l-29.056 1.813a68.198 68.198 0 0 1-9.064 0l-28.502-1.662c-1.712-.101-3.173 1.36-3.173 3.223v8.057c-.05 1.662 1.209 2.971 2.72 2.971Z" fill="#B9663B"/><path opacity=".11" d="M434.176 334.923v4.381l-29.055 1.813a68.213 68.213 0 0 1-9.065 0l-28.502-1.662c-1.712-.101-3.172 1.36-3.172 3.223v-4.381c0-1.863 1.46-3.324 3.172-3.223l28.502 1.662c3.022.201 6.043.151 9.065 0l29.055-1.813Z" fill="#000"/><path d="M158.271 288.595c0 4.733 1.713 7.805 3.777 7.805v-17.121c.051-.05-3.777 4.582-3.777 9.316Z" fill="#C2FFC2"/><path d="M162.099 279.229v17.121c2.115 0 3.776-3.072 3.776-7.805 0-4.684-3.776-9.316-3.776-9.316Z" fill="#80A880"/><path d="M165.573 288.393c-3.324 3.324-4.28 6.698-2.82 8.209l12.086-12.086c0-.05-5.943.554-9.266 3.877Z" fill="#C2FFC2"/><path d="m174.839 284.466-12.086 12.085c1.46 1.461 4.834.504 8.208-2.82 3.324-3.323 3.878-9.265 3.878-9.265Z" fill="#80A880"/><path d="M158.574 288.393c3.324 3.324 4.281 6.698 2.82 8.209l-12.085-12.086c0-.05 5.942.554 9.265 3.877Z" fill="#C2FFC2"/><path d="m149.309 284.466 12.085 12.085c-1.46 1.461-4.834.504-8.208-2.82-3.323-3.323-3.877-9.265-3.877-9.265Z" fill="#80A880"/><path d="M162.099 295.393v14.755h6.848c.554 0 1.058-.454 1.058-1.058v-13.697h-7.906Z" fill="#8FB4C9"/><path d="M162.098 295.393h-7.956v13.697c0 .554.453 1.058 1.057 1.058h6.849l.05-14.755Z" fill="#A4CDE7"/><path d="M168.242 310.147h-6.143v1.662h6.143v-1.662Z" fill="#528AA8"/><path d="M162.048 310.147h-6.144v1.662h6.144v-1.662Z" fill="#79A3BA"/><path d="M642.602 190.651a.457.457 0 0 1-.402-.202c-.202-.252-.152-.554.05-.755 1.057-.856 1.813-1.511 2.266-2.014a.546.546 0 0 1 .755 0c.202.201.202.503 0 .755-.503.504-1.259 1.158-2.367 2.065-.05.1-.151.151-.302.151ZM55.545 236.828c-.05 0-.151 0-.201-.051a85.191 85.191 0 0 1-6.245-2.266c-.352-.151-.503-.453-.453-.806-.201.252-.554.403-.906.252-.202-.1-.454-.201-.655-.302-.403-.151-.554-.604-.403-1.007.151-.403.604-.554 1.007-.403.202.101.454.202.655.302.302.151.504.453.453.806.202-.252.554-.353.907-.252 2.014.856 4.078 1.561 6.093 2.216.403.101.604.554.503.957-.1.352-.402.554-.755.554Zm-14.05-5.993c-.1 0-.251-.05-.352-.101-.453-.251-.856-.453-1.31-.705a.607.607 0 0 1-.251-.251.94.94 0 0 1-.353-.101 69.439 69.439 0 0 1-5.539-3.575.724.724 0 0 1-.252-.907.831.831 0 0 1-.956.051l-.605-.454c-.352-.251-.402-.705-.15-1.057.251-.353.704-.403 1.057-.151.201.151.403.302.554.453.302.201.352.554.251.906.252-.201.655-.251.907-.05a83.895 83.895 0 0 0 5.438 3.525c.101.05.202.151.252.252.1 0 .252.05.353.101.402.251.856.503 1.259.705.352.201.503.654.302 1.007-.05.201-.302.352-.605.352Zm-14.15-10.122a.647.647 0 0 1-.503-.201c-.353-.352-.705-.655-1.058-1.007-.1-.101-.15-.202-.201-.302-.101-.051-.252-.101-.302-.202-1.612-1.561-3.072-3.223-4.432-4.884-.201-.252-.201-.655 0-.957a.723.723 0 0 1-.906-.252l-.454-.604c-.251-.353-.2-.806.152-1.058.352-.251.805-.201 1.057.151.151.202.302.403.453.554a.756.756 0 0 1 0 .907c.302-.151.655-.051.907.201a62.884 62.884 0 0 0 4.33 4.784c.101.101.151.202.202.302.1.051.252.101.302.202.352.352.705.654 1.058 1.007a.778.778 0 0 1 .05 1.057c-.252.202-.453.302-.655.302Zm-10.877-13.596c-.252 0-.503-.151-.655-.403-.251-.453-.453-.856-.705-1.309a.935.935 0 0 1-.1-.353.514.514 0 0 1-.252-.302 42.63 42.63 0 0 1-2.518-6.143c-.1-.353.05-.705.302-.856-.352 0-.654-.202-.755-.554-.05-.252-.151-.453-.201-.705-.101-.403.1-.806.503-.907.403-.1.806.101.906.504.05.252.152.453.202.705.1.352-.05.705-.353.856.353 0 .655.201.756.504.654 2.014 1.51 4.028 2.467 5.942.05.1.101.251.101.352a.61.61 0 0 1 .252.252c.201.403.453.856.705 1.259.201.352.05.806-.302 1.007-.101.151-.252.151-.353.151ZM11.08 190.65a.762.762 0 0 1-.755-.654c-.05-.504-.101-1.007-.151-1.461 0-.151 0-.251.05-.352a.935.935 0 0 1-.1-.353c-.051-1.007-.101-2.014-.101-3.071 0-1.209.05-2.417.15-3.576.05-.352.303-.654.655-.705-.302-.1-.554-.453-.503-.805.05-.252.05-.504.1-.756a.752.752 0 0 1 .856-.654c.403.05.705.402.655.856-.05.251-.05.453-.1.705a.748.748 0 0 1-.655.654c.302.101.554.403.503.756a40.081 40.081 0 0 0-.15 3.474c0 1.007.05 1.964.1 2.971 0 .151 0 .252-.05.353.05.101.1.201.1.352.05.454.1.957.151 1.41.05.403-.252.806-.654.856h-.101Zm1.209-17.322h-.202a.751.751 0 0 1-.554-.907c.1-.503.252-.957.353-1.46.05-.151.1-.252.201-.353-.05-.1-.05-.251 0-.402.202-.756.453-1.511.705-2.267a61.987 61.987 0 0 1 1.36-3.978c.15-.352.453-.503.805-.503-.302-.202-.402-.554-.251-.907.1-.251.201-.453.302-.654.15-.403.604-.554 1.007-.403.403.151.554.604.403 1.007-.101.201-.202.453-.252.655-.151.302-.453.503-.806.453.252.201.403.554.252.906a60.747 60.747 0 0 0-1.36 3.928 54.983 54.983 0 0 0-.705 2.216c-.05.1-.1.252-.201.302.05.101.05.252 0 .352-.151.454-.252.907-.353 1.41a.706.706 0 0 1-.704.605Zm6.244-16.316c-.101 0-.252-.05-.353-.101-.352-.201-.503-.654-.302-1.007.252-.453.453-.856.705-1.309a.61.61 0 0 1 .252-.252c0-.101.05-.252.1-.352 1.058-1.914 2.267-3.777 3.526-5.59.201-.302.554-.403.906-.302a.832.832 0 0 1-.05-.957c.15-.201.302-.403.402-.604.252-.353.705-.403 1.058-.151.352.252.403.705.151 1.057-.151.202-.302.403-.403.605-.201.302-.554.402-.906.251.201.252.252.655.05.907-1.208 1.813-2.367 3.625-3.424 5.489a.607.607 0 0 1-.252.251c0 .101-.05.252-.1.353-.252.403-.454.856-.706 1.259-.1.352-.352.453-.654.453Zm31.926-8.661h-.302a.775.775 0 0 1-.755-.756c0-.403.352-.755.755-.755h.655c.352 0 .604.201.755.504.05-.303.302-.554.604-.655a10.248 10.248 0 0 0 5.338-2.719c.1-.101.201-.151.302-.202l.151-.302c.302-.352.604-.705.856-1.057.252-.353.705-.403 1.058-.202.352.252.403.705.201 1.058-.302.403-.604.856-.957 1.208a.817.817 0 0 1-.352.202c-.05.1-.1.251-.202.352-1.712 1.612-3.827 2.719-6.143 3.122a.815.815 0 0 1-.856-.503c-.05.352-.353.604-.705.654-.05.051-.202.051-.403.051Zm-6.093-2.619a.647.647 0 0 1-.504-.201c-.352-.353-.705-.705-1.057-1.108a.545.545 0 0 1-.151-.353c-.101-.05-.202-.151-.303-.251-.654-.856-1.208-1.713-1.51-2.266l-.202-.303a20.743 20.743 0 0 1-1.51-3.424c-.101-.352.05-.705.352-.906-.352 0-.654-.202-.755-.554l-.151-.756c-.101-.402.201-.805.604-.906.403-.101.806.201.907.604.05.252.1.453.15.705.101.353-.05.655-.352.856.302 0 .655.202.755.504a15.823 15.823 0 0 0 1.36 3.122l.151.252c.353.554.806 1.309 1.46 2.115.101.101.101.201.151.352.101.051.202.101.303.202.302.352.604.705.956 1.007a.73.73 0 0 1 0 1.057c-.251.202-.453.252-.654.252Zm-15.963-3.072a.721.721 0 0 1-.504-.201c-.302-.252-.352-.755-.1-1.058.302-.352.654-.755.956-1.107.1-.101.202-.151.302-.202.05-.101.101-.252.202-.352a68.588 68.588 0 0 1 4.683-4.684c.252-.251.655-.251.957-.05-.151-.302-.101-.705.15-.906.202-.151.353-.302.555-.504.302-.252.805-.252 1.057.101.252.302.252.806-.1 1.057-.202.151-.353.302-.554.454a.693.693 0 0 1-.907.05c.151.302.1.655-.15.906-1.562 1.41-3.073 2.971-4.583 4.583-.101.101-.202.151-.303.201-.05.101-.1.252-.15.353-.303.352-.655.705-.957 1.108-.101.151-.353.251-.554.251Zm33.034-5.186a.742.742 0 0 1-.756-.756v-.654c0-.353.202-.655.504-.756-.302-.05-.554-.302-.604-.654-.303-2.166-1.058-4.18-2.216-5.691l-.151-.302c-.1-.05-.201-.101-.302-.201a5.388 5.388 0 0 0-.957-.907c-.352-.251-.403-.705-.151-1.057a.741.741 0 0 1 1.057-.151c.403.302.806.705 1.159 1.108.1.1.15.251.201.352.1.05.252.151.302.252 1.26 1.712 2.165 3.978 2.468 6.395a.723.723 0 0 1-.504.806c.353.05.604.352.655.705v.755c.05.403-.302.756-.705.756Zm-20.093-6.547c-.251 0-.503-.1-.604-.352-.252-.353-.151-.806.201-1.058.403-.302.857-.554 1.26-.805a.923.923 0 0 1 .352-.101.604.604 0 0 1 .252-.252c2.165-1.259 4.18-2.216 6.093-2.82.352-.101.705.05.906.353 0-.353.252-.655.605-.756l.755-.151c.403-.05.806.202.856.604.05.403-.201.806-.604.856-.202.051-.453.101-.655.152-.352.05-.655-.101-.806-.353 0 .302-.201.604-.503.755-1.763.554-3.727 1.461-5.74 2.669a.923.923 0 0 1-.353.101.609.609 0 0 1-.252.252l-1.209.755c-.302.101-.453.151-.554.151Zm-2.517-1.208s-.05 0 0 0c-.454 0-.756-.353-.756-.806 0-.504.05-1.007.1-1.511 0-.151.051-.252.152-.352-.05-.101-.05-.252-.05-.353.201-2.064.604-4.28 1.208-6.546.1-.353.403-.554.755-.554-.302-.151-.453-.504-.352-.856.05-.252.151-.453.202-.705a.736.736 0 0 1 .956-.504.736.736 0 0 1 .504.957c-.05.252-.151.453-.202.705a.74.74 0 0 1-.705.554c.302.151.454.504.353.856-.554 2.216-.957 4.331-1.158 6.345 0 .151-.05.252-.151.353.05.1.05.251.05.352-.05.504-.05.957-.1 1.41-.051.353-.404.655-.806.655Zm3.978-16.92c-.101 0-.202 0-.252-.051-.403-.151-.604-.604-.453-.956.201-.454.352-.907.554-1.36.05-.101.15-.201.201-.302 0-.101 0-.252.05-.353a102.592 102.592 0 0 1 2.72-6.042c.15-.303.503-.504.856-.403a.771.771 0 0 1-.202-.907l.353-.654c.201-.353.654-.504 1.007-.353.352.202.503.655.352 1.007l-.302.655c-.15.302-.503.453-.856.403a.77.77 0 0 1 .202.906 146.609 146.609 0 0 0-2.67 5.942c-.05.101-.15.202-.2.302 0 .101 0 .252-.051.353-.201.453-.352.906-.554 1.36-.151.251-.453.453-.755.453Zm7.553-15.762c-.1 0-.252-.05-.352-.1-.353-.202-.504-.655-.302-1.008.251-.453.503-.906.705-1.259.05-.1.15-.201.251-.252 0-.1.05-.251.101-.352l.604-1.007a114.21 114.21 0 0 1 2.87-4.583c.202-.302.555-.402.907-.302a.692.692 0 0 1-.05-.906l.403-.604c.251-.353.705-.454 1.057-.202.353.252.453.705.202 1.058l-.403.604a.741.741 0 0 1-.856.302.754.754 0 0 1 .05.906 74.094 74.094 0 0 0-2.82 4.533l-.604 1.007a.606.606 0 0 1-.252.252c0 .1-.05.251-.1.352-.202.403-.454.806-.706 1.259a1.02 1.02 0 0 1-.705.302Zm9.618-14.603a.812.812 0 0 1-.453-.151c-.352-.252-.403-.705-.15-1.058.301-.403.603-.806.906-1.158.1-.1.201-.202.302-.252 0-.1.05-.252.15-.352 1.36-1.713 2.72-3.425 4.18-5.087.252-.251.605-.352.907-.2-.202-.303-.202-.656.05-.907l.504-.554a.73.73 0 0 1 1.057-.05.73.73 0 0 1 .05 1.057l-.503.554c-.252.252-.604.352-.906.201a.692.692 0 0 1-.05.907 181.54 181.54 0 0 0-4.13 5.035c-.1.101-.202.202-.302.252 0 .1-.05.252-.151.353-.302.403-.604.755-.907 1.158-.1.15-.352.252-.554.252Zm11.33-13.295a.646.646 0 0 1-.503-.201.73.73 0 0 1 0-1.058c.353-.352.705-.704 1.007-1.057.101-.1.202-.151.302-.201.05-.101.101-.252.202-.303 2.165-2.165 3.777-3.676 4.784-4.532.252-.252.654-.252.957-.05-.152-.302-.101-.705.2-.907.202-.15.404-.352.605-.453.353-.251.806-.201 1.058.151.251.353.201.806-.151 1.058-.151.151-.353.302-.554.453-.252.201-.655.201-.907.05.151.303.101.655-.201.907-1.007.856-2.619 2.316-4.734 4.482-.1.1-.201.15-.302.201-.05.1-.1.252-.201.302-.353.353-.655.705-1.007 1.058-.151.05-.353.1-.554.1Z" fill="#C9D2D6"/><path d="m70.198 50.004 22.157 9.618 10.323-18.783-32.48 9.165Z" fill="#5553FF"/><path d="m78.659 63.197-.403-9.668 24.423-12.69-22.66 13.445-1.36 8.913Z" fill="#1A1A99"/><path d="m85.91 56.802-7.252 6.395 1.36-8.913 5.892 2.518Z" fill="#2B29B9"/><g opacity=".23"><path opacity=".23" d="m158.372 95.992 1.662.1v-.553c0-1.158-.151-2.317-.454-3.424l-2.014.604c-.302-1.007-.755-2.014-1.41-2.92l1.712-1.26a10.22 10.22 0 0 0-1.158-1.36 11.572 11.572 0 0 0-1.712-1.41l-1.158 1.763a9.245 9.245 0 0 0-2.971-1.31l.503-2.013c-1.108-.303-2.266-.403-3.424-.353-.201 0-.352 0-.554.05l.151 1.662.051.454c-1.058.1-2.115.402-3.123.855l-.906-1.913-.906.453c-.151.1-.303.151-.403.252-.151.1-.252.201-.403.302-.151.1-.252.201-.403.302 0 0-.05 0-.05.05-.101.051-.202.152-.302.252-.101.05-.152.151-.252.202-.101.1-.252.201-.353.302l-.201.201a5.95 5.95 0 0 0-.554.605l1.561 1.36c-.504.604-.957 1.208-1.259 1.913l-.151.302a3.104 3.104 0 0 0-.252.604l-1.662-.654-.302-.101c-.453 1.259-.755 2.568-.755 3.877l2.115.05V96.244c0 .102 0 .202.05.303 0 .1 0 .151.051.252 0 .1.05.201.05.352.05.252.101.504.151.705 0 .101.05.202.05.252.051.1.051.201.101.302l-1.41.453-.604.202a10.945 10.945 0 0 0 1.913 3.525l1.662-1.309c.252.302.504.554.756.856.503.503 1.057.956 1.661 1.359l-1.108 1.763c1.108.705 2.367 1.208 3.676 1.51l.101-.604.302-1.46c.101 0 .252.05.403.05.202.051.453.051.655.101.101 0 .252 0 .352.05.605.051 1.209 0 1.864-.05l.251 2.065a10.982 10.982 0 0 0 3.777-1.159l-.101-.201-.856-1.662c.202-.101.403-.201.605-.352l.453-.302c.302-.202.604-.454.856-.655l.05-.05c.151-.101.252-.252.403-.403l.252-.252 1.511 1.41c.1-.101.151-.202.251-.252.051-.101.151-.151.202-.252v-.05a12.092 12.092 0 0 0 1.712-2.77l-1.914-.805a8.613 8.613 0 0 0 .756-3.173h.453Zm-12.64-3.726.051-.05c1.661-1.41 4.079-1.31 5.64.251s1.611 3.978.251 5.64c-.05.1-.151.151-.251.252-1.612 1.611-4.281 1.611-5.892 0-1.611-1.611-1.611-4.28 0-5.892.05-.1.101-.15.201-.201Z" fill="#3EA0D9"/><path opacity=".12" d="M158.423 95.438c0 .151 0 .353-.05.504l1.661.1v-.553l-1.611-.05Zm-2.518 5.892-.252.252-.252.252 1.511 1.41c.101-.101.151-.202.252-.252.05-.101.151-.151.201-.252v-.05l-1.46-1.36Zm-2.619 1.964.101.151.453-.302c.303-.202.605-.453.856-.655l.051-.05c.151-.101.252-.252.403-.403l.251-.252c-.654.655-1.359 1.108-2.115 1.511Zm.353 2.165a11.47 11.47 0 0 1-3.173.907l-.251-2.065a8.97 8.97 0 0 1-3.274-.151l-.1.554c.201.05.453.05.654.101.101 0 .252 0 .353.05.604.05 1.208 0 1.863-.05l.252 2.064a10.994 10.994 0 0 0 3.777-1.158l-.101-.252Zm-5.69-21.603c-.202 0-.353 0-.554.05l.151 1.662c.201 0 .352-.05.554-.05l-.151-1.662Zm-5.137 20.848 1.108-1.763a7.033 7.033 0 0 1-1.662-1.359 13.432 13.432 0 0 1-.755-.856l-1.662 1.309a10.9 10.9 0 0 1-1.762-3.172l-.605.201a10.948 10.948 0 0 0 1.914 3.525l1.662-1.309c.252.302.503.554.755.856.504.503 1.058.957 1.662 1.359l-1.108 1.763c1.108.705 2.367 1.208 3.676 1.511l.101-.605a16.267 16.267 0 0 1-3.324-1.46Zm-2.568-17.373c.101-.1.201-.202.252-.302l-.202.201a6.204 6.204 0 0 0-.554.604l1.562 1.36c-.504.604-.957 1.209-1.259 1.914l-.151.302.251.1a10.393 10.393 0 0 1 1.662-2.77l-1.561-1.41Zm-.755 7.352-2.115-.05c.05-1.108.201-2.216.554-3.274l-.303-.1c-.453 1.259-.755 2.568-.755 3.877l2.115.05V96.194c0 .101 0 .202.05.303 0 .1 0 .15.051.252 0 .1.05.201.05.352.051.252.101.504.151.705 0 .1.051.201.051.252l.604-.202a10.986 10.986 0 0 1-.453-3.172ZM151.624 98.107c-.05.1-.15.151-.251.252l.251-.252Z" fill="#fff"/><path opacity=".06" d="M148.452 90.15a5.179 5.179 0 0 0-5.186 5.187 5.179 5.179 0 0 0 5.186 5.187 5.18 5.18 0 0 0 5.187-5.187 5.18 5.18 0 0 0-5.187-5.186Zm3.173 7.957c-.101.1-.151.201-.252.252-1.611 1.611-4.28 1.611-5.892 0-1.611-1.612-1.611-4.28 0-5.892l.202-.201.05-.05c1.662-1.41 4.079-1.31 5.64.251 1.561 1.51 1.662 3.978.252 5.64Z" fill="#000"/></g><g opacity=".23"><path opacity=".23" d="m125.841 138.179 2.82.151c0-.302.05-.604.05-.906.051-2.015-.252-3.979-.806-5.892l-3.474 1.007c-.504-1.763-1.36-3.475-2.468-5.036l2.921-2.115c-.604-.805-1.259-1.611-2.014-2.316a19.069 19.069 0 0 0-2.921-2.417l-2.014 3.021c-1.612-1.057-3.324-1.863-5.086-2.316l.906-3.525a19.214 19.214 0 0 0-5.892-.604c-.302 0-.654.05-.956.05l.251 2.87.051.756a15.59 15.59 0 0 0-5.388 1.46l-1.612-3.273c-.503.251-1.007.503-1.51.805a8.582 8.582 0 0 0-.706.454c-.251.151-.453.302-.704.453-.202.151-.454.302-.655.503l-.05.051c-.152.151-.353.252-.504.403-.151.1-.302.251-.403.352-.201.151-.403.353-.554.504l-.05.05c-.1.101-.252.201-.353.353-.352.352-.654.705-.957 1.057l2.72 2.367c-.907 1.007-1.612 2.115-2.216 3.273-.1.151-.151.352-.252.504l-.453 1.057-2.87-1.108-.504-.201c-.806 2.165-1.259 4.381-1.31 6.697l3.627.101v.403c0 .403 0 .806.05 1.158v.201c0 .202.05.403.05.554 0 .151.05.252.05.403.051.202.051.403.101.554.101.403.151.856.302 1.259l.152.453c.05.202.1.353.15.554l-2.366.806-1.058.352c.705 2.216 1.813 4.23 3.274 6.043l2.82-2.266c.402.504.805.957 1.258 1.41a17.527 17.527 0 0 0 2.871 2.317l-1.914 3.071c1.964 1.209 4.079 2.115 6.345 2.569l.202-1.008.554-2.517c.201.05.453.1.654.1.403.051.756.101 1.158.151.202.051.403.051.605.051 1.057.05 2.115.05 3.172-.101l.453 3.575c2.317-.302 4.482-1.007 6.547-2.064l-.202-.353-1.46-2.87c.353-.202.705-.353 1.007-.554.302-.151.554-.353.806-.554a30.916 30.916 0 0 0 1.511-1.158l.05-.051c.252-.201.453-.402.705-.654.151-.151.252-.302.403-.403l2.669 2.467c.151-.151.302-.302.403-.453.1-.151.251-.302.352-.403l.05-.05c1.209-1.46 2.166-3.072 2.921-4.834l-3.323-1.41a15.847 15.847 0 0 0 1.258-5.439l.756.101Zm-21.805-6.395.101-.101c2.82-2.367 7.05-2.266 9.719.403 2.669 2.669 2.82 6.899.403 9.719h-.051c-.1.151-.251.302-.402.453a7.174 7.174 0 0 1-10.173 0 7.173 7.173 0 0 1 0-10.172c.152-.101.252-.202.403-.302Z" fill="#3EA0D9"/><path opacity=".12" d="M125.942 137.273c0 .302-.05.604-.101.906l2.82.151c0-.302.051-.604.051-.906l-2.77-.151Zm-4.331 10.121c-.151.151-.251.303-.402.403l-.454.453 2.669 2.468c.151-.151.302-.302.403-.453.101-.151.252-.302.353-.403l.05-.051-2.619-2.417Zm-4.481 3.425.151.302c.302-.151.554-.353.805-.554a29.984 29.984 0 0 0 1.511-1.158l.05-.051c.252-.201.454-.403.705-.654.152-.151.252-.302.403-.403-1.158 1.007-2.366 1.863-3.625 2.518Zm.604 3.726a19.014 19.014 0 0 1-5.489 1.561l-.453-3.575c-1.863.252-3.777.151-5.59-.202l-.201 1.007c.403.051.755.101 1.158.152.201.05.403.05.604.05 1.058.05 2.115.05 3.173-.101l.453 3.576c2.316-.303 4.482-1.008 6.546-2.065l-.201-.403Zm-9.87-37.264c-.302 0-.655.05-.957.05l.252 2.871c.302-.051.604-.101.957-.101l-.252-2.82Zm-8.813 35.955 1.914-3.072c-1.007-.655-2.014-1.41-2.87-2.316-.454-.454-.856-.957-1.26-1.41l-2.82 2.266c-1.308-1.662-2.366-3.525-3.07-5.54l-1.058.353c.705 2.216 1.812 4.23 3.273 6.043l2.82-2.266c.403.503.805.956 1.259 1.41a17.58 17.58 0 0 0 2.87 2.316l-1.913 3.072c1.963 1.208 4.078 2.115 6.344 2.568l.202-1.007a19.597 19.597 0 0 1-5.69-2.417Zm-4.481-29.963c.15-.201.302-.352.453-.553-.1.1-.252.201-.352.352-.353.353-.655.705-.957 1.058l2.719 2.366c-.907 1.007-1.612 2.115-2.216 3.273-.1.152-.15.353-.251.504l.402.151a16.144 16.144 0 0 1 2.87-4.784l-2.668-2.367Zm-1.26 12.69-3.625-.1c.05-1.914.353-3.827.957-5.64l-.504-.202c-.805 2.166-1.259 4.381-1.309 6.698l3.626.1v.403c0 .403 0 .806.05 1.158v.202c0 .201.05.403.05.554 0 .151.05.252.05.403.051.201.051.403.102.554.1.402.15.856.302 1.259l.15.453 1.058-.353a14.62 14.62 0 0 1-.906-5.489ZM114.209 141.855a3.274 3.274 0 0 1-.402.452c.15-.201.301-.351.402-.452.05 0 0 0 0 0Z" fill="#fff"/><path opacity=".06" d="M108.77 128.158c-4.935 0-8.963 4.028-8.963 8.963s4.028 8.964 8.963 8.964 8.964-4.029 8.964-8.964a8.951 8.951 0 0 0-8.964-8.963Zm5.489 13.646c0 .051-.05.051 0 0a3.287 3.287 0 0 0-.403.454 7.173 7.173 0 0 1-10.172 0 7.173 7.173 0 0 1 0-10.172c.101-.101.252-.202.353-.353l.1-.101c2.82-2.366 7.05-2.266 9.719.403a7.272 7.272 0 0 1 .403 9.769Z" fill="#000"/></g><g opacity=".23"><path opacity=".23" d="m194.125 174.083 4.482.252c.05-.503.05-.957.05-1.46.05-3.122-.403-6.244-1.259-9.266l-5.489 1.612c-.806-2.77-2.115-5.439-3.877-7.906l4.582-3.374a31.58 31.58 0 0 0-3.122-3.676 33.596 33.596 0 0 0-4.582-3.827l-3.223 4.733a25.159 25.159 0 0 0-8.057-3.626l1.41-5.488c-3.022-.756-6.144-1.108-9.266-.957-.504.05-1.007.05-1.511.1l.403 4.482.101 1.209c-2.921.252-5.791 1.057-8.51 2.316l-2.518-5.136c-.806.403-1.612.806-2.417 1.259-.403.252-.756.453-1.159.705-.402.252-.755.503-1.108.755l-1.057.755c-.05 0-.05.051-.101.051l-.755.604c-.252.201-.453.403-.655.554-.302.252-.604.554-.906.806l-.05.05s-.051 0-.051.05c-.201.202-.403.353-.554.554-.554.554-1.057 1.108-1.561 1.662l4.331 3.727a24.289 24.289 0 0 0-3.475 5.136c-.151.252-.252.503-.403.755-.251.554-.503 1.058-.705 1.612l-4.532-1.763-.805-.302c-1.31 3.374-1.964 6.949-2.065 10.575l5.69.101v.654c0 .605.051 1.209.051 1.813 0 .101 0 .202.05.302.05.302.05.605.101.907.05.201.05.403.1.604l.151.906c.101.655.252 1.31.454 1.964.05.252.151.504.201.705.101.302.151.554.252.856l-3.777 1.259-1.662.554a31.158 31.158 0 0 0 5.137 9.518l4.482-3.525a28.201 28.201 0 0 0 2.014 2.266 25.543 25.543 0 0 0 4.532 3.625l-3.022 4.835c3.072 1.913 6.446 3.273 10.022 4.079l.352-1.612.856-3.978c.353.05.705.151 1.007.201.604.101 1.209.202 1.813.252.353.051.655.051 1.007.101a27.52 27.52 0 0 0 4.985-.151l.756 5.64c3.626-.453 7.05-1.561 10.273-3.223l-.302-.604-2.317-4.482c.554-.302 1.058-.554 1.612-.906.453-.252.856-.554 1.258-.857.806-.553 1.612-1.158 2.317-1.812l.101-.101c.352-.353.755-.655 1.107-1.007.202-.202.403-.453.605-.655l4.179 3.878c.202-.252.454-.504.655-.705.201-.202.403-.454.554-.655 0-.05.05-.05.05-.05 1.914-2.266 3.425-4.835 4.633-7.554l-5.237-2.266c1.158-2.77 1.863-5.64 2.014-8.561l1.36.151Zm-34.344-10.121c.051-.051.101-.101.152-.101 4.481-3.777 11.128-3.525 15.258.655 4.179 4.179 4.431 10.877.654 15.308l-.05.051c-.201.251-.403.453-.604.704a11.306 11.306 0 0 1-16.014 0 11.306 11.306 0 0 1 0-16.013c.202-.252.353-.403.604-.604Z" fill="#3EA0D9"/><path opacity=".12" d="M194.226 172.623c-.05.504-.05.957-.101 1.461l4.482.251c.05-.503.05-.956.05-1.46l-4.431-.252Zm-6.798 15.963c-.202.202-.403.453-.655.655-.252.252-.503.453-.705.705l4.18 3.877c.201-.251.453-.503.654-.705.202-.201.403-.453.554-.654 0-.051.051-.051.051-.051l-4.079-3.827Zm-7.05 5.388.252.454c.453-.252.856-.554 1.258-.856.806-.554 1.612-1.159 2.317-1.813l.101-.101c.352-.352.755-.655 1.107-1.007.202-.202.403-.453.605-.655-1.712 1.612-3.626 2.921-5.64 3.978Zm.957 5.842c-2.72 1.208-5.64 2.064-8.611 2.417l-.756-5.64c-2.921.403-5.942.252-8.812-.352l-.353 1.561c.604.1 1.209.201 1.813.251.353.051.655.051 1.007.101 1.662.101 3.324.05 4.986-.151l.755 5.64c3.626-.453 7.05-1.561 10.273-3.223l-.302-.604Zm-15.561-58.666c-.503.051-1.007.051-1.51.101l.402 4.482c.504-.051 1.008-.151 1.461-.202l-.353-4.381Zm-13.848 56.601 3.022-4.834a25.555 25.555 0 0 1-4.533-3.626 29.342 29.342 0 0 1-2.014-2.266l-4.482 3.525c-2.064-2.618-3.726-5.539-4.834-8.661l-1.662.554a31.153 31.153 0 0 0 5.137 9.517l4.482-3.525a28.03 28.03 0 0 0 2.014 2.266 25.549 25.549 0 0 0 4.532 3.626l-3.021 4.834c3.071 1.914 6.445 3.273 10.021 4.079l.352-1.611a33.43 33.43 0 0 1-9.014-3.878Zm-7.1-47.134c.252-.302.503-.554.755-.856-.201.202-.403.353-.554.554-.554.554-1.057 1.108-1.561 1.662l4.331 3.726a24.32 24.32 0 0 0-3.475 5.137c-.151.251-.252.503-.403.755l.655.252c1.058-2.719 2.568-5.237 4.532-7.554l-4.28-3.676Zm-1.914 19.942-5.69-.101a33.038 33.038 0 0 1 1.511-8.913l-.806-.302c-1.309 3.373-1.964 6.949-2.065 10.574l5.691.101v.655c0 .604.05 1.208.05 1.813 0 .1 0 .201.05.302.051.302.051.604.101.906.05.202.05.403.101.605l.151.906c.101.655.252 1.309.453 1.964.05.252.151.503.201.705l1.612-.554a23.15 23.15 0 0 1-1.36-8.661ZM175.796 179.824c-.202.252-.403.453-.605.705.252-.252.454-.453.605-.705.05 0 0 0 0 0Z" fill="#fff"/><path opacity=".06" d="M167.234 158.271c-7.806 0-14.1 6.295-14.1 14.1s6.294 14.1 14.1 14.1c7.805 0 14.1-6.295 14.1-14.1s-6.345-14.1-14.1-14.1Zm8.611 21.553s-.051 0 0 0c-.252.252-.453.504-.655.705a11.306 11.306 0 0 1-16.013 0 11.306 11.306 0 0 1 0-16.014c.201-.201.352-.352.554-.503.05-.05.1-.101.151-.101 4.481-3.777 11.128-3.525 15.258.655 4.23 4.129 4.482 10.776.705 15.258Z" fill="#000"/></g></svg>