<svg viewBox="0 0 600 343" fill="none" xmlns="http://www.w3.org/2000/svg" class="tailwind-hidden dark:flex"><g clip-path="url(#landingPageImageDark)"><path d="M447.39 235.85v25.9-25.9zM510.75 1.59v22.94V1.6v0zm-57.06 23.9h80.03-80.03zm34.08 0v26.66V25.5zM453.7 52.16h127.44-127.44zm70.38 0v25.88-25.88zM433.7 78.02h114.1-114.1zm60.02 0v25.9-25.9zm29.23 81.4v22.93-22.93zm57.05 23.9h-80.02H580zm-34.07 0v26.63-26.63zM580 209.95H452.55 580zm-70.38 0v25.9-25.9 0zm90.39 25.9H485.89 600zm-60.01 0v25.9-25.9zM313.1 43.47V66.4 43.47v0zm57.05 23.9h-80.03 80.04-.01zm-34.09 0v26.64-26.64 0zm34.09 26.64H242.72h127.45-.01zm-70.4 0v25.9V94zm90.4 25.9h-114.1 114.1zm-60.01 0v25.88-25.89zm100.2 39.52v22.93-22.93zm57.05 23.9h-80.02 80.02v0zm-34.1 0v26.63-26.64zm34.1 26.63H359.95 487.4v0zm-70.39 0v25.89-25.9 0zm90.4 25.89H393.29 507.4zM101.62 96.28v25.9-25.9zM84.58 19.85v22.93-22.93 0zm57.05 23.91H61.6h80.02zm-34.09 0v26.63-26.63zm34.09 26.63H14.19h127.44v0zm-70.4 0v25.89-25.89 0zm78.16 25.89H47.53h101.86v0z" stroke="#202033" stroke-width="3" stroke-linecap="round" stroke-linejoin="round"/><path d="M389.81 340.14a17.56 17.56 0 0110.77-16.7 17.65 17.65 0 0124.48 16.7" fill="#3A3A42"/><path opacity="0.15" d="M354.72 164.89v-.53a5.5 5.5 0 01-5.5 5.48h-94.95a5.53 5.53 0 01-5.55-5.48l106 .53z" fill="#FCE3DE" stroke="#A0A3A8" stroke-width="3" stroke-linecap="round" stroke-linejoin="round"/><path opacity="0.15" d="M239 159.16h125.45v5.2H239v-5.2z" fill="#8D7047" stroke="#A0A3A8" stroke-width="3" stroke-linecap="round" stroke-linejoin="round"/><path d="M180.78 323.75s-1.86-45.5-26.65-64.52c0 0-4.44 37.69 13.34 70.97" fill="#83CC6F"/><path d="M180.78 323.75s-1.86-45.5-26.65-64.52c0 0-4.44 37.69 13.34 70.97" stroke="#A0A3A8" stroke-width="3"/><path d="M165.37 308.83s-7.78-44.87-34.83-60.54c0 0 .5 37.95 22.48 68.63" fill="#83CC6F"/><path d="M165.37 308.83s-7.78-44.87-34.83-60.54c0 0 .5 37.95 22.48 68.63" stroke="#A0A3A8" stroke-width="3"/><path d="M130.56 249.32s6.72 24.12 18.74 41l-18.74-41z" fill="#D0F7DA"/><path d="M130.56 249.32s6.72 24.12 18.74 41" stroke="#A0A3A8" stroke-width="3" stroke-linecap="round" stroke-linejoin="round"/><path d="M175.7 311.96s-5.51-45.2 15.88-67.96c0 0 10.47 36.48-1.73 72.2" fill="#83CC6F"/><path d="M175.7 311.96s-5.51-45.2 15.88-67.96c0 0 10.47 36.48-1.73 72.2" stroke="#A0A3A8" stroke-width="3"/><path d="M178.2 248.06s.53 25.01-6.1 44.6l6.1-44.61z" fill="#D0F7DA"/><path d="M178.2 248.06s.53 25.01-6.1 44.6" stroke="#A0A3A8" stroke-width="3" stroke-linecap="round" stroke-linejoin="round"/><path d="M187.34 319.06s7.77-44.88 34.83-60.55c0 0-.51 37.95-22.5 68.63" fill="#83CC6F"/><path d="M187.34 319.06s7.77-44.88 34.83-60.55c0 0-.51 37.95-22.5 68.63" stroke="#A0A3A8" stroke-width="3"/><path d="M137.87 313.11l8.26 24.7a3.59 3.59 0 003.26 2.08h55.95a3.59 3.59 0 003.42-2.54l7.37-24.7a3.55 3.55 0 00-3.43-4.6h-71.58a3.59 3.59 0 00-3.25 5.06z" fill="#FFD4CE" stroke="#A0A3A8" stroke-width="3"/><path opacity="0.33" d="M149.39 339.86a3.6 3.6 0 01-3.26-2.08l-8.26-24.7a3.56 3.56 0 013.25-5.06h24.73v31.48l-16.46.35v.01z" fill="#A0A3A8"/><path d="M222.13 259.55s-6.7 24.11-18.73 41l18.74-41z" fill="#D0F7DA"/><path d="M222.13 259.55s-6.7 24.11-18.73 41" stroke="#A0A3A8" stroke-width="3" stroke-linecap="round" stroke-linejoin="round"/><path d="M430.6 109.71H170.46a9.94 9.94 0 00-9.95 9.94v165.38c0 5.5 4.45 9.94 9.95 9.94H430.6c5.5 0 9.96-4.44 9.96-9.94V119.65a9.95 9.95 0 00-9.97-9.94h.01z" fill="#282830"/><path d="M429.77 296.33H171.33a12.17 12.17 0 01-12.15-12.13V120.48a12.13 12.13 0 0112.15-12.12h258.44a12.16 12.16 0 0112.14 12.12V284.2a12.12 12.12 0 01-12.14 12.13zM171.33 111.06a9.43 9.43 0 00-9.44 9.42V284.2a9.4 9.4 0 009.44 9.43h258.44a9.43 9.43 0 009.43-9.42V120.48a9.43 9.43 0 00-9.43-9.42H171.33z" fill="#1E1E27"/><path d="M175.08 122.4H426v139.3H175.08V122.4z" fill="#3A3A42"/><path d="M426 263.05H175.09a1.35 1.35 0 01-1.35-1.35V122.4a1.31 1.31 0 01.4-.96c.25-.25.59-.4.95-.4H426a1.36 1.36 0 011.35 1.36v139.3a1.35 1.35 0 01-1.35 1.34zm-249.57-2.7h248.23v-136.6H176.42v136.6z" fill="#1E1E27"/><path opacity="0.19" d="M216.17 156.26h-59.53a8.08 8.08 0 00-8.08 8.06v81.72a8.07 8.07 0 008.08 8.07h59.53a8.08 8.08 0 008.09-8.07v-81.72a8.08 8.08 0 00-8.09-8.06z" fill="#6B6B6B"/><path opacity="0.04" d="M173.73 123.2h250.93v137.95H173.73V123.2z" fill="#F1F1FF"/><g opacity="0.19" fill="#6B6B6B"><path opacity="0.19" d="M444.83 102.96H274.11a9.97 9.97 0 00-9.95 9.94v106.23c0 5.5 4.45 9.94 9.95 9.94h170.72c5.5 0 9.96-4.44 9.96-9.94V112.9a9.95 9.95 0 00-9.96-9.94z"/><path opacity="0.19" d="M447.44 229.98H271.51a8.28 8.28 0 01-8.27-8.25V110.28c0-4.56 3.7-8.25 8.27-8.25h175.93c4.57 0 8.26 3.7 8.27 8.25v111.46c0 4.55-3.7 8.24-8.27 8.24zM271.51 103.87a6.43 6.43 0 00-6.43 6.37V221.7a6.42 6.42 0 006.43 6.41h175.93a6.45 6.45 0 006.43-6.42V110.3a6.43 6.43 0 00-6.43-6.38l-175.93-.04z"/></g><path d="M385.09 277.07H160.52a1.35 1.35 0 01-.96-2.3c.26-.25.6-.39.96-.39h224.57a1.35 1.35 0 010 2.7zm31.04 0H397.4a1.35 1.35 0 010-2.69h18.74a1.35 1.35 0 110 2.7zm23.68 0h-13.37a1.35 1.35 0 110-2.69h13.38a1.35 1.35 0 010 2.7zm-139.27 12.44a4.77 4.77 0 100-9.55 4.77 4.77 0 000 9.55z" fill="#6B6A78"/><path d="M285.99 294.98h29.1v36.87h-29.1v-36.87z" fill="#313139"/><path d="M316.44 333.2h-31.82v-39.57h31.8l.02 39.57zm-29.1-2.66h26.4v-34.19h-26.4v34.19z" fill="#1E1E27"/><path d="M248.35 331.85h104.38v9.02H248.35v-9.02z" fill="#282830"/><path d="M352.73 342.22H248.35a1.35 1.35 0 01-1.35-1.35v-9.02a1.35 1.35 0 011.35-1.35h104.38a1.35 1.35 0 011.35 1.35v9.04a1.34 1.34 0 01-1.35 1.33zm-103.04-2.7h101.7v-6.33h-101.7v6.33zm280.39-120.28a20.48 20.48 0 01-20.47-20.43 20.42 20.42 0 0120.47-20.43 1.35 1.35 0 011.25 1.34 1.35 1.35 0 01-1.25 1.34 17.8 17.8 0 00-18.27 17.75 17.73 17.73 0 0018.27 17.75 1.34 1.34 0 011.44 1.34 1.35 1.35 0 01-1.44 1.34zm8.54 22a1.35 1.35 0 110-2.7 8.91 8.91 0 008.9-8.89 8.88 8.88 0 00-8.9-8.89 1.35 1.35 0 01-.9-2.26c.24-.25.56-.4.9-.43a11.63 11.63 0 0111.07 7.06 11.57 11.57 0 01-11.07 16.1zm-8.22 13.43a7.56 7.56 0 01-7.54-7.54 7.53 7.53 0 017.54-7.53 1.36 1.36 0 011.36 1.35 1.35 1.35 0 01-1.36 1.35 4.85 4.85 0 100 9.68 1.35 1.35 0 110 2.69zm23.58 87.55h-33.12a1.35 1.35 0 01-1.35-1.35 1.34 1.34 0 011.35-1.35H554a1.35 1.35 0 110 2.7h-.01zm-414.04.72H40.11c-2.24 0-4.06-.66-4.06-1.49 0-.81 1.82-1.47 4.06-1.47h99.83c2.25 0 4.06.66 4.06 1.47 0 .82-1.81 1.49-4.05 1.49h-.01zm394.92-101.25a1.35 1.35 0 111.34-1.61 1.33 1.33 0 01-1.33 1.6zm-.46-21.47a1.35 1.35 0 11.49-.08c-.17.07-.35.1-.53.09h.04zm.42-39.16a1.35 1.35 0 11.5-.09c-.16.07-.33.1-.5.1zm-.88 74.24a1.35 1.35 0 01-1.06-2.16 1.35 1.35 0 012.28 1.41 1.35 1.35 0 01-1.25.75h.03zm3.08 2.46a1.35 1.35 0 010-2.7 1.37 1.37 0 011.33 1.39 1.34 1.34 0 01-1.33 1.31zm-361.94 84.46h-21.83a1.35 1.35 0 010-2.7h21.83a1.35 1.35 0 110 2.7zM128.96 338.65H26.11a9.57 9.57 0 01-9.57-9.56v-3.55a9.56 9.56 0 019.57-9.56h102.86" fill="#B0B0B7"/><path d="M128.96 338.65H26.11a9.57 9.57 0 01-9.57-9.56v-3.55a9.56 9.56 0 019.57-9.56h102.86" stroke="#1E1E27" stroke-width="4" stroke-linecap="round" stroke-linejoin="round"/><path d="M129.39 338.38H26.5c-5.26 0-9.57-3.56-9.57-7.88h112.44v7.88z" fill="#C1C1C6"/><path d="M122.92 317.59v19.57" stroke="#1E1E27" stroke-width="4" stroke-linecap="round" stroke-linejoin="round"/><path d="M12.93 293.43H115.8a9.57 9.57 0 009.57-9.55v-3.53a9.56 9.56 0 00-9.57-9.56H12.93" fill="#3A3A42"/><path d="M12.93 293.43H115.8a9.57 9.57 0 009.57-9.55v-3.53a9.56 9.56 0 00-9.57-9.56H12.93" stroke="#1E1E27" stroke-width="4" stroke-linecap="round" stroke-linejoin="round"/><path d="M12.93 293.43H115.8a9.57 9.57 0 009.57-9.55v-3.53a9.56 9.56 0 00-9.57-9.56H12.93" fill="#3A3A42"/><path d="M12.93 293.43H115.8a9.57 9.57 0 009.57-9.55v-3.53a9.56 9.56 0 00-9.57-9.56H12.93" stroke="#1E1E27" stroke-width="4" stroke-linecap="round" stroke-linejoin="round"/><path d="M12.93 293.43H115.8a9.57 9.57 0 009.57-9.55v-3.53a9.56 9.56 0 00-9.57-9.56H12.93" fill="#B0B0B7"/><path d="M18.97 272.38v19.56m-6.04 1.5H115.8a9.57 9.57 0 009.57-9.56v-3.53a9.56 9.56 0 00-9.57-9.56H12.93v22.64z" stroke="#3D3D4E" stroke-width="4" stroke-linecap="round" stroke-linejoin="round"/><path d="M129.53 294.98H23.65a2.72 2.72 0 00-2.72 2.72v13a2.72 2.72 0 002.72 2.72h105.88a2.73 2.73 0 002.73-2.72v-13a2.72 2.72 0 00-2.72-2.72h-.01z" fill="#96D1CD" stroke="#1E1E27" stroke-width="4" stroke-linecap="round" stroke-linejoin="round"/><path d="M109.93 249.2H4.05a2.72 2.72 0 00-2.72 2.72v13a2.72 2.72 0 002.72 2.71h105.88a2.73 2.73 0 002.73-2.72v-13a2.72 2.72 0 00-2.73-2.71z" fill="#FFAFA4" stroke="#1E1E27" stroke-width="4" stroke-linecap="round" stroke-linejoin="round"/><path d="M120.1 221.02H14.21a2.72 2.72 0 00-2.72 2.72v19.6a2.72 2.72 0 002.72 2.72H120.1a2.73 2.73 0 002.72-2.72v-19.6a2.72 2.72 0 00-2.72-2.72z" fill="#74C3E1" stroke="#1E1E27" stroke-width="4" stroke-linecap="round" stroke-linejoin="round"/><path d="M120.1 221.02H14.21a2.72 2.72 0 00-2.72 2.72v19.6a2.72 2.72 0 002.72 2.72H120.1a2.73 2.73 0 002.72-2.72v-19.6a2.72 2.72 0 00-2.72-2.72z" fill="#74C3E1" stroke="#1E1E27" stroke-width="4" stroke-linecap="round" stroke-linejoin="round"/><path d="M85.93 331.15h27.93-27.93zm26.73-53.28h-86.5 86.5v0zm-85.31 45.6h86.5-86.5v0zm36.08 7.68h13.15-13.15zm-36.08 0h27.94-27.94z" stroke="#3D3D4E" stroke-width="4" stroke-linecap="round" stroke-linejoin="round"/><path d="M454.4 93.13H283.68a9.95 9.95 0 00-9.96 9.93V209.3a9.95 9.95 0 009.97 9.94h170.7c5.51 0 9.97-4.45 9.97-9.94V103.06a9.95 9.95 0 00-9.96-9.93z" fill="#6B6A78"/><path d="M457.01 220.15H281.06a8.27 8.27 0 01-8.25-8.25V100.46c0-4.56 3.7-8.25 8.25-8.25h175.95a8.26 8.26 0 018.27 8.24V211.9c0 4.56-3.7 8.25-8.27 8.25zM281.06 94.03a6.44 6.44 0 00-6.42 6.42V211.9a6.4 6.4 0 006.42 6.42h175.95a6.44 6.44 0 006.43-6.42V100.46a6.42 6.42 0 00-6.43-6.42H281.06z" fill="#1E1E27"/><path d="M464.35 109.96v99.76a9.96 9.96 0 01-9.95 9.95H283.66a10 10 0 01-9.96-9.95v-99.76h190.65zm-29.3-5.15a3.58 3.58 0 003.43-4.96 3.56 3.56 0 00-5.86-1.07 3.56 3.56 0 002.42 6.03zm-149.06 0a3.58 3.58 0 003.72-3.56 3.56 3.56 0 00-6.15-2.47 3.56 3.56 0 002.43 6.03zm162.69 0a3.58 3.58 0 003.72-3.56 3.56 3.56 0 00-6.14-2.47 3.56 3.56 0 002.42 6.03z" fill="#1E1E27"/><path d="M442.2 220.28h18.47v10.45H442.2V220.3z" fill="#E8E9FC"/><path d="M292.13 125.8h27.6" stroke="#3A3A42" stroke-width="4" stroke-linecap="round" stroke-linejoin="round"/><path d="M329.53 125.8h27.61" stroke="#74BF44" stroke-width="4" stroke-linecap="round" stroke-linejoin="round"/><path d="M366.96 125.8h13.8" stroke="#3A3A42" stroke-width="4" stroke-linecap="round" stroke-linejoin="round"/><path d="M292.13 137.8h20.18" stroke="#67C7CC" stroke-width="4" stroke-linecap="round" stroke-linejoin="round"/><path d="M320.92 137.8h16.92" stroke="#EC2831" stroke-width="4" stroke-linecap="round" stroke-linejoin="round"/><path d="M346.47 137.8h13.8" stroke="#3A3A42" stroke-width="4" stroke-linecap="round" stroke-linejoin="round"/><path d="M292.13 149.8h27.6" stroke="#74BF44" stroke-width="4" stroke-linecap="round" stroke-linejoin="round"/><path d="M329.53 149.8h47.2" stroke="#67C7CC" stroke-width="4" stroke-linecap="round" stroke-linejoin="round"/><path d="M322.85 161.81h34.73-34.73zm-30.72 0h21.62-21.62z" stroke="#ECAA26" stroke-width="4" stroke-linecap="round" stroke-linejoin="round"/><path d="M367.84 161.81h13.8" stroke="#3A3A42" stroke-width="4" stroke-linecap="round" stroke-linejoin="round"/><path d="M292.13 173.82h27.6" stroke="#67C7CC" stroke-width="4" stroke-linecap="round" stroke-linejoin="round"/><path d="M329.53 173.82h19" stroke="#74BF44" stroke-width="4" stroke-linecap="round" stroke-linejoin="round"/><path d="M292.13 185.82h20.18" stroke="#3A3A42" stroke-width="4" stroke-linecap="round" stroke-linejoin="round"/><path d="M320.94 185.82h25.53" stroke="#67C7CC" stroke-width="4" stroke-linecap="round" stroke-linejoin="round"/><path d="M292.13 197.83h10.09" stroke="#EC2831" stroke-width="4" stroke-linecap="round" stroke-linejoin="round"/><path d="M310.03 197.83h27.62" stroke="#74BF44" stroke-width="4" stroke-linecap="round" stroke-linejoin="round"/><path d="M346.63 197.83h13.8" stroke="#3A3A42" stroke-width="4" stroke-linecap="round" stroke-linejoin="round"/><path d="M354.84 185.82h25.53" stroke="#67C7CC" stroke-width="4" stroke-linecap="round" stroke-linejoin="round"/><path d="M426.11 189.83l-.12.13-2.7 2.7a.61.61 0 000 1l3.93 3.92.13.1-1.1 1.1-.12-.1c-1.31-1.32-2.64-2.62-3.94-3.98a.69.69 0 00-.79-.18.69.69 0 00-.23.18c-.88.9-1.8 1.79-2.7 2.68l-.11.16-4.53-12.27 12.28 4.56z" fill="#B0B0B7"/><path d="M208.48 148.63h-59.25a8.23 8.23 0 00-8.23 8.22v81.42a8.22 8.22 0 008.23 8.21h59.25a8.22 8.22 0 008.22-8.21v-81.42a8.22 8.22 0 00-8.22-8.22z" fill="#41414A" stroke="#1E1E27" stroke-width="3" stroke-linecap="round" stroke-linejoin="round"/><path d="M155.23 168.48a5.13 5.13 0 003.62-8.73 5.13 5.13 0 00-7.24 7.24c.96.95 2.26 1.5 3.62 1.5zM167.06 163.37h31.88-31.88z" fill="#E5E5E5"/><path d="M167.06 163.37h31.88" stroke="#E5E5E5" stroke-width="3" stroke-linecap="round" stroke-linejoin="round"/><path d="M174.74 175.38h16.62-16.62zm-7.68 3.05a3.07 3.07 0 003.06-3.05 3.06 3.06 0 10-3.06 3.05zm7.68 8.06h23.23-23.23zm-7.68 3.05a3.07 3.07 0 003.06-3.05 3.06 3.06 0 10-3.06 3.05zm7.68 8.06h12.4-12.4zm-7.68 3.05a3.05 3.05 0 100-6.1 3.05 3.05 0 000 6.1z" fill="#E5E5E5" stroke="#E5E5E5" stroke-width="2" stroke-linecap="round" stroke-linejoin="round"/><path d="M155.23 216.6a5.12 5.12 0 100-10.25 5.12 5.12 0 000 10.25zM167.06 211.49h26.28-26.28z" fill="#E5E5E5"/><path d="M167.06 211.49h26.28" stroke="#E5E5E5" stroke-width="3" stroke-linecap="round" stroke-linejoin="round"/><path d="M174.74 223.49h18.6-18.6zm-7.68 3.05a3.06 3.06 0 100-6.12 3.06 3.06 0 000 6.12zm23.5 8.08h11.6-11.6zm-15.82 0h11.62-11.62zm-7.68 3.05a3.06 3.06 0 100-6.12 3.06 3.06 0 000 6.12z" fill="#E5E5E5" stroke="#E5E5E5" stroke-width="2" stroke-linecap="round" stroke-linejoin="round"/><path d="M149.38 251.8c0-1.38-.8-2.76-.8-4.13h10.66l-.4 8.45c-1.78 0-3.16-.4-4.93-.4" fill="#E8E9FC"/><path opacity="0.4" d="M481.3 296.57l5.08-31.92 7.57 1.52-6.33 39.63-6.33-1.47v-7.76h0z" fill="#FFBB4D" stroke="#B0B0B7" stroke-width="2" stroke-linecap="round" stroke-linejoin="round"/><path opacity="0.4" d="M485.36 271.06l7.56 1.55" stroke="#1E1E27" stroke-width="2" stroke-linecap="round" stroke-linejoin="round"/><path opacity="0.4" d="M475.07 300.17l.06-32.33 7.7.33-.07 40.13-6.49-.47-1.2-7.66h0z" fill="#C7C8C9" stroke="#B0B0B7" stroke-width="2" stroke-linecap="round" stroke-linejoin="round"/><path opacity="0.4" d="M466.88 308.76l-8.53-29.72a1.24 1.24 0 01.91-1.6l5.05-1.22a1.28 1.28 0 011.52.89l10.36 36.1a1.3 1.3 0 01-.12 1 1.27 1.27 0 01-.82.6l-4.05.86a1.28 1.28 0 01-1.42-.7l-2.81-6.05-.09-.16z" fill="#B0B0B7"/><path opacity="0.4" d="M475.92 272.6h-3.22v11.82" stroke="#B0B0B7" stroke-width="2" stroke-linecap="round" stroke-linejoin="round"/><path opacity="0.4" d="M487.06 265.58l-.78 4.83 5.9 1.16.74-4.77-5.86-1.22z" fill="#FF7DCC"/><path d="M462.55 339.44h25.85l4.38-44.21h-35.65l5.42 44.21z" fill="#CFEBF9"/><path d="M489.3 342.14h-27.55a.95.95 0 01-.95-.83l-5.68-46.13a1 1 0 01.23-.74.95.95 0 01.72-.32h37.8a.96.96 0 01.9.65c.05.13.07.26.05.4l-4.56 46.11a.95.95 0 01-.96.86zm-26.75-1.9h25.85l4.38-44.22h-35.65l5.42 44.22z" fill="#A0A3A8"/><path d="M569.04 342.22H190.85a1.35 1.35 0 010-2.7h378.19a1.35 1.35 0 110 2.7z" fill="#1E1E27"/><path d="M562.74 321.13H451.4a2.73 2.73 0 00-2.73 2.72v13a2.72 2.72 0 002.73 2.72h111.33a2.73 2.73 0 002.73-2.72v-13a2.71 2.71 0 00-2.73-2.72h0z" fill="#FFCDB2" stroke="#1E1E27" stroke-width="4" stroke-linecap="round" stroke-linejoin="round"/><path d="M249.11 91.88h-54.44a6.14 6.14 0 00-6.13 6.13v32.43a6.14 6.14 0 006.14 6.13h54.43a6.14 6.14 0 006.14-6.13V98a6.13 6.13 0 00-6.14-6.12v0z" fill="#3A3A42" stroke="#1E1E27" stroke-width="3" stroke-linecap="round" stroke-linejoin="round"/><path opacity="0.19" d="M253.74 96.77H199.3a6.14 6.14 0 00-6.14 6.13v32.42a6.14 6.14 0 006.14 6.13h54.44a6.13 6.13 0 006.13-6.13V102.9a6.13 6.13 0 00-6.14-6.13h.01z" fill="#6B6B6B"/><path d="M217.32 123.36l8.8-17.86-8.8 17.86zm-7.88-18.26l-8.69 8.67 9.48 9.2-.8-17.88v.01zm24.12.4l8.68 8.66-9.49 9.2.8-17.86h0z" stroke="#E5E5E5" stroke-width="4" stroke-linecap="round" stroke-linejoin="round"/><path opacity="0.23" d="M241.58 236.89h172.24v14.23H241.58V236.9z" stroke="#F5F5F5" stroke-width="2" stroke-linecap="round" stroke-linejoin="round"/><path d="M147.95 314.94h67.17-67.17zm3.94 19.68h9.98-9.98zm16.74 0h34.77-34.78zm62.04-162.3h23.66-23.66zm0 11.76h23.66-23.66zm0 11.77h23.66-23.66zm0 11.76h23.66-23.66z" fill="#FCE3DE"/><path d="M230.67 207.61h23.66-23.66zm-82.72 107.33h67.17-67.17zm3.94 19.68h9.98-9.98zm16.74 0h34.77-34.78zm62.04-162.3h23.66-23.66zm0 11.76h23.66-23.66zm0 11.77h23.66-23.66z" stroke="#FEEAEA" stroke-width="3" stroke-linecap="round" stroke-linejoin="round"/><path d="M256.38 95.56h16.42v12.8h-16.4v-12.8h-.01z" fill="#6B6A78"/><path d="M407.44 325.32v7.93-7.93zm-17.17 8.52h32.02-32.02z" fill="#FCE3DE"/><path d="M390.27 333.84h32.02-32.02zm17.17-8.51v7.92-7.93z" stroke="#B0B0B7" stroke-width="3" stroke-linecap="round" stroke-linejoin="round"/><path d="M426 341.88h-37.14a1.34 1.34 0 01-1.35-1.35 19.88 19.88 0 0112-19.5 19.98 19.98 0 0126.68 11.52 19.91 19.91 0 011.16 7.98 1.35 1.35 0 01-1.34 1.35zm-35.73-2.7h34.31a17.18 17.18 0 00-17.15-15.75 17.23 17.23 0 00-17.16 15.75z" fill="#1E1E27"/><path d="M47.38 229.43h2.23c.58 0 1.04.15 1.37.43.33.29.49.7.49 1.22 0 .53-.16.93-.5 1.23a2 2 0 01-1.36.43h-1.58v2.3h-.65v-5.6zm2.16 2.78c.86 0 1.28-.38 1.28-1.13 0-.73-.42-1.1-1.28-1.1h-1.5v2.22h1.5zm7.18-2.78l-2.2 2.96v2.66h-.66v-2.66l-2.2-2.96h.75l1.78 2.42 1.8-2.42h.73zm2.04 5.62v-5.06H56.8v-.56h4.58v.56h-1.96v5.06h-.67zm7.42-5.62h.64v5.62h-.64v-2.58h-3.37v2.58h-.64v-5.62h.64v2.48h3.37v-2.48zm4.38 5.68a2.31 2.31 0 01-2.25-1.35c-.22-.47-.32-1-.31-1.52 0-.58.1-1.1.3-1.53.21-.43.51-.76.89-1 .42-.23.9-.36 1.37-.34.53 0 .98.12 1.37.35.39.23.7.58.88 1 .2.43.31.93.31 1.52 0 .58-.1 1.09-.3 1.52-.2.42-.51.76-.9 1-.39.23-.84.35-1.36.35zm0-.56c.6 0 1.06-.2 1.39-.6.33-.4.5-.97.5-1.72 0-.74-.16-1.31-.49-1.7-.33-.4-.8-.6-1.4-.6-.6 0-1.06.2-1.4.6-.32.4-.49.97-.49 1.7 0 .75.17 1.32.5 1.71.33.4.8.62 1.4.62zm7.63-5.12h.61v5.62h-.5l-3.38-4.52v4.52h-.62v-5.62h.5l3.4 4.51v-4.5z" fill="#3A3A42"/><path d="M468.95 332.14l.48-.02a.91.91 0 00.62-.29c.14-.16.22-.4.22-.69v-4.11h.65v4.12c0 .46-.12.82-.36 1.09-.23.26-.59.4-1.05.42l-.5.04-.06-.56zm7.66.5l-.62-1.44h-2.94l-.62 1.44h-.67l2.47-5.61h.57l2.47 5.61h-.66zm-3.33-1.99h2.47l-1.23-2.86-1.24 2.87zm8.45-3.62h.66l-2.45 5.61h-.56l-2.46-5.61h.69l2.06 4.79 2.06-4.79zm5.17 5.61l-.62-1.44h-2.94l-.62 1.44h-.66l2.46-5.61h.57l2.47 5.61h-.66zm-3.32-1.99h2.47l-1.24-2.86-1.24 2.87h.01z" fill="#1E1E27"/><path d="M69.97 306.12c-.53 0-1-.11-1.39-.34-.4-.23-.7-.58-.9-1-.22-.48-.33-1-.31-1.53 0-.6.1-1.1.3-1.53.22-.43.52-.76.91-1a3.04 3.04 0 012.45-.16c.34.12.62.3.86.53l-.25.5a2.37 2.37 0 00-1.66-.64c-.62 0-1.1.2-1.44.6-.33.4-.5.97-.5 1.7s.17 1.3.5 1.7c.34.4.82.6 1.44.6.62.01 1.21-.22 1.66-.64l.25.5a2.2 2.2 0 01-.85.53c-.34.12-.7.18-1.07.18zm6.65-2.57v.5h-1.7v1.68h-.5v-1.69h-1.7v-.5h1.7v-1.7h.5v1.7h1.7zm4.78 0v.5h-1.7v1.68h-.5v-1.69h-1.7v-.5h1.7v-1.7h.5v1.7h1.7z" fill="#3A3A42"/><path d="M48.92 260.43h-.71l-.96-1.8a1 1 0 00-.41-.45c-.2-.1-.42-.14-.64-.13h-1.06v2.38h-.64v-5.61h2.31c.61 0 1.08.13 1.4.4.32.27.48.67.48 1.19 0 .44-.12.8-.37 1.06s-.6.44-1.05.5c.14.04.26.12.37.22.11.1.21.24.3.4l.98 1.84zm-2.16-2.92c.43 0 .76-.09.97-.27.22-.18.33-.45.33-.82 0-.36-.11-.63-.33-.8-.2-.18-.53-.27-.97-.27h-1.62v2.16h1.62zm5.4 2.99c-.73 0-1.29-.2-1.67-.58-.38-.39-.56-.95-.56-1.7v-3.4h.64v3.47c0 .54.13.95.4 1.23.27.27.66.41 1.19.41.52 0 .91-.13 1.18-.41.26-.28.4-.69.4-1.23v-3.47h.65v3.4c0 .75-.2 1.3-.58 1.7-.37.38-.93.57-1.66.57h.01zm6.76-2.96c.33.09.58.25.75.48.18.23.27.53.27.88a1.4 1.4 0 01-.48 1.14c-.33.26-.78.39-1.38.39h-2.35v-5.61H58c.58 0 1.03.12 1.35.37.32.26.48.62.48 1.09a1.29 1.29 0 01-.9 1.26zm-2.54-.24h1.51c.43 0 .74-.08.95-.25a.89.89 0 00.34-.74c0-.64-.44-.96-1.29-.96h-1.51v1.95zm1.63 2.58c.45 0 .77-.07.98-.23.21-.17.32-.42.32-.77 0-.69-.43-1.03-1.3-1.03h-1.63v2.03H58zm7.23-5.06l-2.22 2.95v2.66h-.65v-2.66l-2.21-2.95h.76l1.8 2.41 1.77-2.41h.75z" fill="#1E1E27"/><path d="M9.35 259.55v-10.22 10.22zm116.1 53.22v-10.22 10.22zm-97.7 0v-10.22 10.22zm427.96 8.89v15.5-15.51z" fill="#3A3A42"/><path d="M455.7 321.65v15.5-15.5zM9.36 259.55v-10.22 10.22zm116.1 53.22v-10.22 10.22zm-97.7 0v-10.22 10.22z" stroke="#1E1E27" stroke-width="3" stroke-linecap="round" stroke-linejoin="round"/><path d="M11.5 272.38h5.65v19.57H11.5v-19.57zm113.24 45.02h5.65v19.57h-5.65V317.4z" fill="#CCCBFF"/><path d="M12.1 239.56h110.83v5.34H12.1v-5.34z" fill="#3AA0BF"/><path d="M112.66 246.34V225.5v20.84zm-93.75 0V225.5v20.84z" fill="#3A3A42"/><path d="M18.9 246.34V225.5v20.84zm93.76 0V225.5v20.84z" stroke="#3D3D4E" stroke-width="3" stroke-linecap="round" stroke-linejoin="round"/><path d="M20.93 307.66h111.32v5.1H20.93v-5.1z" fill="#4BBCB1"/><path d="M128.96 338.65H26.11a9.57 9.57 0 01-9.57-9.56v-3.55a9.56 9.56 0 019.57-9.56h102.86" stroke="#3D3D4E" stroke-width="4" stroke-linecap="round" stroke-linejoin="round"/><path d="M20.93 293.59h95.4c5.26 0 9.56-3.55 9.56-7.88H20.93v7.88z" fill="#C1C1C6"/><path d="M112.66 285.54H84.73h27.93zm-36.07 0H26.17h50.42z" stroke="#3D3D4E" stroke-width="4" stroke-linecap="round" stroke-linejoin="round"/><path d="M249.7 337.29h101.68v2.21H249.7v-2.22z" fill="#6B6A78"/><path opacity="0.14" d="M468.25 295.44v26.09l-8.9-.4-4.25-25.94 13.15.25z" fill="#1E1E27"/><path d="M120.1 221.02H14.21a2.72 2.72 0 00-2.72 2.72v19.6a2.72 2.72 0 002.72 2.72H120.1a2.73 2.73 0 002.72-2.72v-19.6a2.72 2.72 0 00-2.72-2.72z" stroke="#3D3D4E" stroke-width="4" stroke-linecap="round" stroke-linejoin="round"/><path d="M1.33 262.03h111.32v5.6H1.33v-5.6z" fill="#EF867B"/><path d="M109.93 249.2H4.05a2.72 2.72 0 00-2.72 2.72v13a2.72 2.72 0 002.72 2.71h105.88a2.73 2.73 0 002.73-2.72v-13a2.72 2.72 0 00-2.73-2.71zm19.6 45.78H23.65a2.72 2.72 0 00-2.72 2.72v13a2.72 2.72 0 002.72 2.72h105.88a2.73 2.73 0 002.73-2.72v-13a2.72 2.72 0 00-2.72-2.72h-.01z" stroke="#3D3D4E" stroke-width="4" stroke-linecap="round" stroke-linejoin="round"/><path d="M125.45 312.77v-10.22 10.22zm-97.7 0v-10.22 10.22z" fill="#3A3A42"/><path d="M27.75 312.77v-10.22 10.22zm97.7 0v-10.22 10.22z" stroke="#3D3D4E" stroke-width="3" stroke-linecap="round" stroke-linejoin="round"/><path d="M456.73 334.24H563.6v3.68H456.72v-3.68h.01z" fill="#ED956E"/><path d="M506.7 273.13l2.3 17.12 49.37.42 1.36-17.54H506.7z" fill="#3A3A42"/><path d="M509 291l3.46 28.1h42.06l2.54-28.1H509z" fill="#8C7B62"/><path d="M541.87 312.82a8.12 8.12 0 005.74-13.83 8.12 8.12 0 00-13.86 5.73 8.1 8.1 0 008.12 8.1z" fill="#3A3A42"/><path d="M541.87 314.94a10.27 10.27 0 01-10.52-10.23 10.23 10.23 0 0110.52-10.23 10.26 10.26 0 019.99 10.23 10.23 10.23 0 01-10 10.23zm0-16.19a6 6 0 00-6.26 5.97 5.95 5.95 0 006.26 5.96 5.98 5.98 0 000-11.93z" fill="#1E1E27"/><path d="M513.91 321.65l1.71 15.08h36.75l1.44-15.08h-39.9z" fill="#3A3A42"/><path d="M507.77 273.88l2.3 17.13 16.44.4v-17.53h-18.74zm4.46 46.76l2.29 17.12 12 .42v-17.55h-14.3v.01z" fill="#E8E8E8"/><path d="M557.06 292.35H509a1.36 1.36 0 01-.9-2.28c.23-.25.55-.4.9-.42h48.06a1.36 1.36 0 01.9 2.27c-.24.25-.56.4-.9.43z" fill="#1E1E27"/><path d="M12.93 293.43H115.8a9.57 9.57 0 009.57-9.55v-3.53a9.56 9.56 0 00-9.57-9.56H12.93" stroke="#1E1E27" stroke-width="4" stroke-linecap="round" stroke-linejoin="round"/><path d="M553.59 339.42h-38.94a1.34 1.34 0 01-1.33-1.17l-8.04-65.15a1.38 1.38 0 01.8-1.4c.16-.07.35-.1.54-.1h53.4a1.34 1.34 0 011 .44 1.33 1.33 0 01.35 1.03l-6.44 65.14a1.34 1.34 0 01-1.34 1.21zm-37.74-2.7h36.52l6.17-62.43h-50.4l7.7 62.44z" fill="#1E1E27"/><path d="M559.4 279.46h-52a1.35 1.35 0 01-1.34-1.34 1.35 1.35 0 011.35-1.35h51.98a1.35 1.35 0 011.35 1.35 1.35 1.35 0 01-1.35 1.34h.01zm-4.87 42.2h-42.07a1.35 1.35 0 01-1.35-1.35 1.35 1.35 0 011.35-1.35h42.07a1.34 1.34 0 011.45 1.35 1.34 1.34 0 01-.9 1.27c-.18.06-.36.08-.55.07z" fill="#1E1E27"/><path d="M463.43 300.54h28.85-28.85zm-4.79 7.52h28.06-28.06zm7.98 8.3h23.67-23.67z" fill="#FCE3DE"/><path d="M466.63 316.36h23.66-23.67zm-3.2-15.82h28.85-28.85zm-4.79 7.52h28.06-28.06z" stroke="#A0A3A8" stroke-width="3" stroke-linecap="round" stroke-linejoin="round"/><path d="M49.83 112.7A36.11 36.11 0 0083.6 90.58 35.97 35.97 0 0063.8 43.27a36.12 36.12 0 00-39.15 8.12 35.99 35.99 0 0025.2 61.3z" fill="#3A3A42" stroke="#6B6A78" stroke-width="3"/><path opacity="0.12" d="M85.5 75.47a35.97 35.97 0 01-22.16 33.72A36.12 36.12 0 0115.96 89.4a35.97 35.97 0 01-2.6-13.93h72.13z" fill="#A0A3A8"/><path d="M49.83 106.63c7.96 0 15.59-3.16 21.21-8.78a29.92 29.92 0 00-21.2-51.12 30.02 30.02 0 00-21.21 8.77 29.92 29.92 0 0021.2 51.13v0z" stroke="#B0B0B7" stroke-width="4" stroke-linecap="round" stroke-linejoin="round" stroke-dasharray="1.04 1.04"/><path d="M47.04 82.69l10.02-18.68-10.02 18.68zM33.68 56.01l23.38 30.01-23.38-30.01v0z" stroke="#B0B0B7" stroke-width="4" stroke-linecap="round" stroke-linejoin="round"/></g><defs><clipPath id="landingPageImageDark"><path fill="#fff" d="M0 0h600v342.99H0z"/></clipPath></defs></svg>