<svg
  width="1204"
  height="291"
  viewBox="0 0 1204 291"
  fill="none"
  xmlns="http://www.w3.org/2000/svg"
>
  <g filter="url(#a)">
    <rect x="28" y="170.4" width="83.7" height="83.7" rx="8" fill="#313139" />
  </g>
  <g filter="url(#b)">
    <rect
      x="236.9"
      y="170.4"
      width="83.7"
      height="83.7"
      rx="8"
      fill="#313139"
    />
  </g>
  <g filter="url(#c)">
    <rect
      x="448.4"
      y="170.4"
      width="83.7"
      height="83.7"
      rx="8"
      fill="#313139"
    />
  </g>
  <g filter="url(#d)">
    <rect x="660" y="170.4" width="83.7" height="83.7" rx="8" fill="#313139" />
  </g>
  <g filter="url(#e)">
    <rect
      x="871.5"
      y="170.4"
      width="83.7"
      height="83.7"
      rx="8"
      fill="#313139"
    />
  </g>
  <g filter="url(#f)">
    <rect
      x="132.5"
      y="130.8"
      width="83.7"
      height="83.7"
      rx="8"
      fill="#313139"
    />
  </g>
  <g filter="url(#g)">
    <rect
      x="978.5"
      y="130.8"
      width="83.7"
      height="83.7"
      rx="8"
      fill="#313139"
    />
  </g>
  <g filter="url(#h)">
    <rect x="344" y="130.8" width="83.7" height="83.7" rx="8" fill="#313139" />
  </g>
  <g filter="url(#i)">
    <rect x="28" y="68.6" width="83.7" height="83.7" rx="8" fill="#313139" />
  </g>
  <g filter="url(#j)">
    <rect x="239.5" y="68.6" width="83.7" height="83.7" rx="8" fill="#313139" />
  </g>
  <g filter="url(#k)">
    <rect x="451" y="70.5" width="83.7" height="83.7" rx="8" fill="#313139" />
  </g>
  <g filter="url(#l)">
    <rect x="662.6" y="68.6" width="83.7" height="83.7" rx="8" fill="#313139" />
  </g>
  <g filter="url(#m)">
    <rect x="874.1" y="68.6" width="83.7" height="83.7" rx="8" fill="#313139" />
  </g>
  <g filter="url(#n)">
    <rect x="556" y="120" width="83.7" height="83.7" rx="8" fill="#313139" />
  </g>
  <g filter="url(#o)">
    <rect x="767" y="120.5" width="83.7" height="83.7" rx="8" fill="#313139" />
  </g>
  <g filter="url(#p)">
    <rect x="132.5" y="29" width="83.7" height="83.7" rx="8" fill="#313139" />
  </g>
  <g filter="url(#q)">
    <rect x="978.5" y="29" width="83.7" height="83.7" rx="8" fill="#313139" />
  </g>
  <g filter="url(#r)">
    <rect x="1083" y="68" width="83.7" height="83.7" rx="8" fill="#313139" />
  </g>
  <path d="M84.7 200 82 230l-12 3.4-12-3.4-2.7-30h29.4Z" fill="#E44D26" />
  <path d="m70 230.8 9.7-2.7 2.3-25.6H70v28.3Z" fill="#F16529" />
  <path
    d="M64.8 209.8H70v-3.7h-9.3l.1 1 1 10.2H70v-3.7h-5l-.2-3.8Z"
    fill="#EBEBEB"
  />
  <path
    d="M70 217.3h4.5L74 222l-4.2 1v3.9l7.6-2.1v-.6l1-9.7v-1H70v3.7Z"
    fill="#fff"
  />
  <path d="M65.6 219.1h-3.7l.5 5.8 7.5 2.1v-3.8l-4-1.1-.3-3Z" fill="#EBEBEB" />
  <path
    d="M58 191.8h1.9v1.9h1.7v-1.9h1.8v5.6h-1.8v-1.8h-1.7v1.8h-2v-5.6ZM66 193.7h-1.7v-1.9h5.1v1.9h-1.6v3.7h-1.9v-3.7ZM70.2 191.8h2l1.2 2 1.2-2h2v5.6h-2v-2.7l-1.2 2-1.3-2v2.7h-1.9v-5.6ZM77.5 191.8h1.9v3.8H82v1.8h-4.5v-5.6ZM70 209.8h8.8l.1-.8.2-1.9v-1H70v3.7Z"
    fill="#fff"
  />
  <g filter="url(#s)">
    <rect x="344" y="29" width="83.7" height="83.7" rx="8" fill="#313139" />
  </g>
  <path
    d="M694.8 191.8a1.2 1.2 0 0 0-1 1.8l1.3 2.4c-3.2 2-5.3 5.4-5.3 9.2v.7a3.3 3.3 0 0 0-5.8 2.2v10.2a3.3 3.3 0 0 0 5.8 2.2v1.5c0 1.9 1.6 3.5 3.5 3.5h1v4.5a3.3 3.3 0 0 0 6.6 0v-4.5h1.5v4.5a3.3 3.3 0 0 0 6.7 0v-4.5h.9c2 0 3.5-1.6 3.5-3.5v-1.5c.6.7 1.5 1.2 2.5 1.2 1.8 0 3.3-1.5 3.3-3.4v-10.2a3.3 3.3 0 0 0-5.8-2.2v-.7c0-3.8-2.1-7.2-5.3-9.2l1.3-2.3c.4-.6.1-1.4-.4-1.7l-.6-.2c-.5 0-.9.3-1.1.7L706 195a12.6 12.6 0 0 0-8.7 0l-1.4-2.5c-.2-.4-.6-.7-1-.7Z"
    fill="#fff"
  />
  <path
    d="M687.3 205.6c-1.4 0-2.5 1.1-2.5 2.5v10.2c0 1.4 1.1 2.5 2.5 2.5s2.5-1 2.5-2.5v-10.2c0-1.4-1.1-2.5-2.5-2.5Zm28.7 0c-1.4 0-2.5 1.1-2.5 2.5v10.2c0 1.4 1.1 2.5 2.5 2.5s2.5-1 2.5-2.5v-10.2c0-1.4-1.1-2.5-2.5-2.5ZM697.5 217.3c-1.3 0-2.4 1.1-2.4 2.5V230c0 1.4 1 2.5 2.4 2.5s2.5-1 2.5-2.5v-10.2c0-1.4-1-2.5-2.5-2.5Zm8.3 0c-1.4 0-2.5 1.1-2.5 2.5V230c0 1.4 1 2.5 2.5 2.5 1.3 0 2.4-1 2.4-2.5v-10.2c0-1.4-1-2.5-2.4-2.5Z"
    fill="#A4C639"
  />
  <path
    d="M694.8 192.7h-.1c-.2.2-.3.4-.2.5l1.8 3.2a10 10 0 0 0-5.6 8.8h22c0-3.8-2.3-7.1-5.7-8.8l1.8-3.2c0-.1 0-.3-.2-.4h-.4l-1.8 3.3a11.7 11.7 0 0 0-9.5 0l-1.8-3.2c0-.1-.1-.2-.3-.2Zm-4.1 13.3v16c0 1.4 1.2 2.6 2.6 2.6H710c1.4 0 2.6-1.2 2.6-2.6v-16h-22Z"
    fill="#A4C639"
  />
  <path
    d="M696.6 199.3a1 1 0 0 0-1 1c0 .4.5.9 1 .9s.9-.5.9-1-.4-.9-1-.9Zm10.1 0a1 1 0 0 0-.9 1c0 .4.4.9 1 .9.4 0 .8-.5.8-1s-.4-.9-.9-.9Z"
    fill="#fff"
  />
  <path
    d="M508.7 204c0-.6-.1-1.3-.4-1.8-.3-.5-.7-1-1.3-1.3l-14.8-8.5a3.6 3.6 0 0 0-4 0l-14.6 8.5a3.4 3.4 0 0 0-1.8 3.1v17.2c0 .6.1 1.2.4 1.8.3.5.8 1 1.4 1.3l14.7 8.5c1.3.7 2.6.8 3.9 0l14.8-8.5c.6-.3 1-.8 1.3-1.3.3-.6.4-1.2.4-1.8V204Z"
    fill="#A179DC"
  />
  <path
    d="m490.3 212.5-18 10.5c.2.5.7 1 1.3 1.3l14.7 8.5c1.3.7 2.6.8 3.9 0l14.8-8.5c.6-.3 1-.8 1.3-1.3l-18-10.5Z"
    fill="#280068"
  />
  <path
    d="M508.7 204c0-.6-.1-1.3-.4-1.8l-18 10.3 18 10.5c.3-.6.4-1.2.4-1.8V204Z"
    fill="#390091"
  />
  <path
    d="M501 208.7v1.9h2v-2h1v2h1.9v1h-2v2h2v.9h-2v2h-1v-2h-2v2h-.9v-2h-2v-1h2v-2h-2v-.9h2v-2h1Zm2 2.9h-2v2h2v-2Z"
    fill="#fff"
  />
  <path
    d="M490.4 198.9c5 0 9.5 2.7 11.9 6.8l-6 3.4a6.8 6.8 0 0 0-5.9-3.3 6.8 6.8 0 1 0 6 10.2h-.1l6 3.5c-2.4 4-6.8 6.8-11.8 6.8h-.1a13.7 13.7 0 1 1 0-27.4Z"
    fill="#fff"
  />
  <path
    d="m602.9 165-1.4 2.1a9.3 9.3 0 0 1-5.9 3.2 7.9 7.9 0 0 1-7.7-2.8c-.8-1-1.3-2.2-1.4-3.4a9 9 0 0 1 2-7 10 10 0 0 1 5.3-3.7c1.7-.5 3.6-.5 5.4 0a7.3 7.3 0 0 1 4.3 4c0 .3 0 .4-.3.4l-2.5.9-1.3.3a.5.5 0 0 1-.7-.2 3.5 3.5 0 0 0-2.2-1.3c-1-.1-2.1.1-3 .7a4.8 4.8 0 0 0-2.2 4.7 3.6 3.6 0 0 0 3.2 3.3 4.2 4.2 0 0 0 3.9-1.8l.3-.5h-4.4c-.4 0-.5-.2-.4-.6a29.6 29.6 0 0 1 1.5-2.9H603v-.2c.7-1.9 1.9-3.5 3.4-4.7 1.3-1 2.7-1.6 4.2-1.8 1-.2 1.8-.3 2.8-.3a7.8 7.8 0 0 1 6.8 4.8 9 9 0 0 1-1.8 9 9.7 9.7 0 0 1-4.8 3c-2 .7-4 .6-6-.1a7.4 7.4 0 0 1-4.7-4.8v-.3Zm4.5-2.6v.5a3.9 3.9 0 0 0 4.4 3.2 5.1 5.1 0 0 0 4.2-4 3.8 3.8 0 0 0-1.9-4.2 3.9 3.9 0 0 0-3-.3 5 5 0 0 0-3.8 4.8Zm-28-2H574v-.2c.6-.7.3-.6 1.2-.6h9.7c.4 0 .4 0 .3.4-.1.3 0 .4-.7.4h-5Zm2.3-2h-4.3v-.3c.6-.7.4-.6 1.3-.6h7.5s.1 0 0 .2l-.4.6c0 .1-.3 0-.4 0h-3.7Zm.3 4.1h-2.2c-.3 0-.3 0-.2-.2.4-.7.3-.6 1-.6h3.9c.2 0 .3 0 .2.3 0 .6 0 .5-.6.5h-2Z"
    fill="#01ACD6"
  />
  <path
    d="M731.9 105.8c-1.3-.9-4.3-1.2-6.6-.8a9 9 0 0 0-3.7-6l-1.2-.8-.9 1.3c-1 1.7-1.6 4-1.4 6.3 0 .8.3 2.2 1.1 3.4a9 9 0 0 1-4.4 1h-39l-.1.5c-.4 2.2-.4 9.2 4 14.6 3.4 4.1 8.4 6.2 14.9 6.2 14.1 0 24.6-6.8 29.5-19.1 2 0 6.1 0 8.2-4.2l.6-1.2.2-.5-1.2-.7ZM707 90h-6v5.6h6V90Zm0 6.7h-6v5.6h6v-5.6Zm-7 0h-6v5.6h6v-5.6Zm-7 0h-6v5.6h6v-5.6Zm-7 6.8h-6v5.6h6v-5.6Zm7 0h-6v5.6h6v-5.6Zm7 0h-6v5.6h6v-5.6Zm7 0h-6v5.6h6v-5.6Zm7 0h-6v5.6h6v-5.6Z"
    fill="#2396ED"
  />
  <path
    d="M485.2 127.7s-2.2 1.2 1.5 1.7c4.5.5 6.7.4 11.7-.5 0 0 1.3.8 3 1.5-11 4.7-24.9-.3-16.2-2.7ZM483.8 121.5s-2.4 1.8 1.3 2.2c4.8.5 8.5.5 15-.7 0 0 1 .9 2.4 1.4-13.4 3.9-28.2.3-18.7-2.9Z"
    fill="#5382A1"
  />
  <path
    d="M495.2 111c2.7 3.2-.7 6-.7 6s6.9-3.6 3.7-8c-3-4.2-5.2-6.2 7-13.4 0 0-19.2 4.8-10 15.5Z"
    fill="#E76F00"
  />
  <path
    d="M509.8 132.2s1.6 1.3-1.8 2.4c-6.4 1.9-26.5 2.5-32 0-2-.8 1.7-2 2.9-2.3 1.2-.3 2-.2 2-.2-2.3-1.6-14.5 3-6.3 4.4 22.5 3.7 41-1.6 35.2-4.3ZM486.2 115.1s-10.2 2.5-3.6 3.3c2.8.4 8.3.3 13.5-.1 4.3-.4 8.5-1.1 8.5-1.1s-1.5.6-2.6 1.4c-10.4 2.7-30.4 1.4-24.7-1.4 5-2.3 9-2 9-2ZM504.6 125.4c10.5-5.5 5.6-10.8 2.2-10l-1.2.3s.3-.5 1-.7c6.7-2.4 11.9 7-2.2 10.7l.2-.3Z"
    fill="#5382A1"
  />
  <path
    d="M498.2 84.1S504 90 492.6 99c-9 7.2-2 11.3 0 16-5.3-4.8-9.2-9-6.6-13 3.9-5.8 14.6-8.6 12.2-17.9Z"
    fill="#E76F00"
  />
  <path
    d="M487.2 140.3c10.2.6 25.8-.4 26.1-5.2 0 0-.7 1.8-8.4 3.3a83.3 83.3 0 0 1-25.6.4s1.3 1 8 1.5Z"
    fill="#5382A1"
  />
  <path
    d="m263.5 225.4.3-.4 11.9-22.6v-.2l-5.2-9.8a1 1 0 0 0-1.9.3l-5 32.7Z"
    fill="#FFC24A"
  />
  <path
    d="m279.5 209.7 4-4-4-7.5a1 1 0 0 0-1.8 0l-2 4v.3l3.8 7.2Z"
    fill="#F4BD62"
  />
  <path
    d="m279.4 209.5 3.8-3.9-3.8-7.2c-.3-.7-1.2-.8-1.5-.1l-2.1 4-.1.2 3.7 7Z"
    fill="#FFA50E"
  />
  <path
    d="m263.5 225.4.1-.2.5-.1 15.2-15.2.2-.5-3.8-7.2-12.2 23.2Z"
    fill="#F6820C"
  />
  <path
    d="m280 233 13.8-7.7-4-24.2a1 1 0 0 0-1.6-.5l-24.7 24.8 13.7 7.6c.9.5 2 .5 2.8 0Z"
    fill="#FDE068"
  />
  <path
    d="m293.7 225.3-4-24c0-.8-.8-1.1-1.4-.6l-24.6 24.6 13.5 7.6c.9.5 2 .5 2.8 0l13.7-7.6Z"
    fill="#FCCA3F"
  />
  <path
    d="M280 232.8c-.9.5-2 .5-2.8 0l-13.6-7.6v.2l13.6 7.6c.9.5 2 .5 2.8 0l13.8-7.7v-.2l-13.8 7.7Z"
    fill="#EEAB37"
  />
  <path d="M260.3 90h41.5v41.5h-41.5V90Z" fill="#F7DF1E" />
  <path
    d="m271.2 124.7 3.2-2c.6 1.1 1.2 2 2.5 2s2-.4 2-2.4V109h4v13.4c0 4-2.4 5.8-5.8 5.8a6 6 0 0 1-5.9-3.5M285 124.3l3.2-1.9c.8 1.4 1.9 2.4 3.8 2.4 1.6 0 2.7-.8 2.7-2 0-1.3-1-1.7-2.9-2.5l-1-.4c-2.8-1.2-4.6-2.8-4.6-6 0-2.9 2.2-5 5.7-5 2.5 0 4.3.8 5.5 3l-3 2c-.7-1.2-1.4-1.7-2.5-1.7-1.2 0-1.9.7-1.9 1.7 0 1.2.7 1.6 2.4 2.4l1 .4c3.3 1.4 5.2 2.8 5.2 6.1 0 3.5-2.8 5.4-6.5 5.4-3.6 0-6-1.7-7.1-4"
    fill="#000"
  />
  <path
    d="M385.5 186c14.3 0 26-6 26-13.6 0-7.5-11.7-13.7-26-13.7s-26 6.2-26 13.7c0 7.5 11.7 13.6 26 13.6Z"
    fill="url(#t)"
  />
  <path
    d="M385.5 185c13.8 0 25-5.6 25-12.6s-11.2-12.6-25-12.6-25 5.6-25 12.6 11.2 12.6 25 12.6Z"
    fill="#6181B6"
  />
  <path
    d="m390.6 176.5 1.2-6.4c.3-1.4 0-2.5-.7-3.2-.7-.6-2-1-3.7-1h-2.2l.7-3-.1-.4-.3-.2h-3c-.2 0-.4.2-.4.3l-1.3 6.8c-.1-.8-.4-1.4-1-2-.8-1-2.1-1.5-4-1.5h-5.7c-.2 0-.3.2-.4.4l-2.6 13.7v.3l.3.2h3c.2 0 .4-.2.4-.4l.7-3.3h2.2c1.1 0 2.1 0 2.9-.3a6.5 6.5 0 0 0 3.4-2.8l-.6 2.7.1.3.3.2h3c.2 0 .4-.2.4-.4l1.5-7.5h2c.9 0 1.1.2 1.2.3 0 0 .2.3 0 1l-1.2 6 .1.4.3.2h3c.3 0 .4-.2.5-.4Zm-13.8-5.3c-.1 1-.5 1.7-1 2-.5.4-1.3.6-2.4.6H372l1-4.9h1.6c1.3 0 1.8.3 2 .5.3.3.3 1 .1 1.8ZM403.2 167.4c-.9-1-2.2-1.5-4-1.5h-5.8c-.2 0-.4.2-.4.4l-2.7 13.7.1.3.3.1h3c.2 0 .4-.1.4-.3l.7-3.3h2.2c1.1 0 2.1-.1 2.9-.3.8-.3 1.5-.7 2-1.3a6.5 6.5 0 0 0 2.1-3.6c.3-1.8 0-3.1-.8-4.2Zm-3 3.8c-.3 1-.6 1.7-1.1 2-.5.4-1.4.6-2.5.6h-1.3l1-4.9h1.7c1.2 0 1.7.3 2 .5.2.3.3 1 .1 1.8Z"
    fill="#fff"
  />
  <path
    d="M374.7 168.5c1.2 0 2 .2 2.3.7.4.4.5 1 .3 2.1-.2 1-.7 1.8-1.2 2.3-.6.4-1.5.6-2.7.6h-1.8l1-5.7h2.1Zm-7.2 11.5h3l.7-3.6h2.5c1.1 0 2-.1 2.8-.4.7-.2 1.4-.6 2-1.2a6 6 0 0 0 1.8-3.3c.4-1.6.1-2.9-.7-3.8-.8-.9-2-1.3-3.7-1.3H370l-2.6 13.6ZM382.5 162.7h3l-.7 3.7h2.6c1.7 0 2.8.2 3.4.8.7.6.8 1.5.6 2.8l-1.2 6.4h-3l1.1-6c.2-.7.1-1.2-.1-1.5-.2-.2-.7-.3-1.5-.3h-2.3l-1.6 7.8h-3l2.7-13.7ZM398 168.5c1.1 0 1.9.2 2.2.7.4.4.5 1 .3 2.1-.2 1-.6 1.8-1.2 2.3-.6.4-1.5.6-2.7.6h-1.8l1.1-5.7h2Zm-7.3 11.5h3l.7-3.6h2.6c1.1 0 2-.1 2.7-.4.8-.2 1.4-.6 2-1.2a6 6 0 0 0 1.9-3.3c.3-1.6 0-2.9-.7-3.8-.8-.9-2-1.3-3.8-1.3h-5.7l-2.7 13.6Z"
    fill="#000004"
  />
  <path
    d="M385.5 50.4c-10.6 0-10 4.6-10 4.6v4.8h10.2v1.4h-14.2s-6.8-.8-6.8 9.9c0 10.7 6 10.3 6 10.3h3.5v-5s-.2-5.9 5.8-5.9h10s5.7.1 5.7-5.4v-9.2s.8-5.5-10.2-5.5Zm-5.6 3.2a1.8 1.8 0 1 1 0 3.6 1.8 1.8 0 0 1 0-3.6Z"
    fill="url(#u)"
  />
  <path
    d="M385.8 92c10.6 0 9.9-4.7 9.9-4.7v-4.7h-10.1V81h14.1s6.8.8 6.8-9.9c0-10.7-6-10.3-6-10.3H397v5s.2 5.9-5.8 5.9h-10s-5.7-.1-5.7 5.4v9.2s-.8 5.5 10.3 5.5Zm5.5-3.3a1.8 1.8 0 1 1 0-3.6 1.8 1.8 0 0 1 0 3.6Z"
    fill="url(#v)"
  />
  <path
    d="m187.4 166.2-1.4-.4.2-1c1-4.9.4-8.8-1.9-10.1-2.1-1.3-5.7 0-9.3 3.1l-1 1-.7-.6c-3.7-3.4-7.5-4.8-9.7-3.5-2.2 1.3-2.9 5-2 9.7l.4 1.3-1.6.5c-4.4 1.6-7.2 4-7.2 6.4 0 2.6 3 5.2 7.6 6.8.4 0 .8.2 1.1.3l-.3 1.5c-.9 4.6-.2 8.2 2 9.5 2.2 1.2 6 0 9.6-3.3l.9-.8 1 1c3.6 3 7.1 4.3 9.3 3 2.2-1.2 3-5.1 2-9.9l-.3-1 .8-.3c4.8-1.6 7.8-4.1 7.8-6.8 0-2.5-2.8-4.9-7.3-6.4Zm-1 11.5-.8.2c-.5-1.6-1.2-3.4-2-5.2.8-1.8 1.4-3.6 2-5.2.4 0 .8.2 1.2.4 3.8 1.3 6.2 3.2 6.2 4.7 0 1.7-2.6 3.7-6.7 5.1Zm-1.8 3.4c.4 2 .5 4 .2 5.5-.2 1.3-.7 2.2-1.3 2.5-1.3.8-4.1-.2-7.2-2.8l-1-1c1.2-1.2 2.3-2.7 3.5-4.4 2-.1 3.9-.4 5.6-.8l.2 1Zm-17.2 7.9c-1.3.5-2.3.5-3 .1-1.2-.7-1.8-3.7-1-7.6 0-.4.1-.9.3-1.3l5.6.8c1.1 1.6 2.3 3 3.5 4.4l-.8.7a15 15 0 0 1-4.6 2.9Zm-6-11.3a15 15 0 0 1-4.9-2.6c-1-.9-1.5-1.7-1.5-2.5 0-1.5 2.3-3.4 6-4.7l1.4-.5c.6 1.7 1.2 3.5 2 5.3-.8 1.8-1.5 3.6-2 5.3l-1-.3Zm2-13.7c-.8-4-.3-7 1-7.7 1.4-.8 4.5.3 7.7 3.2l.7.6a42.5 42.5 0 0 0-3.6 4.3c-2 .2-3.8.5-5.5.9l-.3-1.3Zm18 4.4-1.4-2c1.4.1 2.6.4 3.8.6a38 38 0 0 1-1.3 3.6 62 62 0 0 0-1.2-2.2Zm-7.4-7a38 38 0 0 1 2.5 2.9 52.8 52.8 0 0 0-5 0l2.5-3Zm-7.3 7-1.2 2.2a39 39 0 0 1-1.3-3.6 40 40 0 0 1 3.7-.6l-1.2 2Zm1.3 10.7a38 38 0 0 1-3.9-.7l1.4-3.6 1.2 2.1 1.3 2.2Zm6 5-2.4-3a62.3 62.3 0 0 0 4.9 0 38 38 0 0 1-2.4 3Zm8.5-9.4c.6 1.3 1 2.5 1.4 3.7-1.2.2-2.5.5-3.9.6a61.8 61.8 0 0 0 2.5-4.3Zm-2.7 1.3a58 58 0 0 1-2 3.2 53.5 53.5 0 0 1-7.6 0c-.7-1-1.4-2-2-3.2l-1.8-3.3 1.8-3.4 2-3.2 3.8-.1 3.8.1a53.6 53.6 0 0 1 3.8 6.6l-1.8 3.3Zm3.6-19.8c1.4.8 2 4 1.1 8.3l-.2.8c-1.7-.4-3.6-.7-5.5-.9a41.5 41.5 0 0 0-3.6-4.3l1-1c3-2.6 6-3.6 7.2-2.9ZM174 169a3.7 3.7 0 1 1 0 7.5 3.7 3.7 0 0 1 0-7.5Z"
    fill="#00D8FF"
  />
  <path d="m185.4 77.7-23.7 14.1 30.7-2 2.4-31-9.4 19Z" fill="url(#w)" />
  <path d="m192.4 89.7-2.6-18.2-7.2 9.5 9.8 8.7Z" fill="url(#x)" />
  <path d="M192.5 89.7 173 88.2l-11.3 3.6 30.7-2.1Z" fill="url(#y)" />
  <path d="m161.8 91.8 4.8-15.9-10.6 2.3 5.8 13.6Z" fill="url(#z)" />
  <path d="m182.6 81-4.4-17.4-12.8 12 17.2 5.4Z" fill="url(#A)" />
  <path d="m193.7 63.9-12-9.8-3.3 10.8 15.3-1Z" fill="url(#B)" />
  <path d="m188.1 50.6-7 3.9-4.5-4H188Z" fill="url(#C)" />
  <path d="m153.2 83.5 3-5.4-2.4-6.4-.6 11.8Z" fill="url(#D)" />
  <path
    d="m153.6 71.5 2.4 6.8 10.5-2.3 12-11.1 3.3-10.8-5.3-3.7-9 3.4-8.6 8c-.2 0-3.6 6.6-5.3 9.7Z"
    fill="#fff"
  />
  <path
    d="M162 59.2c6.3-6.1 14.2-9.7 17.3-6.6 3 3-.2 10.5-6.4 16.6-6.2 6.1-14 10-17 6.9-3.1-3.1 0-10.8 6.2-16.9Z"
    fill="url(#E)"
  />
  <path
    d="m161.8 91.8 4.8-16 16 5.2a34.8 34.8 0 0 1-20.8 10.8Z"
    fill="url(#F)"
  />
  <path d="m178.5 64.8 4 16.2a45 45 0 0 0 11.3-17.2l-15.3 1Z" fill="url(#G)" />
  <path d="M193.8 63.9c1.6-5 2-12-5.7-13.3l-6.4 3.5 12 9.8Z" fill="url(#H)" />
  <path
    d="M153.2 83.5c.3 8.1 6.1 8.2 8.6 8.3L156 78.3l-2.8 5.2Z"
    fill="#9E1209"
  />
  <path d="m178.5 64.9 11.3 6.9c.2.1 3.2-5 3.9-8l-15.2 1Z" fill="url(#I)" />
  <path
    d="m166.6 75.9 6.4 12.4c3.8-2.1 6.8-4.6 9.5-7.3L166.6 76Z"
    fill="url(#J)"
  />
  <path
    d="m156 78.3-.9 10.8c1.7 2.4 4 2.6 6.6 2.4-1.8-4.5-5.4-13.4-5.7-13.2Z"
    fill="url(#K)"
  />
  <path d="m181.7 54 12.7 1.9c-.6-3-2.7-4.8-6.3-5.3l-6.4 3.5Z" fill="url(#L)" />
  <path d="M48.8 110.7v20.8h41.5V90H48.8v20.7Z" fill="#007ACC" />
  <path
    d="M58 110.9v1.7H63.2v15.3h3.9v-15.3h5.4v-3.4H58v1.7ZM82.3 109.1c1 .3 1.8.8 2.6 1.5.3.4 1 1.2 1 1.4l-3 1.9-.3-.4c-.5-.8-1.1-1.1-2-1.2-1.2 0-2 .6-2 1.7 0 .3 0 .5.2.8.2.5.8.9 2.4 1.6 3 1.3 4.2 2.1 5 3.3a6 6 0 0 1 .5 5c-.7 1.8-2.3 3-4.6 3.4h-3.2a7.6 7.6 0 0 1-4.2-2.3 7.3 7.3 0 0 1-1-1.6l.3-.2 1.5-1 1.2-.6.3.4c.3.5 1.1 1.2 1.6 1.5 1.3.7 3.1.6 4-.2.4-.4.5-.7.5-1.3 0-.5 0-.7-.3-1-.3-.5-1-.9-2.8-1.7-2.2-1-3-1.5-4-2.4-.4-.5-.9-1.4-1-2-.2-.7-.3-2.1-.1-2.7.4-2 2-3.5 4.2-4 .8-.1 2.5 0 3.2.1Z"
    fill="#fff"
  />
  <path
    d="M1008.6 152.3h23a9.5 9.5 0 0 1 7.4 3.3 9.2 9.2 0 0 1 2 6.3v22.4l-.1 2.1a9.2 9.2 0 0 1-9.2 7.4h-23.5a9.2 9.2 0 0 1-8.7-9.2v-23c0-1.4.2-2.8.8-4a9.3 9.3 0 0 1 7.8-5.2l.5-.1Z"
    fill="url(#M)"
  />
  <path
    d="m1034.3 186.3-.5-.7c-.3-.5-.8-1-1.3-1.3-.7-.4-1.5-.7-2.2-.7a4 4 0 0 0-1.7.2l-1.5.7-1.7.9a11.6 11.6 0 0 1-5.1.9c-1.8 0-3.5-.3-5.1-.7a20.1 20.1 0 0 1-11.5-9l-4.4-4.6v-10.4a9.2 9.2 0 0 1 9.2-9.3h8.2l6 6.2c13.7 9.3 9.3 19.6 9.3 19.6s3.9 4.4 2.3 8.2Z"
    fill="url(#N)"
  />
  <path
    d="M1022.8 158.5c13.7 9.3 9.3 19.6 9.3 19.6s3.9 4.4 2.3 8.3a5.6 5.6 0 0 0-4.3-2.7c-2.6 0-4.2 2.7-9.3 2.7a20.6 20.6 0 0 1-17.2-9.7c10.5 6.9 17.7 2 17.7 2-4.8-2.7-14.8-15.8-14.8-15.8 3.9 3.6 8 6.7 12.5 9.4-3-3.5-6-7.2-8.5-11 4.7 4.3 9.8 8.4 15 12.2 3-8-2.7-15-2.7-15Z"
    fill="#fff"
  />
  <path
    d="M916.2 131.5H906a10.2 10.2 0 0 1-9.4-5.9c-.7-1.3-1-2.8-1-4.4v-21a10.3 10.3 0 0 1 9.3-10.1l1.9-.1h19.8a10.1 10.1 0 0 1 8.1 3.6 9.8 9.8 0 0 1 2.4 6.6v21a10.3 10.3 0 0 1-9.3 10.2h-4.4l-7 .1Zm3.4-21.4v5.3c0 .5.1.7.7.7h1.5c.5 0 .7-.1.7-.7v-9.7h-2.7a.7.7 0 0 0-.7.5 214.4 214.4 0 0 1-2 4.3l-1.8-4.3a.7.7 0 0 0-.7-.5h-2.2c-.8 0-.6.2-.6.6v9.2c0 .4.1.6.6.6h1.6c.6 0 .5-.2.5-.5v-5.4a10.5 10.5 0 0 1 1.3 2.8 1.6 1.6 0 0 0 1.8.7.8.8 0 0 0 .9-.6l1.1-3Zm-14.8 2.8.4.5 1.4 2.3.4.3h3.2l-.3-.6-3-4.1a.7.7 0 0 1 0-1c1-1.3 2-2.6 2.8-3.9l.4-.6h-2.5a1 1 0 0 0-1 .5l-1.7 2.5-1.6-2.7-.4-.3h-3.2l.5.8 2.7 4a.5.5 0 0 1 0 .7l-3 4-.3.7h2.6a1 1 0 0 0 .8-.4c.7-.8 1.2-1.7 1.8-2.7Zm20.5-2v4.5c0 .6.2.7.7.7h5.2c1.8 0 1.7 0 1.7-1.7 0-.4-.2-.5-.6-.5h-2.5c-1.6 0-1.6 0-1.6-1.7v-5.8c0-.4 0-.7-.5-.6h-1.8c-.5 0-.6.2-.6.6v4.5Z"
    fill="#F15A24"
  />
  <path
    d="m904.2 202.5-2.7-2.6v20.3c0 .4.1 1 .3 1.4L923 229l5.3-2.3-24-24.2Z"
    fill="#00D2B8"
  />
  <path
    d="M928.4 226.7 923 229l-21.3-7.5c.4 1.6 1.2 3.1 2.3 4.3l7 7h15.4l2-6.1h-.1Z"
    fill="#55DDCA"
  />
  <path
    d="M893.2 212.3c-.6.8-.3 2.3.8 3.4l4.8 4.8 3 1-.2-1.3V200l-8.4 12.4Z"
    fill="#0081C6"
  />
  <path d="m923.3 200-1.4-.2h-20.4l26.8 27 2.4-5.4-7.4-21.3" fill="#0079B3" />
  <path
    d="M927.5 202.4a10 10 0 0 0-4.3-2.3l7.5 21.3-2.4 5.3 5.8-1.8V209l-6.6-6.7Z"
    fill="#00A4E4"
  />
  <path
    d="m922.2 197-4.8-4.7c-1.1-1-2.6-1.4-3.4-.8l-12.3 8.3H922c.4 0 .9 0 1.4.2l-1-3h-.2Z"
    fill="#00D2B8"
  />
  <path d="m999.3 91.9 20.8-20.8 20.7 20.8h-41.5Z" fill="url(#O)" />
  <path d="M999.3 50.4h20.9l-20.9 22.5V50.4Z" fill="url(#P)" />
  <path
    d="m1020.1 50.4-20.8 22v19.5l20.9-20.8 20.6-20.7h-20.6Z"
    fill="url(#Q)"
  />
  <path
    d="M830 162.6a20.8 20.8 0 1 1-41.6 0 20.8 20.8 0 0 1 41.6 0"
    fill="#3A3C5B"
  />
  <path
    d="M823.7 164.2c-.7-4.4-5.3-7.3-8.8-9.4-1.5-1-3.9-2.1-4.2-4.2a20 20 0 0 1-.2-2.5v-1c0-.3-.5 0-.7-.2-.6-1-.4.2-.3.7l.3 3.4c0 2-.4 4.2-1 6.2-1.5 4.8-1.9 9.9-1 14.8l1 3.1c.2.3.4 1.1.8 1.2 1.2.2 2.4.7 3.4 1.4.6.7 1.1.3 1.9 0 2.3-.8 4.4-2.2 6-4a11.3 11.3 0 0 0 2.8-9.5Zm-2.5 4.4a9.4 9.4 0 0 1-2.5 4.8c-.8 1.2-2 2-3.3 2.7-.4.2 0-.7.2-.8l1.3-1.7a10 10 0 0 0 1.6-2.7 11.1 11.1 0 0 0-.9-9.9c-1-1.6-2.4-3-3.9-4.2l-2-1.8c0-.1-1.2-1.7-.9-2 .4-.2 2.7 2.7 3 3l3.2 2.4c1.4 1.2 2.6 2.6 3.4 4.2.8 1.9 1 4 .8 5.9"
    fill="#fff"
  />
  <path
    d="M808.4 142.4c.4.3.5 1.8.5 3.2.1 3 0 6-.3 8.9-.6 1.7-1.4 3.4-2.5 4.9-1.3 2-2 4.4-2.3 6.8.2 2.4 1 4.6 2.1 6.7 1 1.4 2.5 3.3 2 3.7-.5.8-3-1.9-4.2-3.4-1.6-2-2.5-4.5-2.7-7.1.1-2.3 1-4.4 2.3-6.1 1.3-1.6 2.4-3.2 3.5-4.9.6-1.1 1-2.4 1.2-3.7.2-1.5 0-6.9 0-6.9s0-2.3.4-2"
    fill="#fff"
  />
  <path
    d="M807.4 145c.4.1.4.6.4 1l-.2 4.4a7.9 7.9 0 0 1-2.8 4.6c-2 2-3.8 4-5.5 6.2a9.7 9.7 0 0 0 .7 11.8c1.1 1.4 2.5 2.6 4 3.4 1 .5 1.9.9 1.7 1.3-.2.4-1.1.1-2-.2a17 17 0 0 1-6.3-4c-2-2.1-3-5-2.8-7.8 0-2.1.7-4.2 2-5.8a28 28 0 0 1 6-5.1c1.2-.8 2.4-1.7 3.3-2.8a4.1 4.1 0 0 0 1.2-3v-3c0-.3 0-1.2.4-1Zm.1 33.7c.2 0 0 .7-.2 1-.3.4-.9.7-1 .5 0-.2.4-.2.8-.6.3-.4.2-1 .4-1Zm3.5 0c-.2 0 0 .7.2 1 .3.4.9.7 1 .5 0-.2-.5-.2-.8-.6-.3-.4-.2-1-.4-1Zm-1.6.7v1.2c-.2 0-.2-.5-.2-1.2l.1-1.2.1 1.2Z"
    fill="#fff"
  />
  <g filter="url(#R)">
    <rect x="1084" y="170" width="83.7" height="83.7" rx="8" fill="#313139" />
  </g>
  <path d="m1125.7 232.5-12-3.3-2.7-30h29.4l-2.7 30-12 3.3Z" fill="#264DE4" />
  <path d="m1135.4 227.3 2.3-25.7h-12V230l9.7-2.7Z" fill="#2965F1" />
  <path
    d="m1117.1 212.8.4 3.6h8.2v-3.6h-8.6ZM1116.5 205.3l.3 3.7h9v-3.7h-9.3ZM1125.7 222.3l-4.1-1-.3-3h-3.7l.6 5.8 7.5 2v-3.8Z"
    fill="#EBEBEB"
  />
  <path
    d="M1118 191h4.4v1.9h-2.6v1.8h2.6v1.9h-4.5V191ZM1123.3 191h4.4v1.6h-2.6v.3h2.6v3.8h-4.4V195h2.6v-.3h-2.6V191ZM1128.6 191h4.5v1.6h-2.6v.3h2.6v3.8h-4.5V195h2.6v-.3h-2.6V191ZM1134.3 212.8l.6-7.5h-9.2v3.7h5.2l-.4 3.8h-4.8v3.6h4.5l-.4 4.8-4.1 1.1v3.9l7.5-2.1.1-.7.9-9.7v-1Z"
    fill="#fff"
  />
  <path
    d="M1112.2 114.3v3.2c0 .6 11.6 1.4 19.2 3.2 3.6-.9 6.4-1.9 6.4-3.2v-3.2c0-1.3-2.8-2.3-6.4-3.2-7.6 1.8-19.2 2.7-19.2 3.2"
    fill="url(#S)"
  />
  <path
    d="M1112.2 101.6v3.1c0 .6 11.6 1.5 19.2 3.2 3.6-.8 6.4-1.9 6.4-3.2v-3.2c0-1.3-2.8-2.3-6.4-3.1-7.6 1.7-19.2 2.6-19.2 3.1"
    fill="url(#T)"
  />
  <path
    d="M1112.2 108v9.5c0-.8 25.6-2.4 25.6-6.4v-9.6c0 4-25.6 5.7-25.6 6.4"
    fill="url(#U)"
  />
  <path
    d="M1112.2 95.2v9.5c0-.8 25.6-2.4 25.6-6.3v-9.6c0 4-25.6 5.6-25.6 6.3"
    fill="url(#V)"
  />
  <path
    d="M1112.2 120.7v9.6c0-.8 25.6-2.4 25.6-6.4v-9.6c0 4-25.6 5.7-25.6 6.4"
    fill="url(#W)"
  />
  <defs>
    <linearGradient
      id="u"
      x1="368.8"
      y1="54.1"
      x2="389.4"
      y2="74.6"
      gradientUnits="userSpaceOnUse"
    >
      <stop stop-color="#387EB8" />
      <stop offset="1" stop-color="#366994" />
    </linearGradient>
    <linearGradient
      id="v"
      x1="381.5"
      y1="67.3"
      x2="403.7"
      y2="88.3"
      gradientUnits="userSpaceOnUse"
    >
      <stop stop-color="#FFE052" />
      <stop offset="1" stop-color="#FFC331" />
    </linearGradient>
    <linearGradient
      id="w"
      x1="189.7"
      y1="95.6"
      x2="181"
      y2="80.1"
      gradientUnits="userSpaceOnUse"
    >
      <stop stop-color="#FB7655" />
      <stop offset=".4" stop-color="#E42B1E" />
      <stop offset="1" stop-color="#900" />
      <stop offset="1" stop-color="#900" />
    </linearGradient>
    <linearGradient
      id="x"
      x1="194.1"
      y1="82.6"
      x2="181.8"
      y2="80.2"
      gradientUnits="userSpaceOnUse"
    >
      <stop stop-color="#871101" />
      <stop offset="1" stop-color="#911209" />
      <stop offset="1" stop-color="#911209" />
    </linearGradient>
    <linearGradient
      id="y"
      x1="185"
      y1="96"
      x2="184.9"
      y2="88.2"
      gradientUnits="userSpaceOnUse"
    >
      <stop stop-color="#871101" />
      <stop offset="1" stop-color="#911209" />
      <stop offset="1" stop-color="#911209" />
    </linearGradient>
    <linearGradient
      id="z"
      x1="161.3"
      y1="77.1"
      x2="165"
      y2="87.8"
      gradientUnits="userSpaceOnUse"
    >
      <stop stop-color="#fff" />
      <stop offset=".2" stop-color="#E57252" />
      <stop offset=".5" stop-color="#DE3B20" />
      <stop offset="1" stop-color="#A60003" />
      <stop offset="1" stop-color="#A60003" />
    </linearGradient>
    <linearGradient
      id="A"
      x1="173.4"
      y1="66.5"
      x2="174"
      y2="78.1"
      gradientUnits="userSpaceOnUse"
    >
      <stop stop-color="#fff" />
      <stop offset=".2" stop-color="#E4714E" />
      <stop offset=".6" stop-color="#BE1A0D" />
      <stop offset="1" stop-color="#A80D00" />
      <stop offset="1" stop-color="#A80D00" />
    </linearGradient>
    <linearGradient
      id="B"
      x1="184.1"
      y1="55.7"
      x2="185"
      y2="64.2"
      gradientUnits="userSpaceOnUse"
    >
      <stop stop-color="#fff" />
      <stop offset=".2" stop-color="#E46342" />
      <stop offset=".4" stop-color="#C82410" />
      <stop offset="1" stop-color="#A80D00" />
      <stop offset="1" stop-color="#A80D00" />
    </linearGradient>
    <linearGradient
      id="C"
      x1="178.2"
      y1="52.8"
      x2="179.5"
      y2="47"
      gradientUnits="userSpaceOnUse"
    >
      <stop stop-color="#fff" />
      <stop offset=".5" stop-color="#C81F11" />
      <stop offset="1" stop-color="#BF0905" />
      <stop offset="1" stop-color="#BF0905" />
    </linearGradient>
    <linearGradient
      id="D"
      x1="154"
      y1="74.2"
      x2="157.6"
      y2="76.4"
      gradientUnits="userSpaceOnUse"
    >
      <stop stop-color="#fff" />
      <stop offset=".3" stop-color="#DE4024" />
      <stop offset="1" stop-color="#BF190B" />
      <stop offset="1" stop-color="#BF190B" />
    </linearGradient>
    <linearGradient
      id="E"
      x1="149.3"
      y1="82.9"
      x2="181.5"
      y2="49.8"
      gradientUnits="userSpaceOnUse"
    >
      <stop stop-color="#BD0012" />
      <stop offset=".1" stop-color="#fff" />
      <stop offset=".2" stop-color="#fff" />
      <stop offset=".3" stop-color="#C82F1C" />
      <stop offset=".3" stop-color="#820C01" />
      <stop offset=".5" stop-color="#A31601" />
      <stop offset=".7" stop-color="#B31301" />
      <stop offset="1" stop-color="#E82609" />
      <stop offset="1" stop-color="#E82609" />
    </linearGradient>
    <linearGradient
      id="F"
      x1="174"
      y1="86.2"
      x2="164.9"
      y2="82.4"
      gradientUnits="userSpaceOnUse"
    >
      <stop stop-color="#8C0C01" />
      <stop offset=".5" stop-color="#990C00" />
      <stop offset="1" stop-color="#A80D0E" />
      <stop offset="1" stop-color="#A80D0E" />
    </linearGradient>
    <linearGradient
      id="G"
      x1="190.6"
      y1="74.6"
      x2="181.3"
      y2="68"
      gradientUnits="userSpaceOnUse"
    >
      <stop stop-color="#7E110B" />
      <stop offset="1" stop-color="#9E0C00" />
      <stop offset="1" stop-color="#9E0C00" />
    </linearGradient>
    <linearGradient
      id="H"
      x1="193.8"
      y1="60.4"
      x2="189.4"
      y2="56"
      gradientUnits="userSpaceOnUse"
    >
      <stop stop-color="#79130D" />
      <stop offset="1" stop-color="#9E120B" />
      <stop offset="1" stop-color="#9E120B" />
    </linearGradient>
    <linearGradient
      id="K"
      x1="158.8"
      y1="91.8"
      x2="150.9"
      y2="85.2"
      gradientUnits="userSpaceOnUse"
    >
      <stop stop-color="#8B2114" />
      <stop offset=".4" stop-color="#9E100A" />
      <stop offset="1" stop-color="#B3100C" />
      <stop offset="1" stop-color="#B3100C" />
    </linearGradient>
    <linearGradient
      id="L"
      x1="185.6"
      y1="52.4"
      x2="187.9"
      y2="58.1"
      gradientUnits="userSpaceOnUse"
    >
      <stop stop-color="#B31000" />
      <stop offset=".4" stop-color="#910F08" />
      <stop offset="1" stop-color="#791C12" />
      <stop offset="1" stop-color="#791C12" />
    </linearGradient>
    <linearGradient
      id="M"
      x1="1024.1"
      y1="150.8"
      x2="1016.3"
      y2="195.3"
      gradientUnits="userSpaceOnUse"
    >
      <stop stop-color="#FAAE42" />
      <stop offset="1" stop-color="#EF3E31" />
    </linearGradient>
    <linearGradient
      id="N"
      x1="1020.5"
      y1="153"
      x2="1014.7"
      y2="185.6"
      gradientUnits="userSpaceOnUse"
    >
      <stop stop-color="#E39F3A" />
      <stop offset="1" stop-color="#D33929" />
    </linearGradient>
    <linearGradient
      id="O"
      x1="1010.9"
      y1="100.9"
      x2="1017.5"
      y2="78"
      gradientUnits="userSpaceOnUse"
    >
      <stop offset=".1" stop-color="#0095D5" />
      <stop offset=".3" stop-color="#238AD9" />
      <stop offset=".6" stop-color="#557BDE" />
      <stop offset=".9" stop-color="#7472E2" />
      <stop offset="1" stop-color="#806EE3" />
    </linearGradient>
    <linearGradient
      id="P"
      x1="1002.4"
      y1="59.8"
      x2="1013.9"
      y2="49.2"
      gradientUnits="userSpaceOnUse"
    >
      <stop offset=".1" stop-color="#0095D5" />
      <stop offset=".4" stop-color="#3C83DC" />
      <stop offset=".7" stop-color="#6D74E1" />
      <stop offset=".8" stop-color="#806EE3" />
    </linearGradient>
    <linearGradient
      id="Q"
      x1="989.7"
      y1="86.1"
      x2="1032.2"
      y2="48.9"
      gradientUnits="userSpaceOnUse"
    >
      <stop offset=".1" stop-color="#C757BC" />
      <stop offset=".2" stop-color="#D0609A" />
      <stop offset=".4" stop-color="#E1725C" />
      <stop offset=".6" stop-color="#EE7E2F" />
      <stop offset=".7" stop-color="#F58613" />
      <stop offset=".8" stop-color="#F88909" />
    </linearGradient>
    <linearGradient
      id="S"
      x1="1111.8"
      y1="116.8"
      x2="1136"
      y2="116.8"
      gradientUnits="userSpaceOnUse"
    >
      <stop stop-color="#4F4F4F" />
      <stop offset="1" />
    </linearGradient>
    <linearGradient
      id="T"
      x1="-254854"
      y1="-11848.4"
      x2="-254527"
      y2="-11848.4"
      gradientUnits="userSpaceOnUse"
    >
      <stop stop-color="#4F4F4F" />
      <stop offset="1" />
    </linearGradient>
    <linearGradient
      id="U"
      x1="1111.8"
      y1="109.5"
      x2="1136"
      y2="109.5"
      gradientUnits="userSpaceOnUse"
    >
      <stop stop-color="#C40000" />
      <stop offset="1" stop-color="red" />
    </linearGradient>
    <linearGradient
      id="V"
      x1="-254854"
      y1="-41144.7"
      x2="-254527"
      y2="-41144.7"
      gradientUnits="userSpaceOnUse"
    >
      <stop stop-color="#C40000" />
      <stop offset="1" stop-color="red" />
    </linearGradient>
    <linearGradient
      id="W"
      x1="-254854"
      y1="-40455.9"
      x2="-254527"
      y2="-40455.9"
      gradientUnits="userSpaceOnUse"
    >
      <stop stop-color="#C40000" />
      <stop offset="1" stop-color="red" />
    </linearGradient>
    <filter
      id="a"
      x="0"
      y="142.4"
      width="147.7"
      height="147.7"
      filterUnits="userSpaceOnUse"
      color-interpolation-filters="sRGB"
    >
      <feFlood flood-opacity="0" result="BackgroundImageFix" />
      <feColorMatrix
        in="SourceAlpha"
        values="0 0 0 0 0 0 0 0 0 0 0 0 0 0 0 0 0 0 127 0"
        result="hardAlpha"
      />
      <feOffset dx="4" dy="4" />
      <feGaussianBlur stdDeviation="16" />
      <feColorMatrix values="0 0 0 0 0 0 0 0 0 0 0 0 0 0 0 0 0 0 0.06 0" />
      <feBlend in2="BackgroundImageFix" result="effect1_dropShadow_130_552" />
      <feBlend
        in="SourceGraphic"
        in2="effect1_dropShadow_130_552"
        result="shape"
      />
    </filter>
    <filter
      id="b"
      x="208.9"
      y="142.4"
      width="147.7"
      height="147.7"
      filterUnits="userSpaceOnUse"
      color-interpolation-filters="sRGB"
    >
      <feFlood flood-opacity="0" result="BackgroundImageFix" />
      <feColorMatrix
        in="SourceAlpha"
        values="0 0 0 0 0 0 0 0 0 0 0 0 0 0 0 0 0 0 127 0"
        result="hardAlpha"
      />
      <feOffset dx="4" dy="4" />
      <feGaussianBlur stdDeviation="16" />
      <feColorMatrix values="0 0 0 0 0 0 0 0 0 0 0 0 0 0 0 0 0 0 0.06 0" />
      <feBlend in2="BackgroundImageFix" result="effect1_dropShadow_130_552" />
      <feBlend
        in="SourceGraphic"
        in2="effect1_dropShadow_130_552"
        result="shape"
      />
    </filter>
    <filter
      id="c"
      x="420.4"
      y="142.4"
      width="147.7"
      height="147.7"
      filterUnits="userSpaceOnUse"
      color-interpolation-filters="sRGB"
    >
      <feFlood flood-opacity="0" result="BackgroundImageFix" />
      <feColorMatrix
        in="SourceAlpha"
        values="0 0 0 0 0 0 0 0 0 0 0 0 0 0 0 0 0 0 127 0"
        result="hardAlpha"
      />
      <feOffset dx="4" dy="4" />
      <feGaussianBlur stdDeviation="16" />
      <feColorMatrix values="0 0 0 0 0 0 0 0 0 0 0 0 0 0 0 0 0 0 0.06 0" />
      <feBlend in2="BackgroundImageFix" result="effect1_dropShadow_130_552" />
      <feBlend
        in="SourceGraphic"
        in2="effect1_dropShadow_130_552"
        result="shape"
      />
    </filter>
    <filter
      id="d"
      x="632"
      y="142.4"
      width="147.7"
      height="147.7"
      filterUnits="userSpaceOnUse"
      color-interpolation-filters="sRGB"
    >
      <feFlood flood-opacity="0" result="BackgroundImageFix" />
      <feColorMatrix
        in="SourceAlpha"
        values="0 0 0 0 0 0 0 0 0 0 0 0 0 0 0 0 0 0 127 0"
        result="hardAlpha"
      />
      <feOffset dx="4" dy="4" />
      <feGaussianBlur stdDeviation="16" />
      <feColorMatrix values="0 0 0 0 0 0 0 0 0 0 0 0 0 0 0 0 0 0 0.06 0" />
      <feBlend in2="BackgroundImageFix" result="effect1_dropShadow_130_552" />
      <feBlend
        in="SourceGraphic"
        in2="effect1_dropShadow_130_552"
        result="shape"
      />
    </filter>
    <filter
      id="e"
      x="843.5"
      y="142.4"
      width="147.7"
      height="147.7"
      filterUnits="userSpaceOnUse"
      color-interpolation-filters="sRGB"
    >
      <feFlood flood-opacity="0" result="BackgroundImageFix" />
      <feColorMatrix
        in="SourceAlpha"
        values="0 0 0 0 0 0 0 0 0 0 0 0 0 0 0 0 0 0 127 0"
        result="hardAlpha"
      />
      <feOffset dx="4" dy="4" />
      <feGaussianBlur stdDeviation="16" />
      <feColorMatrix values="0 0 0 0 0 0 0 0 0 0 0 0 0 0 0 0 0 0 0.06 0" />
      <feBlend in2="BackgroundImageFix" result="effect1_dropShadow_130_552" />
      <feBlend
        in="SourceGraphic"
        in2="effect1_dropShadow_130_552"
        result="shape"
      />
    </filter>
    <filter
      id="f"
      x="104.5"
      y="102.8"
      width="147.7"
      height="147.7"
      filterUnits="userSpaceOnUse"
      color-interpolation-filters="sRGB"
    >
      <feFlood flood-opacity="0" result="BackgroundImageFix" />
      <feColorMatrix
        in="SourceAlpha"
        values="0 0 0 0 0 0 0 0 0 0 0 0 0 0 0 0 0 0 127 0"
        result="hardAlpha"
      />
      <feOffset dx="4" dy="4" />
      <feGaussianBlur stdDeviation="16" />
      <feColorMatrix values="0 0 0 0 0 0 0 0 0 0 0 0 0 0 0 0 0 0 0.06 0" />
      <feBlend in2="BackgroundImageFix" result="effect1_dropShadow_130_552" />
      <feBlend
        in="SourceGraphic"
        in2="effect1_dropShadow_130_552"
        result="shape"
      />
    </filter>
    <filter
      id="g"
      x="950.5"
      y="102.8"
      width="147.7"
      height="147.7"
      filterUnits="userSpaceOnUse"
      color-interpolation-filters="sRGB"
    >
      <feFlood flood-opacity="0" result="BackgroundImageFix" />
      <feColorMatrix
        in="SourceAlpha"
        values="0 0 0 0 0 0 0 0 0 0 0 0 0 0 0 0 0 0 127 0"
        result="hardAlpha"
      />
      <feOffset dx="4" dy="4" />
      <feGaussianBlur stdDeviation="16" />
      <feColorMatrix values="0 0 0 0 0 0 0 0 0 0 0 0 0 0 0 0 0 0 0.06 0" />
      <feBlend in2="BackgroundImageFix" result="effect1_dropShadow_130_552" />
      <feBlend
        in="SourceGraphic"
        in2="effect1_dropShadow_130_552"
        result="shape"
      />
    </filter>
    <filter
      id="h"
      x="316"
      y="102.8"
      width="147.7"
      height="147.7"
      filterUnits="userSpaceOnUse"
      color-interpolation-filters="sRGB"
    >
      <feFlood flood-opacity="0" result="BackgroundImageFix" />
      <feColorMatrix
        in="SourceAlpha"
        values="0 0 0 0 0 0 0 0 0 0 0 0 0 0 0 0 0 0 127 0"
        result="hardAlpha"
      />
      <feOffset dx="4" dy="4" />
      <feGaussianBlur stdDeviation="16" />
      <feColorMatrix values="0 0 0 0 0 0 0 0 0 0 0 0 0 0 0 0 0 0 0.06 0" />
      <feBlend in2="BackgroundImageFix" result="effect1_dropShadow_130_552" />
      <feBlend
        in="SourceGraphic"
        in2="effect1_dropShadow_130_552"
        result="shape"
      />
    </filter>
    <filter
      id="i"
      x="0"
      y="40.6"
      width="147.7"
      height="147.7"
      filterUnits="userSpaceOnUse"
      color-interpolation-filters="sRGB"
    >
      <feFlood flood-opacity="0" result="BackgroundImageFix" />
      <feColorMatrix
        in="SourceAlpha"
        values="0 0 0 0 0 0 0 0 0 0 0 0 0 0 0 0 0 0 127 0"
        result="hardAlpha"
      />
      <feOffset dx="4" dy="4" />
      <feGaussianBlur stdDeviation="16" />
      <feColorMatrix values="0 0 0 0 0 0 0 0 0 0 0 0 0 0 0 0 0 0 0.06 0" />
      <feBlend in2="BackgroundImageFix" result="effect1_dropShadow_130_552" />
      <feBlend
        in="SourceGraphic"
        in2="effect1_dropShadow_130_552"
        result="shape"
      />
    </filter>
    <filter
      id="j"
      x="211.5"
      y="40.6"
      width="147.7"
      height="147.7"
      filterUnits="userSpaceOnUse"
      color-interpolation-filters="sRGB"
    >
      <feFlood flood-opacity="0" result="BackgroundImageFix" />
      <feColorMatrix
        in="SourceAlpha"
        values="0 0 0 0 0 0 0 0 0 0 0 0 0 0 0 0 0 0 127 0"
        result="hardAlpha"
      />
      <feOffset dx="4" dy="4" />
      <feGaussianBlur stdDeviation="16" />
      <feColorMatrix values="0 0 0 0 0 0 0 0 0 0 0 0 0 0 0 0 0 0 0.06 0" />
      <feBlend in2="BackgroundImageFix" result="effect1_dropShadow_130_552" />
      <feBlend
        in="SourceGraphic"
        in2="effect1_dropShadow_130_552"
        result="shape"
      />
    </filter>
    <filter
      id="k"
      x="423"
      y="42.5"
      width="147.7"
      height="147.7"
      filterUnits="userSpaceOnUse"
      color-interpolation-filters="sRGB"
    >
      <feFlood flood-opacity="0" result="BackgroundImageFix" />
      <feColorMatrix
        in="SourceAlpha"
        values="0 0 0 0 0 0 0 0 0 0 0 0 0 0 0 0 0 0 127 0"
        result="hardAlpha"
      />
      <feOffset dx="4" dy="4" />
      <feGaussianBlur stdDeviation="16" />
      <feColorMatrix values="0 0 0 0 0 0 0 0 0 0 0 0 0 0 0 0 0 0 0.06 0" />
      <feBlend in2="BackgroundImageFix" result="effect1_dropShadow_130_552" />
      <feBlend
        in="SourceGraphic"
        in2="effect1_dropShadow_130_552"
        result="shape"
      />
    </filter>
    <filter
      id="l"
      x="634.6"
      y="40.6"
      width="147.7"
      height="147.7"
      filterUnits="userSpaceOnUse"
      color-interpolation-filters="sRGB"
    >
      <feFlood flood-opacity="0" result="BackgroundImageFix" />
      <feColorMatrix
        in="SourceAlpha"
        values="0 0 0 0 0 0 0 0 0 0 0 0 0 0 0 0 0 0 127 0"
        result="hardAlpha"
      />
      <feOffset dx="4" dy="4" />
      <feGaussianBlur stdDeviation="16" />
      <feColorMatrix values="0 0 0 0 0 0 0 0 0 0 0 0 0 0 0 0 0 0 0.06 0" />
      <feBlend in2="BackgroundImageFix" result="effect1_dropShadow_130_552" />
      <feBlend
        in="SourceGraphic"
        in2="effect1_dropShadow_130_552"
        result="shape"
      />
    </filter>
    <filter
      id="m"
      x="846.1"
      y="40.6"
      width="147.7"
      height="147.7"
      filterUnits="userSpaceOnUse"
      color-interpolation-filters="sRGB"
    >
      <feFlood flood-opacity="0" result="BackgroundImageFix" />
      <feColorMatrix
        in="SourceAlpha"
        values="0 0 0 0 0 0 0 0 0 0 0 0 0 0 0 0 0 0 127 0"
        result="hardAlpha"
      />
      <feOffset dx="4" dy="4" />
      <feGaussianBlur stdDeviation="16" />
      <feColorMatrix values="0 0 0 0 0 0 0 0 0 0 0 0 0 0 0 0 0 0 0.06 0" />
      <feBlend in2="BackgroundImageFix" result="effect1_dropShadow_130_552" />
      <feBlend
        in="SourceGraphic"
        in2="effect1_dropShadow_130_552"
        result="shape"
      />
    </filter>
    <filter
      id="n"
      x="528"
      y="92"
      width="147.7"
      height="147.7"
      filterUnits="userSpaceOnUse"
      color-interpolation-filters="sRGB"
    >
      <feFlood flood-opacity="0" result="BackgroundImageFix" />
      <feColorMatrix
        in="SourceAlpha"
        values="0 0 0 0 0 0 0 0 0 0 0 0 0 0 0 0 0 0 127 0"
        result="hardAlpha"
      />
      <feOffset dx="4" dy="4" />
      <feGaussianBlur stdDeviation="16" />
      <feColorMatrix values="0 0 0 0 0 0 0 0 0 0 0 0 0 0 0 0 0 0 0.06 0" />
      <feBlend in2="BackgroundImageFix" result="effect1_dropShadow_130_552" />
      <feBlend
        in="SourceGraphic"
        in2="effect1_dropShadow_130_552"
        result="shape"
      />
    </filter>
    <filter
      id="o"
      x="739"
      y="92.5"
      width="147.7"
      height="147.7"
      filterUnits="userSpaceOnUse"
      color-interpolation-filters="sRGB"
    >
      <feFlood flood-opacity="0" result="BackgroundImageFix" />
      <feColorMatrix
        in="SourceAlpha"
        values="0 0 0 0 0 0 0 0 0 0 0 0 0 0 0 0 0 0 127 0"
        result="hardAlpha"
      />
      <feOffset dx="4" dy="4" />
      <feGaussianBlur stdDeviation="16" />
      <feColorMatrix values="0 0 0 0 0 0 0 0 0 0 0 0 0 0 0 0 0 0 0.06 0" />
      <feBlend in2="BackgroundImageFix" result="effect1_dropShadow_130_552" />
      <feBlend
        in="SourceGraphic"
        in2="effect1_dropShadow_130_552"
        result="shape"
      />
    </filter>
    <filter
      id="p"
      x="104.5"
      y="1"
      width="147.7"
      height="147.7"
      filterUnits="userSpaceOnUse"
      color-interpolation-filters="sRGB"
    >
      <feFlood flood-opacity="0" result="BackgroundImageFix" />
      <feColorMatrix
        in="SourceAlpha"
        values="0 0 0 0 0 0 0 0 0 0 0 0 0 0 0 0 0 0 127 0"
        result="hardAlpha"
      />
      <feOffset dx="4" dy="4" />
      <feGaussianBlur stdDeviation="16" />
      <feColorMatrix values="0 0 0 0 0 0 0 0 0 0 0 0 0 0 0 0 0 0 0.06 0" />
      <feBlend in2="BackgroundImageFix" result="effect1_dropShadow_130_552" />
      <feBlend
        in="SourceGraphic"
        in2="effect1_dropShadow_130_552"
        result="shape"
      />
    </filter>
    <filter
      id="q"
      x="950.5"
      y="1"
      width="147.7"
      height="147.7"
      filterUnits="userSpaceOnUse"
      color-interpolation-filters="sRGB"
    >
      <feFlood flood-opacity="0" result="BackgroundImageFix" />
      <feColorMatrix
        in="SourceAlpha"
        values="0 0 0 0 0 0 0 0 0 0 0 0 0 0 0 0 0 0 127 0"
        result="hardAlpha"
      />
      <feOffset dx="4" dy="4" />
      <feGaussianBlur stdDeviation="16" />
      <feColorMatrix values="0 0 0 0 0 0 0 0 0 0 0 0 0 0 0 0 0 0 0.06 0" />
      <feBlend in2="BackgroundImageFix" result="effect1_dropShadow_130_552" />
      <feBlend
        in="SourceGraphic"
        in2="effect1_dropShadow_130_552"
        result="shape"
      />
    </filter>
    <filter
      id="r"
      x="1055"
      y="40"
      width="147.7"
      height="147.7"
      filterUnits="userSpaceOnUse"
      color-interpolation-filters="sRGB"
    >
      <feFlood flood-opacity="0" result="BackgroundImageFix" />
      <feColorMatrix
        in="SourceAlpha"
        values="0 0 0 0 0 0 0 0 0 0 0 0 0 0 0 0 0 0 127 0"
        result="hardAlpha"
      />
      <feOffset dx="4" dy="4" />
      <feGaussianBlur stdDeviation="16" />
      <feColorMatrix values="0 0 0 0 0 0 0 0 0 0 0 0 0 0 0 0 0 0 0.06 0" />
      <feBlend in2="BackgroundImageFix" result="effect1_dropShadow_130_552" />
      <feBlend
        in="SourceGraphic"
        in2="effect1_dropShadow_130_552"
        result="shape"
      />
    </filter>
    <filter
      id="s"
      x="316"
      y="1"
      width="147.7"
      height="147.7"
      filterUnits="userSpaceOnUse"
      color-interpolation-filters="sRGB"
    >
      <feFlood flood-opacity="0" result="BackgroundImageFix" />
      <feColorMatrix
        in="SourceAlpha"
        values="0 0 0 0 0 0 0 0 0 0 0 0 0 0 0 0 0 0 127 0"
        result="hardAlpha"
      />
      <feOffset dx="4" dy="4" />
      <feGaussianBlur stdDeviation="16" />
      <feColorMatrix values="0 0 0 0 0 0 0 0 0 0 0 0 0 0 0 0 0 0 0.06 0" />
      <feBlend in2="BackgroundImageFix" result="effect1_dropShadow_130_552" />
      <feBlend
        in="SourceGraphic"
        in2="effect1_dropShadow_130_552"
        result="shape"
      />
    </filter>
    <filter
      id="R"
      x="1056"
      y="142"
      width="147.7"
      height="147.7"
      filterUnits="userSpaceOnUse"
      color-interpolation-filters="sRGB"
    >
      <feFlood flood-opacity="0" result="BackgroundImageFix" />
      <feColorMatrix
        in="SourceAlpha"
        values="0 0 0 0 0 0 0 0 0 0 0 0 0 0 0 0 0 0 127 0"
        result="hardAlpha"
      />
      <feOffset dx="4" dy="4" />
      <feGaussianBlur stdDeviation="16" />
      <feColorMatrix values="0 0 0 0 0 0 0 0 0 0 0 0 0 0 0 0 0 0 0.06 0" />
      <feBlend in2="BackgroundImageFix" result="effect1_dropShadow_130_552" />
      <feBlend
        in="SourceGraphic"
        in2="effect1_dropShadow_130_552"
        result="shape"
      />
    </filter>
    <radialGradient
      id="t"
      cx="0"
      cy="0"
      r="1"
      gradientUnits="userSpaceOnUse"
      gradientTransform="translate(375.1 163.5) scale(34.083)"
    >
      <stop stop-color="#fff" />
      <stop offset=".5" stop-color="#4C6B97" />
      <stop offset="1" stop-color="#231F20" />
    </radialGradient>
    <radialGradient
      id="I"
      cx="0"
      cy="0"
      r="1"
      gradientUnits="userSpaceOnUse"
      gradientTransform="matrix(10.5543 0 0 5.51501 183.4 67)"
    >
      <stop stop-color="#A80D00" />
      <stop offset="1" stop-color="#7E0E08" />
      <stop offset="1" stop-color="#7E0E08" />
    </radialGradient>
    <radialGradient
      id="J"
      cx="0"
      cy="0"
      r="1"
      gradientUnits="userSpaceOnUse"
      gradientTransform="matrix(14.0305 0 0 10.9221 168.8 81)"
    >
      <stop stop-color="#A30C00" />
      <stop offset="1" stop-color="#800E08" />
      <stop offset="1" stop-color="#800E08" />
    </radialGradient>
  </defs>
</svg>
