<svg viewBox="0 0 570 390" fill="none" xmlns="http://www.w3.org/2000/svg" class="rounded-lg h-full lg:h-auto lg:rounded-l-none lg:rounded-r-lg"><path fill="#FFF8F1" d="M0 0h570v389.7H0z"/><g clip-path="url(#a)"><path d="M202 75h-70.6v92.3H202V75Z" fill="#FFD3CE"/><path d="M194 85.5h-54.5v71.3h54.4V85.5Z" fill="#fff"/><path d="M166 108.5h-13.6v17.8H166v-17.8ZM181.8 108.5h-13.5v17.8h13.5v-17.8Z" fill="#DB5A3E"/><path d="M279.8 314.8c76 0 137.6-6.2 137.6-14 0-7.7-61.6-14-137.6-14s-137.5 6.3-137.5 14c0 7.8 61.6 14 137.5 14Z" fill="#FFD3CE"/><path opacity="0.2" d="M314.9 119h-68.4v47.5H315V119Z" fill="#24B094"/><path opacity="0.4" d="M254.4 128.9h52.1" stroke="#C6C5C4" stroke-width="2.3" stroke-miterlimit="10"/><path opacity="0.2" d="M269.3 135.1h-8.7v7.4h8.7v-7.4ZM279.8 135.1h-8.7v7.4h8.7v-7.4ZM290.3 135.1h-8.7v7.4h8.7v-7.4ZM300.8 135.1H292v7.4h8.8v-7.4ZM269.3 144.9h-8.7v7.4h8.7v-7.4ZM279.8 144.9h-8.7v7.4h8.7v-7.4ZM290.3 144.9h-8.7v7.4h8.7v-7.4ZM300.8 144.9H292v7.4h8.8v-7.4ZM269.3 155h-8.7v7.5h8.7V155ZM279.8 155h-8.7v7.5h8.7V155ZM290.3 155h-8.7v7.5h8.7V155ZM300.8 155H292v7.5h8.8V155Z" fill="#231F20"/><path d="M340.2 237.5h-1.4v5.3h1.4v-5.3ZM338.3 247.2h-2.8v48.4h2.8v-48.4Z" fill="#995B42"/><path opacity="0.2" d="M336.2 247.2h-.7v48.4h.7v-48.4Z" fill="#fff"/><path opacity="0.2" d="M338.3 247.2h-.8v48.4h.8v-48.4Z" fill="#231F20"/><path d="M302.9 247.2h-2.8v48.4h2.8v-48.4Z" fill="#995B42"/><path opacity="0.2" d="M300.9 247.2h-.8v48.4h.8v-48.4Z" fill="#fff"/><path opacity="0.2" d="M303 247.2h-.8v48.4h.7v-48.4Z" fill="#231F20"/><path d="M342.5 242.4h-45.1a1 1 0 0 0-1 1v4.6c0 .5.4 1 1 1h45.1c.6 0 1-.5 1-1v-4.6c0-.5-.4-1-1-1Z" fill="#DB5A3E"/><path opacity="0.2" d="M342.5 242.4h-45.2a1 1 0 0 0-.9.7v2.4a1 1 0 0 1 1-1h45.1a1 1 0 0 1 .7.3 1 1 0 0 1 .3.7v-2a1 1 0 0 0-1-1Z" fill="#fff"/><path d="M312.5 182.2h25.7a3.6 3.6 0 0 1 3.6 3.6v50.3a2.3 2.3 0 0 1-2.3 2.2h-27v-56Z" fill="#DB5A3E"/><path opacity="0.2" d="M338.2 182.2H333a3.6 3.6 0 0 1 3.5 3.6v50.3a2.3 2.3 0 0 1-2.2 2.2h5.2a2.3 2.3 0 0 0 2.3-2.2v-50.3a3.6 3.6 0 0 0-3.6-3.6Z" fill="#fff"/><path d="M309.6 291.2s-3.9 9.6-5.9 10.9c-2 1.2 0 2.8 5.5 2.5 5.6-.3 6.3-2.6 7-4 .6-1.5-.4-9.9-.4-9.9l-6.2.5Z" fill="#D1543F"/><path d="M297.3 288.8s.8 2.5-2.4 3.5-5.4 1-5.4 5h18.2s-1.8-6.9-3-8.4c-1.1-1.5-.9-2.4-.9-2.4l-6.5 2.3Z" fill="#D1543F"/><path d="m297 289.8 7.7-.9s1.8-31.1-8-41.7c0 0 9.6-2.3 21.5-5.8v-15s-24.3 0-32.6 5.4c-8.3 5.5-5.5 10.6-3.5 14.5 2 4 15 43.5 15 43.5Z" fill="#1E1410"/><path d="M339.3 234.8a10.3 10.3 0 0 1-13.5 9.8s-1.8 36-9.8 48h-7.4s2.5-46.1 4.3-60.6l.5-1.5c.6-2.1 3-8 8-7l10.6 1.4a10.3 10.3 0 0 1 7.3 9.9Z" fill="#271C18"/><path d="M313.7 193.5a6.1 6.1 0 0 1-1.7 5c-2 2-3.8 4.3-5.5 6.7l-9.8 13.3h-19v-5l13.5-2s7-13.1 10.7-19.2a36 36 0 0 1 1.5-2.5l1.3-1.2c1.2-1 2.2-.7 4-.4a6.1 6.1 0 0 1 5 5.3Z" fill="#209E86"/><path d="m319.8 174.2 6.2 19-11.9 1.5-2.5-13.2 8.2-7.3Z" fill="#F6B58F"/><path d="m305.8 167.4-.8-2a1.7 1.7 0 0 1 .5-2c1.7-1.2 4.9-3.3 7.5-3.7 3.7-.5 6.4.8 7.6 1.8a12 12 0 0 1 3.7 6.6c.3 2.7-2 10.2-3 10.6-.2.1-.7-1.8-1.4-4l-1-1.3c-5-2.7-13-6-13-6Z" fill="#26252B"/><path d="M320.6 173s.1 4.6-5.1 9c-3.2 2.5-5 2.4-6.1 1.3-.7-.7-1-1.6-1.3-2.5a6 6 0 0 1-.1-.6c-.2-.7-.8-2.3-1.1-3.9-.2-1-.6-2.2-.7-3.4-.5-3.5-.7-7-.7-7s5.1-.2 6.6.3c2 .7 3.8 4 3.8 4a2 2 0 0 1 2.1-1.6c2.3 0 2.6 4.5 2.6 4.5Z" fill="#F6B58F"/><path d="m315.8 170 2.2 8.2c.1.4 0 1-.3 1.8-.7.8-1.4 1.6-2.3 2.2-3.1 2.6-5 2.6-6 1.5-.7-.8-1.1-1.6-1.3-2.6l1-.3a1 1 0 0 1 1.2.6l.1.3c.6 0 .5-1.2.4-1.7a.8.8 0 0 1 .6-.8c.9-.2 2.4-.7 3.2-1.3 1-.7.3-8 0-9.7.9 1 1.3 1.1 1.3 1.1l-.1.7Z" fill="#26252B"/><path d="M312.3 185.3s-8.3-.2-9.1 7.8c-1 8 1 33.4 1 33.4h10.4c3.6-.1 17.2-2.4 19.4-.7 2.3 1.7 4.7 5.3 4.9 6 .1.7 1.3-6.3 0-10.6-1.3-4.2.8-21 .6-24.3-.2-3.3-.6-9.8-7.6-12.3s-9.5-2.1-9.5-2.1-1.7 6.2-5.4 6.7c-3.8.5-4.7-3.9-4.7-3.9Z" fill="#24B094"/><path d="M309.6 213.8a38 38 0 0 1-4.8-.8c-1.8-.5-6.8-.2-8.3 1.8-1.5 1.9-1 3.5-.8 3.6.3.2 5.6-1.5 6.8-.9 1.3.6 5.3.7 7.1.4v-4Z" fill="#F6B58F"/><path d="M339 194.9c0 4.7-1.2 11.6-1.4 12.9-.3 1.3-1.5 5.4-1.7 7.2-.2 1.8-3.4 6.1-8 6.4-4.5.4-21.2-2.9-21.2-2.9v-5.7s16.3 1.4 18.6-.6c2.4-1.9 1.9-12 1.9-12-.2-.4.3-2.8.3-3.4 0-3 2.7-9.4 6-9.6 5.3-.3 5.6 4.6 5.6 7.7Z" fill="#209E86"/><path d="M184.4 223.3H181c-.3 0-.6.3-.6.6v68.8c0 .4.3.7.6.7h3.4c.3 0 .6-.3.6-.7V224c0-.3-.3-.6-.6-.6Z" fill="#AB694B"/><path opacity="0.2" d="M182 292.7V224a.7.7 0 0 1 .6-.6H181a.7.7 0 0 0-.4.2.7.7 0 0 0-.2.4v68.8a.7.7 0 0 0 .2.5.7.7 0 0 0 .4.2h1.6a.7.7 0 0 1-.7-.7Z" fill="#fff"/><path opacity="0.2" d="M183.5 292.7V224a.7.7 0 0 0-.7-.6h1.6a.7.7 0 0 1 .5.2l.1.2v69a.7.7 0 0 1-.4.6h-1.8a.7.7 0 0 0 .7-.6Z" fill="#231F20"/><path d="M360.4 223.3H357c-.3 0-.6.3-.6.6v68.8c0 .4.3.7.6.7h3.4c.3 0 .6-.3.6-.7V224c0-.3-.3-.6-.6-.6Z" fill="#AB694B"/><path opacity="0.2" d="M358 292.7V224a.7.7 0 0 1 .1-.4.7.7 0 0 1 .5-.2H357a.7.7 0 0 0-.6.6v68.8a.7.7 0 0 0 .6.7h1.6a.7.7 0 0 1-.6-.7Z" fill="#fff"/><path opacity="0.2" d="M359.5 292.7V224a.7.7 0 0 0-.7-.6h1.6a.7.7 0 0 1 .7.6v68.8a.7.7 0 0 1-.7.7h-1.6a.7.7 0 0 0 .7-.7Z" fill="#231F20"/><path d="M248.8 192.7H282l11.5 25.4h-33.4l-11.4-25.4Z" fill="#A5A4A4"/><path d="M293.6 218h-33.4v1.1h33.4v-1Z" fill="#8E8A8A"/><path d="M301.6 218h-8.3v1.1h8.3v-1Z" fill="#7F7E7E"/><path d="M270.5 207.5a1.6 1.6 0 1 0 0-3 1.6 1.6 0 0 0 0 3Z" fill="#F2FAFC"/><path d="M365 219.1H176.5c-1 0-1.7.8-1.7 1.8v3.4c0 1 .7 1.7 1.7 1.7H365c1 0 1.7-.8 1.7-1.7v-3.4c0-1-.7-1.8-1.7-1.8Z" fill="#B77358"/><path opacity="0.2" d="M365.5 219.1H176c-.7 0-1.3 1-1.3 2.3v2c0-1.3.6-2.3 1.3-2.3h189.4c.7 0 1.3 1 1.3 2.2v-1.9c0-1.2-.6-2.3-1.3-2.3Z" fill="#fff"/><path opacity="0.2" d="M365.5 226H176.2c-.8 0-1.4-1-1.4-2.3v-1.9c0 1.3.6 2.3 1.3 2.3h189.4c.7 0 1.3-1 1.3-2.3v2c0 1.2-.6 2.2-1.3 2.2ZM342.5 249h-45.2a1 1 0 0 1-.9-.6V246a1 1 0 0 0 1 1h45.1a1 1 0 0 0 1-1v2a1 1 0 0 1-1 1Z" fill="#231F20"/><path d="m169.5 288 .9 11.6h6l-1-14.6-5.9 3Z" fill="#F6B58F"/><path d="m161.3 298.3 6-1.7c1.8-.6 3.8-.5 5.7.3 1.5.5 3.1-.5 3.1-.5l.4 4a.6.6 0 0 1-.2.6.6.6 0 0 1-.4.2l-14-.3c-1.8 0-2.2-2-.6-2.6Z" fill="#75747A"/><path d="m162.1 295.7 4.8-3.8c.8-.7 1.6-1.1 2.6-1.5.9-.3 1.8-.4 2.8-.4 1.7 0 2.7-1.6 2.7-1.6l2 3.6a.6.6 0 0 1 0 .5.6.6 0 0 1-.4.4l-13 5c-1.6.6-2.8-1.1-1.5-2.2Z" fill="#67676B"/><path d="M190.5 167.7h-8.7v15.7h8.7v-15.7Z" fill="#E7A584"/><path d="M204.8 156a6.9 6.9 0 0 1-8 5.8s-.4 5-2.7 7c-2.2 2-2.8 3.5-2.8 4.2 0 .7-.5.9-.7.8-.2 0-1.5-5-1.8-5.7-.3-.7-2.7-1.9-2.7-1.9l-3.6 1.7-2-5-3.8-2.6s.6-5.4 5.8-6.4c.9-.2 1.7-.2 2.6 0 1.5.1 4.5.5 5.5 1.3h.4a6.7 6.7 0 0 1 5-6.6c5-1.2 9.4 2.7 8.8 7.4Z" fill="#26252B"/><path d="M188.2 170.1c-2.2 2.2-4.9 3.9-6.8 3.9a6 6 0 0 1-2.2-.4c-2.3-1-3.6-3.3-3.6-6.7 0-2.6.6-6 1.9-8.1h.3c1.2 1.7 4.6 6.4 6.8 6.4 2.7 0 3.6-3.6 5.4-1.8 1.8 1.8-.8 5.7-1.8 6.7Z" fill="#F6B58F"/><path d="m176.1 213.4-23 30.2s-3.7 3.3-2.2 7.4l19.5 41.8 1.2-5.7s-4.7-32.6-7-34.8l16.3-18.6 2.3-18-7-2.3Z" fill="#D1543F"/><path opacity="0.2" d="m183.2 215.8-7-2.4-.7.8 4.6 1.6-2.3 18-16.2 18.5c2.2 2.2 6.8 34.8 6.8 34.8l-.2 1 2.2 4.7 1.2-5.7s-4.7-32.6-7-34.8l16.3-18.6 2.3-18Z" fill="#231F20"/><path d="M179.5 213.6 168.3 296s8.2.5 8.2 1.4l19.1-65.4s6.4-11.1-1.1-19.4c-7.5-8.3-15 1-15 1Z" fill="#DB5A3E"/><path opacity="0.2" d="M194.5 212.6c-2.8-3-5.5-3.7-8-3.3 1.8.3 3.7 1.2 5.6 3.3 7.5 8.3 1.1 19.5 1.1 19.5l-19 64.6c1.3.2 2.3.4 2.3.7l19.1-65.4s6.4-11.1-1.1-19.4Z" fill="#fff"/><path d="M149.7 183.6c0 .5-.7-.4-1.5-1a7 7 0 0 0-4.8-1.2c-.4 0-.8 0-1.2.2-.3 0 2.6 5.2 2.9 5.4a33.5 33.5 0 0 0 5.2 2.2c2.2 2.4 9.4 8.7 15 11.4.7.4 1.5.5 2.3.4l1.6-5.3-.7-.3c-2.2-1.3-11.1-6.3-16.4-9.5l-.2-.2-1.8-3.7c-.3-.4-.5.5-.4 1.6Z" fill="#F6B58F"/><path d="M180.9 181s-3.2-1.3-7 4.7l-7 8-12.2-6.4s.2 2.6-2.8 3.6c0 0 15 15 19 13.8 4-1.1 6.1-5.9 6.1-5.9l4.7-12.7-.8-5.2Z" fill="#1D917B"/><path d="M181.8 178.8s5.7 2.6 8.7 0c0 0 10 1.6 10.8 4.9l7.4 18.7s.9 7-8.4 5l-5.8-.2v5.4c-12.6 4.5-16.8 2.4-18.4.8l-.1-.2a36.4 36.4 0 0 1 2.3-31.6s2.6-1.6 3.5-2.8Z" fill="#209E86"/><path d="M183.4 202c.2.3-.7 0-1.6 0a6 6 0 0 0-4 1.3l-.8.7c-.2.2 4.5 2.5 4.8 2.5a30.5 30.5 0 0 0 4.8-.9c2.8.7 11.1 1.8 16.5 1.1.7 0 1.3-.4 1.8-.9l-1.4-4.4h-.7c-2.2.2-11.1.9-16.5 1h-.2l-3.2-1.8c-.4-.1-.1.6.5 1.3Z" fill="#F6B58F"/><path d="M198.7 197.8s-7.6-9.9-2-14.4c0 0 2.1-1.9 4.1-.7l8 19.7s1.1 6-5.8 5.6l-17.4-2.1s2.8-2.3 1.2-3.6l13.3-.8s1.6.1-1.4-3.7Z" fill="#26A58C"/><path opacity="0.2" d="m208.7 202.4-7.9-19.8a3 3 0 0 0-2.6 0h.2l8 19.8s.9 4.8-4 5.5l.6.1c7 .3 5.7-5.6 5.7-5.6Z" fill="#fff"/><path d="M491.7 204s-.7 5.5-1.1 6.4c-.4 1-2.2 1.8-2.7-6.3-.5-8 3.8 0 3.8 0ZM429.8 150.2l-.3-2-.2-1.2c-.2-3-.4-7.8.9-8.1h.2c1.4 0 2.4 4 2.5 4.3 2 6.4 0 7.9 0 7.9l-3.1-1Z" fill="#E7A584"/><path d="m372 281-.7 5.3 4.2 3 1.3-3-4.8-5.3ZM401.3 290.8v4.2h5.4l-.1-4.2h-5.3Z" fill="#F6B58F"/><path d="M371.4 192.8c5.5 4.5.9 17 6.9 21.2.4.2.9.5 1.4.6 38.8 14.2 37-27.7 32.9-53-2.4-14.8-12.1-22.8-20.7-12.2-2 2.6-3.7 5.6-6.1 7.8-1.4 1.3-3.6 1.9-5 3-3.1 2.4-5.2 4.8-5 9.8.2 4.9-1.3 9.6-4.2 13.5-1.5 2-2.5 4-2 6.4.3 1.1.9 2.1 1.8 2.9Z" fill="#26252B"/><path d="M395.9 169.9h7.4v-11.1H396v11Z" fill="#E7A584"/><path d="M396 159.2c1.7 1.9 3.9 3.3 5.5 3.3.6 0 1.2-.1 1.8-.4 2-.7 3-2.7 3-5.6 0-2.3-.6-5.2-1.7-7-.9 1.2-3.8 5.5-5.7 5.5-2.3 0-3-3-4.5-1.5-1.4 1.5.7 4.9 1.5 5.7Z" fill="#F6B58F"/><path d="m395 201.7 4.6 47.4s-2.2 33.6 1.7 41.7c0 0 3.1 2 5.1.9 0 0 6.3-36.9 4.5-50 0 0 .5-36.3-2.2-41.9-2.8-5.5-13.8 2-13.8 2Z" fill="#282828"/><path opacity="0.5" d="M403.7 290.8c-4-8.1-1.8-41.7-1.8-41.7l-4.6-47.4s4.8-3.2 8.8-3.8c-4.2-.9-11.2 3.8-11.2 3.8l4.7 47.4s-2.2 33.6 1.7 41.7c0 0 2.7 1.8 4.7 1a9 9 0 0 1-2.3-1Z" fill="#231F20"/><path d="M386 203.3s-3.6 16.5-2.4 37.4c0 0-12.1 32.8-11.6 40.3 0 0 1.3 4 4.8 5.2 0 0 16.6-31.9 17.3-39l7.2-44.4-15.4.5Z" fill="#343535"/><path opacity="0.2" d="M373.9 281c-.5-7.5 11.6-40.3 11.6-40.3-1.2-21 2.3-37.4 2.3-37.4l13.5-.4-15.4.4s-3.5 16.5-2.3 37.4c0 0-12.1 32.8-11.6 40.3 0 0 1.3 4 4.8 5.2l.4-.8a9.7 9.7 0 0 1-3.3-4.4Z" fill="#fff"/><path d="M377.7 204.3s2.1 5.3 4.2 5.1c2-.1 2.3-2.4 1.7-4.2-.5-1.5-1.2-2.8-2-4.1l-4 3.2ZM425 147.6s1.7-9.9 3.1-8.8c1.5 1.1 1 7 1 7s1.6-3 1.5-1.9c0 1.1-2.3 6.3-2.3 6.3l-3.3-2.6Z" fill="#F6B58F"/><path d="M395.9 166.4s4.8 4.2 7.4 0c0 0 4.5 1.6 10.7-2 6.1-3.7 10.8-17.7 10.8-17.7s3.4 3 4.3 2c0 0-6.7 26.2-17.3 27.5 0 0 2.3 7.4-1.9 10.5 0 0-2.5 10.3-.7 15.9 0 0-14.8 2.7-23.3.7 0 0 3.3-14.1 2.5-20.6 0 0 .1-1.4-5 3.1 0 0-2.3 2-2.7 3.5 0 0 1.6 8.3 1.6 13 0 0-2.7 2.5-4.4 2.3-1.8-.1-3.2-17.3-1.7-21.2 0 0 4.4-8.1 9.4-14a7.4 7.4 0 0 1 4.5-2.5c2-.4 3.9-.5 5.8-.5Z" fill="#FF715B"/><path opacity="0.2" d="M399.3 168.2c-1.2-.4-2.4-1-3.4-1.8h-1.7c.2.2 2.8 2.3 5.1 1.8Z" fill="#231F20"/><path d="m405 166.7-1.7-.3-.2.3h2Z" fill="#231F20"/><path opacity="0.2" d="M429 148.7c-.8 1-4.2-2-4.2-2l-.4 1c1 .8 2.5 1.6 3 1 0 0-6.7 26.2-17.3 27.5 0 0 2.3 7.4-1.9 10.5 0 0-2.5 10.3-.7 15.9a101 101 0 0 1-14.8 1.5c7.9 0 16.5-1.5 16.5-1.5-1.8-5.6.7-16 .7-16 4.2-3 2-10.4 2-10.4 10.5-1.3 17.2-27.5 17.2-27.5Z" fill="#231F20"/><path opacity="0.2" d="M416 164.3c5-3 9.1-12.8 10.4-16.3l-1.6-1.3s-4.7 14-10.8 17.6a16.3 16.3 0 0 1-7 2.4c1.9.1 5.1 0 9-2.4ZM388 203.3s3.3-14.1 2.5-20.6c0 0 0-.8-2 .7.4 6.8-2.6 20-2.6 20 2.5.5 5.6.7 8.7.6-2.2 0-4.4-.2-6.6-.7Z" fill="#fff"/><path opacity="0.2" d="M378.4 183.4s4.4-8.1 9.3-14a7.4 7.4 0 0 1 4.5-2.5 44 44 0 0 1 3.8-.5c-2 0-4 .1-5.9.5a7.4 7.4 0 0 0-4.5 2.5c-5 5.9-9.4 14-9.4 14-1.5 3.9 0 21 1.7 21.2.6 0 1.2-.1 1.7-.4a49.2 49.2 0 0 1-1.2-20.8Z" fill="#fff"/><path d="M371 286.3c-1 .7-2.9 2.4-2.7 4.4a.7.7 0 0 0 .3.5l7.8 6c.7.4 1.5.7 2.3.7h1a.7.7 0 0 0 .5-.3.7.7 0 0 0 0-.6c-.1-.5-.6-1.3-1.9-2.3a8 8 0 0 1-2.8-5.3.7.7 0 0 0-.3-.5l-3.5-2.6a.7.7 0 0 0-.8 0ZM402 294.6a1.1 1.1 0 0 0-1 1c-.2 1-.5 2.2-.1 3 0 .3.2.5.3.6l12.1.1c.2 0 .5 0 .6-.2.5-.3 1-1-1.4-2-2.7-1-5.1-2-5.8-2.4a1 1 0 0 0-.4 0h-4.2Z" fill="#544F57"/><path d="m492.3 282.9.7 5.2-4.2 3-1.3-3 4.8-5.2ZM463 292.7v4h-5.4l.1-4h5.3Z" fill="#F6B58F"/><path d="m469.4 203.6-4.7 47.3s2.2 33.6-1.7 41.8c0 0-3.1 2-5.1.8 0 0-6.3-36.8-4.4-49.9 0 0-.6-36.4 2.1-42 2.8-5.5 13.8 2 13.8 2Z" fill="#EF6759"/><path opacity="0.2" d="M460.6 292.7c4-8.2 1.8-41.8 1.8-41.8l4.7-47.3s-4.9-3.3-8.9-3.9c4.2-.8 11.2 3.9 11.2 3.9l-4.7 47.3s2.2 33.6-1.7 41.8c0 0-2.7 1.7-4.7 1a9 9 0 0 0 2.3-1Z" fill="#231F20"/><path d="M478.4 205.2s3.5 16.4 2.3 37.4c0 0 12.1 32.7 11.6 40.3 0 0-1.3 3.9-4.8 5.2 0 0-16.5-32-17.3-39.1l-7.2-44.3 15.4.5Z" fill="#FF715B"/><path opacity="0.2" d="M490.4 282.9c.5-7.6-11.6-40.3-11.6-40.3 1.2-21-2.3-37.4-2.3-37.4l-13.5-.5 15.4.5s3.5 16.4 2.3 37.4c0 0 12.2 32.7 11.6 40.3 0 0-1.3 3.9-4.8 5.2l-.4-.8a9.8 9.8 0 0 0 3.3-4.4Z" fill="#fff"/><path d="M493.4 288.2c.9.6 2.8 2.3 2.6 4.4a.7.7 0 0 1-.3.5l-7.8 5.8c-.7.5-1.5.8-2.3.8h-1a.7.7 0 0 1-.5-.3.7.7 0 0 1 0-.6c.1-.5.6-1.2 1.9-2.2a8 8 0 0 0 2.8-5.4.7.7 0 0 1 .3-.4l3.5-2.6a.7.7 0 0 1 .8 0ZM462.2 296.5a1.1 1.1 0 0 1 1.2 1c.1.9.4 2.1 0 3l-.3.6h-12a1 1 0 0 1-.7-.1c-.5-.4-1-1 1.4-2l5.8-2.4.4-.1h4.2Z" fill="#888F97"/><path d="m468.8 155.2-11.8-5.6-1-1.4a2 2 0 0 1 .4-2.7h.1c1.8-1.2 3.1-2.7 6-3 4-.6 5.2-.4 7 1 1.3 1 2.2 2.8 2.3 7.3 0 1.6-1.7 5-2.9 6.7l-.1-2.3Z" fill="#26252B"/><path opacity="0.1" d="m469 155.1-10.7-4.9 10.7 5Z" fill="#000"/><path opacity="0.2" d="M468.9 143c-1.2-.3-2.6-.3-5 0-3 .4-4.3 1.9-6 3l-.1.1a2 2 0 0 0-.5 2.7l1 1.4-1.3-.6-1-1.4a2 2 0 0 1 .4-2.7h.1c1.8-1.2 3.1-2.7 6-3 3.5-.5 4.8-.4 6.4.5Z" fill="#000"/><path d="M469 164c-.1 1.7-2.3 4.7-3.9 4.3-1.2-.3-2.3-.8-3.4-1.4l-1-4.8v-.3l-.4-1.6s4.6-4.2 8.2-7.8l.2 2v.5c.3 2.3.6 6 .4 9Z" fill="#E7A584"/><path d="M456.8 149.6v2.3l.3 3.5.3 1.8c.5 1.6 1.8 4 2.5 4.6 1 .7 5.2-.1 7-3.1 1.4-2.5 1-4.5 1-4.5s1 0 1.5-.6c.3-.5.4-1.2.2-1.8-.4-1.5-1.1-1.9-1.8-1.7a1.9 1.9 0 0 0-1.3 1.7v1.6l-1.2-.2s.4-2.2-.4-2.6c-1-.7-1.7-1.7-2.2-2.8a10 10 0 0 1-5.9 1.8Z" fill="#F6B58F"/><path opacity="0.1" d="M468.7 154c.1 1.7-.3 3.4-1.2 4.9-1.7 3-6 3.8-6.9 3.1 1.5.2 4.8-.8 6.3-3.3 1.4-2.5 1-4.5 1-4.5l.8-.1Z" fill="#000"/><path d="M466.5 152.5v.6-.6Z" fill="#F6B58F"/><path opacity="0.1" d="M458.5 149.4h-.2.2ZM461.4 161.7l.7.2c-1 .2-1.8.2-2.2-.1a13 13 0 0 1-2.8-6.4l-.3-3.5v-2.3l1.5-.1v2.2l.3 3.6c0 .6.1 1.2.3 1.7a13 13 0 0 0 2.5 4.7Z" fill="#fff"/><path d="M461.7 166.9s5.3 1.4 7.4-3c0 0 8.9 1 9.4 2.5.5 1.3 12.7 17.3 13.2 19.7.5 2.4 0 16.4 0 18-.2 1.5-2.7-1-3.7 0-1 .9-1.7-11.3-1.7-14.8 0-3.6-8-11-8-11s-1.8 1.6-1.5 6l2.2 23.3s-16.2 4-24.6.7c0 0-2.1-29.7-1.1-30.8 1-1.1-24.2-3.1-23.5-25v-2.7s3.9 1 3.9 0c0 0 5.2 11.4 7 13.4a158.3 158.3 0 0 0 16.3 2c1.8.1 4.2.1 4.3-.2l.4 1.9Z" fill="#209E86"/><path opacity="0.2" d="m470.9 164.2-1.8-.3a5.4 5.4 0 0 1-4.5 3.2c1.6.1 4.7 0 6.3-3Z" fill="#231F20"/><path d="M461.4 165.3v-.3c-.2.2-1 .2-2 .3h2Z" fill="#231F20"/><path opacity="0.2" d="M456.3 208.3s-2.1-29.7-1.1-30.8c1-1.1-24.2-3.1-23.5-25v-2.3c-.7 0-1.3-.2-2-.4v2.6c-.6 22 24.6 24 23.6 25.1-1 1.1 1.1 30.8 1.1 30.8 2.8 1 6.3 1.4 9.9 1.3-3 0-5.7-.4-8-1.3Z" fill="#231F20"/><path d="m433.9 150.2-.2-.4a.4.4 0 0 1-.3.4h.5Z" fill="#231F20"/><path opacity="0.2" d="M439 163.2a158.3 158.3 0 0 0 16.2 2h2.4-.7l-3.2-.3c-3.2-.8-13-1.7-13-1.7-1.9-2-7-13.4-7-13.4 0 .5-.7.5-1.5.5 1 2 5.2 11.1 6.8 12.9ZM460 166.9c1 .2 1.9.3 2.8.2a7 7 0 0 1-1-.2l-.5-1.9c0 .2-.7.2-1.6.3l.3 1.6ZM431.6 150.2l-1.8-.4v.4h1.8Z" fill="#fff"/><path d="M487.7 204h.3-.3Z" fill="#fff"/><path opacity="0.2" d="m477.7 179.4-1-1s-1.9 1.5-1.6 5.9l2.2 23.4s-7.4 1.8-14.8 2c7.9.1 16.5-2 16.5-2l-2.2-23.4c-.1-2.5.4-4 .9-5Z" fill="#fff"/><path opacity="0.2" d="M491.7 186.1c-.6-2.4-12.7-18.4-13.2-19.7-.5-1.4-9.5-2.5-9.5-2.5v.2c2.5.4 7.4 1.2 7.8 2.3.5 1.3 12.6 17.3 13.2 19.7a169.6 169.6 0 0 1 0 18.1c.8.4 1.6.7 1.7-.1 0-1.6.5-15.6 0-18Z" fill="#fff"/><path d="m427.8 146.3 2.2 3-.2-2s-2-2.4-2-1Z" fill="#E7A584"/><path d="m92 289.5-.6 9.4h-4.7l.7-11.8 4.6 2.4Z" fill="#F6B58F"/><path d="m98.5 297.9-4.6-1.5c-1.5-.4-3.1-.4-4.6.3-1.2.4-2.4-.4-2.4-.4l-.3 3.3a.5.5 0 0 0 .5.6l11-.2c1.3 0 1.7-1.7.4-2.1Z" fill="#26252B"/><path d="m92 289.5-.6 9.4h-4.7l.7-11.8 4.6 2.4Z" fill="#030C0F"/><path d="m98.5 297.9-4.6-1.5c-1.5-.4-3.1-.4-4.6.3-1.2.4-2.4-.4-2.4-.4l-.3 3.3a.5.5 0 0 0 .5.6l11-.2c1.3 0 1.7-1.7.4-2.1Z" fill="#030C0F"/><path d="m85 287.4-1 12.3h-6l1-15.3 6 3Z" fill="#F6B58F"/><path d="m93.3 298.2-6-1.8c-1-.4-2-.5-3.1-.4-1 0-2 .3-2.9.7-1.6.6-3.2-.6-3.2-.6l-.4 4.3a.7.7 0 0 0 .7.8l14.3-.3c1.8 0 2.2-2.1.6-2.7Z" fill="#26252B"/><path d="m99.9 258.7-7.3 37.5-2.6-.2-7.2-.1.9-57c0-1.5-.2-3-.7-4.5l-1.7-5.2-.3-1.8-.4-1.8a28.7 28.7 0 0 1-.2-8l1.4-7.8H100l.6 40.4c0 2.8.1 5.9-.6 8.5Z" fill="#2B2B30"/><path d="m93.5 258.7-7.2 37.6-8.3-.3c-.3-1.1-.2-58.5-1.2-61.4l-.1-.3c-3.9-9.3-2.8-15.1-1.2-24.5h18c-.3 6.4 1.3 43.4 0 49Z" fill="#424147"/><path d="M79 210.4c-1.7 9-2.8 14.9 1 24l.2.4c1 3 1 60.2 1.2 61.3l4.9.1v.2l-8.3-.3c-.3-1.1-.2-58.3-1.2-61.3l-.2-.3c-3.8-9.2-2.8-15-1-24.7h17.9v.6H78.9Z" fill="#2B2B30"/><path d="m89.8 157.3 12.4-6.9.9-1.6a2.1 2.1 0 0 0-.7-2.9h-.1c-2-1.1-3.6-2.6-6.7-2.7-4.3-.3-5.5 0-7.5 1.7-1.2 1.1-2 3.1-1.8 8 .1 1.7 1.8 5.2 3.2 6.8l.3-2.4Z" fill="#D1543F"/><path d="M90 154s-1.5 5-.9 9.1c.2 1.5 3.1 4.6 4.5 4.3 1-.2 2.1-.5 3-1v-5.2S92 153.3 90 154Z" fill="#E7A584"/><path d="m131.4 194.7.2-.1c1.5 0 3.5 0 4.1-.2 2.8-1 5.1-4.4 4.9-4.7l-.8-.5c-1.2-.8-4.1-.5-5.3 0-.8.2-1.6.8-1.3.4.6-1 .4-2.2 0-2l-2.2 3.2-.2.1-12.1 3.5h-.6l-.4 5.2.8.6c5-.2 10.6-3.9 13-5.5Z" fill="#F6B58F"/><path d="m85.6 165.5 5.3-.1c5.3-.2-6.2 19.4-3.7 21.9s21.9-6.8 27.6-8.5c1.2 2.3 2 4.7 2.6 7.2a112 112 0 0 1-30 12.4c-9.2 1-12.7-4-1.8-32.9Z" fill="#1D917B"/><path d="M115.2 179.6c.2 0 3-2.4 4-2.8 1.2-.3 2.8.8 3.6 2.3.7 1.6-1 1.5-1.6 1-.7-.4-1.8.7-1.8.7l-1.3 1.8-1.2 1.7-1.7-4.7Z" fill="#F6B58F"/><path d="M99.9 211.8c-10.7 3.7-24-.7-24-.7s-1.4-8.5 1-23.4c1.6-10.2.5-15.5 3.2-19.5 2.4-3.5 6.7-6.5 9.1-6.2 0 .2 1.2 3.9 7.2 3.8 6.5 8 5.5 28.5 3.5 46Z" fill="#209E86"/><path opacity="0.2" d="M92.7 213.2c-8.7.6-16.9-2-16.9-2s-1.3-8.6 1-23.5c1.7-10.2.6-15.4 3.3-19.5 2.4-3.5 6.7-6.5 9.1-6.2 0 .3.2.5.3.8a17.2 17.2 0 0 0-5.9 5.3c-2.7 4-1.6 9.3-3.2 19.6-2.4 14.8-1 23.4-1 23.4 4.3 1.3 8.8 2 13.3 2.1Z" fill="#fff"/><path d="M102.4 150.3c.1.8.2 1.7.1 2.5v3.8c0 .6 0 1.3-.2 2a14 14 0 0 1-2.3 5c-.9 1-5.5.4-7.7-2.7-1.7-2.5-1.3-4.7-1.3-4.7s-1.2.2-1.8-.5c-.4-.5-.5-1.2-.4-1.9.3-1.7 1-2 1.8-2a2 2 0 0 1 1.5 1.8l.3 1.6 1.2-.2s-.7-2.4.2-3c1-.8 1.7-1.8 2.1-3 2 1 4.2 1.5 6.5 1.3Z" fill="#F6B58F"/><path d="M85.2 180a15 15 0 0 1 1.2-8c.7-1.5 1.8-3 4.3-3.2 7.5-.5 9.8 22.6 12.3 25 2.5 2.5 20-1.1 25.8-2.9 2 3.9 2 5.4 2.1 5.9.1.4-16.6 7.8-25.9 8.8-8.3 1-18.2-11.8-19.8-25.6Z" fill="#26A58C"/><path opacity="0.2" d="M131 196.8c0 .4-16.7 7.8-26 8.8-8.3 1-18.2-11.8-19.8-25.6a15 15 0 0 1 1.2-8c.4-1 1-1.8 2-2.4a15 15 0 0 0-1.7 9c1.5 13.7 11.4 26.4 19.8 25.5 7.5-.9 20-5.9 24.3-8l.1.7Z" fill="#fff"/><path d="M239.4 204.8h-23.2c-.8 0-1.4.6-1.4 1.3v2.2c0 .8.6 1.4 1.4 1.4h23.2c.7 0 1.4-.6 1.4-1.4v-2.2c0-.7-.7-1.3-1.4-1.3Z" fill="#214562"/><path d="M238 209.6h-22c-.7 0-1.2.6-1.2 1.3v1.6c0 .7.5 1.2 1.2 1.2h22c.7 0 1.2-.5 1.2-1.2v-1.6c0-.7-.5-1.3-1.2-1.3Z" fill="#FDA700"/><path d="M239 213.7h-21.8c-.8 0-1.4.6-1.4 1.4v2.8c0 .8.6 1.4 1.4 1.4H239c.8 0 1.4-.6 1.4-1.4V215c0-.8-.6-1.4-1.4-1.4Z" fill="#DB5A3E"/><path d="M240.8 206h-24.5v2.4h24.5V206ZM239 215.3h-23.2v2.5H239v-2.5ZM239.2 210.8h-23.4v1.8h23.4v-1.8Z" fill="#F2FAFC"/></g><defs><clipPath id="a"><path fill="#fff" transform="translate(74 75)" d="M0 0h422v240H0z"/></clipPath></defs></svg>