<svg width="111" height="23" xmlns="http://www.w3.org/2000/svg" aria-label="Facebook" class="fill-current"><path d="M57.1 11.3a5 5 0 00-2.2.6v6.8h1.6c2.2 0 2.5-1 2.5-2.3V13c0-1-.4-1.8-1.9-1.8zm-14.4-.4c-1.5 0-1.8.8-1.8 1.9v.5h3.7v-.5c0-1-.4-1.9-1.9-1.9zm-28 7.1c0 .8.5 1.2 1.3 1.2.9 0 1.4-.2 2.1-.5V17h-2c-1 0-1.3.2-1.3 1zm56.5-6.7c-1.6 0-2 .8-2 1.8V17c0 1 .4 1.8 2 1.8 1.5 0 2-.8 2-1.8V13c0-1-.5-1.8-2-1.8zm-63.8 11H2.9V11.4H.8V7.8H3V5.6C3 2.6 4.2.8 7.7.8h3v3.7H9C7.5 4.5 7.4 5 7.4 6v1.8h3.3l-.4 3.7h-3v10.7zm15.1 0h-3.7l-.1-1a8.5 8.5 0 01-4.2 1c-2.7 0-4.2-1.7-4.2-4.2 0-3 1.7-4 4.7-4h3v-.7c0-1.5 0-2-2.4-2h-3.8l.4-3.6h4.1c5.1 0 6.2 1.6 6.2 5.7v8.7zm12.6-10.5c-2.3-.4-3-.5-4-.5-2 0-2.7.4-2.7 2.1v3.2c0 1.7.6 2.1 2.6 2.1 1.1 0 1.8 0 4.1-.5v3.6c-2 .5-3.3.6-4.4.6-4.8 0-6.7-2.5-6.7-6.1v-2.6c0-3.6 2-6.1 6.7-6.1 1 0 2.4.1 4.4.6v3.6zM49 16.3h-8.1v.3c0 1.7.6 2.1 2.6 2.1 1.7 0 2.8 0 5.1-.5v3.6c-2.2.5-3.3.6-5.5.6-4.8 0-6.7-2.5-6.7-6.1v-3c0-3.1 1.4-5.7 6.3-5.7s6.3 2.6 6.3 5.7v3zm14.4 0c0 3.6-1 6.1-7 6.1-2.2 0-3.5-.2-6-.6v-20l4.5-.6v7c1-.4 2.2-.6 3.3-.6 4.5 0 5.2 2 5.2 5.2v3.6zm14.2.1c0 3-1.2 6-6.4 6s-6.5-3-6.5-6v-2.9c0-3 1.3-5.9 6.5-5.9s6.4 3 6.4 6v2.8zm14.2 0c0 3-1.2 6-6.4 6s-6.5-3-6.5-6v-2.9c0-3 1.3-5.9 6.5-5.9s6.4 3 6.4 6v2.8zm14.6 5.8h-4.8l-4-6.8v6.8H93V2l4.4-.7v13l4.1-6.4h4.8l-4.4 7 4.4 7.4zm-21-11c-1.5 0-2 1-2 2v3.7c0 1 .5 1.8 2 1.8s2-.8 2-1.8V13c0-1-.5-1.8-2-1.8zm23.5 8.5c.8 0 1.4.6 1.4 1.3 0 .8-.6 1.4-1.3 1.4a1.4 1.4 0 01-1.4-1.4c0-.7.6-1.3 1.4-1.3zm0 .2c-.6 0-1 .5-1 1.1 0 .7.5 1.2 1 1.2.6 0 1.1-.5 1.1-1.2 0-.6-.5-1.1-1-1.1zm-.2 2h-.3v-1.6h.5l.5.1v.3c0 .2 0 .3-.2.4.1 0 .2.1.3.4v.3h-.2a1.1 1.1 0 01-.1-.4c0-.1-.1-.2-.3-.2h-.2v.6zm0-.9h.2c.2 0 .3 0 .3-.3 0-.1 0-.2-.3-.2h-.2v.5z"/></svg>