<svg width="36" height="43" xmlns="http://www.w3.org/2000/svg" aria-label="Apple" class="fill-current"><path d="M35.3 33.5a23.4 23.4 0 01-2.3 4.1 21.1 21.1 0 01-3 3.6 5.7 5.7 0 01-3.8 1.7c-1 0-2.2-.3-3.5-.8a10 10 0 00-3.8-.9c-1.2 0-2.5.3-4 .9-1.3.5-2.4.8-3.3.9-1.3 0-2.6-.6-3.9-1.8a22 22 0 01-3-3.7A25.8 25.8 0 011.3 31 24 24 0 010 23.2c0-2.9.6-5.4 1.9-7.5a11 11 0 013.9-4 10.4 10.4 0 015.2-1.4c1 0 2.4.3 4 1 1.8.6 2.8.9 3.3.9.4 0 1.6-.4 3.6-1.1 2-.7 3.5-1 4.9-.9 3.6.3 6.3 1.7 8 4.3a9 9 0 00-4.7 8.2 9.1 9.1 0 003 6.8 9.7 9.7 0 002.9 2 32.3 32.3 0 01-.8 2zM27 .9a9.2 9.2 0 01-2.3 6c-2 2.2-4.2 3.5-6.6 3.2a6.7 6.7 0 01-.1-.8c0-2 .9-4.2 2.5-6 .8-1 1.8-1.7 3-2.3a9 9 0 013.4-1l.1.9z"/></svg>