<svg viewBox="0 0 570 390" fill="none" xmlns="http://www.w3.org/2000/svg" class="rounded-lg h-full lg:h-auto lg:rounded-r-none lg:rounded-l-lg"><path fill="#F1FAFF" d="M0 0h570v389.7H0z"/><path opacity="0.2" d="M173 80.2h-70v48.7h70V80.2Z" fill="#24B094"/><path opacity="0.4" d="M111 90.3h53.5" stroke="#C6C5C4" stroke-width="2.3" stroke-miterlimit="10"/><path opacity="0.2" d="M126.4 96.7h-9v7.6h9v-7.6ZM137.1 96.7h-9v7.6h9v-7.6ZM147.8 96.7H139v7.6h9v-7.6ZM158.6 96.7h-9v7.6h9v-7.6ZM126.4 106.7h-9v7.6h9v-7.6ZM137.1 106.7h-9v7.6h9v-7.6ZM147.8 106.7H139v7.6h9v-7.6ZM158.6 106.7h-9v7.6h9v-7.6ZM126.4 117.2h-9v7.6h9v-7.6ZM137.1 117.2h-9v7.6h9v-7.6ZM147.8 117.2H139v7.6h9v-7.6ZM158.6 117.2h-9v7.6h9v-7.6Z" fill="#231F20"/><path d="M328.8 201.3h-20v24.5h20v-24.5Z" fill="#BBC1C5"/><path opacity="0.1" d="M328.9 201.3h-4v24.5h4v-24.5Z" fill="#231F20"/><path d="M336.1 223.2h-35.5c-.6 0-1.1.5-1.1 1.2v.4c0 .6.5 1.1 1.1 1.1h35.5c.7 0 1.2-.5 1.2-1.1v-.4c0-.7-.5-1.2-1.2-1.2Z" fill="#BBC1C5"/><path opacity="0.2" d="M336.1 223.2h-35.5a1.2 1.2 0 0 0-1.1 1.2V225a1.1 1.1 0 0 1 1.1-1h35.5a1.1 1.1 0 0 1 1.2 1V224.4a1.2 1.2 0 0 0-1.2-1.2Z" fill="#fff"/><path opacity="0.1" d="M300.6 225.6h35.5a1.2 1.2 0 0 0 1.2-1.2V223.8a1.1 1.1 0 0 1-1.1 1h-35.6a1.1 1.1 0 0 1-1.1-1V224.4a1.1 1.1 0 0 0 1.1 1.2Z" fill="#231F20"/><path d="M358.7 154.5H278a3.4 3.4 0 0 0-3.4 3.4v49.8c0 1.9 1.6 3.4 3.4 3.4h80.7c1.9 0 3.4-1.5 3.4-3.4v-49.8c0-1.8-1.5-3.4-3.4-3.4Z" fill="#BBC1C5"/><path opacity="0.1" d="M358.7 199H278a3.4 3.4 0 0 1-3.4-3.5v12.2a3.4 3.4 0 0 0 3.4 3.4h80.7a3.4 3.4 0 0 0 3.4-3.4v-12.2a3.4 3.4 0 0 1-3.4 3.4Z" fill="#231F20"/><path opacity="0.2" d="M358.7 154.5h-1.2a3.4 3.4 0 0 1 3.5 3.5v49.7a3.4 3.4 0 0 1-3.5 3.4h1.2a3.4 3.4 0 0 0 3.4-3.4V158a3.4 3.4 0 0 0-3.4-3.4Z" fill="#231F20"/><path opacity="0.2" d="M275.8 207.7v-49.8a3.4 3.4 0 0 1 3.4-3.4h-1.1a3.4 3.4 0 0 0-3.5 3.4v49.8a3.4 3.4 0 0 0 3.5 3.4h1.1a3.4 3.4 0 0 1-3.4-3.4Z" fill="#fff"/><path d="M361.1 158v40c0 1-.9 1.9-2 1.9h-80.8c-1.1 0-2-.9-2-1.9v-40c0-1 .9-1.9 2-1.9h80.8c1.1 0 2 .8 2 1.9Z" fill="#293136"/><path d="M361.3 158v3.4h-85V158c0-1 .9-1.9 2-1.9h81c1 0 2 .8 2 1.9Z" fill="#D6D6D7"/><path d="M312.8 169.3h-32.3c-.3 0-.6-.4-.6-.9s.3-.9.6-.9h32.3c.3 0 .6.4.6 1 0 .4-.3.8-.6.8Z" fill="#C4738B"/><path d="M329.2 169.3h-13c-.4 0-.7-.4-.7-.9s.3-.9.7-.9h13c.4 0 .7.4.7 1 0 .4-.3.8-.7.8Z" fill="#B69759"/><path d="M337.6 169.3h-5.4c-.4 0-.7-.4-.7-.9s.3-.9.7-.9h5.4c.3 0 .6.4.6 1 0 .4-.3.8-.6.8Z" fill="#67CAC4"/><path d="M356.5 169.3h-15.4c-.3 0-.6-.4-.6-.9s.3-.9.6-.9h15.4c.4 0 .7.4.7 1 0 .4-.3.8-.7.8Z" fill="#fff"/><path d="M356.5 175.5h-32.3c-.3 0-.6-.4-.6-1 0-.4.3-.8.6-.8h32.3c.4 0 .7.4.7.9s-.3.9-.7.9Z" fill="#C4738B"/><path d="M321.2 175.5h-13c-.4 0-.7-.4-.7-1 0-.4.3-.8.7-.8h13c.4 0 .7.4.7.9s-.3.9-.7.9Z" fill="#67CAC4"/><path d="M304.6 175.5h-5.3c-.4 0-.7-.4-.7-1 0-.4.3-.8.7-.8h5.3c.4 0 .7.4.7.9s-.3.9-.7.9Z" fill="#fff"/><path d="M296 175.5h-15.5c-.3 0-.6-.4-.6-1 0-.4.3-.8.6-.8H296c.4 0 .7.4.7.9s-.3.9-.7.9Z" fill="#C4738B"/><path d="M307.5 182.2h-9c-.3 0-.6-.4-.6-1 0-.4.3-.8.6-.8h9c.4 0 .7.4.7.9s-.3.9-.7.9Z" fill="#fff"/><path d="M319.5 182.2h-9c-.3 0-.6-.4-.6-1 0-.4.3-.8.6-.8h9c.4 0 .7.4.7.9s-.3.9-.7.9Z" fill="#C4738B"/><path d="M295.3 182.2h-14.8c-.4 0-.6-.4-.6-1 0-.4.3-.8.6-.8h14.8c.4 0 .7.4.7.9s-.3.9-.7.9Z" fill="#67CAC4"/><path d="M319 195.5h-12.5c-.3 0-.6-.4-.6-1 0-.4.3-.8.6-.8h12.6c.3 0 .6.4.6.9s-.3.9-.6.9ZM285.7 195.5h-5.2c-.4 0-.6-.4-.6-1 0-.4.3-.8.6-.8h5.2c.3 0 .6.4.6.9s-.3.9-.6.9Z" fill="#C4738B"/><path d="M303.5 195.5h-14.8c-.4 0-.7-.4-.7-1 0-.4.3-.8.7-.8h14.8c.3 0 .6.4.6.9s-.3.9-.6.9ZM300 188.9h-19.5c-.4 0-.6-.5-.6-1s.3-.9.6-.9H300c.4 0 .6.4.6 1 0 .4-.3.9-.6.9Z" fill="#B69759"/><path d="M308.2 188.8H303c-.4 0-.6-.4-.6-.9s.2-.9.6-.9h5.2c.3 0 .6.4.6 1 0 .4-.3.8-.6.8Z" fill="#67CAC4"/><path d="M323.7 188.8h-12.5c-.4 0-.7-.4-.7-.9s.3-.9.7-.9h12.5c.4 0 .7.4.7 1 0 .4-.3.8-.7.8Z" fill="#B69759"/><path opacity="0.6" d="M357 182v11.3a1.7 1.7 0 0 1-1.6 1.6H337c-.9 0-1.6-.7-1.6-1.6V182c0-1 .7-1.6 1.6-1.6h18.3c.9 0 1.6.7 1.6 1.6Z" fill="#E5E6E7"/><path opacity="0.3" d="M352.3 186.5a2.2 2.2 0 1 0 0-4.5 2.2 2.2 0 0 0 0 4.5ZM356.7 193.7v.6c-.3.4-.8.6-1.3.6h-17.8c-1.2 0-2.1-1-2.1-2.1v-3.9c0-.1 0-.3.2-.4l4.5-3.1c1.4-1 3.4-.6 4.3.8l3 4.3c.2.3.5.3.7.2l1.8-1.3a3 3 0 0 1 4.3.8l2.4 3.5Z" fill="#fff"/><path d="M279 159.8a1 1 0 1 0 0-2 1 1 0 0 0 0 2Z" fill="#CC0024"/><path d="M281.7 159.8a1 1 0 1 0 0-2 1 1 0 0 0 0 2Z" fill="#FFAB11"/><path d="M284.3 159.8a1 1 0 1 0 0-2 1 1 0 0 0 0 2Z" fill="#00BC00"/><path d="M318.4 208.2a3.1 3.1 0 1 0 0-6.3 3.1 3.1 0 0 0 0 6.3Z" fill="#E7F1F7"/><path opacity="0.1" d="M318.4 202h-.4a3.1 3.1 0 0 1 0 6.1h.4a3.1 3.1 0 0 0 0-6.2Z" fill="#231F20"/><path opacity="0.3" d="M316 205a3.1 3.1 0 0 1 2.8-3h-.4a3.1 3.1 0 1 0 .4 6.1 3.1 3.1 0 0 1-2.7-3Z" fill="#fff"/><path d="M375.4 217.8v-.8h-9.8v5.3a4 4 0 0 0 4 4h1.8a4 4 0 0 0 3.8-2.7 2.9 2.9 0 0 0 .2-5.8Zm0 5v-4.1a2 2 0 0 1 0 4Z" fill="#D70035"/><path d="M397 225.8H135.3c-.5 0-.9.7-.9 1.5v6.7c0 .8.4 1.4.9 1.4H397c.5 0 .9-.6.9-1.4v-6.7c0-.8-.4-1.5-.9-1.5Z" fill="#B0632F"/><path opacity="0.2" d="M397 225.8H135.3c-.3 0-.5.2-.6.5a2 2 0 0 0-.3 1v2.6c0-.4.1-.8.3-1 .1-.3.3-.5.6-.5H397c.3 0 .5.2.6.5.2.2.3.6.3 1v-2.6c0-.4-.1-.8-.3-1-.1-.3-.3-.5-.6-.5Z" fill="#fff"/><path d="M161.6 226.2h23.8c.8 0 1.4-.6 1.4-1.4v-2.2c0-.8-.6-1.4-1.4-1.4h-23.8c-.8 0-1.4.6-1.4 1.4v2.2c0 .8.6 1.4 1.4 1.4Z" fill="#214562"/><path d="M163 221.2h22.5c.7 0 1.3-.5 1.3-1.2v-1.7c0-.7-.6-1.2-1.3-1.2H163c-.7 0-1.2.5-1.2 1.2v1.7c0 .7.5 1.2 1.2 1.2Z" fill="#FDA700"/><path d="M162 217h22.3c.8 0 1.4-.6 1.4-1.4v-2.8c0-.8-.6-1.5-1.4-1.5H162c-.8 0-1.5.7-1.5 1.5v2.8c0 .8.7 1.5 1.5 1.5Z" fill="#DB5A3E"/><path d="M160.2 225h25v-2.5h-25v2.5ZM162 215.4h23.7v-2.5H162v2.5ZM161.8 220h23.9v-1.8h-24v1.8Z" fill="#F2FAFC"/><path d="M141.5 236.4v66.3l.2.8h5l.2-.8v-66.3l-.2-.8h-5l-.2.8Z" fill="#B0632F"/><path opacity="0.2" d="M141.5 235.9v67.4c.3.2.7.2 1 .2h1.7c-.3 0-.6 0-1-.2v-67.4c.4-.3.7-.3 1-.3h-1.7c-.3 0-.7 0-1 .3Z" fill="#fff"/><path opacity="0.2" d="M146.9 235.9v67.4c-.2.2-.4.2-.7.2h-1.1c.2 0 .4 0 .6-.2v-67.4c-.2-.3-.4-.3-.6-.3h1.1c.3 0 .5 0 .7.3Z" fill="#231F20"/><path d="M380 236.4v66.3c0 .4.1.8.3.8h5.7c.2 0 .3-.4.3-.8v-66.3c0-.4-.1-.8-.3-.8h-5.7c-.2 0-.3.4-.3.8Z" fill="#B0632F"/><path opacity="0.2" d="M380 235.8v67.5c.3.2.6.2 1 .2h1.7c-.3 0-.6 0-1-.2v-67.5a1 1 0 0 1 1-.2H381a1 1 0 0 0-1 .2Z" fill="#fff"/><path opacity="0.2" d="M386.3 235.9v67.4c-.3.2-.7.2-1 .2h-1.7c.3 0 .6 0 1-.2v-67.4c-.4-.3-.7-.3-1-.3h1.7c.3 0 .7 0 1 .3Z" fill="#231F20"/><path d="M270.2 325c77.8 0 141-6.4 141-14.3 0-8-63.2-14.4-141-14.4s-140.9 6.5-140.9 14.4 63.1 14.3 141 14.3Z" fill="#D3EADE"/><path d="M497.7 65h-72.2v94.6h72.2V65Z" fill="#FFE8D2"/><path d="M489.5 75.7h-55.8v73.1h55.8v-73Z" fill="#fff"/><path d="M460.8 99.4H447v18.1h13.8V99.4ZM477 99.4h-13.8v18.1H477V99.4Z" fill="#FFAE61"/><path d="M364.8 181.7c0-.5-.2-1-.3-1.4a7 7 0 0 0-2.3-3.1.6.6 0 0 0-.6 0l-.2.2s-3.1-3.3-3.5-2.8c-.4.5 2.5 3.5 2.5 3.5-.8.7-1.2 1.7-1.3 2.8v.3c.4 1.3 1.8 1.5 3.6 3 0 .2.2.3.4.4.7.6 2 1 1.7-2.9Z" fill="#EBB694"/><path opacity="0.2" d="m359.2 181.2-.1-.3c0-1 .5-2 1.3-2.8-.6.7-1 1.5-1 2.4v.3c.4 1.4 1.8 1.6 3.6 3.1l.4.4a1 1 0 0 0 1.1.2c-.3.7-1 .4-1.4 0l-.4-.3c-1.8-1.5-3.2-1.7-3.5-3Z" fill="#fff"/><path d="m394.3 298.6.6 10 5 .1-.7-12.6-4.8 2.4" fill="#EBB694"/><path opacity="0.2" d="m396.3 308.7-.6-10.1h.2l3.3-1.8v-.7l-4.8 2.4h-.1l.6 10.2h5-3.6Z" fill="#fff"/><path d="m387.3 307.5 5-1.5c.8-.2 1.6-.3 2.5-.3.8 0 1.6.3 2.3.6a3.2 3.2 0 0 0 2.7-.4l.3 3.5a.6.6 0 0 1-.2.5.6.6 0 0 1-.4.1l-11.8-.2c-1.4 0-1.8-1.8-.4-2.3Z" fill="#293136"/><g opacity="0.1" fill="#fff"><path opacity="0.1" d="m399.3 306.3.5.1v-.5l-.7.3.2.1ZM390 309.8c-1.5 0-1.9-1.8-.5-2.3l5-1.5 1-.2h-.7c-.9-.1-1.7 0-2.5.2l-5 1.5c-1.4.5-1 2.2.5 2.3l11.8.2h.2l-9.8-.2Z"/></g><path d="m407.7 299.5.5 8.9h4.5l-.7-11.1-4.2 2.2" fill="#EBB694"/><path opacity="0.2" d="M410.5 308.4h2.2l-.7-11.1-2.1 1 .6 10.1Z" fill="#231F20"/><path d="m401.5 307.4 4.4-1.3c.7-.3 1.5-.3 2.2-.3.8 0 1.5.2 2.1.5a2.9 2.9 0 0 0 2.4-.4l.2 3.2a.5.5 0 0 1 0 .3.5.5 0 0 1-.5.2l-10.4-.2c-1.3 0-1.6-1.6-.4-2Z" fill="#293136"/><g opacity="0.2" fill="#231F20"><path opacity="0.2" d="M408 306.3c.6.2 1.3.2 1.9-.1-1-.4-2.2-.5-3.2-.3.4 0 .9.2 1.3.4ZM412.6 306a3 3 0 0 1-2.2.4l.2 2.7a.5.5 0 0 1-.2.4h2a.5.5 0 0 0 .3 0 .5.5 0 0 0 .1-.4l-.2-3.2Z"/></g><path d="M414 167.2H406v11.3h7.8v-11.3Z" fill="#D8A084"/><path d="m402.3 154.9 11.3-.3s2.8 6.2 2.6 9.7c-.3 3.5-6.3 9.4-6.3 9.4s-9.1 3-10.3-4c-1.2-7-.4-14.5 2.7-14.8Z" fill="#EAAD8B"/><path opacity="0.2" d="M401 169.7c-1.1-7-.3-14.6 2.7-14.8l10-.2-11.4.2c-3 .3-3.8 7.7-2.7 14.8.7 4.2 4.1 4.8 6.8 4.6-2.3-.1-4.8-1.2-5.4-4.6Z" fill="#fff"/><path d="m417.7 218.5-12.5-1.1-2.3 2.1-1.5-1.4-12.5 1s-3.1 10.5.9 30c4 19.4 4.4 55.5 4.4 55.5l1 .6s1.3.5 3.3-.7c4.4-2.6 4.3-62.8 4.3-62.8l.3-4.3.2-2 .2 1.3.3 4.3s1 61.7 4.3 63c3.2 1.4 4.3-.1 4.3-.1s.4-36.2 4.4-55.6 1-29.8 1-29.8Z" fill="#2C4E6A"/><g opacity="0.2" fill="#231F20"><path opacity="0.2" d="m400 219.5 1.5-1.4-2.8.2 1.3 1.2ZM417.7 218.5l-12.5-1.1-.3.2 10 .9s3 10.4-1 29.8c-4 19.5-4.5 55.6-4.5 55.6l-.5.4c2.6.9 3.5-.4 3.5-.4s.4-36.2 4.4-55.6 1-29.8 1-29.8Z"/></g><g opacity="0.2" fill="#fff"><path opacity="0.2" d="m405.1 219.5 2.1-2-2-.1-1.2 1 1.1 1.1ZM396.4 304.6s-.4-36.2-4.4-55.6-1-29.8-1-29.8l10.6-1-.2-.1-12.5 1s-3.1 10.5.9 30c4 19.4 4.4 55.5 4.4 55.5l1 .6c.7.2 1.4.1 2-.1a3 3 0 0 1-.8-.5Z"/></g><path d="M404.7 175.5s-6.6-.4-10.7 1c-4 1.3-15.3 9.3-15.3 9.3s-11.4-4.4-14-5c0 0 1.3 3-2.2 3.4 0 0 15.5 11 19.1 11.2 3.6.3 15.2-10.1 15.2-10.1s7.5-2.9 7.9-9.8Z" fill="#F9B950"/><g opacity="0.2" fill="#fff"><path opacity="0.2" d="M364.6 183a2.4 2.4 0 0 1-2.1 1.2l2 1.3a2.6 2.6 0 0 0 .1-2.4ZM364.7 183c2.8.7 14 5 14 5s11.3-8 15.4-9.3a34 34 0 0 1 10.2-1l.4-2.2s-6.6-.4-10.6 1a109 109 0 0 0-15.4 9.3s-11.3-4.4-14-5a3 3 0 0 1 0 2.2Z"/></g><path d="M413.6 176.8s9.3-.1 13.4 14.8c4 15 2 19.7 0 20a51 51 0 0 1-11.7-6.4l.9-7.1s6.6 3.9 7 3.9c.5 0-4-6.2-4.3-9-.2-2.9-7.2-6.8-5.3-16.2Z" fill="#E29A27"/><path opacity="0.2" d="m416.2 198-.9 7.2 2.3 1.5.8-6.4s6.7 4 7.1 4c.4 0-4.1-6.2-4.4-9-.2-3-7.2-6.9-5.2-16.3 0 0 3 0 6.3 2.7-4.1-5-8.5-4.9-8.5-4.9-2 9.4 5 13.3 5.3 16.2.2 2.9 4.7 9 4.3 9-.4 0-7.1-4-7.1-4Z" fill="#231F20"/><path d="M410.3 175.7c-4-.3-8-.3-12 0a23.6 23.6 0 0 0-3 22s2.7 8.1-4.2 16.5c0 0-2.9 4.4-2.5 7.4 2.8 2.1 10.7 7.5 20 5.8 1.5-.2 8.3-1.4 9.7-5.7.6-2-.4-2.8-1.3-6.6-2-8.5.4-16 1-18.3 1.3-4.4 1.6-4 2.3-6.5a11.3 11.3 0 0 0-10-14.6Z" fill="#F2AB28"/><path opacity="0.2" d="M390.8 221.6c-.4-3 2.5-7.4 2.5-7.4 6.9-8.4 4.2-16.4 4.2-16.4a23.6 23.6 0 0 1 3-22.2l4.4-.2c-2.1 0-4.3 0-6.6.2a23.6 23.6 0 0 0-3 22.2s2.7 8-4.2 16.4c0 0-2.9 4.4-2.5 7.4a28 28 0 0 0 17.5 6.1c-7.2-.4-13-4.4-15.3-6.1Z" fill="#fff"/><path d="M406.9 163.8c.5-1 1.2-1.6 1.7-1.5.2 0 .4.2.5.3.7 1.2-1.2 4.3-1.4 4.6-4.4 7-6.4 7-7.1 10.2-.9 3.8 1.8 5.6.1 9-1 2-2.3 2.4-2.2 3.7.3 2.6 5.6 4.2 6.6 4.5.5.2 1.1.4 1.7.4 3 0 3.8-1.5 6.6 0 2.8 1.4 4.5-.2 6-2 1-1.3 4-1.2 5-3 .4-.6.5-1.1.6-1.7.3-3.2-3.6-4.5-3.7-7.6 0-2.1 1.7-2.1 2-4.7.1-2.6-1.6-3-2.4-6.6-.4-2.2.2-2-.2-6.1-.1-1.9-.4-3.7-1-5.5-.5-1.9-1-3.5-2.4-5a10.8 10.8 0 0 0-6.2-3.3c-3.4-.6-6.8 0-9.7 1.8-1.4.9-2.2 1.6-2.6 2.5-.3.8-.4 1.7-.3 2.5.1 1 .5 1.8 1 2.5.4 1.2 1 2.4 1.8 3.3.2.4 2.7 3.3 4.6 2.5.4-.1.7-.4 1-.8Z" fill="#293136"/><g opacity="0.2" fill="#231F20"><path opacity="0.2" d="M406.3 195h.5c1.2 0 2.4-.2 3.6-.6-1.5-.3-2.4.4-4.1.6ZM407.1 162.3c-.5-.1-1.1.5-1.7 1.5-.2.4-.6.7-1 .9h1.5c.4-.2.7-.5 1-1 .2-.3.4-.7.8-1a.8.8 0 0 0-.6-.4ZM421.3 180.8c0-2.2 1.7-2.2 2-4.8.1-2.5-1.6-3-2.4-6.5-.4-2.2.2-2.2-.2-6.2-.1-1.8-.4-3.7-1-5.5-.5-1.9-1-3.5-2.4-5a10.8 10.8 0 0 0-6.2-3.2c-1.1-.2-2.2-.3-3.4-.3.7 0 1.3.2 1.9.3 2.4.3 4.6 1.5 6.3 3.2 1.3 1.5 1.8 3.1 2.4 5 .5 1.8.8 3.7 1 5.5.3 4-.3 4 .2 6.2.7 3.6 2.5 4 2.3 6.5-.2 2.6-2 2.6-2 4.8.1 3 4 4.3 3.7 7.5a4 4 0 0 1-.5 1.7c-1.1 1.8-4 1.7-5.1 3.1-.8 1.1-2 2-3.2 2.3 2 .5 3.4-.9 4.6-2.3 1.2-1.4 4-1.3 5.2-3.1.3-.5.5-1 .5-1.7.3-3.2-3.6-4.4-3.7-7.5Z"/></g><g opacity="0.1" fill="#fff"><path opacity="0.1" d="M401.2 162.2c.3.3 2.8 3.2 4.7 2.5l.4-.3c-1.7 0-3.6-2.3-3.8-2.6-.8-1-1.4-2.1-1.7-3.4a5.3 5.3 0 0 1-.8-5c.4-.9 1.2-1.6 2.6-2.4a14 14 0 0 1 2.5-1.3c-1.3.4-2.6 1-3.7 1.6-1.4 1-2.2 1.6-2.6 2.5-.3.8-.4 1.7-.3 2.5.1 1 .5 1.8 1 2.5.4 1.2 1 2.4 1.7 3.4ZM414.6 194.6c-2.8-1.4-3.7 0-6.6 0-.6 0-1.2 0-1.7-.3-1-.3-6.3-2-6.6-4.6-.1-1.3 1.2-1.6 2.2-3.6 1.7-3.4-1-5.2-.1-9 .7-3.1 2.7-3.1 7-10.2.3-.4 2.2-3.4 1.5-4.6a.9.9 0 0 0-.5-.4c-.3 0-.6.1-1 .5l.3.3c.7 1.2-1.2 4.2-1.4 4.6-4.4 7-6.4 7-7.1 10.1-.9 3.9 1.8 5.7.1 9.1-1 2-2.3 2.3-2.2 3.6.3 2.6 5.6 4.3 6.6 4.6l1.7.4c3 0 3.8-1.6 6.6-.1a3.8 3.8 0 0 0 3.6.1c-.8.1-1.7 0-2.4-.5Z"/></g><path d="M262 226.2h-33.4v-18.8a1.3 1.3 0 0 1 1.3-1.2h30.8a1.3 1.3 0 0 1 1.3 1.2v18.8Z" fill="#A4A3A3"/><path opacity="0.2" d="M261 226h-31.4v-17.6a1.2 1.2 0 0 1 1.2-1.1h29a1.2 1.2 0 0 1 1.2 1.1v17.7Z" fill="#fff"/><path opacity="0.7" d="M245.3 218.7a.3.3 0 1 0 0-.6.3.3 0 0 0 0 .6Z" fill="#343535"/><path opacity="0.2" d="M250.5 226H247l8.8-18.7h3.4l-8.8 18.8ZM245.1 226h-3.3l8.8-18.7h3.4L245 226Z" fill="#fff"/><path d="m228 294.8-2 4.5 3.9 2.9 4.3-4.9-4.4-2.8-1.9.3Z" fill="#EBB694"/><path opacity="0.2" d="m226.7 299.7 2-4.5 1.7-.3-.6-.4-1.9.3-2 4.5 4 2.9.1-.2-3.3-2.3Z" fill="#231F20"/><path d="m281.3 301.4 3.2 3.7 3.8-3.4a54.4 54.4 0 0 1-3.2-5.2l-4 3.4.2 1.5Z" fill="#EBB694"/><path opacity="0.2" d="m286.5 299-1.4-2.5-.7.6a44.4 44.4 0 0 0 3.2 5.1l-3.1 2.8 3.8-3.3-1.8-2.8Z" fill="#fff"/><path d="M235.3 309.9c-1.8-.4-2.7-2.4-2.7-2.4l-1.2-2.3c-.4-.9-.7-1.8-.8-2.7.6-.9.9-1.4.7-1.6h-.3a3.4 3.4 0 0 1-4.2-3.5c-.7-.5-2.4 1.4-2.4 1.4a4.2 4.2 0 0 0-3.2 1.8l-.2.7c-.1 1.5 1.3 2.4 4.8 5.4 2.4 2 3.6 3.3 6 4.5l.6.3c3.3.4 3.1-1.4 2.9-1.6Z" fill="#325B77"/><g opacity="0.2" fill="#fff"><path opacity="0.2" d="m233 311.6-.6-.3c-2.4-1.3-3.5-2.5-6-4.5-3.4-3-4.9-4-4.7-5.4 0-.3 0-.5.2-.8.4-.7 1.1-1.2 1.9-1.5l1.2-.3c.5-.5 1.1-1 1.8-1.4-.7-.5-2.4 1.4-2.4 1.4a4.2 4.2 0 0 0-3.2 1.7l-.2.8c-.1 1.5 1.3 2.4 4.8 5.4 2.4 2 3.6 3.3 6 4.5l.6.3h.6ZM231.4 301s-.2-.1-.4 0h-.6 1Z"/></g><path opacity="0.2" d="M235.3 309.9c-1.8-.4-2.7-2.4-2.7-2.4l-1.2-2.3c-.4-.9-.7-1.8-.8-2.7.6-.9.9-1.4.7-1.6h-.3a3.4 3.4 0 0 1-4.2-3.5c-.3-.2-.8 0-1.2.3a.7.7 0 0 1 .6 0 3.4 3.4 0 0 0 4.2 3.6h.3s0 .7-.8 1.6c.2.9.5 1.8.9 2.6l1.2 2.4s.9 2 2.7 2.4a1 1 0 0 1-.3 1.1c1.2-.4 1-1.3.9-1.5Z" fill="#231F20"/><path d="M207.7 243.2s-7 20 11.5 18.5c18.6-1.6 25.4 2.9 25.4 2.9s-16.5 21.4-17 31c0 0 3.3 4.6 4.5 4 0 0 28.3-27.5 27.7-36-.6-8.6-52.1-20.4-52.1-20.4Z" fill="#3B3F42"/><g opacity="0.2" fill="#231F20"><path opacity="0.2" d="m209.4 243.6-1.7-.4s-6.8 19.2 10.4 18.5c-13.6-.6-9.6-15.5-8.7-18.1ZM229.4 295.6c.5-9.6 17-31 17-31s-5.2-3.5-19-3.3c12.4.1 17.2 3.3 17.2 3.3s-16.5 21.4-17 31c0 0 3.3 4.6 4.5 4l.5-.4c-1.2-1-2.2-2.3-3.2-3.6Z"/></g><path opacity="0.2" d="M319.5 237.8H189.3a1.4 1.4 0 0 0-1.3.8l-.1.6v.6a1.5 1.5 0 0 1 1.4-1.4h130.2a1.5 1.5 0 0 1 1.4 1.4v-.6a1.4 1.4 0 0 0-.8-1.3l-.6-.1Z" fill="#fff"/><path d="M225.4 188.3h-8.8v8.4h8.8v-8.4Z" fill="#DBAA8F"/><path d="M248.8 199.2c-.2-2.9.7-5.7 2.5-8a.9.9 0 0 1 .9-.2l.3.3s3.5-6.3 4.2-5.6c.7.6-2.6 6.1-2.6 6.1s2.5 1.4 2.8 3.7v.4c0 2.1-2 3-4 6l-.6.8c-.9 1-2.5 2.2-3.5-3.5Z" fill="#EBB694"/><g opacity="0.1" fill="#231F20"><path opacity="0.1" d="m254.8 192.3-.2-.1h.2Z"/><path opacity="0.1" d="M249.4 199.5a11.2 11.2 0 0 1 2.4-7.9.9.9 0 0 1 1-.2l.3.2s2.5-4.5 3.6-5.5a.6.6 0 0 0 0-.4c-.7-.7-4.2 5.6-4.2 5.6 0-.2-.2-.2-.3-.3a.9.9 0 0 0-1 .3c-1.7 2.2-2.6 5-2.4 7.9.6 3 1.3 4 2 4.3-.6-.6-1-1.7-1.4-4Z"/></g><path opacity="0.2" d="M257 195.9v-.4c-.4-2-2.3-3.3-2.8-3.6 1.2.8 2 2 2.3 3.2v.5c-.2 2-2 3-4.2 6l-.5.7c-.4.5-1 1-1.6.8.8.9 1.6.2 2.1-.4l.6-.7c2-3.1 4-4 4-6.1Z" fill="#fff"/><path d="M266 255.1c-5.6-7.9-30.2-10.2-30.2-10.2s-13.9-4.7-17.1.2c-1 1.5-1.6 3.3-1.7 5.2l-.5-.4.6 2.4c0 1 .3 2.1.7 3.1l1.3 6 10.3 1.1v-.5c9.8.8 24.3.5 24.4 1a463 463 0 0 0 27.2 38.8c3.1 2.2 5.8-2.4 5.8-2.4s-15.2-36.3-20.8-44.3Z" fill="#454B4F"/><path opacity="0.1" d="M266 255.1c-5.6-7.9-30.2-10.2-30.2-10.2s-13.9-4.7-17.1.2c4.5-2.7 15.8 1.1 15.8 1.1s24.6 2.3 30.2 10.2c5.6 8 20.8 44.3 20.8 44.3a9 9 0 0 1-.6.9c.7-.6 1.4-1.4 1.9-2.2 0 0-15.2-36.3-20.8-44.3Z" fill="#fff"/><path d="M207 199s-3.9-1.2-11.5 36.7c0 0-.8 4.7 12.6.5L207 199Z" fill="#325B77"/><path opacity="0.1" d="M196.7 235.7c5.1-25.4 8.5-33.3 10.2-35.7v-1s-3.8-1.2-11.4 36.7c0 0-.4 2.5 4.5 2.2-3.6-.2-3.3-2.2-3.3-2.2Z" fill="#fff"/><path d="M216.7 193.8s7.7 1 8.8 0c1-1 3 2.5 1.2 3.2 0 0 5-.4 7.4 1 2.4 1.3 5.1 11.9 2.8 47 0 0-24.2 7.1-27.6.3 0 0-12.3-45-1-47l6.9-1.8s-1.7-1.8 1.5-2.7Z" fill="#2C4E6A"/><g opacity="0.1" fill="#fff"><path opacity="0.1" d="M225 197.8c2.9-.5 6.4-.5 9.1 1.4 7.7 5.4 3.5 22.7 3.7 22.7 0 0-2.5-23.4-3.7-24l-.8-.3a8.8 8.8 0 0 0-2.3-.5l-.8-.1h-3.5l-.4.4c-.4.2-.8.4-1.2.4ZM208.3 199.6l8-2.2-.5-.3a3 3 0 0 1-.6-.6l-6.9 1.8c-3.7.7-4.9 6-4.8 12.7.1-6.2 1.4-10.8 4.8-11.4ZM216.7 195s7.7 1.2 8.8.1c.6-.6 1.5.3 1.8 1.3.6-1.2-1-3.4-1.8-2.5-1 1-8.8-.1-8.8-.1-2.3.7-2 1.8-1.8 2.3.4-.5 1-1 1.8-1Z"/></g><path d="M234.6 198.2a41.6 41.6 0 0 1 7.4 12.3s3.3-8.6 6.9-11.4c0 0 2.4 3.7 4 2.9 0 0-5.3 15.5-10 20a1.6 1.6 0 0 1-1.8.2c-.9-.3-1.7-.8-2.5-1.4-1.3-1.4-4.5-4.8-8.6-9.6l-1-1.8a11.8 11.8 0 0 1 2-6.7c.9-1.6 2.1-3.2 3.6-4.5Z" fill="#325B77"/><path opacity="0.2" d="M252.8 202a1 1 0 0 1-.5.1 65.2 65.2 0 0 1-9.6 19 1.6 1.6 0 0 1-1.8.3c-.9-.4-1.7-.9-2.4-1.4-1.4-1.5-4.6-4.9-8.7-9.6l-.8-1.6v.6l1 1.8c4.1 4.8 7.3 8.2 8.6 9.7l2.5 1.4a1.6 1.6 0 0 0 1.8-.3c4.7-4.4 10-20 10-20Z" fill="#231F20"/><path opacity="0.1" d="M230.8 204.2c.9-1.7 2.1-3.2 3.6-4.5a41.5 41.5 0 0 1 7.4 12.2s3.4-8.6 6.9-11.3c0 0 2 3 3.6 2.9l.5-1.5c-1.5.8-4-2.8-4-2.8-3.5 2.7-6.8 11.3-6.8 11.3a42.5 42.5 0 0 0-7.4-12.2 17.4 17.4 0 0 0-5.4 9.2l-.1.9c.3-1.5.9-3 1.7-4.2Z" fill="#fff"/><path d="M225 242.3h-3.1v18.3h3v-18.3Z" fill="#A4A3A3"/><path opacity="0.2" d="M222.6 242.3h-.7v18.3h.7v-18.3Z" fill="#fff"/><path opacity="0.2" d="M225 242.3h-.8v18.3h.7v-18.3Z" fill="#231F20"/><path d="M225.8 268.5H221V307h4.8v-38.5Z" fill="#A4A3A3"/><path opacity="0.2" d="M225.8 268.5h-1.2V307h1.2v-38.5Z" fill="#231F20"/><path opacity="0.2" d="M222.3 268.5H221V307h1.3v-38.5Z" fill="#fff"/><path d="M220.8 286h5.2a.8.8 0 0 1 .8.8V307H220v-20.2a.8.8 0 0 1 .2-.6.8.8 0 0 1 .5-.2Z" fill="#454B4F"/><path opacity="0.2" d="M226 286V306.4h-6v.6h6.8v-20.2l-.2-.6a.8.8 0 0 0-.6-.2Z" fill="#231F20"/><path opacity="0.2" d="M221 287a.8.8 0 0 1 .7-.7h5a.7.7 0 0 0-.7-.3h-5.2a.8.8 0 0 0-.5.2.8.8 0 0 0-.2.6V307h.9v-20Z" fill="#fff"/><path d="M212.6 206h21.6a10 10 0 0 1 10 10.1v21.7a17.8 17.8 0 0 1-17.7 17.8h-6.2a17.8 17.8 0 0 1-17.7-17.8V216a10 10 0 0 1 10-10Z" fill="#F2AB28"/><path opacity="0.2" d="M204.5 237.8V216a10 10 0 0 1 10-10h-2a10 10 0 0 0-10 10v21.7a17.8 17.8 0 0 0 17.9 17.8h1.9a17.8 17.8 0 0 1-17.8-17.8Z" fill="#fff"/><path opacity="0.2" d="M242.4 237.8V216a10 10 0 0 0-10-10h1.8a10 10 0 0 1 10 10v21.7a17.8 17.8 0 0 1-17.7 17.8h-2a17.8 17.8 0 0 0 17.9-17.8Z" fill="#231F20"/><path d="M206.8 260.4H240a4.3 4.3 0 0 1 4.3 4.2v2.7a2 2 0 0 1-2 2h-37.8a2 2 0 0 1-2-2v-2.7a4.3 4.3 0 0 1 4.3-4.2Z" fill="#F2AB28"/><path opacity="0.2" d="M241.3 260.5a4.2 4.2 0 0 1 1.7 3.5v2.6a2 2 0 0 1-2 2H203.1a2 2 0 0 0 1.4.7h37.8a2 2 0 0 0 2-2v-2.7a4.3 4.3 0 0 0-3-4Z" fill="#231F20"/><path opacity="0.2" d="M203.8 267.9v-2.6a4.3 4.3 0 0 1 4.3-4.3h33.2c.4 0 .8 0 1.2.2-.7-.5-1.6-.8-2.5-.8h-33.2a4.2 4.2 0 0 0-4.2 4.2v2.7a2 2 0 0 0 1.7 2 2 2 0 0 1-.5-1.4Z" fill="#fff"/><path d="M208.6 315.7a3.5 3.5 0 1 0 0-7 3.5 3.5 0 0 0 0 7Z" fill="#353535"/><path d="M208.6 315.1a3 3 0 1 0 0-5.8 3 3 0 0 0 0 5.8Z" fill="#444"/><path d="M208.6 313.6a1.4 1.4 0 1 0 0-2.8 1.4 1.4 0 0 0 0 2.8ZM238.3 315.7a3.5 3.5 0 1 0 0-7 3.5 3.5 0 0 0 0 7Z" fill="#353535"/><path d="M238.3 315.1a3 3 0 1 0 0-5.8 3 3 0 0 0 0 5.8Z" fill="#444"/><path d="M238.3 313.6a1.4 1.4 0 1 0 0-2.8 1.4 1.4 0 0 0 0 2.8Z" fill="#353535"/><path d="M209 306.8h28.8a3.5 3.5 0 0 1 3.6 3.6h-36a3.6 3.6 0 0 1 3.6-3.6Z" fill="#454B4F"/><path opacity="0.2" d="M237.3 306.8H236c2.2 0 4 1.6 4 3.6h1.5c0-2-1.8-3.6-4-3.6Z" fill="#231F20"/><path opacity="0.2" d="M211 306.8h-1.5c-2.3 0-4 1.6-4 3.6h1.4c0-2 1.8-3.6 4-3.6Z" fill="#fff"/><path d="M283.2 303.6a3.5 3.5 0 0 0 3.1-.4 3.6 3.6 0 0 0 1.5-2.6c0-.2 0-.4.2-.4s.6.3 1.2 1.2h2.8c1.4-.2 2.2-.6 4.1-.8 1.4-.1 1.9 0 2.2.4a1.5 1.5 0 0 1 .1 1.2l-.5.5c-1.8 2-3.3 2.8-6 4.5-3.9 2.4-5 3.6-6.5 3l-.7-.4a4.3 4.3 0 0 1-.8-3.5s-1.3-2.2-.7-2.7Z" fill="#325B77"/><g opacity="0.2" fill="#231F20"><path opacity="0.2" d="M288.1 300.2h-.1l-.1.4-.2.9.4-1.3ZM298.3 302c-2 2-3.4 2.8-6 4.5-4 2.5-5.2 3.6-6.6 3l-.7-.3a4.3 4.3 0 0 1-.7-3.6 7 7 0 0 1-.9-2h-.1c-.7.5.7 2.7.7 2.7a4.2 4.2 0 0 0 .8 3.5l.7.4c1.4.6 2.6-.6 6.5-3 2.7-1.7 4.1-2.5 6-4.5l.5-.5v-.4l-.2.3Z"/></g><path opacity="0.2" d="M298.3 301c-.3-.4-.8-.5-2.1-.4-2 .2-2.7.6-4.2.8h-2.7c-.7-.9-1.1-1.3-1.3-1.2l-.1.3-.2.8.8 1h2.8c1.4-.3 2.2-.7 4.1-.8 1.4-.2 2 0 2.2.3a1.4 1.4 0 0 1 .1 1.1l.3-.2.4-.5a1.5 1.5 0 0 0-.1-1.3Z" fill="#fff"/><path opacity="0.2" d="M216.6 190s4.4 3 8.8 2.6v-2.8l-6.9-.9-2 1.1Z" fill="#231F20"/><path d="M216.7 189.7s-11.9-10.1-1.7-15.6c0 0 7.8-4 9.6-1.6 0 0 2.7 2.5 4.3 8.2 1.7 5.7 2.5 11.1-4.8 10.3-2.5 0-5-.4-7.4-1.3Z" fill="#EBB694"/><path opacity="0.2" d="M229 180.7c-1.7-5.7-4.4-8.1-4.4-8.1-.5-.8-1.6-1-2.8-.8a2 2 0 0 1 1.5.8s2.7 2.4 4.4 8c1.4 5.2 2.3 10-2.8 10.4 6.5.4 5.6-4.8 4-10.3Z" fill="#fff"/><path d="M219.4 183.8s-2.7-3.3-.6-3.7c2-.4 9.3-3.6 9.1-6.3-.2-2.4-4.1-5.6-10.7-3.1l-2.2.7c-2.3.7-7.6 2.7-7.4 6.6 0 0-.2 8.7 8.9 13.4 0 0 1.4-1 .1-3.1-1.6-2.7-2-5.1-1.3-5.8.2-.2.6-.3 1.7.1l.7.5c.5.4 1 1 1.3 1.6l.4-1Z" fill="#343535"/><path opacity="0.1" d="M215 172.7a63 63 0 0 0 2.2-.7c6-2.4 10 .2 10.6 2.6l.1-.7c-.2-2.5-4.1-5.7-10.7-3.2l-2.1.7c-2.4.7-7.6 2.8-7.4 6.7v.6c.3-3.5 5.1-5.3 7.4-6Z" fill="#fff"/><path opacity="0.4" d="M261.7 201.5a4.5 4.5 0 0 1-.8-3.4 4 4 0 0 1 .8-1.7l.5-.6.3-.7c0-.5.1-1 0-1.6 0-.6 0-1.1-.2-1.7a30 30 0 0 0-.9-3.3c.6 1 1.1 2 1.5 3.2.3 1.1.4 2.4.2 3.6l-.3.9-.6.7-.8 1.3c-.3 1.1-.2 2.3.3 3.3ZM264.5 198.8a2.3 2.3 0 0 1-.4-1.8c.1-.3.2-.6.5-.8l.2-.4.1-.3v-1.7l-.5-1.7c.3.5.6 1 .7 1.6.2.6.3 1.3.2 1.9l-.2.4-.3.4-.4.7c-.1.6-.1 1.1.1 1.7Z" fill="#D1D3D4"/></svg>