<svg width="97" height="32" xmlns="http://www.w3.org/2000/svg" aria-label="Google" class="fill-current"><path d="M41.6 16.8a7.8 7.8 0 01-8 7.9c-4.4 0-8-3.4-8-8 0-4.5 3.6-7.8 8-7.8s8 3.3 8 7.9zm-3.5 0c0-2.9-2-4.8-4.5-4.8-2.4 0-4.5 2-4.5 4.8s2 4.8 4.5 4.8 4.5-2 4.5-4.8zm20.7 0c0 4.5-3.6 7.9-8 7.9s-8-3.4-8-8a7.8 7.8 0 018-7.8c4.4 0 8 3.3 8 7.9zm-3.5 0c0-2.9-2-4.8-4.5-4.8-2.4 0-4.5 2-4.5 4.8s2.1 4.8 4.5 4.8 4.5-2 4.5-4.8zm20-7.4v14.1c0 5.8-3.4 8.2-7.5 8.2a7.6 7.6 0 01-7-4.6l3-1.3a4.4 4.4 0 004 2.8c2.6 0 4.2-1.6 4.2-4.6v-1.1c-.9 1-2.4 1.8-4.3 1.8a7.8 7.8 0 01-7.6-7.9c0-4.5 3.6-8 7.6-8 2 0 3.4 1 4.2 1.8h.1V9.4h3.4zm-3 7.4c0-2.8-1.9-4.8-4.3-4.8s-4.4 2-4.4 4.8c0 2.7 2 4.7 4.4 4.7 2.4 0 4.3-2 4.3-4.7zm8.5-15.7v23h-3.4v-23zm13.3 18.3l2.8 1.8a8 8 0 01-6.7 3.5 7.8 7.8 0 01-7.9-8c0-4.6 3.4-7.8 7.5-7.8s6.2 3.2 6.8 5l.4.9-10.7 4.4a4 4 0 004 2.4c1.7 0 3-1 3.8-2.2zm-8.3-2.9l7-2.9c-.3-1-1.5-1.7-2.9-1.7a4.3 4.3 0 00-4.1 4.6zm-73.1-1.8v-3.3H24l.1 2a11 11 0 01-2.9 7.8c-2.2 2.3-5 3.5-8.6 3.5C5.9 24.7 0 19.2 0 12.4S6 .2 12.7.2c3.8 0 6.4 1.4 8.5 3.3L18.8 6a8.7 8.7 0 00-6.1-2.4 8.8 8.8 0 00-8.9 9c0 4.8 3.9 8.8 8.9 8.8a8.3 8.3 0 006.2-2.4 6.9 6.9 0 001.9-4.2h-8.1z"/></svg>