<svg width="48" height="48" viewBox="0 0 48 48" fill="none" xmlns="http://www.w3.org/2000/svg" class="">
	<path fill-rule="evenodd" clip-rule="evenodd" d="M19.1486 13.7612H31.6977C32.7581 13.7612 33.6177 14.6208 33.6177 15.6812C33.6177 15.8546 33.5942 16.0273 33.5478 16.1944L28.9117 32.907C28.6282 33.9288 27.5701 34.5273 26.5483 34.2439C26.4608 34.2196 26.3752 34.1892 26.292 34.1528L14.5611 29.0205C13.6535 28.6234 13.197 27.6011 13.5072 26.6603L17.3252 15.08C17.5847 14.2929 18.3199 13.7612 19.1486 13.7612Z" stroke="current" stroke-width="2.4" stroke-linecap="round" stroke-linejoin="round" class="">
	</path>
	<path d="M18.24 22.08L28.8 24" stroke="current" stroke-width="1.6" stroke-linecap="square" class="">
	</path>
	<path d="M17.28 24.0001L27.84 25.9201" stroke="current" stroke-width="1.6" stroke-linecap="square">
	</path>
	<path d="M16.3199 25.92L26.8799 27.84" stroke="current" stroke-width="1.6" stroke-linecap="square" class="">
	</path>
	<path d="M20.6399 18.7201C21.1701 18.7201 21.5999 18.2903 21.5999 17.7601C21.5999 17.2299 21.1701 16.8001 20.6399 16.8001C20.1097 16.8001 19.6799 17.2299 19.6799 17.7601C19.6799 18.2903 20.1097 18.7201 20.6399 18.7201Z" stroke="current" stroke-width="1.6">
	</path>
</svg>
