<svg width="22" height="22" viewBox="0 0 22 22" fill="rgba(136,135,255,1)" xmlns="http://www.w3.org/2000/svg">
	<path d="m11 16.3-4.6-2.7V8.4L11 5.7l4.6 2.7v5.2L11 16.3Zm-4-3 4 2.2 4-2.2V8.7l-4-2.2-4 2.2v4.6Z" fill="current">
	</path>
	<path fill-rule="evenodd" clip-rule="evenodd" d="M11 5.3 16 8V14l-5 2.8L6 14V8l5-2.8ZM7.5 9v4l3.5 2 3.5-2V9L11 7 7.5 9Z" fill="current">
	</path>
	<path d="M11 11.4 6.6 8.8l.3-.5 4.1 2.3 4-2.3.4.5-4.4 2.6Z" fill="current">
	</path>
	<path fill-rule="evenodd" clip-rule="evenodd" d="m6.8 7.7 4.2 2.5 4.2-2.5L16 9 11 11.8 6 9l.8-1.3Z" fill="current">
	</path>
	<path d="M11.3 11h-.6v4.9h.6V11Z" fill="current">
	</path>
	<path fill-rule="evenodd" clip-rule="evenodd" d="M10.3 10.6h1.4v5.7h-1.4v-5.7Z" fill="current">
	</path>
	<path d="m6.6 8.8-1.1-.6H4v-.7h1.5l1.3.8-.3.5Z" fill="current">
	</path>
	<path fill-rule="evenodd" clip-rule="evenodd" d="M3.7 7.1h2l1.8 1-.7 1.3-1.4-.8H3.7V7Z" fill="current">
	</path>
	<path d="m15.4 8.8-.3-.5 1.3-.8h1.5v.7h-1.4l-1.1.6Z" fill="current">
	</path>
	<path fill-rule="evenodd" clip-rule="evenodd" d="M16.3 7.1h2v1.5h-1.7l-1.4.8-.7-1.3 1.8-1Z" fill="current">
	</path>
	<path d="M17.9 14.5h-1.5l-1.3-.8.3-.5 1.1.6H18v.7Z" fill="current">
	</path>
	<path fill-rule="evenodd" clip-rule="evenodd" d="m15.2 12.6 1.4.8h1.7V15h-2l-1.8-1 .7-1.3Z" fill="current">
	</path>
	<path d="M5.6 14.5H4.1v-.7h1.4l1.1-.6.3.5-1.3.8Z" fill="current">
	</path>
	<path fill-rule="evenodd" clip-rule="evenodd" d="m6.8 12.6.7 1.3-1.8 1h-2v-1.5h1.7l1.4-.8Z" fill="current">
	</path>
	<path d="M11.3 4.1h-.6v2h.6v-2Z" fill="current">
	</path>
	<path fill-rule="evenodd" clip-rule="evenodd" d="M10.3 3.7h1.4v2.8h-1.4V3.7Z" fill="current">
	</path>
	<path d="M11.3 15.9h-.6v2h.6v-2Z" fill="current">
	</path>
	<path fill-rule="evenodd" clip-rule="evenodd" d="M10.3 15.5h1.4v2.8h-1.4v-2.8Z" fill="current">
	</path>
	<path d="M4.9 3.5H4V4H5v-.6Z" fill="current">
	</path>
	<path fill-rule="evenodd" clip-rule="evenodd" d="M3.7 3h1.6v1.5H3.7V3.1Z" fill="current">
	</path>
	<path d="M17.9 3.5H17V4h.8v-.6Z" fill="current">
	</path>
	<path fill-rule="evenodd" clip-rule="evenodd" d="M16.7 3h1.6v1.5h-1.6V3.1Z" fill="current">
	</path>
	<path d="M4.9 17.9H4v.6H5V18Z" fill="current">
	</path>
	<path fill-rule="evenodd" clip-rule="evenodd" d="M3.7 17.5h1.6v1.4H3.7v-1.4Z" fill="current">
	</path>
	<path d="M17.9 17.9H17v.6h.8V18Z" fill="current">
	</path>
	<path fill-rule="evenodd" clip-rule="evenodd" d="M16.7 17.5h1.6v1.4h-1.6v-1.4Z" fill="current">
	</path>
	<path d="M12.7 4.5H9.3V1h3.4v3.5ZM10 3.8h2.2V1.6H9.9v2.2Z" fill="current">
	</path>
	<path fill-rule="evenodd" clip-rule="evenodd" d="M8.9.6H13v4.3H9V.6ZM10.3 2v1.4h1.4V2h-1.4Z" fill="current">
	</path>
	<path d="M12.7 21H9.3v-3.5h3.4V21Zm-2.8-.6h2.2v-2.2H9.9v2.2Z" fill="current">
	</path>
	<path fill-rule="evenodd" clip-rule="evenodd" d="M8.9 17.1H13v4.3H9v-4.3Zm1.4 1.5V20h1.4v-1.4h-1.4Z" fill="current">
	</path>
	<path d="M4.5 9.6H1V6h3.5v3.5Zm-2.9-.7h2.2V6.7H1.6V9Z" fill="current">
	</path>
	<path fill-rule="evenodd" clip-rule="evenodd" d="M.6 5.7h4.3V10H.6V5.7ZM2 7v1.4h1.4V7.1H2Z" fill="current">
	</path>
	<path d="M4.5 16H1v-3.6h3.5V16Zm-2.9-.7h2.2V13H1.6v2.2Z" fill="current">
	</path>
	<path fill-rule="evenodd" clip-rule="evenodd" d="M.6 12h4.3v4.3H.6V12ZM2 13.5v1.4h1.4v-1.4H2Z" fill="current">
	</path>
	<path d="M21 9.6h-3.5V6H21v3.5Zm-2.8-.7h2.2V6.7h-2.2V9Z" fill="current">
	</path>
	<path fill-rule="evenodd" clip-rule="evenodd" d="M17.1 5.7h4.3V10h-4.3V5.7ZM18.6 7v1.4H20V7.1h-1.4Z" fill="current">
	</path>
	<path d="M21 16h-3.5v-3.6H21V16Zm-2.8-.7h2.2V13h-2.2v2.2Z" fill="current">
	</path>
	<path fill-rule="evenodd" clip-rule="evenodd" d="M17.1 12h4.3v4.3h-4.3V12Zm1.5 1.5v1.4H20v-1.4h-1.4Z" fill="current">
	</path>
</svg>
