<svg id="SvgjsSvg1001" width="288" height="288" xmlns="http://www.w3.org/2000/svg" version="1.1" xmlns:xlink="http://www.w3.org/1999/xlink" xmlns:svgjs="http://svgjs.com/svgjs"><defs id="SvgjsDefs1002"></defs><g id="SvgjsG1008"><svg xmlns="http://www.w3.org/2000/svg" fill="current" class="w-full" viewBox="0 0 16 16" width="288" height="288"><path fill-rule="evenodd" d="M8 0a4 4 0 1 0 0 8 4 4 0 0 0 0-8Zm2 4a2 2 0 0 0-2-2 2 2 0 0 0-2 2c0 1.1.9 2 2 2a2 2 0 0 0 2-2Zm4 10c-.2-.7-3.3-2-6-2s-5.8 1.3-6 2h12ZM0 14c0-2.7 5.3-4 8-4s8 1.3 8 4v2H0v-2Z" clip-rule="evenodd" fill="#ffffff" class="color000 svgShape"></path></svg></g></svg>