<svg viewBox="0 0 359 136" fill="none" xmlns="http://www.w3.org/2000/svg" class="rounded-t-lg bg-primary-lightP2 dark:bg-gray-buttonHover"><path d="M0 8a8 8 0 0 1 8-8h343a8 8 0 0 1 8 8v128H0V8Z"/><g clip-path="url(#acode)"><g clip-path="url(#bcode)"><path fill-rule="evenodd" clip-rule="evenodd" d="M241.99 110.78a2.07 2.07 0 0 1-2.08 2.08H107.14a2.08 2.08 0 0 1-2.08-2.08V38.22a2.08 2.08 0 0 1 2.08-2.08h67.09l5.31-4.62h61.16a5.57 5.57 0 0 1 5.6 5.6l.05 80.34-145.59.22c-.05-.3.05-80.57.05-80.57a5.6 5.6 0 0 1 5.6-5.6h73.13l-5.3 4.62h-67.1a2.08 2.08 0 0 0-2.08 2.08v72.57a2.08 2.08 0 0 0 2.08 2.08H239.9a2.09 2.09 0 0 0 2.08-2.08V74.01" fill="#131313"/><path fill-rule="evenodd" clip-rule="evenodd" d="m268.25 153.6-44.03.08-18.58.03-38.37.07-89.04.15H78l22.76-36.25h.13l58.23-.09h4.67l10.63-.02 16.14-.02 16.2-.03 39.49-.06h.1l21.9 36.14Z" fill="#D1D2D3"/><g opacity="0.15" style="mix-blend-mode: multiply;"><path d="M110.28 128.22h-4.45l2.01-4.52h4.3l-1.86 4.52ZM113.71 133.93H103.3l2.01-4.52h10.1l-1.69 4.52ZM111.63 140.16h-10.88l2-4.51h10.55l-1.67 4.51ZM115.62 128.22h-4.45l1.84-4.52h4.3l-1.7 4.52ZM120.96 128.22h-4.45l1.66-4.52h4.3l-1.51 4.52ZM126.3 128.22h-4.45l1.49-4.52h4.3l-1.34 4.52ZM131.64 128.22h-4.45l1.31-4.52h4.3l-1.16 4.52ZM136.98 128.22h-4.45l1.14-4.52h4.3l-.99 4.52ZM142.32 128.22h-4.45l.96-4.52h4.3l-.81 4.52ZM147.66 128.22h-4.45l.79-4.52h4.3l-.64 4.52ZM153 128.22h-4.45l.61-4.52h4.3l-.46 4.52ZM158.34 128.22h-4.45l.44-4.52h4.3l-.29 4.52ZM163.68 128.22h-4.45l.26-4.52h4.3l-.1 4.52ZM169.02 128.22h-4.45l.09-4.52h4.3l.06 4.52ZM174.36 128.22h-4.45l-.09-4.52h4.3l.24 4.52ZM179.7 128.22h-4.45l-.26-4.52h4.3l.41 4.52ZM185.04 128.22h-4.45l-.44-4.52h4.3l.6 4.52ZM190.38 128.22h-4.45l-.61-4.52h4.3l.76 4.52ZM195.72 128.22h-4.45l-.79-4.52h4.3l.94 4.52ZM201.06 128.22h-4.45l-.96-4.52h4.3l1.11 4.52ZM206.4 128.22h-4.45l-1.14-4.52h4.3l1.3 4.52ZM211.74 128.22h-4.45l-1.31-4.52h4.3l1.46 4.52ZM217.09 128.22h-4.46l-1.49-4.52h4.3l1.65 4.52ZM222.43 128.22h-4.46l-1.66-4.52h4.3l1.81 4.52ZM227.76 128.22h-4.45l-1.84-4.52h4.3l2 4.52ZM233.1 128.22h-4.44l-2.02-4.52h4.3l2.16 4.52ZM238.44 128.22H234l-2.2-4.52h4.3l2.34 4.52ZM119.04 133.93h-4.63l1.66-4.52h4.5l-1.53 4.52ZM124.6 133.93h-4.63l1.49-4.52h4.49l-1.34 4.52ZM130.16 133.93h-4.63l1.32-4.52h4.48l-1.17 4.52ZM135.73 133.93h-4.64l1.14-4.52h4.49l-1 4.52ZM141.29 133.93h-4.64l.97-4.52h4.48l-.81 4.52ZM146.85 133.93h-4.63l.78-4.52h4.5l-.65 4.52ZM152.41 133.93h-4.63l.61-4.52h4.49l-.47 4.52ZM157.97 133.93h-4.63l.44-4.52h4.48l-.29 4.52ZM163.53 133.93h-4.63l.26-4.52h4.5l-.13 4.52ZM169.1 133.93h-4.64l.09-4.52h4.49l.06 4.52ZM174.66 133.93h-4.64l-.09-4.52h4.5l.23 4.52ZM180.22 133.93h-4.64l-.26-4.52h4.49l.4 4.52ZM185.78 133.93h-4.63l-.44-4.52h4.48l.6 4.52ZM191.34 133.93h-4.63l-.62-4.52h4.5l.75 4.52ZM196.9 133.93h-4.63l-.8-4.52h4.5l.93 4.52ZM202.47 133.93h-4.64l-.96-4.52h4.48l1.12 4.52ZM208.03 133.93h-4.64l-1.14-4.52h4.5l1.28 4.52ZM213.59 133.93h-4.63l-1.32-4.52h4.49l1.46 4.52ZM219.15 133.93h-4.64l-1.49-4.52h4.5l1.63 4.52ZM224.7 133.93h-4.62l-1.67-4.52h4.49l1.8 4.52ZM230.27 133.93h-4.63l-1.84-4.52h4.48l2 4.52ZM235.83 133.93h-4.63l-2.02-4.52h4.5l2.15 4.52ZM244.46 139.84h-4.83l-5.06-10.43h4.49l5.4 10.43ZM116.94 140.16h-4.83l1.66-4.51h4.7l-1.53 4.51ZM122.75 140.16h-4.84l1.5-4.51h4.68l-1.34 4.51ZM128.55 140.16h-4.83l1.31-4.51h4.7l-1.18 4.51ZM134.36 140.16h-4.84l1.14-4.51h4.69l-1 4.51ZM140.16 140.16h-4.84l.97-4.51h4.69l-.82 4.51ZM145.96 140.16h-4.83l.79-4.51h4.68l-.64 4.51ZM151.77 140.16h-4.84l.61-4.51h4.7l-.47 4.51ZM157.57 140.16h-4.84l.44-4.51h4.7l-.3 4.51ZM163.37 140.16h-4.83l.26-4.51h4.69l-.12 4.51ZM169.18 140.16h-4.84l.09-4.51h4.69l.06 4.51ZM174.98 140.16h-4.83l-.1-4.51h4.7l.23 4.51ZM180.78 140.16h-4.83l-.26-4.51h4.69l.4 4.51ZM186.59 140.16h-4.84l-.44-4.51h4.7l.58 4.51ZM192.4 140.16h-4.85l-.6-4.51h4.68l.76 4.51ZM198.2 140.16h-4.84l-.79-4.51h4.69l.94 4.51ZM204 140.16h-4.84l-.96-4.51h4.69l1.1 4.51ZM209.8 140.16h-4.83l-1.15-4.51h4.7l1.28 4.51ZM215.6 140.16h-4.83l-1.31-4.51h4.68l1.46 4.51ZM221.4 140.16h-4.83l-1.49-4.51h4.7l1.63 4.51ZM227.21 140.16h-4.84l-1.66-4.51h4.7l1.8 4.51ZM233.02 140.16h-4.84l-1.84-4.51h4.69l1.99 4.51ZM238.82 140.16h-4.84l-2.01-4.51h4.69l2.16 4.51Z" fill="#070707" opacity="0.15" style="mix-blend-mode: multiply;"/></g><path d="M110.28 127.97h-4.45l2.01-4.52h4.3l-1.86 4.52ZM113.71 133.67H103.3l2.01-4.52h10.1l-1.69 4.52ZM111.63 139.91h-10.88l2-4.52h10.55l-1.67 4.52ZM115.62 127.97h-4.45l1.84-4.52h4.3l-1.7 4.52ZM120.96 127.97h-4.45l1.66-4.52h4.3l-1.51 4.52ZM126.3 127.97h-4.45l1.49-4.52h4.3l-1.34 4.52ZM131.64 127.97h-4.45l1.31-4.52h4.3l-1.16 4.52ZM136.98 127.97h-4.45l1.14-4.52h4.3l-.99 4.52ZM142.32 127.97h-4.45l.96-4.52h4.3l-.81 4.52ZM147.66 127.97h-4.45l.79-4.52h4.3l-.64 4.52ZM153 127.97h-4.45l.61-4.52h4.3l-.46 4.52ZM158.34 127.97h-4.45l.44-4.52h4.3l-.29 4.52ZM163.68 127.97h-4.45l.26-4.52h4.3l-.1 4.52ZM169.02 127.97h-4.45l.09-4.52h4.3l.06 4.52ZM174.36 127.97h-4.45l-.09-4.52h4.3l.24 4.52ZM179.7 127.97h-4.45l-.26-4.52h4.3l.41 4.52ZM185.04 127.97h-4.45l-.44-4.52h4.3l.6 4.52ZM190.38 127.97h-4.45l-.61-4.52h4.3l.76 4.52ZM195.72 127.97h-4.45l-.79-4.52h4.3l.94 4.52ZM201.06 127.97h-4.45l-.96-4.52h4.3l1.11 4.52ZM206.4 127.97h-4.45l-1.14-4.52h4.3l1.3 4.52ZM211.74 127.97h-4.45l-1.31-4.52h4.3l1.46 4.52ZM217.09 127.97h-4.46l-1.49-4.52h4.3l1.65 4.52ZM222.43 127.97h-4.46l-1.66-4.52h4.3l1.81 4.52ZM227.76 127.97h-4.45l-1.84-4.52h4.3l2 4.52ZM233.1 127.97h-4.44l-2.02-4.52h4.3l2.16 4.52ZM238.44 127.97H234l-2.2-4.52h4.3l2.34 4.52ZM119.04 133.67h-4.63l1.66-4.52h4.5l-1.53 4.52ZM124.6 133.67h-4.63l1.49-4.52h4.49l-1.34 4.52ZM130.16 133.67h-4.63l1.32-4.52h4.48l-1.17 4.52ZM135.73 133.67h-4.64l1.14-4.52h4.49l-1 4.52ZM141.29 133.67h-4.64l.97-4.52h4.48l-.81 4.52ZM146.85 133.67h-4.63l.78-4.52h4.5l-.65 4.52ZM152.41 133.67h-4.63l.61-4.52h4.49l-.47 4.52ZM157.97 133.67h-4.63l.44-4.52h4.48l-.29 4.52ZM163.53 133.67h-4.63l.26-4.52h4.5l-.13 4.52ZM169.1 133.67h-4.64l.09-4.52h4.49l.06 4.52ZM174.66 133.67h-4.64l-.09-4.52h4.5l.23 4.52ZM180.22 133.67h-4.64l-.26-4.52h4.49l.4 4.52ZM185.78 133.67h-4.63l-.44-4.52h4.48l.6 4.52ZM191.34 133.67h-4.63l-.62-4.52h4.5l.75 4.52ZM196.9 133.67h-4.63l-.8-4.52h4.5l.93 4.52ZM202.47 133.67h-4.64l-.96-4.52h4.48l1.12 4.52ZM208.03 133.67h-4.64l-1.14-4.52h4.5l1.28 4.52ZM213.59 133.67h-4.63l-1.32-4.52h4.49l1.46 4.52ZM219.15 133.67h-4.64l-1.49-4.52h4.5l1.63 4.52ZM224.7 133.67h-4.62l-1.67-4.52h4.49l1.8 4.52ZM230.27 133.67h-4.63l-1.84-4.52h4.48l2 4.52ZM235.83 133.67h-4.63l-2.02-4.52h4.5l2.15 4.52ZM244.46 139.6h-4.83l-5.06-10.45h4.49l5.4 10.44ZM116.94 139.91h-4.83l1.66-4.52h4.7l-1.53 4.52ZM122.75 139.91h-4.84l1.5-4.52h4.68l-1.34 4.52ZM128.55 139.91h-4.83l1.31-4.52h4.7l-1.18 4.52ZM134.36 139.91h-4.84l1.14-4.52h4.69l-1 4.52ZM140.16 139.91h-4.84l.97-4.52h4.69l-.82 4.52ZM145.96 139.91h-4.83l.79-4.52h4.68l-.64 4.52ZM151.77 139.91h-4.84l.61-4.52h4.7l-.47 4.52ZM157.57 139.91h-4.84l.44-4.52h4.7l-.3 4.52ZM163.37 139.91h-4.83l.26-4.52h4.69l-.12 4.52ZM169.18 139.91h-4.84l.09-4.52h4.69l.06 4.52ZM174.98 139.91h-4.83l-.1-4.52h4.7l.23 4.52ZM180.78 139.91h-4.83l-.26-4.52h4.69l.4 4.52ZM186.59 139.91h-4.84l-.44-4.52h4.7l.58 4.52ZM192.4 139.91h-4.85l-.6-4.52h4.68l.76 4.52ZM198.2 139.91h-4.84l-.79-4.52h4.69l.94 4.52ZM204 139.91h-4.84l-.96-4.52h4.69l1.1 4.52ZM209.8 139.91h-4.83l-1.15-4.52h4.7l1.28 4.52ZM215.6 139.91h-4.83l-1.31-4.52h4.68l1.46 4.52ZM221.4 139.91h-4.83l-1.49-4.52h4.7l1.63 4.52ZM227.21 139.91h-4.84l-1.66-4.52h4.7l1.8 4.52ZM233.02 139.91h-4.84l-1.84-4.52h4.69l1.99 4.52ZM238.82 139.91h-4.84l-2.01-4.52h4.69l2.16 4.52Z" fill="#727171"/><path opacity="0.85" d="M241.6 38.36v72.57a2.1 2.1 0 0 1-1.29 1.92c-.25.1-.52.16-.8.16H106.75a2.08 2.08 0 0 1-2.08-2.08V38.36a2.08 2.08 0 0 1 2.08-2.08h132.78a2.09 2.09 0 0 1 2.08 2.08Z" fill="#fff"/><path fill="#455A7F" d="M104.66 36.28h137.13v77.14H104.66z"/><path fill-rule="evenodd" clip-rule="evenodd" d="M114.15 44.85c0-1.07.87-1.94 1.95-1.94h14.46a1.95 1.95 0 0 1 0 3.9H116.1a1.95 1.95 0 0 1-1.95-1.96Z" fill="#fff"/><path fill-rule="evenodd" clip-rule="evenodd" d="M133.74 44.85c0-1.07.88-1.94 1.95-1.94h14.47a1.95 1.95 0 0 1 0 3.9h-14.47a1.95 1.95 0 0 1-1.95-1.96Z" fill="#74BF44"/><path fill-rule="evenodd" clip-rule="evenodd" d="M153.35 44.85c0-1.07.87-1.94 1.95-1.94h7.23a1.95 1.95 0 0 1 0 3.9h-7.23a1.95 1.95 0 0 1-1.95-1.96Z" fill="#fff"/><path fill-rule="evenodd" clip-rule="evenodd" d="M114.08 54.95c0 1.07.88 1.95 1.95 1.95h19.9a1.95 1.95 0 0 0 0-3.9h-19.9c-1.07 0-1.95.87-1.95 1.95Z" fill="#67C7CC"/><path fill-rule="evenodd" clip-rule="evenodd" d="M143.42 54.95c0 1.07.87 1.95 1.95 1.95h16.76a1.95 1.95 0 0 0 0-3.9h-16.76c-1.08 0-1.95.87-1.95 1.95Z" fill="#EC2831"/><path fill-rule="evenodd" clip-rule="evenodd" d="M169.09 54.95c0 1.07.87 1.95 1.95 1.95h13.62a1.95 1.95 0 0 0 0-3.9h-13.62c-1.08 0-1.95.87-1.95 1.95Z" fill="#fff"/><path fill-rule="evenodd" clip-rule="evenodd" d="M114.15 64.75c0-1.07.87-1.95 1.95-1.95h19.65a1.95 1.95 0 0 1 0 3.9H116.1a1.95 1.95 0 0 1-1.95-1.95Z" fill="#74BF44"/><path fill-rule="evenodd" clip-rule="evenodd" d="M140.78 64.75c0-1.07.88-1.95 1.95-1.95h33.61a1.95 1.95 0 0 1 0 3.9h-33.61a1.95 1.95 0 0 1-1.95-1.95Z" fill="#67C7CC"/><path fill-rule="evenodd" clip-rule="evenodd" d="M114.08 74.84c0-1.07.88-1.94 1.95-1.94h13.67a1.95 1.95 0 1 1 0 3.9h-13.67a1.95 1.95 0 0 1-1.95-1.96Zm19.43 0c0-1.07.87-1.94 1.95-1.94h21.96a1.95 1.95 0 0 1 0 3.9h-21.96a1.95 1.95 0 0 1-1.95-1.96Z" fill="#ECAA26"/><path fill-rule="evenodd" clip-rule="evenodd" d="M161.76 74.84c0-1.07.87-1.94 1.94-1.94h8.9a1.95 1.95 0 0 1 0 3.9h-8.9a1.95 1.95 0 0 1-1.94-1.96Z" fill="#fff"/><path fill-rule="evenodd" clip-rule="evenodd" d="M114.08 84.8c0-1.08.88-1.96 1.95-1.96h25.15a1.95 1.95 0 0 1 0 3.9h-25.15a1.95 1.95 0 0 1-1.95-1.95Z" fill="#67C7CC"/><path fill-rule="evenodd" clip-rule="evenodd" d="M147.61 84.8c0-1.08.87-1.96 1.95-1.96h17.29a1.95 1.95 0 0 1 0 3.9h-17.3a1.95 1.95 0 0 1-1.94-1.95Z" fill="#74BF44"/><path fill-rule="evenodd" clip-rule="evenodd" d="M114.15 104.54c0-1.08.87-1.95 1.95-1.95h5.29a1.95 1.95 0 0 1 0 3.9h-5.3a1.95 1.95 0 0 1-1.94-1.95Z" fill="#EC2831"/><path fill-rule="evenodd" clip-rule="evenodd" d="M123.53 104.54c0-1.08.87-1.95 1.95-1.95h14.46a1.95 1.95 0 0 1 0 3.9h-14.46a1.95 1.95 0 0 1-1.95-1.95Z" fill="#74BF44"/><path fill-rule="evenodd" clip-rule="evenodd" d="M142.7 104.54c0-1.08.87-1.95 1.95-1.95h7.23a1.95 1.95 0 1 1 0 3.9h-7.23a1.95 1.95 0 0 1-1.95-1.95ZM114.08 94.74c0-1.08.88-1.95 1.95-1.95h13.62a1.95 1.95 0 1 1 0 3.9h-13.62a1.95 1.95 0 0 1-1.95-1.95Z" fill="#fff"/><path fill-rule="evenodd" clip-rule="evenodd" d="M133.47 94.74c0-1.08.87-1.95 1.94-1.95h17.3a1.95 1.95 0 0 1 0 3.9h-17.3a1.95 1.95 0 0 1-1.94-1.95ZM156 94.74c0-1.08.87-1.95 1.94-1.95h17.29a1.95 1.95 0 0 1 0 3.9h-17.29a1.95 1.95 0 0 1-1.95-1.95Z" fill="#67C7CC"/><path opacity="0.11" fill-rule="evenodd" clip-rule="evenodd" d="m224.34 153.92-18.66-.13c-4.4-11.83-8.93-24.57-13.42-36.34h16.54c5.11 11.88 10.45 24.56 15.54 36.47Z" fill="#fff"/><path opacity="0.29" fill-rule="evenodd" clip-rule="evenodd" d="M154.34 36.28h85.43A2.22 2.22 0 0 1 242 38.5v72.3a2.22 2.22 0 0 1-2.22 2.22h-39.81l-45.62-76.73Z" fill="#fff"/></g><path d="M264.75 22h-51.84a5.85 5.85 0 0 0-5.84 5.84V58.7a5.85 5.85 0 0 0 5.84 5.84h51.84a5.85 5.85 0 0 0 5.85-5.84V27.84a5.84 5.84 0 0 0-5.85-5.83V22Z" fill="#fff" stroke="#455A7F" stroke-width="2" stroke-linecap="round" stroke-linejoin="round"/><path opacity="0.19" d="M269.16 26.66h-51.84a5.85 5.85 0 0 0-5.85 5.83v30.87a5.84 5.84 0 0 0 5.85 5.84h51.84a5.84 5.84 0 0 0 5.84-5.84V32.5a5.83 5.83 0 0 0-5.85-5.83h.01Z" fill="#6B6B6B"/><path d="m234.47 51.98 8.4-17.02-8.4 17.02Zm-7.5-17.4-8.27 8.26 9.03 8.76-.76-17.02v0Zm22.97.38 8.27 8.26-9.04 8.76.76-17.02h0Z" stroke="#455A7F" stroke-width="2" stroke-linecap="round" stroke-linejoin="round"/></g><defs><clipPath id="acode"><path fill="#fff" transform="translate(78 22)" d="M0 0h197v114H0z"/></clipPath><clipPath id="bcode"><path fill="#fff" transform="translate(78 31.52)" d="M0 0h190.46v125.95H0z"/></clipPath></defs></svg>