<svg viewBox="0 0 359 136" fill="none" xmlns="http://www.w3.org/2000/svg" class="rounded-t-lg bg-primary-lightP2 dark:bg-gray-buttonHover"><path d="M0 8a8 8 0 0 1 8-8h343a8 8 0 0 1 8 8v128H0V8Z"/><g clip-path="url(#ainterview)"><path d="M98.35 54.9c8.94-5.03 19.5-10.91 19.5-10.91l1.42-2.56a3.39 3.39 0 0 0-1.06-4.53c-.07 0-.07-.08-.15-.08-3.26-1.77-5.67-4.04-10.56-4.32-6.88-.35-8.86.07-11.91 2.76-1.99 1.78-3.2 4.97-2.84 12.63.14 2.76 2.84 8.22 4.96 10.84l.64-3.82Z" fill="#26252B"/><path d="M98.64 49.73s-2.34 8.01-1.42 14.4c.35 2.33 4.96 7.3 7.16 6.8 2.98-.64 4.82-1.63 4.82-1.63l-.14-8.23c0-.07-7.16-12.55-10.42-11.34Z" fill="#E7A584"/><path d="M164.3 114.11c.06-.07.2-.07.28-.07 2.34.07 5.53.14 6.45-.21 4.47-1.78 8.08-7.1 7.73-7.52-.14-.14-.64-.5-1.28-.85-1.91-1.2-6.52-.71-8.44 0-1.2.43-2.48 1.28-2.05.64 1-1.63.64-3.48.14-3.05-.28.28-2.27 3.26-3.54 4.96-.08.14-.22.21-.29.21-7.16 1.99-16.3 4.75-19.29 5.46-.56.15-.92.22-.92.22l-.56 8.15 1.27.92c7.87-.42 16.8-6.24 20.5-8.86ZM91.62 67.95l8.37-.28c8.37-.29-9.79 30.84-5.89 34.74 3.9 3.9 34.6-10.7 43.75-13.47 3.12 6.1 3.9 10.78 4.04 11.48.14.71-32.9 18.08-47.5 19.64-14.54 1.64-20-6.23-2.77-52.1ZM151.04 89.08s1.91 1.2 1 5.88c-.93 4.68-4.69 4.97-6.53 3.62-1.84-1.28-.07-5.67 1.49-6.24 1.63-.5 3.54-1.06 4.04-3.26Z" fill="#9E9E9E"/><path d="m168.76 110.14-30.42-8.3 25.03-35.95 31.77 4.83-26.38 39.42Z" fill="#9E9E9E"/><path d="M138.56 90.29c.35 0 4.82-3.9 6.45-4.47 1.63-.57 4.32 1.2 5.46 3.61 1.13 2.42-1.42 2.27-2.56 1.56-1.06-.7-2.76 1.07-2.76 1.07l-2.13 2.98-1.84 2.55-2.62-7.3Z" fill="#9E9E9E"/><path d="M164.3 114.1c.06-.06.2-.06.28-.06 2.34.07 5.53.14 6.45-.21 4.47-1.78 8.08-7.1 7.73-7.52-.14-.14-.64-.5-1.28-.85-1.91-1.2-6.52-.71-8.44 0-1.2.42-2.48 1.28-2.05.64.99-1.63.63-3.48.14-3.05-.28.28-2.27 3.26-3.55 4.96-.07.14-.2.21-.28.21-7.16 1.99-16.3 4.75-19.29 5.46-.56.15-.92.22-.92.22l-.56 8.15 1.27.92c7.87-.42 16.8-6.24 20.5-8.86Z" fill="#F6B58F"/><path opacity="0.11" d="M167.62 106.1c-.5.21-.78.35-.56-.07.28-.43.42-.92.5-1.35.13.28.13.78.06 1.42Z" fill="#000"/><g opacity="0.11" fill="#000"><path opacity="0.11" d="M167.2 104.54c-.28.28-2.27 3.26-3.54 4.96-.08.14-.22.21-.29.21-7.16 1.99-16.3 4.75-19.28 5.46l-.93.22-.42 6.66-.07-.07.56-8.15.93-.22c2.97-.7 12.12-3.47 19.28-5.46a.96.96 0 0 0 .28-.2c1.28-1.71 3.27-4.69 3.55-4.97.35-.36.64.56.35 1.7-.14-.21-.28-.28-.42-.14ZM178.33 107.44c-.21-.14-.5-.35-.78-.5-1.91-1.2-6.52-.7-8.44 0-1.2.43-2.48 1.28-2.05.65.28-.5.5-1.07.56-1.5.43-.2 1-.49 1.5-.63 1.9-.71 6.52-1.28 8.43 0 .64.43 1.13.78 1.28.85.07.07-.15.5-.5 1.13Z"/></g><path d="m91.62 67.95 8.37-.28c8.37-.29-9.79 30.84-5.89 34.74 3.9 3.9 34.6-10.7 43.75-13.47 3.12 6.1 3.9 10.78 4.04 11.48.14.71-32.9 18.08-47.5 19.64-14.54 1.64-20-6.23-2.77-52.1Z" fill="#8A888B"/><path d="M151.04 89.08s1.91 1.2.99 5.89c-.92 4.68-4.68 4.96-6.52 3.61-1.85-1.27-.07-5.67 1.48-6.24 1.63-.5 3.55-1.06 4.05-3.26Z" fill="#F6B58F"/><path d="m168.76 110.14-30.42-8.3 25.03-35.94 31.77 4.82-26.38 39.42Z" fill="#C9C9C9"/><path opacity="0.11" d="m166.98 109.64 26.8-39.14 1.35.22-26.37 39.42-1.78-.5Z" fill="#000"/><path opacity="0.11" d="m166.85 66.4-25.25 36.3-3.26-.86 25.03-36.02 3.48.57Z" fill="#fff"/><path opacity="0.11" d="m188.04 75.75-25.1-4.18c-1.06-.14-1.56-1.35-.99-2.27l1-1.5c.28-.49.92-.77 1.48-.63l25.32 4.04c1.06.14 1.63 1.42.99 2.27l-1.14 1.63c-.42.5-.99.78-1.56.64ZM184.29 81.21 159.4 77.1c-1.06-.14-1.56-1.35-1-2.27l1-1.49c.36-.5.92-.7 1.49-.64l24.89 4.18c1.06.22 1.56 1.42.99 2.27l-1 1.5c-.35.42-.91.7-1.48.56ZM167.76 105.18 144.44 99c-1-.29-1.42-1.35-.85-2.2l1.06-1.63c.35-.57 1-.78 1.63-.64l23.47 6.1a1.5 1.5 0 0 1 .85 2.27l-1.13 1.7c-.43.5-1.07.78-1.7.57Z" fill="#000"/><path d="M114.3 141.34c-16.94 5.81-38.07-1.07-38.07-1.07s-2.13-13.61 1.63-37.15c2.55-16.17.78-24.53 5.1-30.99 3.84-5.6 10.57-10.28 14.4-9.78.07.35 1.92 6.1 11.42 5.96 10.28 12.83 8.65 45.23 5.53 73.03Z" fill="#ACABB1"/><path opacity="0.13" d="M102.96 143.53c-13.75 1-26.73-3.26-26.73-3.26s-2.13-13.61 1.63-37.15c2.55-16.17.78-24.53 5.1-30.99 3.84-5.6 10.57-10.28 14.4-9.78 0 .07.14.57.5 1.13A26.54 26.54 0 0 0 88.5 72c-4.33 6.38-2.55 14.75-5.1 30.99-3.7 23.54-1.64 37.15-1.64 37.15s9.64 3.12 21.2 3.4Z" fill="#000"/><path d="M118.2 43.84c.3 1.28.43 2.7.3 3.9l.06 6.03c0 1-.14 2.06-.35 3.05-.57 2.76-2.48 7.02-3.69 8.22-1.42 1.35-8.72.57-12.2-4.4-2.83-4.03-2.2-7.5-2.2-7.5s-1.76.28-2.76-.72a4.98 4.98 0 0 1-.64-3.05c.5-2.69 1.7-3.33 2.84-3.12a3.27 3.27 0 0 1 2.41 2.7l.43 2.62 1.98-.35s-1.06-3.76.22-4.61c.99-.64 2.9-3.2 3.4-4.96a17.17 17.17 0 0 0 10.2 2.2Z" fill="#F6B58F"/><path opacity="0.05" d="m118.5 47.74.06 6.03c0 1.06-.14 2.06-.35 3.05-.57 2.77-2.48 7.02-3.69 8.22-.57.57-2.13.71-4.04.43.42-.07.7-.21.92-.43 1.2-1.13 3.05-5.46 3.69-8.22.21-1 .35-1.99.35-3.05l-.07-6.03c.14-1.2 0-2.62-.28-3.9.99.08 2.05.08 3.12 0 .28 1.28.42 2.7.28 3.9Z" fill="#000"/><path d="M90.98 90.92c-.5-4.32.14-8.72 1.91-12.69 1.14-2.48 2.91-4.75 6.81-5.03 11.91-.92 15.67 35.73 19.57 39.63 3.97 3.9 31.7-1.84 40.77-4.6 3.12 6.1 3.26 8.57 3.4 9.28.14.71-26.37 12.34-40.98 13.97-13.26 1.42-29-18.72-31.48-40.56Z" fill="#C4C2C9"/><path opacity="0.18" d="M163.44 117.44c.14.71-26.37 12.34-40.98 13.97-13.26 1.49-29-18.65-31.48-40.56-.5-4.32.14-8.72 1.91-12.69a8.62 8.62 0 0 1 3.12-3.83c-.28.43-.5.92-.78 1.42a23.65 23.65 0 0 0-1.91 12.7c2.55 21.9 18.22 41.97 31.48 40.55 11.84-1.28 31.55-9.22 38.5-12.55.07.5.14.85.14 1Z" fill="#000"/><path d="M138.56 90.29c.35 0 4.82-3.9 6.45-4.47 1.63-.57 4.32 1.2 5.46 3.62 1.13 2.4-1.42 2.26-2.56 1.55-1.06-.7-2.76 1.07-2.76 1.07l-2.13 2.98-1.84 2.55-2.62-7.3Z" fill="#F6B58F"/><path opacity="0.06" d="M150.6 91.2c-1.13-2.4-3.82-4.1-5.45-3.6-1.42.42-4.75 3.25-6.03 4.18l-.5-1.42c.36 0 4.83-3.9 6.46-4.47 1.7-.5 4.32 1.2 5.46 3.62.35.85.35 1.34.07 1.7Z" fill="#000"/><path d="M261.5 145.16c.92-.2 1.92-.42 2.9-.7a70.66 70.66 0 0 0 7.31-2.27c.71-.29 1.35-.57 1.99-1 8.72-5.8 1.98-23.75 10.06-30.27a7.36 7.36 0 0 0 2.49-4.04c.78-3.55-.78-6.38-2.84-9.22a30.18 30.18 0 0 1-6.17-19.29c.36-7.09-2.62-10.63-7.09-13.96-2.2-1.64-5.32-2.56-7.37-4.33-3.55-3.19-5.89-7.44-8.94-11.13-7.44-9-15.45-8.58-21.4-2.2-.72.71-1.36 1.56-2 2.41-3.04 4.26-5.31 10.21-6.45 17.23-5.53 33.96-8.22 88.49 37.51 78.77Z" fill="#000"/><path opacity="0.03" d="M234.84 44.27c4.75-1.49 10.07.28 15.1 6.38 3.05 3.69 5.4 8.01 8.94 11.13 2.05 1.85 5.17 2.7 7.37 4.33 4.4 3.33 7.38 6.88 7.1 13.97a30.3 30.3 0 0 0 6.16 19.28c2.13 2.77 3.62 5.67 2.84 9.22a7.13 7.13 0 0 1-2.49 4.04c-7.72 6.31-1.77 23.19-9.14 29.57.35-.14.64-.22 1-.36.7-.28 1.34-.56 1.98-.99 8.72-5.81 1.98-23.75 10.06-30.28a7.38 7.38 0 0 0 2.49-4.04c.78-3.54-.78-6.38-2.84-9.21a30.16 30.16 0 0 1-6.17-19.29c.36-7.1-2.62-10.64-7.09-13.97-2.2-1.63-5.32-2.55-7.37-4.32-3.55-3.2-5.89-7.45-8.94-11.14-6.45-7.8-13.33-8.5-19-4.32Z" fill="#F2F5F7"/><path d="M252.85 63.56h-12.83v23.96h12.83V63.56Z" fill="#56281D"/><path d="M274.9 275.77H265.12c-3.33-12.05-13.26-88.56-15.81-102.88-.85 1-1.56 2.06-2.34 3.26-12.06 20.07-12.9 70.7-33.97 99.62h-2.62l-7.37-.07c1.2-16.6 22.83-135.57 31.97-144.43l24.9-2.2 2.54-.21c.07.07.15.21.15.28 13.6 23.97 14.39 41.62 12.97 84.45 0 3.54 2.77 14.67 3.47 19.07.71 3.55.15 29.64-4.1 43.11Z" fill="#A9A9A9"/><path opacity="0.17" d="M239.17 131.2c-9.15 8.86-30.77 127.9-31.98 144.43h-4.18c1.2-16.6 22.83-135.57 31.97-144.43l24.9-2.2s0 .07.06.07c.07.07.07.14.14.28l-20.91 1.85Z" fill="#fff"/><path opacity="0.12" d="m274.9 275.77-5.31-.07c4.25-13.4 4.82-39.5 4.18-43.04-.7-4.47-3.47-15.53-3.47-19.07 1.41-42.62.63-60.27-12.7-84.02l5.1-.43c13.62 23.97 14.4 41.62 12.98 84.45 0 3.54 2.77 14.67 3.48 19.07.57 3.55 0 29.64-4.26 43.11Z" fill="#000"/><path d="M226.12 105.96c1 10.56 4.04 23.54 6.88 28.85 19.28 6.03 31.27-1.84 31.27-1.84-.36-9.22-1.5-18 1.84-22.12.21-.28 10.35-19.22-2.55-26.95-4.05-2.4-11.28-4.89-11.28-4.89-6.02 3.83-12.05 1-12.05 1s-7.52 1.48-9.86 2.69c-.99.5-1.91 2.84-2.62 5.39a47.65 47.65 0 0 0-1.63 17.87Z" fill="#191919"/><path d="M250.58 66.89c-3.19 3.33-7.16 5.81-10.07 5.81-1.2 0-2.34-.21-3.33-.64-3.47-1.34-5.39-4.96-5.39-10.14 0-4.04.92-9.07 2.84-12.4h.5c1.77 2.62 6.8 9.71 10.06 9.71 4.04 0 5.4-5.39 8.02-2.7 2.62 2.63-1.21 8.73-2.63 10.15v.2Z" fill="#7B3E2C"/><path opacity="0.06" d="M231.8 62c0 5.17 1.9 8.79 5.31 10.13 1 .43 2.13.57 3.33.57.22 0 .43 0 .64-.07a8.09 8.09 0 0 1-2.34-.57c-3.47-1.34-5.39-4.96-5.39-10.14 0-3.61.71-8.08 2.34-11.41-.28-.36-.5-.71-.7-1h-.5c-1.78 3.41-2.7 8.44-2.7 12.49Z" fill="#000"/><path opacity="0.06" d="M234.77 50.93c2.2 3.12 6.45 8.73 9.36 8.73.35 0 .63 0 .99-.15-3.26-.92-7.66-7.16-9.36-9.64h-.5c-.14.36-.35.71-.5 1.06Z" fill="#000"/><path d="M253 88.94s1.27-10 .42-13.19c-.36-1.2-4.54-8.22-5.74-9.29-1.21-1.13-1.78 1.07-.57 3.4 1.2 2.35 1.7 3.76 1.7 3.76s-3.26.85-3.9 2.34c-.57 1.5-1 3.62 0 5.32 1 1.7 4.4 7.66 4.4 7.66h3.68Z" fill="#7B3E2C"/><path opacity="0.1" d="M243.56 81.28c1 1.7 4.4 7.66 4.4 7.66h1.35s-3.4-5.96-4.4-7.66c-1-1.7-.57-3.83 0-5.32.57-1.49 3.9-2.34 3.9-2.34s-.57-1.41-1.7-3.75c-.64-1.28-.78-2.56-.57-3.2l-.21-.2c-1.2-1.14-1.77 1.06-.57 3.4 1.2 2.34 1.7 3.75 1.7 3.75s-3.26.93-3.9 2.34c-.56 1.5-.99 3.62 0 5.32Z" fill="#000"/><path d="M259.87 135.52s-.85-4.04-2.2-4.32c-1.34-.29-7.23-1-7.87-.92-.64.14 1.2-4.4 1.2-4.4s9.44-.57 10.93-.5c1.49 0 4.04 3.83 3.9 5.25-.22 1.35-.07 5.1-.43 4.68-.35-.43-3.05 2.34-5.53.21Z" fill="#7B3E2C"/><path d="M233.2 86.95s-1.48 13.76-2.83 22.4a8.36 8.36 0 0 0 5.53 9.23c7.73 2.7 19.15 6.73 19.36 7.09 0 0-.64 4.75-1.2 5.39-.57.63-25.96 1.13-34.32-9.3 0 0-2.84-3.25-1.56-7.15 1.27-3.9 6.1-26.73 8.72-29.57 2.7-2.77 4.9-2.9 6.3 1.91Z" fill="#403F3F"/><path d="m254.27 83.13-8.44 1.48s3.97 38.43 7.23 40.49c3.27 2.06 7.45-2.2 13.2-12.97 5.74-10.78 4.67-22.62 4.25-24.68-.43-2.06-5.04-6.17-8.87-2.62-3.82 3.54-3.26 17.44-3.26 17.44l-4.11-19.14Z" fill="#403F3F"/></g><defs><clipPath id="ainterview"><path fill="#fff" transform="translate(73 32)" d="M0 0h213.24v104H0z"/></clipPath></defs></svg>