<svg viewBox="0 0 965 586" fill="none" xmlns="http://www.w3.org/2000/svg" class="block dark:hidden"><g filter="url(#ahero)"><path fill="#282830" d="M260.6 30.5h367.6V422H260.6z"/><path fill="#202033" d="M260.6 381.6h367.6V422H260.6z"/><rect x="516.1" y="388.9" width="93.7" height="25.7" rx="4" fill="#3D3D4E"/><path fill="#4C4C5C" d="M523.4 398.1h79v7.4h-79z"/><path fill-rule="evenodd" clip-rule="evenodd" d="M316.6 79.2c0-3 2.5-5.5 5.5-5.5h75.7a5.5 5.5 0 1 1 0 11h-75.7c-3 0-5.5-2.5-5.5-5.5Z" fill="#fff"/><path fill-rule="evenodd" clip-rule="evenodd" d="M419.2 79.2c0-3 2.4-5.5 5.5-5.5h75.7a5.5 5.5 0 1 1 0 11h-75.7c-3 0-5.5-2.5-5.5-5.5Z" fill="#74BF44"/><path fill-rule="evenodd" clip-rule="evenodd" d="M521.8 79.2c0-3 2.5-5.5 5.5-5.5H565a5.5 5.5 0 1 1 0 11h-37.8c-3 0-5.5-2.5-5.5-5.5Z" fill="#fff"/><path fill-rule="evenodd" clip-rule="evenodd" d="M316.6 112c0-3 2.5-5.4 5.5-5.4h55.4a5.5 5.5 0 0 1 0 11H322c-3 0-5.5-2.5-5.5-5.5Z" fill="#67C7CC"/><path fill-rule="evenodd" clip-rule="evenodd" d="M395.6 112c0-3 2.4-5.4 5.5-5.4h46.4a5.5 5.5 0 1 1 0 11H401c-3 0-5.5-2.5-5.5-5.5Z" fill="#EC2831"/><path fill-rule="evenodd" clip-rule="evenodd" d="M465.6 112c0-3 2.5-5.4 5.5-5.4H509a5.5 5.5 0 1 1 0 11H471c-3 0-5.5-2.5-5.5-5.5Z" fill="#fff"/><path fill-rule="evenodd" clip-rule="evenodd" d="M316.6 145c0-3 2.5-5.5 5.5-5.5h75.7a5.5 5.5 0 0 1 0 11h-75.7c-3 0-5.5-2.5-5.5-5.5Z" fill="#74BF44"/><path fill-rule="evenodd" clip-rule="evenodd" d="M419.2 145c0-3 2.4-5.5 5.5-5.5H554a5.5 5.5 0 1 1 0 11H424.7c-3 0-5.5-2.5-5.5-5.5Z" fill="#67C7CC"/><path fill-rule="evenodd" clip-rule="evenodd" d="M316.6 178c0-3.1 2.5-5.6 5.5-5.6h59.3a5.5 5.5 0 1 1 0 11h-59.3c-3 0-5.5-2.4-5.5-5.5Zm84.3 0c0-3.1 2.4-5.6 5.5-5.6h95.2a5.5 5.5 0 0 1 0 11h-95.2c-3 0-5.5-2.4-5.5-5.5Z" fill="#ECAA26"/><path fill-rule="evenodd" clip-rule="evenodd" d="M524.2 178c0-3.1 2.5-5.6 5.5-5.6h37.9a5.5 5.5 0 0 1 0 11h-37.9c-3 0-5.5-2.4-5.5-5.5Z" fill="#fff"/><path fill-rule="evenodd" clip-rule="evenodd" d="M316.6 210.9c0-3 2.5-5.5 5.5-5.5h75.7a5.5 5.5 0 1 1 0 11h-75.7c-3 0-5.5-2.5-5.5-5.5Z" fill="#67C7CC"/><path fill-rule="evenodd" clip-rule="evenodd" d="M419.2 210.9c0-3 2.4-5.5 5.5-5.5h52a5.5 5.5 0 1 1 0 11h-52c-3 0-5.5-2.5-5.5-5.5Z" fill="#74BF44"/><path fill-rule="evenodd" clip-rule="evenodd" d="M316.6 243.8c0-3 2.5-5.5 5.5-5.5h55.4a5.5 5.5 0 0 1 0 11H322c-3 0-5.5-2.5-5.5-5.5Z" fill="#fff"/><path fill-rule="evenodd" clip-rule="evenodd" d="M395.6 243.8c0-3 2.5-5.5 5.5-5.5h70a5.5 5.5 0 1 1 0 11h-70c-3 0-5.5-2.5-5.5-5.5Z" fill="#67C7CC"/><path fill-rule="evenodd" clip-rule="evenodd" d="M316.6 276.7c0-3 2.5-5.5 5.5-5.5h27.7a5.5 5.5 0 1 1 0 11H322c-3 0-5.5-2.5-5.5-5.5Z" fill="#EC2831"/><path fill-rule="evenodd" clip-rule="evenodd" d="M365.7 276.7c0-3 2.5-5.5 5.5-5.5H447a5.5 5.5 0 0 1 0 11h-75.7c-3 0-5.5-2.5-5.5-5.5Z" fill="#74BF44"/><path fill-rule="evenodd" clip-rule="evenodd" d="M466 276.7c0-3 2.5-5.5 5.5-5.5h38a5.5 5.5 0 0 1 0 11h-38c-3 0-5.4-2.5-5.4-5.5Z" fill="#fff"/><path fill-rule="evenodd" clip-rule="evenodd" d="M488.6 243.8c0-3 2.4-5.5 5.5-5.5h70a5.5 5.5 0 1 1 0 11h-70c-3 0-5.5-2.5-5.5-5.5Z" fill="#67C7CC"/><path d="M260.6 30.5H6V422h254.6V30.5Z" fill="#fff"/><g filter="url(#bhero)"><path d="M157.3 325.3H109a3.2 3.2 0 0 0-3.2 3.2v48.3c0 1.8 1.4 3.3 3.2 3.3h48.3c1.8 0 3.3-1.5 3.3-3.3v-48.3c0-1.8-1.5-3.2-3.3-3.2Z" fill="#fff"/><path d="M126.5 334h-.5c-.6.4-.8 1-.5 1.6l1.3 2.2a10 10 0 0 0-4.9 8.4v.7a3 3 0 0 0-5.4 2v9.4a3 3 0 0 0 5.4 2v1.3c0 1.8 1.5 3.3 3.2 3.3h.9v4.2a3 3 0 0 0 6 0v-4.2h1.5v4.2a3 3 0 0 0 6.1 0v-4.2h.8c1.8 0 3.3-1.5 3.3-3.3v-1.3a3 3 0 0 0 5.4-2v-9.4a3 3 0 0 0-5.4-2v-.6c0-3.6-2-6.7-4.9-8.5l1.2-2.2a1.1 1.1 0 0 0-1-1.7c-.3 0-.7.3-1 .6l-1.2 2.3a11.6 11.6 0 0 0-8 0l-1.3-2.3c-.2-.3-.6-.6-1-.6Z" fill="#fff"/><path d="M119.6 346.6c-1.3 0-2.3 1-2.3 2.3v9.4c0 1.3 1 2.3 2.3 2.3 1.3 0 2.3-1 2.3-2.3v-9.4c0-1.3-1-2.3-2.3-2.3Zm26.4 0c-1.3 0-2.3 1-2.3 2.3v9.4c0 1.3 1 2.3 2.3 2.3 1.2 0 2.2-1 2.2-2.3v-9.4c0-1.3-1-2.3-2.2-2.3ZM129 357.4c-1.2 0-2.2 1-2.2 2.2v9.5c0 1.2 1 2.2 2.2 2.2 1.3 0 2.3-1 2.3-2.2v-9.5c0-1.2-1-2.2-2.3-2.2Zm7.6 0c-1.3 0-2.3 1-2.3 2.2v9.5c0 1.2 1 2.2 2.3 2.2 1.2 0 2.2-1 2.2-2.2v-9.5c0-1.2-1-2.2-2.2-2.2Z" fill="#A4C639"/><path d="M126.5 334.7h-.1c-.2.2-.2.4-.2.5l1.6 2.9a9.2 9.2 0 0 0-5.1 8.1h20.2c0-3.5-2.1-6.5-5.2-8.1l1.6-2.9c.1-.1 0-.3-.1-.4h-.2l-.2.1-1.7 3a10.7 10.7 0 0 0-8.7 0l-1.6-3-.3-.2Zm-3.8 12.3v14.6c0 1.4 1 2.5 2.4 2.5h15.3c1.4 0 2.5-1.1 2.5-2.5V347h-20.2Z" fill="#A4C639"/><path d="M128.1 340.8c-.4 0-.8.4-.8.9 0 .4.4.8.8.8.5 0 .9-.4.9-.8 0-.5-.4-.9-.9-.9Zm9.3 0c-.4 0-.8.4-.8.9 0 .4.4.8.8.8.5 0 .9-.4.9-.8 0-.5-.4-.9-.9-.9Z" fill="#fff"/></g><g filter="url(#chero)"><path d="M234.2 325.3h-48.3a3.2 3.2 0 0 0-3.3 3.2v48.3c0 1.8 1.5 3.3 3.3 3.3h48.3c1.7 0 3.2-1.5 3.2-3.3v-48.3c0-1.8-1.5-3.2-3.2-3.2Z" fill="#fff"/><path d="m190.5 371.3 19.2-19.1 19 19h-38.2Z" fill="url(#dhero)"/><path d="M190.6 333.2h19l-19 20.6v-20.6Z" fill="url(#ehero)"/><path d="m209.7 333.2-19.1 20.1v18l19-19.1 19-19h-19Z" fill="url(#fhero)"/></g><g filter="url(#ghero)"><path d="M234.2 241.1h-48.3a3.2 3.2 0 0 0-3.3 3.3v48.2c0 1.8 1.5 3.3 3.3 3.3h48.3c1.7 0 3.2-1.5 3.2-3.3v-48.3c0-1.7-1.5-3.2-3.2-3.2Z" fill="#fff"/><path d="M213.6 264.8c1.9 2.8 1.7 3.8-1.4 6.2.1-.9.6-1.4.5-2-.2-1-.6-1.8-1.3-2.6-2-2.7-1.7-5.2 1-7.3 1.6-1.4 3.5-2.3 5.6-2.7l-3.7 2.8c-2.3 2-2.4 3-.7 5.6Zm-8-5a25 25 0 0 1 3.4-3l3.5-3a7.4 7.4 0 0 0 2-5.8 3.7 3.7 0 0 1 .6 3.7c-.8 2.3-2.2 4.4-4.2 5.8l-3 2.7a4.6 4.6 0 0 0-.4 5.8c.5 1 2.2 3.4 2.2 3.4s-3.6-3.1-4.6-5a3.7 3.7 0 0 1 .5-4.6Z" fill="#E66F00"/><path d="M204.3 270.1c-1 .9-2.4.8-3.3 1.8.7.6 1.6.9 2.5.8 4.7.2 9.3 0 13.8-.8h.7c-3 2.3-16.8 2.7-20.2.4 2-1.3 4.2-2 6.5-2.2Zm-3 6.3c.1-.7.7-1 1.3-1.2.2 0 .4 0 .4.3 0 1 .8.8 1.4 1 3.3.4 6.6.3 9.8-.4a2.4 2.4 0 0 1 2.7 1c-6.3 1.8-13.6 1.5-15.5-.6Zm14.9 5c-4.4 2.2-11.4 1.9-13.7-.5 0-.7.6-1 1-1.1 3.6 1.9 7.1 1 10.8.6.7.2 1.3.6 1.9 1Zm-21.7 3.4c1.4-2 3.6-2 6-2.5-1.1 1-2.6.7-3.2 1.8 4.2 2.6 23 2 26.1-1 .2 1.1-.5 1.4-1.1 1.7-2 .9-4.2 1.4-6.3 1.6a66.7 66.7 0 0 1-20.5-.7c-.4-.2-.7-.5-1-.9Zm27.3 2.9a53.9 53.9 0 0 1-20.9.3 57 57 0 0 0 24.4-2.5c-.8 1.1-2 2-3.5 2.2Zm2-12.1a8 8 0 0 1-4.1 1.8l3-2.3c1.8-2.1 1.4-3.7-1.1-4.9-.2 0-.5 0-.4-.4 2-.2 3.5.3 4 1.8.7 1.4.1 2.8-1.3 4h-.1Z" fill="#5382A1"/></g><g filter="url(#hhero)"><path d="M157.3 241.1H109a3.2 3.2 0 0 0-3.2 3.3v48.3c0 1.7 1.4 3.2 3.2 3.2h48.3c1.8 0 3.3-1.5 3.3-3.2v-48.3c0-1.8-1.5-3.3-3.3-3.3Z" fill="#fff"/><path d="M124 276.7h-1.2c-3.6 0-5.1-1-6-4.5a14 14 0 0 1 .2-7.8c.9-2.7 2.4-3.9 5.3-3.9h10.5c.5-.4.3-.7.3-1.2h-7.9V255c.1-1.4 1.2-2 2.4-2.3a16 16 0 0 1 7.2-.8c1.3 0 2.6.3 3.8.8a3.9 3.9 0 0 1 2.7 4v6.5c0 3.1-1.5 4.7-4.7 4.8H129c-3.3 0-5 1.7-5 4.9v3.8Zm3.2-20.9c0 .2 0 .5.2.7a1.5 1.5 0 0 0 1.7.6 1.4 1.4 0 0 0 .7-.7 1.4 1.4 0 0 0-.3-1.6 1.4 1.4 0 0 0-1.5-.3 1.4 1.4 0 0 0-.8 1.3Z" fill="#2C4E6A"/><path d="M133.4 276.6c-.3.3-.2.6 0 1h7.8c.2 1.4.2 3 0 4.4a3 3 0 0 1-2.2 2.3c-2.3.8-4.7 1.1-7.1.9-1.4-.1-2.7-.4-3.9-.8-2.1-.9-2.9-1.9-2.9-4.1v-7a3.9 3.9 0 0 1 3.7-4.2h7.9c.6 0 1.3 0 2-.2a4.1 4.1 0 0 0 3.6-4.2v-4.4h3.5a4.2 4.2 0 0 1 3 2.3c.5 1 .8 2 1 3 .4 2.5.2 5-.6 7.4a4.8 4.8 0 0 1-4.8 3.5h-11Zm3.3 3.8a1.3 1.3 0 0 0 .2 1.8 1.4 1.4 0 0 0 2.2-.4 1.3 1.3 0 0 0-.2-1.7 1.4 1.4 0 0 0-2 0l-.2.3Z" fill="#F2BA28"/></g><g filter="url(#ihero)"><path d="M80.5 241.1H32.2a3.2 3.2 0 0 0-3.2 3.3v48.3c0 1.7 1.4 3.2 3.2 3.2h48.3c1.8 0 3.2-1.5 3.2-3.2v-48.3c0-1.8-1.4-3.3-3.2-3.3Z" fill="#fff"/><path d="M36.9 249.8H75V288H37v-38.2Z" fill="#F7DF1E"/><path d="m47 281.7 2.8-1.7c.6 1 1.1 1.8 2.3 1.8 1.2 0 2-.5 2-2.3v-12.1h3.5v12.2c0 3.7-2.1 5.4-5.3 5.4a5.6 5.6 0 0 1-5.4-3.3M59.6 281.3l3-1.6c.7 1.2 1.7 2.1 3.4 2.1 1.5 0 2.5-.7 2.5-1.7 0-1.3-1-1.7-2.6-2.4l-1-.4c-2.5-1.1-4.2-2.5-4.2-5.4 0-2.7 2-4.7 5.2-4.7 2.3 0 4 .7 5.1 2.8l-2.8 1.8c-.6-1-1.3-1.5-2.3-1.5-1 0-1.7.6-1.7 1.5 0 1 .7 1.5 2.2 2.2l.9.4c3 1.3 4.8 2.6 4.8 5.6 0 3.2-2.6 5-6 5-3.3 0-5.5-1.6-6.5-3.7" fill="#000"/></g><g filter="url(#jhero)"><path d="M80.5 325.3H32.2a3.2 3.2 0 0 0-3.2 3.2v48.3c0 1.8 1.4 3.3 3.2 3.3h48.3c1.8 0 3.2-1.5 3.2-3.3v-48.3c0-1.8-1.4-3.2-3.2-3.2Z" fill="#fff"/><path d="m69.8 341.2-2.5 27.6-11 3-11-3-2.5-27.6h27Z" fill="#E44D26"/><path d="m56.3 369.5 9-2.5 2-23.6h-11v26Z" fill="#F16529"/><path d="M51.5 350.2h4.8v-3.4h-8.5v1l.9 9.3h7.6v-3.4h-4.5l-.3-3.5Z" fill="#EBEBEB"/><path d="M56.3 357h4.1l-.4 4.4-3.7 1v3.6l6.9-2v-.5l.8-9 .1-.8h-7.8v3.4Z" fill="#fff"/><path d="M52.2 358.7H49l.4 5.4 7 1.9v-3.5l-3.8-1-.3-2.8Z" fill="#EBEBEB"/><path d="M45.3 333.7H47v1.7h1.6v-1.7h1.7v5.1h-1.7v-1.7H47v1.7h-1.7v-5.1ZM52.5 335.4H51v-1.7h4.8v1.7h-1.5v3.4h-1.8v-3.4ZM56.5 333.7h1.8l1.1 1.8 1.1-1.8h1.8v5.1h-1.7v-2.5l-1.2 1.8-1.2-1.8v2.5h-1.7v-5.1ZM63.2 333.7h1.7v3.4h2.4v1.7h-4.1v-5.1Z" fill="#000"/><path d="M56.3 350.2h8.1l.1-.8.2-1.7v-.9h-8.4v3.4Z" fill="#fff"/></g><g filter="url(#khero)"><path d="M157.3 157H109a3.2 3.2 0 0 0-3.2 3.2v48.3c0 1.8 1.4 3.2 3.2 3.2h48.3c1.8 0 3.3-1.4 3.3-3.2v-48.3c0-1.8-1.5-3.3-3.3-3.3Z" fill="#fff"/><path d="M151.7 181a7 7 0 0 0-4.4-.5 6 6 0 0 0-2.5-4l-.8-.7-.6 1a7.1 7.1 0 0 0-1 4.1c0 .8.3 1.6.8 2.3a6 6 0 0 1-3 .7H114v.3c-.5 3.5.5 7 2.7 9.9 2.2 2.8 5.6 4.2 10 4.2 9.5 0 16.5-4.6 19.8-13a5.5 5.5 0 0 0 5.6-2.7c0-.1 0-.3.3-.8l.2-.3-.8-.5ZM135 170.3h-4v3.8h4v-3.8Zm0 4.6h-4v3.7h4V175Zm-4.7 0h-4v3.7h4V175Zm-4.8 0h-4v3.7h4V175Zm-4.7 4.5h-4v3.8h4v-3.8Zm4.7 0h-4v3.8h4v-3.8Zm4.8 0h-4v3.8h4v-3.8Zm4.7 0h-4v3.8h4v-3.8Zm4.7 0h-4v3.8h4v-3.8Z" fill="#2396ED"/></g><g filter="url(#lhero)"><path d="M234.2 157h-48.3a3.2 3.2 0 0 0-3.3 3.2v48.3c0 1.8 1.5 3.2 3.3 3.2h48.3c1.7 0 3.2-1.4 3.2-3.2v-48.3c0-1.8-1.5-3.3-3.2-3.3Z" fill="#fff"/><path d="M228.2 175.9c0-.6-.1-1.3-.4-1.8-.3-.6-.8-1-1.3-1.3l-14.6-8.4a3.6 3.6 0 0 0-3.8 0l-14.5 8.3a3.4 3.4 0 0 0-1.8 3.1v16.9c0 .6.2 1.2.5 1.7.3.6.7 1 1.3 1.3l14.4 8.4a3.6 3.6 0 0 0 3.9 0l14.5-8.4c.6-.3 1-.7 1.4-1.3.3-.5.4-1.1.4-1.8V176Z" fill="#A179DC"/><path d="m210 184.3-17.8 10.2c.4.6.8 1 1.4 1.3l14.4 8.4a3.6 3.6 0 0 0 3.9 0l14.5-8.4c.6-.3 1-.8 1.4-1.3L210 184.3Z" fill="#280068"/><path d="M228.2 175.9c0-.6-.1-1.3-.4-1.8L210 184.3l17.7 10.2c.3-.5.4-1.1.4-1.8V176Z" fill="#390091"/><path d="M220.5 180.4v2h2v-2h.9v2h2v.9h-2v1.9h2v1h-2v1.9h-1v-2h-1.9v2h-1v-2h-1.8v-.9h2v-2h-2v-.9h2v-1.9h.8Zm2 2.9h-2v1.9h2v-1.9Z" fill="#fff"/><path d="M210.1 170.8a13.5 13.5 0 0 1 11.7 6.8L216 181a6.7 6.7 0 0 0-5.7-3.3 6.7 6.7 0 1 0 5.8 10l5.9 3.4a13.5 13.5 0 0 1-11.6 6.7h-.1a13.5 13.5 0 0 1-.8-27h.7Z" fill="#fff"/></g><g filter="url(#mhero)"><path d="M234.2 72.8h-48.3a3.2 3.2 0 0 0-3.3 3.2v48.3c0 1.8 1.5 3.2 3.3 3.2h48.3c1.7 0 3.2-1.4 3.2-3.2V76c0-1.8-1.5-3.2-3.2-3.2Z" fill="#fff"/><path d="M190.7 100.1v19.1h38.1V81h-38v19.1Z" fill="#007ACC"/><path d="M199.2 100.2v1.6h4.9V116h3.5v-14h5v-3.2H199.2v1.5ZM221.5 98.6c1 .3 1.7.7 2.4 1.4l1 1.2-2.7 1.8-.4-.3c-.5-.8-1-1-1.8-1.1-1.1-.1-1.9.5-1.9 1.5 0 .3 0 .5.2.7.2.6.7.9 2.2 1.5 2.7 1.2 3.9 2 4.6 3 .8 1.3 1 3.3.5 4.7-.6 1.6-2.1 2.7-4.2 3-.7.2-2.3.1-3 0a7 7 0 0 1-3.8-2c-.4-.4-1-1.4-1-1.5l.3-.2 1.4-.8 1.1-.7.3.4c.3.5 1 1.1 1.4 1.4 1.2.6 2.9.5 3.7-.2.4-.3.5-.7.5-1.2 0-.4 0-.6-.3-1s-.9-.7-2.6-1.5c-2-.8-2.8-1.3-3.6-2.2a5 5 0 0 1-1-1.9c-.2-.5-.2-1.9 0-2.4.3-2 1.7-3.2 3.8-3.6.7-.2 2.3-.1 3 0Z" fill="#fff"/></g><g filter="url(#nhero)"><path d="M157.3 72.8H109a3.2 3.2 0 0 0-3.2 3.2v48.3c0 1.8 1.4 3.2 3.2 3.2h48.3c1.8 0 3.3-1.4 3.3-3.2V76c0-1.8-1.5-3.2-3.3-3.2Z" fill="#fff"/><path d="M124 108.4h-1.2c-3.6 0-5.1-1.1-6-4.6a14 14 0 0 1 .2-7.8c.9-2.7 2.4-3.8 5.3-3.8h10.5c.5-.4.3-.8.3-1.2h-7.9v-4.3c.1-1.4 1.2-2 2.4-2.4a16 16 0 0 1 7.2-.8c1.3 0 2.6.4 3.8.8a3.9 3.9 0 0 1 2.7 4.1v6.4c0 3.2-1.5 4.8-4.7 4.8H129c-3.3 0-5 1.7-5 5v3.8Zm3.2-21c0 .3 0 .5.2.7a1.5 1.5 0 0 0 1.7.7 1.4 1.4 0 0 0 .9-1.3 1.4 1.4 0 0 0-1.4-1.4h-.6a1.4 1.4 0 0 0-.8 1.3Z" fill="#2C4E6A"/><path d="M133.4 108.2c-.3.3-.2.6 0 1h7.8c.2 1.5.2 3 0 4.4a3 3 0 0 1-2.2 2.3c-2.3.9-4.7 1.2-7.1.9-1.4 0-2.7-.3-3.9-.8-2.1-.9-2.9-1.8-2.9-4.1v-7a3.9 3.9 0 0 1 3.7-4.2h7.9c.6 0 1.3 0 2-.2a4.1 4.1 0 0 0 3.6-4.2V92h3.5a4.2 4.2 0 0 1 3 2.4c.5 1 .8 2 1 3 .4 2.5.2 5-.6 7.4a4.8 4.8 0 0 1-4.8 3.4h-9.6l-1.4.1Zm3.3 3.9a1.3 1.3 0 0 0 .2 1.7 1.4 1.4 0 0 0 2.2-.3 1.3 1.3 0 0 0-.2-1.7 1.4 1.4 0 0 0-2 0l-.2.3Z" fill="#F2BA28"/></g><g filter="url(#ohero)"><path d="M80.5 72.8H32.2A3.2 3.2 0 0 0 29 76v48.3c0 1.8 1.4 3.2 3.2 3.2h48.3c1.8 0 3.2-1.4 3.2-3.2V76c0-1.8-1.4-3.2-3.2-3.2Z" fill="#fff"/><path d="M61.6 103a11 11 0 0 1-1.3 2 8.5 8.5 0 0 1-5.4 3 7.2 7.2 0 0 1-7.1-2.6c-.7-.9-1.2-2-1.3-3.2a8.2 8.2 0 0 1 1.8-6.3c1.2-1.7 3-2.9 4.9-3.4a8 8 0 0 1 5 0 6.7 6.7 0 0 1 4 3.7c0 .2 0 .2-.3.3l-2.3.8-1.2.3a.5.5 0 0 1-.6-.2c-.5-.6-1.3-1-2-1.2-1-.1-2 .1-2.8.7a4.5 4.5 0 0 0-2 4.3 3.3 3.3 0 0 0 2.9 3 3.9 3.9 0 0 0 3.6-1.6l.3-.5h-4.1c-.3 0-.5-.2-.4-.6a27.4 27.4 0 0 1 1.4-2.6H61.5a.2.2 0 0 0 .2-.2 9.3 9.3 0 0 1 3.1-4.3 8.8 8.8 0 0 1 3.9-1.7 12 12 0 0 1 2.5-.2 7.1 7.1 0 0 1 6.3 4.3 8.2 8.2 0 0 1-1.6 8.3 9 9 0 0 1-4.5 2.8c-1.8.6-3.7.5-5.5-.1a6.8 6.8 0 0 1-4.3-4.4v-.3Zm4.1-2.3v.4a3.5 3.5 0 0 0 4.1 3 4.7 4.7 0 0 0 3.8-3.7 3.5 3.5 0 0 0-1.7-3.8 3.6 3.6 0 0 0-2.8-.3 4.6 4.6 0 0 0-3.4 4.4Zm-25.6-1.8h-5v-.2c.5-.7.2-.5 1-.5h9c.3 0 .3 0 .2.3-.1.3 0 .4-.6.4H40Zm2-2h-4v-.1c.6-.7.4-.6 1.2-.6h7v.2l-.4.5c0 .1-.3 0-.4 0h-3.4Zm.3 4h-2c-.3 0-.3 0-.2-.3.4-.7.2-.6 1-.6h3.4c.3 0 .3 0 .3.3 0 .6 0 .5-.5.5h-2Z" fill="#01ACD6"/></g><g filter="url(#phero)"><path d="M80.5 157H32.2a3.2 3.2 0 0 0-3.2 3.2v48.3c0 1.8 1.4 3.2 3.2 3.2h48.3c1.8 0 3.2-1.4 3.2-3.2v-48.3c0-1.8-1.4-3.3-3.2-3.3Z" fill="#fff"/><g clip-path="url(#qhero)" fill="#8CC84B"><path d="M55.3 167.2a3 3 0 0 1 2.9 0l13 7.3c.8.5 1.4 1.4 1.3 2.3v14.7c0 1-.5 2-1.4 2.4l-13 7.3c-.8.5-2 .5-2.8 0l-4-2.3-.7-.6c.2-.2.5-.2.7-.3l1.6-.7c0-.1.2 0 .4 0l3.3 2 .7-.2 12.7-7.2.2-.4v-14.6c0-.2 0-.4-.3-.5L57 169.2a.4.4 0 0 0-.5 0l-12.9 7.2c-.2.1-.3.3-.3.5v14.6a.4.4 0 0 0 .3.4l3.4 2c.7.3 1.5.5 2.2.2.6-.2 1-.9 1-1.5V178c0-.2.2-.4.4-.4h1.7c.2 0 .4.2.3.5v14.5c0 1.3-.5 2.7-1.7 3.4-1.5.7-3.3.6-4.7-.1l-3.8-2.1a2.7 2.7 0 0 1-1.4-2.4v-14.7c0-1 .6-1.9 1.4-2.3l13-7.3Z"/><path d="M59.1 177.4c1.9-.2 4-.1 5.6.8 1.3.7 2 2.2 2 3.7 0 .2-.2.3-.4.3h-1.6c-.2 0-.4-.2-.4-.4-.1-.7-.5-1.4-1.2-1.8-1-.5-2.2-.4-3.3-.4-.8 0-1.6 0-2.3.6-.5.3-.7 1-.5 1.6.2.4.7.6 1 .7 2.3.6 4.7.5 7 1.3.9.3 1.8 1 2 2a4 4 0 0 1-.6 3.8c-.7.8-1.8 1.3-3 1.6-1.4.3-2.9.3-4.3.1a7 7 0 0 1-3.9-1.4 4 4 0 0 1-1.3-3.2c0-.2.2-.4.4-.3H56c.2 0 .3.1.3.3.1.7.4 1.4 1 1.8 1 .7 2.5.7 3.8.7 1 0 2.2 0 3.1-.8.5-.4.6-1 .5-1.6-.2-.5-.7-.7-1.1-.9-2.3-.7-4.7-.4-7-1.2-.8-.3-1.7-1-2-1.9-.5-1.3-.3-3 .7-4a6 6 0 0 1 3.8-1.4Z"/></g></g><path d="M26.8 2h910.5c5.5 0 10.8 2 14.7 5.7a19 19 0 0 1 6.1 13.9v8.9H6v-9a18.5 18.5 0 0 1 6-13.8A21 21 0 0 1 26.9 2Z" fill="#F5F5F5"/><path d="M20.4 21.8c3 0 5.3-2.4 5.3-5.3a5.3 5.3 0 1 0-10.5 0c0 3 2.3 5.3 5.2 5.3Z" fill="#FF7143"/><path d="M37.7 21.8c3 0 5.3-2.4 5.3-5.3a5.3 5.3 0 1 0-10.5 0c0 3 2.3 5.3 5.2 5.3Z" fill="#FFD740"/><path d="M55.6 21.8c2.9 0 5.2-2.4 5.2-5.3 0-3-2.3-5.3-5.2-5.3a5.3 5.3 0 0 0-5.3 5.3c0 3 2.4 5.3 5.3 5.3Z" fill="#40CB4C"/><path fill="#fff" d="M628.2 30.5h328.1V422H628.2z"/><path fill="#FAFAFA" d="M652.1 62.7h276.6v26.7H652.1zM652.1 111.4h276.6v26.7H652.1zM652.1 160.1h276.6v26.7H652.1z"/><path fill-rule="evenodd" clip-rule="evenodd" d="M803.4 232.7H692a16 16 0 0 0-16 16V360a16 16 0 0 0 16 16h111.5a16 16 0 0 0 16-16V248.6a16 16 0 0 0-16-16Zm0 16V360H692V248.6h111.5ZM740.8 334l24-30.9 30.7 41h-95.6l23.9-30.8 17 20.7Z" fill="#F5F5F5"/></g><path opacity="0.1" d="M344.6 585.5c59.4 0 107.6-7.7 107.6-17.2S404 551 344.6 551c-59.4 0-107.6 7.7-107.6 17.2s48.2 17.2 107.6 17.2Z" fill="#343535"/><path d="M347.7 258.7a12.8 12.8 0 1 0 0-25.7 12.8 12.8 0 0 0 0 25.7ZM347.7 312a12.8 12.8 0 1 0 0-25.6 12.8 12.8 0 0 0 0 25.7Z" fill="#EFEFF4"/><path opacity="0.1" d="M360.5 245.7a12.8 12.8 0 0 1-23.4 7.4 12.8 12.8 0 0 0 17.9-18 12.8 12.8 0 0 1 5.5 10.6Z" fill="#000"/><path d="M338.4 191.4h-21.9v40.9h22v-40.9Z" fill="#E7A584"/><path d="m295.5 539.9-2.2 30.7H278l2.5-38.4 15 7.7Z" fill="#F6B58F"/><path d="m316.6 567.2-15-4.6c-5-1.6-10.2-1.3-14.8.8-4 1.5-8.1-1.4-8.1-1.4l-1 10.8a1.7 1.7 0 0 0 1.5 1.8h.1l35.8-.6c4.5-.1 5.6-5.3 1.5-6.8Z" fill="#75747A"/><path d="m382.4 539.8 7.2 32.3 15.1-2.4-7.4-29.9h-14.9Z" fill="#F6B58F"/><path d="m425.3 567.1-15-4.6c-5-1.5-10.2-1.3-14.8.8-4 1.5-8.1-1.3-8.1-1.3l-1 10.7a1.7 1.7 0 0 0 .9 1.7l.6.2h.2l35.8-.7c4.5 0 5.6-5.4 1.4-6.8Z" fill="#75747A"/><path opacity="0.1" d="m423.9 574-35.8.6h-.5l32.8-.7c4.5 0 5.6-5.4 1.5-6.8l-15.1-4.6c-1.5-.5-3-.8-4.6-.9h.4c2.6-.1 5.1.2 7.6 1l15.1 4.6c4.2 1.3 3 6.6-1.4 6.7Z" fill="#343535"/><path opacity="0.1" d="M391 574.5h-3a1.7 1.7 0 0 1-1.1-.4 1.7 1.7 0 0 1-.5-1.2v-.2l1-10.7c1 .6 2.1 1 3.3 1.4l-.8 9.3a1.7 1.7 0 0 0 1.2 1.8Z" fill="#fff"/><path opacity="0.1" d="m315.2 574-35.9.6h-.4l32.8-.7c4.5 0 5.6-5.4 1.4-6.8l-15.1-4.6c-1.5-.5-3-.8-4.6-.9h.4c2.6-.1 5.2.2 7.6 1l15.2 4.6c4.1 1.3 3 6.6-1.4 6.7Z" fill="#343535"/><path opacity="0.1" d="M282.3 574.5h-3a1.7 1.7 0 0 1-1.1-.4 1.7 1.7 0 0 1-.5-1.2v-.2l1-10.7c1 .6 2.1 1 3.3 1.4l-.8 9.3a1.7 1.7 0 0 0 1.1 1.8Z" fill="#fff"/><path d="m401.5 553.6-12.8.1h-4.3l-1.6-2.4-1.6-2.2a112 112 0 0 1-2-3.4l-1.4-2.2-.2-.3c-31.2-53.6-32.2-137.7-55-165.2-3.4 18.9-14.2 100.8-21.6 146.7l-.7 4c0 .7-.2 1.3-.3 1.9v.7l-.7 3.7a383 383 0 0 1-1.7 9.2l-.5 2.9-.3 1.4v.3l-.3 1.2v.2l-.1.7-.7 2.7-16.7.1c-7.3-22.8-8.2-67.4-7.2-73.4 1.3-7.6 6-26.5 6-32.7-2.5-73.4-1.1-103.5 22.4-144.7l46.8 4c15.5 15.2 52.5 218.4 54.5 246.7Z" fill="#ACABB1"/><path opacity="0.1" d="M304.2 303.2c-23.3 41-24.7 71.1-22.3 144.4 0 6.1-4.6 25-5.9 32.6-1 6-.1 50.6 7.2 73.5H279c-7.3-22.9-8.2-67.5-7.2-73.5 1.3-7.6 6-26.5 6-32.6-2.5-73.5-1.1-103.6 22.4-144.7l4 .3Zm19.2 70-.8 4.8c22.8 27.5 23.8 111.6 55 165.3l.2.2 1.3 2.3a112 112 0 0 0 3.7 5.6c.5.7 1 1.6 1.7 2.3h4.2c-38-52.4-38.5-151.2-65.3-180.5Z" fill="#fff"/><path opacity="0.1" d="m401.5 553.6-17 .1h12.7c-2-28.4-39-231.6-54.6-246.7l-42.7-3.7c0-.1 0-.3.2-.4l46.8 4c15.6 15.2 52.6 218.4 54.6 246.7ZM320 368.3c-4.3 24.4-22.9 164.7-28.6 185.3l-12.4.1h16.7l.7-2.9.1-.6v-.2l.3-1.3v-.2l.9-4.3c0-.7.2-1.3.3-2l.1-.6 1.2-6.6.6-3.7.1-.8a348.6 348.6 0 0 0 1-5.8c7.4-46 18.2-127.9 21.6-146.7l.7-5c-1-1.6-2-3.2-3.3-4.7Z" fill="#343535"/><path d="M288.2 355.7c-1.2-.7.1 2 .6 4.6.7 4.4-.2 8.9-2.6 12.6l-1.7 2.5c-.7.7-9.7-12.2-9.8-13.1a84.9 84.9 0 0 1 .9-14.8c-3.3-8.1-10.1-26.9-10.2-43.2 0-2.1.7-4.1 1.9-5.8l14.2 2.4.1 2a1590.3 1590.3 0 0 0 4.2 44.8c2.5 3.3 6.2 8 6.6 8.8.6 1.2-1.8.5-4.2-.8ZM410.4 248.3c.8.3 1.6.7 2.3 1.2.8.5 1.4 1.3 1.7 2.3.2.4.3.9.3 1.3-.2.8-.4 1.5-.9 2.1-1.5 2.3-3 3.6-5.2 5.4-2.7 2.3-5.6 4.4-8.5 6.6-7 5.2-14.4 9.9-22.1 14a81.5 81.5 0 0 1-7.3 3.3c-2 .8-4.1 1-6.1.4l-2.9-14.2 1.9-.8c13-6.3 26.1-12.2 39-18.7 2.2-1 4.7-2.6 7-3l.8.1Z" fill="#F6B58F"/><path d="m346.8 298.5 47-25-7.4-14.8-14.8 6.5-7.4 3.5c-.7-8.7-3.7-33.7-4.9-35.7-1.5-2.4-6.8 20.5-6.8 20.5l-2.5 21.9-2.7 1.3-.5 21.8Z" fill="#F2872F"/><path d="M362.2 263.8c-1.7 18-7 40.2-11.8 49.3a82.8 82.8 0 0 1-21 3.8h-3.3c-18.4 0-29-7-29-7 .5-14.8 2.3-29-2.4-36.5l-.1-.2-.7-1a.6.6 0 0 0-1.1.3c-.9 11-10.2 34.9-10.5 35.6l-.2-.3-.2-.2-.2-.2h-.2c-.2-.2-.3-.3-.5-.3l-.3-.2c-1-.3-2-.6-3-.7l-.6-.1h-.5a84 84 0 0 0-12.7-.3c4.1-11.4 12.3-66.4 34.4-79.7 6.8-4 19.3-8.3 19.3-8.3a22.8 22.8 0 0 0 20.5 1.7s12.9 2.6 16.9 4.6c1.7.9 3.3 4.9 4.5 9.3a81.6 81.6 0 0 1 2.7 30.4Z" fill="#F78F2E"/><path d="M264 305.7h2c-1.3 0-2.1.2-2.1.2v-.2ZM313.6 219.3c2.3-1 4-1.4 4-1.4 2.6 1.6 5.5 2.7 8.5 3.1-4.2.7-8.6 0-12.5-1.7Z" fill="#F78F2E"/><path opacity="0.1" d="M295.7 262.3c0 2.4-1.6 10.2-1.8 9.9a.6.6 0 0 0-1.1.3c-.9 11-10.2 34.9-10.5 35.6l-.2-.3-.2-.2-.2-.2-.2-.1-.5-.3-.3-.1c-1-.4-2-.6-3-.8h-.6l-.5-.1a255 255 0 0 0 9.6-33.6c1.2-6.8 5.6-20.7 6-20.3 2 2.6 3 6 3.5 10.2Zm63.8-28.9c-1.3-4.4-2.8-8.4-4.5-9.2-4-2-16.9-4.6-16.9-4.6l-2.5.9c4.1.9 10.3 2.4 12.8 3.7 1.7.8 3.3 4.8 4.6 9.2a81.8 81.8 0 0 1 2.7 30.4 184.3 184.3 0 0 1-10.2 46 7.4 7.4 0 0 1-4.9 4.3 81.4 81.4 0 0 1-17.7 2.8c9.3.4 18.7-.9 27.6-3.8a165 165 0 0 0 11.7-49.2c1-10.3.1-20.6-2.7-30.5Z" fill="#343535"/><path opacity="0.1" d="M270.5 305.7c-3.6 0-6.6.2-6.6.2 4.1-11.5 12.3-66.5 34.4-79.7 6.8-4.1 19.3-8.3 19.3-8.3l2.6 1.4c-5.3 1.9-10.4 4.2-15.4 6.9-22 13.2-30.2 67.8-34.3 79.5ZM303.6 310c5.6-27.2-1-41-6.8-48a.6.6 0 0 0-.8-.2.6.6 0 0 0-.3.5c-.3 3.3-1 6.6-1.8 9.8 5.7 7.1 3.8 22 3.1 37.8 0 0 10.7 7 29.1 7h3.3c-16.4-.8-25.8-7-25.8-7Z" fill="#fff"/><path d="M280 160.9a17.7 17.7 0 0 0 20.5 15.1s1 13.1 6.7 18.2c5.8 5 7 9.2 7 11 0 1.8 1.4 2.3 2 2.1.5-.1 3.7-13 4.6-14.9.8-1.8 6.7-4.9 6.7-4.9l9.2 4.3 5.1-12.8 9.6-6.8s-1.4-14.2-14.8-16.9a42 42 0 0 0-20.6 3.4h-.9a17.6 17.6 0 1 0-35 2v.2Z" fill="#26252B"/><path d="M322.3 197.7c5.4 5.7 12.3 10 17.1 10 2 0 4-.4 5.7-1 6-2.3 9.2-8.5 9.2-17.3 0-6.9-1.6-15.5-4.9-21.2h-.8c-3 4.5-11.6 16.6-17.2 16.6-6.8 0-9.1-9.1-13.7-4.6-4.6 4.6 2 15 4.4 17.4l.2.1Z" fill="#F6B58F"/><path opacity="0.1" d="M354.3 189.4c0 8.8-3.3 15-9.2 17.3a15.3 15.3 0 0 1-6.6.9c1.5 0 3-.4 4.5-1 5.9-2.3 9.1-8.4 9.1-17.3 0-6.4-1.3-14.4-4.2-20l.7-1.2h.8a46.2 46.2 0 0 1 4.9 21.3Z" fill="#343535"/><path opacity="0.1" d="M340.6 207.6h-1.2c-4.8 0-11.7-4.2-17.1-9.9l-.2-.2c-2.4-2.4-8.9-12.8-4.4-17.3 1.3-1.4 2.5-1.5 3.6-1-.5.2-1 .5-1.5 1-4.4 4.5 2 14.9 4.4 17.3l.2.2c5.1 5.3 11.4 9.4 16.2 9.9Z" fill="#fff"/><path d="M414.5 240.2a59.2 59.2 0 0 0 9.8-9.2c1-1 2-1.9 3.1-2.7 1.8-1.4 3.8.4 2.2 2.2l-2.6 3-3.3 3.5a66.5 66.5 0 0 1-4.5 4.8c-1.5.3-4.7-1.6-4.7-1.6Z" fill="#F6B58F"/><path d="M418.4 240.7c2 1.1 7.6 7 7.7 8.3.1 1.2-5.4 8.2-12 8.5-4.6.2-5.6-3.9-5.8-5.4-.2-1.8-.3-1.5.5-5.2 1-4.6 6.5-7 6.5-7a5 5 0 0 1 3.1.8Z" fill="#F6B58F"/><path opacity="0.1" d="M425.5 249.7c-.1-1.2-4.4-7-6.4-8.2a2.1 2.1 0 0 1 1.1-1.8c2.3-1.6 1-4.8-.1-4a22.3 22.3 0 0 1-6 2.9c-1.5.4-2 2-2.9 3.3-1 1.9-2.8 5.1-2.7 6.7.1 1.6 3.7 2.6 3.7 2.6l3.8.5c3.6-2.3 5 1.6 8.1-.3 1.1-.6 1.5-1.4 1.4-1.7Z" fill="#000"/><path d="M428.2 248c-1 1.3-2.1 2.4-3.5 3.1a3 3 0 0 1-2.1-.1 1.5 1.5 0 0 1-.6-2c1-1.8 2.4-3.1 4.1-4 1.5-.5 2.9 1.8 2.1 3Z" fill="#F6B58F"/><path opacity="0.1" d="M427 245h-.8a9.4 9.4 0 0 0-4.2 4c1.9-1 3.6-2.4 5-4Z" fill="#000"/><path d="M426.4 242.7a2 2 0 0 1-.1 2.4c-1 1.1-3.6 3.2-5.1 3.2-.6 0-1.4-.1-1.7-.6a2.2 2.2 0 0 1 .4-2.1 17 17 0 0 1 4.6-3.7 1.6 1.6 0 0 1 1.9.8Z" fill="#F6B58F"/><path opacity="0.1" d="M424.5 242c-1.7 1-3.3 2.2-4.6 3.7l-.4.8 2.4-1.6c1-.9 2-1.9 2.8-3h-.2Z" fill="#000"/><path d="M422.3 238.7c.7-.3 1.8.4 2 1a2.6 2.6 0 0 1 .1 2.1c-.8 1.4-3.7 4-5.3 4.4a2 2 0 0 1-2.3-1.1c-.3-.9.6-2 1.3-2.7 2-2 3.3-3.3 4.2-3.7Z" fill="#F6B58F"/><path d="M413 238.9c2.1-.7 4.1-1.7 6-3 1-.7 2.4 2.5 0 4-1 .8-2 1.4-3.2 1.9l-.9 2.6c.7 1.2 1.3 2.4 1.6 3.8.4 1.4-1.6 3.8-1.6 3.8l-6 2.3a32 32 0 0 1-1.5-5.4c0-1.6 1.6-4.8 2.7-6.7.8-1.3 1.3-2.9 2.9-3.3Z" fill="#F6B58F"/><path opacity="0.1" d="M770.2 585.3c97.3 0 176.2-10.4 176.2-23.3s-78.9-23.3-176.2-23.3C673 538.7 594 549 594 562s78.9 23.3 176.2 23.3Z" fill="#343535"/><path d="M804.5 338.6c-17.8-8.2-38.4-18.3-38.4-18.3l-3.2-4.6a6.5 6.5 0 0 1 1.4-8.8l.3-.2c5.8-3.9 10-8.6 19.4-9.8 13-1.7 16.9-1.2 23 3.5 4.1 3 6.9 9 7.4 23.6.2 5.4-5.8 16.5-9.5 21.8l-.4-7.2Z" fill="#161619"/><path opacity="0.1" d="m805 338.3-34.8-16 34.8 16Z" fill="#000"/><path opacity="0.2" d="M804.7 298.8c-3.8-1.2-8.4-1-16.5 0-9.3 1.3-13.6 6-19.5 9.9l-.2.2a6.5 6.5 0 0 0-1.4 8.8l3.1 4.6-4.2-2-3.1-4.6a6.4 6.4 0 0 1 1.6-9c6-3.9 10.2-8.6 19.5-9.8 11.3-1.5 15.7-1.3 20.7 1.9Z" fill="#000"/><path d="M805.3 367c-.5 5.6-7.8 15.6-12.8 14.2-4-1-7.6-2.6-11.1-4.6l-3.4-15.8-.2-.9-1-5s14.8-13.9 26.5-25.4l1 6.2.1 1.7c.8 7.7 1.8 19.8.9 29.5Z" fill="#E7A584"/><path d="M765.4 320c-.4 2.6-.4 5.1 0 7.6l1 11.5c.1 2 .5 3.9 1 5.8a42 42 0 0 0 8.3 15c2.8 2.4 16.7-.3 22.6-10.2 4.7-8 3-14.6 3-14.6s3.5.2 5.2-1.7c1-1.9 1.2-4 .7-6-1.3-5-3.8-6-5.8-5.4a6.2 6.2 0 0 0-4.2 5.5l-.4 5-3.8-.3s1.4-7.4-1.2-8.8a22 22 0 0 1-7.3-9 32.5 32.5 0 0 1-19.1 5.7Z" fill="#F6B58F"/><path opacity="0.1" d="M804 334.8c.5 5.5-.8 11-3.7 15.7-5.8 9.9-19.6 12.6-22.5 10.2 5 .6 15.5-2.6 20.4-11 4.7-8 3-14.5 3-14.5l2.8-.4Z" fill="#000"/><path d="m797 329.8-.2 1.8.1-1.8Z" fill="#F6B58F"/><path opacity="0.1" d="m771 319.7-.8.1v-.1h.7ZM780.4 359.6c.7.4 1.5.7 2.3.7-3.3.7-6 .5-7-.4a42 42 0 0 1-9.4-20.8l-.9-11.5c-.4-2.5-.4-5 0-7.5 1.6 0 3.2 0 4.8-.3-.4 2.5-.4 5 0 7.4l1 11.5c.1 2 .5 4 1 5.8 1.6 5.2 5.8 13 8.2 15Z" fill="#fff"/><path d="M730.2 551.6s-3.3 5.7-22.3 4.4v15.3l4.6 4.7s15.4-4.8 22-8.7l-4.3-15.7Z" fill="#F6B58F"/><path d="m778.8 390.8-1.2 3.1.2.1-22.9 36.5-19.1 30.5-8 13-15.1-4.7 34-88.4c1.2-4 3.5-7.8 6.8-10.6a16 16 0 0 1 15.1-3.7c1.1.4 2.2.9 3.2 1.5 6.7 4 9.8 13.5 7 22.7Z" fill="#DC2E07"/><path opacity="0.1" d="m783.5 512-2.7 1-50.9-7.4 5.9-44.5c3.6-27.5 7.9-59 9.3-66.3 1.8-9 3.9-18.9 8.4-24.5a16 16 0 0 1 15.1-3.7c1.1.4 2.2.9 3.2 1.5-7 4-9.6 16.6-11.7 27.5-.9 4.6-3 18.4-5.2 35-4.5 32.8-10 75.9-10 75.9l38.6 5.6Z" fill="#000"/><path d="M847.3 381.2c-.8 17.6-3.4 108.6-3.4 108.6l-51.8 21.4-51.2-4.5s7-97.8 8.8-111.5c2-13.7 4.4-29.6 15.7-29.8 0 0 2.8-.5 13.3-1.3.7 5.2 8 9.2 13.5 9.2 5.9 0 13.3-5 13.4-11 8.4-.4 16.8-.2 25.2.4 0 0 17.3.8 16.5 18.5Z" fill="#DC2E07"/><path opacity="0.1" d="M847.3 381.2c-.8 17.6-3.4 108.6-3.4 108.6l-51.8 21.4-14.3-1.3 48.8-20.1s2.6-91 3.4-108.6c.8-17.7-16.6-18.5-16.6-18.5l-6.5-.4c8-.3 16-.2 23.9.4 0 0 17.3.8 16.5 18.5Z" fill="#000"/><path opacity="0.1" d="m755.8 506.7 38.9 3.4-2.6 1.1-51.2-4.5s7-97.8 8.8-111.6c2-13.6 4.4-29.5 15.7-29.7 0 0 2.8-.5 13.3-1.4 0 .5.2 1 .3 1.4-10.4 1.2-12.5 16.6-14.3 29.7-2 13.9-8.9 111.6-8.9 111.6Z" fill="#fff"/><path d="M887.9 506.3s-16.5 33.9-66.5 45.3l-24.5 8s-13.1 6.6-35.3 0l-60-60 15.6.5-21.4-8.8 55.8 10h.1A90.4 90.4 0 0 0 797 498l50.4-17.1-35.8 22.7 76.4 2.7Z" fill="#26252B"/><path opacity="0.3" d="M887.9 506.3s-16.5 33.9-66.5 45.3l-24.5 8s-13.1 6.6-35.3 0l-60-60 15.6.5-21.4-8.8 55.8 10h.1A90.4 90.4 0 0 0 797 498l50.4-17.1-35.8 22.7 76.4 2.7Z" fill="#000"/><path d="M675.3 557.5c5-1 24.3-4.8 37.7-2 0 0-6.5 17.4 6.2 18.3 0 0-20.4 8.5-36.7 6-15.2-2.4-19-15.8-10.5-21 1-.6 2.1-1 3.3-1.3Z" fill="#26252B"/><path opacity="0.1" d="M719.1 573.8s-20.3 8.5-36.6 6c-14-2.2-18.4-13.9-12.3-19.6-3.4 6 1.3 15.6 13.9 17.5a75.7 75.7 0 0 0 32.5-4.3c.9.2 1.7.4 2.5.4Z" fill="#fff"/><path d="M845.9 547.4s3.3 5.6 22.4 4.3v15.4l-4.7 4.7s-15.4-4.9-22-8.7l4.3-15.7ZM811.4 465.2S801 479.7 785 478.4c-8.1-.6-16 5.6-18.8 9.2-1.9 2.4 2.7 5.1 7.7 6.6 2.4.7 9-2 10.9-2 5.7-.2 7 2.4 15.5-1.6 8.7-4 21.4-10.6 21.4-10.6l-10.3-14.8Z" fill="#F6B58F"/><path opacity="0.1" d="M821.7 480s-12.7 6.6-21.4 10.6c-8.6 4-9.8 1.4-15.5 1.5-1.9 0-8.5 2.8-11 2-4.9-1.4-9.5-4-7.6-6.5l.4-.5c1.4 1.5 4.3 2.8 7.3 3.7 2.4.7 9-2 10.9-2 5.7-.1 7 2.4 15.5-1.6 6.7-3 15.9-7.8 19.6-9.7l1.8 2.5Z" fill="#000"/><path d="M679.1 494.9a21.4 21.4 0 0 1 17.1-6.8l10.5 3.5C737 502 823.6 532 851.8 546.7l-4.9 24.1s-121-17.2-158.5-41a21.2 21.2 0 0 1-15-19.5 21.4 21.4 0 0 1 5.7-15.4Z" fill="#26252B"/><path opacity="0.2" d="M679.1 494.9a21.4 21.4 0 0 1 17.1-6.8l10.5 3.5C737 502 823.6 532 851.8 546.7l-4.9 24.1s-121-17.2-158.5-41a21.2 21.2 0 0 1-15-19.5 21.4 21.4 0 0 1 5.7-15.4Z" fill="#000"/><path d="M900.8 553.3c-5-1-24.3-4.8-37.7-2 0 0 6.5 17.3-6.1 18.2 0 0 20.3 8.5 36.6 6 15.2-2.4 19-15.8 10.6-21-1-.5-2.2-1-3.4-1.2Z" fill="#26252B"/><path opacity="0.1" d="M893.6 575.5c-16.3 2.5-36.6-6-36.6-6 .9 0 1.8-.2 2.7-.5a74 74 0 0 0 31.7 4.1c12.9-2 17.6-11.9 13.6-18 7.4 5.5 3.3 18.1-11.4 20.4Z" fill="#fff"/><path d="m873.4 451.4-61.7 36.4-10.9-17 44-30.8a6.2 6.2 0 0 0 1.6-8.6l-.3-.3-28.9-36.2a18.4 18.4 0 1 1 28-23.2l.2.4v.1l33.3 58.2a16.3 16.3 0 0 1-5.3 21Z" fill="#DC2E07"/><path opacity="0.1" d="m853.4 440-44 30.8 8.5 13.3-6.2 3.7-11-17 44.1-30.8a6.2 6.2 0 0 0 1.3-9l-29-36a18.4 18.4 0 0 1 16.4-32 18.4 18.4 0 0 0-7.7 32l29 36.1a6.2 6.2 0 0 1-1.1 8.7l-.3.2Z" fill="#fff"/><path opacity="0.1" d="m873.4 451.4-61.7 36.4-2.6-4.2 54.5-32.2a16.3 16.3 0 0 0 5.4-21l-33.3-58.2v-.1l-.3-.4v-.2c-2.5-4-6.4-7-11-8.3a18.5 18.5 0 0 1 20.7 8.3v.2l.3.4v.1l33.3 58.2a16.3 16.3 0 0 1-5.4 21Z" fill="#000"/><path d="m849.4 373.7-.1-.1v.1Z" fill="#3C3B40"/><path opacity="0.1" d="m645.3 362.8 226.1 3.2-98.6 130.4h-86.5l-41-133.6Z" fill="#fff"/><path d="M772.8 496.4h-86.5L668 437.9h90.2l14.6 58.5ZM797 496.4H686.2v3.2H797v-3.2Z" fill="#999"/><path d="M718.4 472.6a4.5 4.5 0 1 0 0-9 4.5 4.5 0 0 0 0 9Z" fill="#fff"/><path d="M892.4 496.2a21.4 21.4 0 0 1-7.9 16.6l-10.1 4.5c-29.2 13-113.1 49.9-144 58.2l-12.7-21s100.5-69.7 144.2-77.8a21.4 21.4 0 0 1 30.6 19.4Z" fill="#26252B"/><path opacity="0.2" d="M891 488.6a21.4 21.4 0 0 0-25.5-5.7c-42.9 7.9-140.5 75.1-144.2 77.6l-3.6-6s100.5-69.7 144.2-77.8a21.4 21.4 0 0 1 29.2 11.9Z" fill="#000"/><path opacity="0.1" d="M892.4 496.2a21.4 21.4 0 0 1-7.9 16.6l-10.1 4.5c-29.2 13-113.1 49.9-144 58.2l-12.7-21v-.1l8.3 13.5c30.8-8.4 114.7-45.2 144-58.2l10-4.5a21.5 21.5 0 0 0 6.8-23.5c3.6 4 5.6 9.1 5.6 14.5ZM772.8 496.4h-86.4L668 437.9h1.7c9 9 18 25.7 38.8 36 35.7 17.8 42.3 9 64.3 22.5Z" fill="#fff"/><path d="M959.3 461s-28.6 17.8-22 47.7c0 0 27.5-16.8 22-47.8Z" fill="#1F589A"/><path d="M934.1 476.3C921 443 945.2 421 945.2 421s14 29.6-11 55.2Z" fill="#152E59"/><path d="M928.6 538.7c-22.5-43.2 14-69.6 14-69.6s23.3 38.5-14 69.6Z" fill="#152E59"/><path d="m928.6 538.7-.4-.7a53.7 53.7 0 0 0 13.6-68.3l.8-.6s23.3 38.5-14 69.6Z" fill="#1D5394"/><path d="M926.7 506.6v-84.4s29.4 39.4 0 84.4Z" fill="#3485F4"/><path d="M926.7 422.2v84.4c-29.3-45 0-84.4 0-84.4Z" fill="#1D5394"/><path d="m925.7 523.8-23.9-55.3s30.4 17.5 24 55.3Z" fill="#3485F4"/><path d="m901.8 468.5 24 55.3c-32-21.2-24-55.3-24-55.3Z" fill="#1D5394"/><path d="M951.6 531h-40.4v10.2h40.4V531ZM948.8 541.2v1.3L946 570h-28.8l-3.4-27.5-.2-1.3h35.2Z" fill="#4E86C5"/><path opacity="0.2" d="M943.8 531h-3.1v10.2h3.1V531ZM942.4 541.2l-.1 1.3-1.5 27.5h-2.7l1.5-27.5v-1.3h2.8Z" fill="#F2F5F7"/><path opacity="0.2" d="m949 541.2-.2 1.5h-28l-.2-1.5h28.3Z" fill="#000"/><path opacity="0.3" d="M918.2 531h-7v10.2h7V531ZM924.2 570h-7l-3.5-27.5-.2-1.3h7l.2 1.3 3.5 27.5Z" fill="#000"/><path d="M710.3 403.6c-1.2.2-5 .5-6.6-4.5l-.3-1c0-.4-.2-.8-.4-1.2a11.5 11.5 0 0 0 7.8.1c1.5-.5 2.9-1.3 4-2.5 0 1 .1 1.8.4 2.7 1.4 5.3-3.6 6.1-4.9 6.4Z" fill="#A0A0A0"/><path opacity="0.1" d="M714.8 394.5c0 .6 0 1 .2 1.6a11.1 11.1 0 0 1-11.5 2.3v-.2l-.4-1.3a11.2 11.2 0 0 0 11.7-2.4Z" fill="#000"/><path d="M720.6 376.7a16.3 16.3 0 0 1-3.2 8.3c-.1.2-2.7 4.8-2.6 9.4a11.2 11.2 0 0 1-11.8 2.4c-.7-1.7-2.4-4.5-6.6-7.4l-.7-.4a16.4 16.4 0 1 1 25-12.3Z" fill="#FFBD16"/><path opacity="0.1" d="M704.3 395.1c-.6-1.5-2.2-4-6-6.6l-.5-.4a14.8 14.8 0 0 1 10.3-27 14.8 14.8 0 0 0-7.3 27.7 16 16 0 0 1 6 6.6c.5.2-1.6 0-2.5-.3Z" fill="#fff"/><path opacity="0.1" d="M720.6 376.7a16.3 16.3 0 0 1-3.2 8.3c-.1.2-2.7 4.8-2.6 9.4a11 11 0 0 1-10.6 2.8c2.5-.2 5-1.3 6.8-3.1 0-4.6 2.5-9.3 2.6-9.4l.6-.9a16.4 16.4 0 0 0-10.2-25h1.9a16.4 16.4 0 0 1 14.7 17.9Z" fill="#000"/><path d="M698.8 355s-2.6-1.1-2.9-3.5c-.3-2.3 1.8-1.8 2.2-.5.3 1.3.6 2.7.7 4ZM684.9 366.2s-2.5 1.6-4.6.5c-2.1-1-.5-2.5.8-2.1 1.3.4 2.5 1 3.8 1.6ZM684.4 380.2s-1.8 2.3-4.1 2c-2.3-.2-1.4-2 0-2.2 1.3 0 2.7 0 4 .2ZM716.7 356.8s2.8.3 4.3-1.6c1.4-2-.7-2.4-1.7-1.6-1 1-1.8 2.1-2.6 3.2ZM723.3 369s2.7 1.4 4.6.1c2-1.3.3-2.5-1-2a29 29 0 0 0-3.6 2Z" fill="#FFBD16"/><defs><filter id="ahero" x="0" y="0" width="964.1" height="432" filterUnits="userSpaceOnUse" color-interpolation-filters="sRGB"><feFlood flood-opacity="0" result="BackgroundImageFix"/><feColorMatrix in="SourceAlpha" values="0 0 0 0 0 0 0 0 0 0 0 0 0 0 0 0 0 0 127 0" result="hardAlpha"/><feOffset dy="4"/><feGaussianBlur stdDeviation="3"/><feColorMatrix values="0 0 0 0 0 0 0 0 0 0 0 0 0 0 0 0 0 0 0.1 0"/><feBlend in2="BackgroundImageFix" result="effect1_dropShadow_1156_8637"/><feColorMatrix in="SourceAlpha" values="0 0 0 0 0 0 0 0 0 0 0 0 0 0 0 0 0 0 127 0" result="hardAlpha"/><feOffset dy="2"/><feGaussianBlur stdDeviation="2"/><feColorMatrix values="0 0 0 0 0 0 0 0 0 0 0 0 0 0 0 0 0 0 0.06 0"/><feBlend in2="effect1_dropShadow_1156_8637" result="effect2_dropShadow_1156_8637"/><feBlend in="SourceGraphic" in2="effect2_dropShadow_1156_8637" result="shape"/></filter><filter id="bhero" x="102.8" y="323.3" width="60.8" height="60.8" filterUnits="userSpaceOnUse" color-interpolation-filters="sRGB"><feFlood flood-opacity="0" result="BackgroundImageFix"/><feColorMatrix in="SourceAlpha" values="0 0 0 0 0 0 0 0 0 0 0 0 0 0 0 0 0 0 127 0" result="hardAlpha"/><feOffset dy="1"/><feGaussianBlur stdDeviation="1.5"/><feColorMatrix values="0 0 0 0 0 0 0 0 0 0 0 0 0 0 0 0 0 0 0.1 0"/><feBlend in2="BackgroundImageFix" result="effect1_dropShadow_1156_8637"/><feColorMatrix in="SourceAlpha" values="0 0 0 0 0 0 0 0 0 0 0 0 0 0 0 0 0 0 127 0" result="hardAlpha"/><feOffset dy="1"/><feGaussianBlur stdDeviation="1"/><feColorMatrix values="0 0 0 0 0 0 0 0 0 0 0 0 0 0 0 0 0 0 0.06 0"/><feBlend in2="effect1_dropShadow_1156_8637" result="effect2_dropShadow_1156_8637"/><feBlend in="SourceGraphic" in2="effect2_dropShadow_1156_8637" result="shape"/></filter><filter id="chero" x="179.6" y="323.3" width="60.8" height="60.8" filterUnits="userSpaceOnUse" color-interpolation-filters="sRGB"><feFlood flood-opacity="0" result="BackgroundImageFix"/><feColorMatrix in="SourceAlpha" values="0 0 0 0 0 0 0 0 0 0 0 0 0 0 0 0 0 0 127 0" result="hardAlpha"/><feOffset dy="1"/><feGaussianBlur stdDeviation="1.5"/><feColorMatrix values="0 0 0 0 0 0 0 0 0 0 0 0 0 0 0 0 0 0 0.1 0"/><feBlend in2="BackgroundImageFix" result="effect1_dropShadow_1156_8637"/><feColorMatrix in="SourceAlpha" values="0 0 0 0 0 0 0 0 0 0 0 0 0 0 0 0 0 0 127 0" result="hardAlpha"/><feOffset dy="1"/><feGaussianBlur stdDeviation="1"/><feColorMatrix values="0 0 0 0 0 0 0 0 0 0 0 0 0 0 0 0 0 0 0.06 0"/><feBlend in2="effect1_dropShadow_1156_8637" result="effect2_dropShadow_1156_8637"/><feBlend in="SourceGraphic" in2="effect2_dropShadow_1156_8637" result="shape"/></filter><filter id="ghero" x="179.6" y="239.1" width="60.8" height="60.8" filterUnits="userSpaceOnUse" color-interpolation-filters="sRGB"><feFlood flood-opacity="0" result="BackgroundImageFix"/><feColorMatrix in="SourceAlpha" values="0 0 0 0 0 0 0 0 0 0 0 0 0 0 0 0 0 0 127 0" result="hardAlpha"/><feOffset dy="1"/><feGaussianBlur stdDeviation="1.5"/><feColorMatrix values="0 0 0 0 0 0 0 0 0 0 0 0 0 0 0 0 0 0 0.1 0"/><feBlend in2="BackgroundImageFix" result="effect1_dropShadow_1156_8637"/><feColorMatrix in="SourceAlpha" values="0 0 0 0 0 0 0 0 0 0 0 0 0 0 0 0 0 0 127 0" result="hardAlpha"/><feOffset dy="1"/><feGaussianBlur stdDeviation="1"/><feColorMatrix values="0 0 0 0 0 0 0 0 0 0 0 0 0 0 0 0 0 0 0.06 0"/><feBlend in2="effect1_dropShadow_1156_8637" result="effect2_dropShadow_1156_8637"/><feBlend in="SourceGraphic" in2="effect2_dropShadow_1156_8637" result="shape"/></filter><filter id="hhero" x="102.8" y="239.1" width="60.8" height="60.8" filterUnits="userSpaceOnUse" color-interpolation-filters="sRGB"><feFlood flood-opacity="0" result="BackgroundImageFix"/><feColorMatrix in="SourceAlpha" values="0 0 0 0 0 0 0 0 0 0 0 0 0 0 0 0 0 0 127 0" result="hardAlpha"/><feOffset dy="1"/><feGaussianBlur stdDeviation="1.5"/><feColorMatrix values="0 0 0 0 0 0 0 0 0 0 0 0 0 0 0 0 0 0 0.1 0"/><feBlend in2="BackgroundImageFix" result="effect1_dropShadow_1156_8637"/><feColorMatrix in="SourceAlpha" values="0 0 0 0 0 0 0 0 0 0 0 0 0 0 0 0 0 0 127 0" result="hardAlpha"/><feOffset dy="1"/><feGaussianBlur stdDeviation="1"/><feColorMatrix values="0 0 0 0 0 0 0 0 0 0 0 0 0 0 0 0 0 0 0.06 0"/><feBlend in2="effect1_dropShadow_1156_8637" result="effect2_dropShadow_1156_8637"/><feBlend in="SourceGraphic" in2="effect2_dropShadow_1156_8637" result="shape"/></filter><filter id="ihero" x="26" y="239.1" width="60.8" height="60.8" filterUnits="userSpaceOnUse" color-interpolation-filters="sRGB"><feFlood flood-opacity="0" result="BackgroundImageFix"/><feColorMatrix in="SourceAlpha" values="0 0 0 0 0 0 0 0 0 0 0 0 0 0 0 0 0 0 127 0" result="hardAlpha"/><feOffset dy="1"/><feGaussianBlur stdDeviation="1.5"/><feColorMatrix values="0 0 0 0 0 0 0 0 0 0 0 0 0 0 0 0 0 0 0.1 0"/><feBlend in2="BackgroundImageFix" result="effect1_dropShadow_1156_8637"/><feColorMatrix in="SourceAlpha" values="0 0 0 0 0 0 0 0 0 0 0 0 0 0 0 0 0 0 127 0" result="hardAlpha"/><feOffset dy="1"/><feGaussianBlur stdDeviation="1"/><feColorMatrix values="0 0 0 0 0 0 0 0 0 0 0 0 0 0 0 0 0 0 0.06 0"/><feBlend in2="effect1_dropShadow_1156_8637" result="effect2_dropShadow_1156_8637"/><feBlend in="SourceGraphic" in2="effect2_dropShadow_1156_8637" result="shape"/></filter><filter id="jhero" x="26" y="323.3" width="60.8" height="60.8" filterUnits="userSpaceOnUse" color-interpolation-filters="sRGB"><feFlood flood-opacity="0" result="BackgroundImageFix"/><feColorMatrix in="SourceAlpha" values="0 0 0 0 0 0 0 0 0 0 0 0 0 0 0 0 0 0 127 0" result="hardAlpha"/><feOffset dy="1"/><feGaussianBlur stdDeviation="1.5"/><feColorMatrix values="0 0 0 0 0 0 0 0 0 0 0 0 0 0 0 0 0 0 0.1 0"/><feBlend in2="BackgroundImageFix" result="effect1_dropShadow_1156_8637"/><feColorMatrix in="SourceAlpha" values="0 0 0 0 0 0 0 0 0 0 0 0 0 0 0 0 0 0 127 0" result="hardAlpha"/><feOffset dy="1"/><feGaussianBlur stdDeviation="1"/><feColorMatrix values="0 0 0 0 0 0 0 0 0 0 0 0 0 0 0 0 0 0 0.06 0"/><feBlend in2="effect1_dropShadow_1156_8637" result="effect2_dropShadow_1156_8637"/><feBlend in="SourceGraphic" in2="effect2_dropShadow_1156_8637" result="shape"/></filter><filter id="khero" x="102.8" y="154.9" width="60.8" height="60.8" filterUnits="userSpaceOnUse" color-interpolation-filters="sRGB"><feFlood flood-opacity="0" result="BackgroundImageFix"/><feColorMatrix in="SourceAlpha" values="0 0 0 0 0 0 0 0 0 0 0 0 0 0 0 0 0 0 127 0" result="hardAlpha"/><feOffset dy="1"/><feGaussianBlur stdDeviation="1.5"/><feColorMatrix values="0 0 0 0 0 0 0 0 0 0 0 0 0 0 0 0 0 0 0.1 0"/><feBlend in2="BackgroundImageFix" result="effect1_dropShadow_1156_8637"/><feColorMatrix in="SourceAlpha" values="0 0 0 0 0 0 0 0 0 0 0 0 0 0 0 0 0 0 127 0" result="hardAlpha"/><feOffset dy="1"/><feGaussianBlur stdDeviation="1"/><feColorMatrix values="0 0 0 0 0 0 0 0 0 0 0 0 0 0 0 0 0 0 0.06 0"/><feBlend in2="effect1_dropShadow_1156_8637" result="effect2_dropShadow_1156_8637"/><feBlend in="SourceGraphic" in2="effect2_dropShadow_1156_8637" result="shape"/></filter><filter id="lhero" x="179.6" y="154.9" width="60.8" height="60.8" filterUnits="userSpaceOnUse" color-interpolation-filters="sRGB"><feFlood flood-opacity="0" result="BackgroundImageFix"/><feColorMatrix in="SourceAlpha" values="0 0 0 0 0 0 0 0 0 0 0 0 0 0 0 0 0 0 127 0" result="hardAlpha"/><feOffset dy="1"/><feGaussianBlur stdDeviation="1.5"/><feColorMatrix values="0 0 0 0 0 0 0 0 0 0 0 0 0 0 0 0 0 0 0.1 0"/><feBlend in2="BackgroundImageFix" result="effect1_dropShadow_1156_8637"/><feColorMatrix in="SourceAlpha" values="0 0 0 0 0 0 0 0 0 0 0 0 0 0 0 0 0 0 127 0" result="hardAlpha"/><feOffset dy="1"/><feGaussianBlur stdDeviation="1"/><feColorMatrix values="0 0 0 0 0 0 0 0 0 0 0 0 0 0 0 0 0 0 0.06 0"/><feBlend in2="effect1_dropShadow_1156_8637" result="effect2_dropShadow_1156_8637"/><feBlend in="SourceGraphic" in2="effect2_dropShadow_1156_8637" result="shape"/></filter><filter id="mhero" x="179.6" y="70.8" width="60.8" height="60.8" filterUnits="userSpaceOnUse" color-interpolation-filters="sRGB"><feFlood flood-opacity="0" result="BackgroundImageFix"/><feColorMatrix in="SourceAlpha" values="0 0 0 0 0 0 0 0 0 0 0 0 0 0 0 0 0 0 127 0" result="hardAlpha"/><feOffset dy="1"/><feGaussianBlur stdDeviation="1.5"/><feColorMatrix values="0 0 0 0 0 0 0 0 0 0 0 0 0 0 0 0 0 0 0.1 0"/><feBlend in2="BackgroundImageFix" result="effect1_dropShadow_1156_8637"/><feColorMatrix in="SourceAlpha" values="0 0 0 0 0 0 0 0 0 0 0 0 0 0 0 0 0 0 127 0" result="hardAlpha"/><feOffset dy="1"/><feGaussianBlur stdDeviation="1"/><feColorMatrix values="0 0 0 0 0 0 0 0 0 0 0 0 0 0 0 0 0 0 0.06 0"/><feBlend in2="effect1_dropShadow_1156_8637" result="effect2_dropShadow_1156_8637"/><feBlend in="SourceGraphic" in2="effect2_dropShadow_1156_8637" result="shape"/></filter><filter id="nhero" x="102.8" y="70.8" width="60.8" height="60.8" filterUnits="userSpaceOnUse" color-interpolation-filters="sRGB"><feFlood flood-opacity="0" result="BackgroundImageFix"/><feColorMatrix in="SourceAlpha" values="0 0 0 0 0 0 0 0 0 0 0 0 0 0 0 0 0 0 127 0" result="hardAlpha"/><feOffset dy="1"/><feGaussianBlur stdDeviation="1.5"/><feColorMatrix values="0 0 0 0 0 0 0 0 0 0 0 0 0 0 0 0 0 0 0.1 0"/><feBlend in2="BackgroundImageFix" result="effect1_dropShadow_1156_8637"/><feColorMatrix in="SourceAlpha" values="0 0 0 0 0 0 0 0 0 0 0 0 0 0 0 0 0 0 127 0" result="hardAlpha"/><feOffset dy="1"/><feGaussianBlur stdDeviation="1"/><feColorMatrix values="0 0 0 0 0 0 0 0 0 0 0 0 0 0 0 0 0 0 0.06 0"/><feBlend in2="effect1_dropShadow_1156_8637" result="effect2_dropShadow_1156_8637"/><feBlend in="SourceGraphic" in2="effect2_dropShadow_1156_8637" result="shape"/></filter><filter id="ohero" x="26" y="70.8" width="60.8" height="60.8" filterUnits="userSpaceOnUse" color-interpolation-filters="sRGB"><feFlood flood-opacity="0" result="BackgroundImageFix"/><feColorMatrix in="SourceAlpha" values="0 0 0 0 0 0 0 0 0 0 0 0 0 0 0 0 0 0 127 0" result="hardAlpha"/><feOffset dy="1"/><feGaussianBlur stdDeviation="1.5"/><feColorMatrix values="0 0 0 0 0 0 0 0 0 0 0 0 0 0 0 0 0 0 0.1 0"/><feBlend in2="BackgroundImageFix" result="effect1_dropShadow_1156_8637"/><feColorMatrix in="SourceAlpha" values="0 0 0 0 0 0 0 0 0 0 0 0 0 0 0 0 0 0 127 0" result="hardAlpha"/><feOffset dy="1"/><feGaussianBlur stdDeviation="1"/><feColorMatrix values="0 0 0 0 0 0 0 0 0 0 0 0 0 0 0 0 0 0 0.06 0"/><feBlend in2="effect1_dropShadow_1156_8637" result="effect2_dropShadow_1156_8637"/><feBlend in="SourceGraphic" in2="effect2_dropShadow_1156_8637" result="shape"/></filter><filter id="phero" x="26" y="154.9" width="60.8" height="60.8" filterUnits="userSpaceOnUse" color-interpolation-filters="sRGB"><feFlood flood-opacity="0" result="BackgroundImageFix"/><feColorMatrix in="SourceAlpha" values="0 0 0 0 0 0 0 0 0 0 0 0 0 0 0 0 0 0 127 0" result="hardAlpha"/><feOffset dy="1"/><feGaussianBlur stdDeviation="1.5"/><feColorMatrix values="0 0 0 0 0 0 0 0 0 0 0 0 0 0 0 0 0 0 0.1 0"/><feBlend in2="BackgroundImageFix" result="effect1_dropShadow_1156_8637"/><feColorMatrix in="SourceAlpha" values="0 0 0 0 0 0 0 0 0 0 0 0 0 0 0 0 0 0 127 0" result="hardAlpha"/><feOffset dy="1"/><feGaussianBlur stdDeviation="1"/><feColorMatrix values="0 0 0 0 0 0 0 0 0 0 0 0 0 0 0 0 0 0 0.06 0"/><feBlend in2="effect1_dropShadow_1156_8637" result="effect2_dropShadow_1156_8637"/><feBlend in="SourceGraphic" in2="effect2_dropShadow_1156_8637" result="shape"/></filter><linearGradient id="dhero" x1="201.2" y1="379.6" x2="207.2" y2="358.6" gradientUnits="userSpaceOnUse"><stop offset="0.1" stop-color="#0095D5"/><stop offset="0.3" stop-color="#238AD9"/><stop offset="0.6" stop-color="#557BDE"/><stop offset="0.9" stop-color="#7472E2"/><stop offset="1" stop-color="#806EE3"/></linearGradient><linearGradient id="ehero" x1="193.3" y1="341.8" x2="203.9" y2="332" gradientUnits="userSpaceOnUse"><stop offset="0.1" stop-color="#0095D5"/><stop offset="0.4" stop-color="#3C83DC"/><stop offset="0.7" stop-color="#6D74E1"/><stop offset="0.8" stop-color="#806EE3"/></linearGradient><linearGradient id="fhero" x1="181.7" y1="365.9" x2="220.7" y2="331.8" gradientUnits="userSpaceOnUse"><stop offset="0.1" stop-color="#C757BC"/><stop offset="0.2" stop-color="#D0609A"/><stop offset="0.4" stop-color="#E1725C"/><stop offset="0.6" stop-color="#EE7E2F"/><stop offset="0.7" stop-color="#F58613"/><stop offset="0.8" stop-color="#F88909"/></linearGradient><clipPath id="qhero"><path fill="#fff" transform="translate(41 166.7)" d="M0 0h31.7v34.9H0z"/></clipPath></defs></svg>