<svg viewBox="0 0 359 136" fill="none" xmlns="http://www.w3.org/2000/svg" class="rounded-t-lg bg-primary-lightP2 dark:bg-dark dark:bg-gray-buttonHover"><path d="M0 8a8 8 0 0 1 8-8h343a8 8 0 0 1 8 8v128H0V8Z"/><g clip-path="url(#agrowth)"><g opacity="0.49"><path opacity="0.49" d="M178.59 5.44a7.29 7.29 0 0 0 3.17 8.13c-.25 3.37 2 6.6 5.55 7.66a7.8 7.8 0 0 0 6.03-.62 7.81 7.81 0 0 0 5.2 4.89c3.45 1.02 7-.35 8.68-3.14.3.14.59.24.89.33 4.06 1.2 8.27-.92 9.4-4.74 1.14-3.83-1.24-7.9-5.29-9.11l-.45-.12a7.8 7.8 0 0 0-5.17-4.8 7.86 7.86 0 0 0-5.6.4 7.77 7.77 0 0 0-5.12-4.67 7.8 7.8 0 0 0-7.1 1.32 7.2 7.2 0 0 0-.8-.28c-4.04-1.2-8.26.92-9.4 4.75Z" fill="#E8E8E8"/><path opacity="0.06" d="M178.59 5.43a7.29 7.29 0 0 0 3.17 8.14c-.25 3.37 2 6.6 5.55 7.66a7.8 7.8 0 0 0 6.03-.62 7.77 7.77 0 0 0 5.2 4.89c3.45 1.02 7-.35 8.68-3.14.3.14.59.24.89.33 4.06 1.2 8.27-.92 9.4-4.74.18-.6.28-1.22.28-1.82a7.6 7.6 0 0 1-9.54 2.73 7.59 7.59 0 0 1-8.69 3.14 7.81 7.81 0 0 1-5.2-4.88 7.87 7.87 0 0 1-6.03.61 7.56 7.56 0 0 1-5.55-7.66 7.4 7.4 0 0 1-3.45-6.31c-.3.51-.57 1.07-.75 1.67Z" fill="#000002"/><path opacity="0.49" d="M146.13 104.01a7.49 7.49 0 0 0 3.7 8.14c-.07 3.46 2.43 6.64 6.11 7.52 2.2.53 4.4.12 6.14-.96a7.98 7.98 0 0 0 5.58 4.7 7.76 7.76 0 0 0 8.7-3.7c.3.12.6.21.93.28 4.23 1 8.42-1.4 9.35-5.38.95-3.98-1.71-8.02-5.92-9.02-.17-.04-.32-.08-.48-.1a8 8 0 0 0-5.55-4.6 8.03 8.03 0 0 0-5.7.7 8.03 8.03 0 0 0-5.5-4.49c-2.69-.64-5.36.1-7.18 1.76-.27-.1-.54-.17-.83-.24-4.21-1-8.4 1.42-9.35 5.4Z" fill="#E8E8E8"/><path opacity="0.08" d="M146.13 104.01a7.45 7.45 0 0 0 3.7 8.13c-.06 3.45 2.43 6.64 6.12 7.52 2.2.52 4.4.11 6.13-.96a7.98 7.98 0 0 0 5.58 4.7 7.76 7.76 0 0 0 8.7-3.7c.3.11.61.2.94.27 4.22 1.01 8.4-1.4 9.35-5.38.17-.75.23-1.5.16-2.25a7.88 7.88 0 0 1-8.99 2.4 7.78 7.78 0 0 1-8.7 3.7 7.94 7.94 0 0 1-5.58-4.7 8.08 8.08 0 0 1-6.14.96c-3.68-.88-6.18-4.06-6.12-7.52a7.62 7.62 0 0 1-3.87-5.9 7.9 7.9 0 0 0-1.28 2.73Z" fill="#000"/><path opacity="0.49" d="M244.56 74.85c-1.1 3.42 1.14 7.21 5.04 8.49.38.13.76.22 1.15.3a7.8 7.8 0 0 0 4.84 4.33c1.35.43 2.7.52 3.96.3a8.33 8.33 0 0 0 3.36 2.1c2.92.95 5.96.21 7.75-1.68a8.01 8.01 0 0 0 4 2.86c3.9 1.27 7.97-.47 9.08-3.89a6.18 6.18 0 0 0-.68-5.13c.12-.23.2-.47.29-.7 1.11-3.42-1.14-7.22-5.03-8.5a8.06 8.06 0 0 0-4.05-.27 7.94 7.94 0 0 0-4.51-3.66 7.76 7.76 0 0 0-6.51.68c-.43-.23-.87-.4-1.34-.57-2.93-.95-5.97-.21-7.76 1.68a6.9 6.9 0 0 0-.55-.2c-3.87-1.3-7.93.45-9.03 3.86Z" fill="#E8E8E8"/><path opacity="0.08" d="M244.56 74.85c-1.11 3.42 1.14 7.21 5.03 8.49.4.13.77.23 1.16.3a7.8 7.8 0 0 0 4.84 4.33c1.34.45 2.7.52 3.96.3a8.33 8.33 0 0 0 3.36 2.1c2.92.95 5.96.22 7.75-1.68a8 8 0 0 0 4 2.86c3.9 1.27 7.97-.47 9.08-3.89.22-.68.32-1.38.29-2.06-1.68 2.34-5.03 3.36-8.27 2.3a8.01 8.01 0 0 1-4-2.86c-1.79 1.9-4.82 2.63-7.75 1.68a8.05 8.05 0 0 1-3.36-2.1 8.09 8.09 0 0 1-3.96-.3 7.8 7.8 0 0 1-4.84-4.34 7.53 7.53 0 0 1-1.15-.3c-3.12-1.02-5.2-3.65-5.32-6.42a5.64 5.64 0 0 0-.82 1.59Z" fill="#000002"/><path opacity="0.49" d="M88.83 79.3c-1.15 2.69.53 5.99 3.72 7.33 1.56.66 3.19.73 4.6.32.38.4.86.74 1.42.97.84.35 1.71.41 2.49.23.7.9 1.66 1.66 2.84 2.16 1.28.54 2.62.7 3.82.5 3.1 1.13 6.4.01 7.5-2.6 1.15-2.7-.53-5.98-3.72-7.32a7.56 7.56 0 0 0-2.08-.54 6.8 6.8 0 0 0-3.63-3.45c-2.67-1.12-5.54-.55-7.08 1.24a7.28 7.28 0 0 0-2.03-1.28c-3.2-1.36-6.72-.27-7.85 2.44Z" fill="#E8E8E8"/><path opacity="0.06" d="M92.55 86.63c1.56.66 3.19.73 4.59.31a4.09 4.09 0 0 0 3.9 1.2c.7.9 1.67 1.67 2.85 2.17 1.28.54 2.61.69 3.82.5 3.1 1.13 6.4 0 7.5-2.6.2-.46.32-.95.35-1.45-1.27 2.28-4.36 3.2-7.28 2.13-1.21.2-2.54.05-3.82-.5a7.13 7.13 0 0 1-2.85-2.15c-.76.18-1.65.13-2.49-.23a3.94 3.94 0 0 1-1.41-.98c-1.4.42-3.04.34-4.6-.32-2.64-1.11-4.23-3.55-4.06-5.87l-.22.44c-1.15 2.72.51 6 3.72 7.35Z" fill="#000"/><path opacity="0.49" d="M119.13 30.45c-1.24 2.67.31 6 3.45 7.46 1.54.72 3.17.85 4.59.48a4.17 4.17 0 0 0 3.86 1.35A7.1 7.1 0 0 0 133.8 42a7 7 0 0 0 3.8.63c3.04 1.26 6.38.27 7.57-2.3 1.24-2.66-.3-6-3.45-7.46a7.05 7.05 0 0 0-2.06-.61 6.8 6.8 0 0 0-3.49-3.6c-2.62-1.21-5.51-.75-7.13.97a7.2 7.2 0 0 0-1.98-1.36c-3.15-1.45-6.7-.48-7.93 2.18Z" fill="#E8E8E8"/><path opacity="0.06" d="M122.58 37.91c1.54.72 3.17.85 4.6.48.36.42.82.8 1.37 1.04.82.39 1.7.47 2.48.3A7.1 7.1 0 0 0 133.8 42a7 7 0 0 0 3.8.64c3.04 1.25 6.39.26 7.57-2.3.26-.55.4-1.13.43-1.72-1.33 2.28-4.5 3.1-7.39 1.92a7.02 7.02 0 0 1-3.79-.63 7.01 7.01 0 0 1-2.77-2.27 4.17 4.17 0 0 1-3.86-1.34 6.85 6.85 0 0 1-4.58-.5c-2.5-1.16-4-3.5-3.88-5.75l-.2.39c-1.24 2.68.3 6.01 3.45 7.47Z" fill="#000"/><path opacity="0.49" d="M249.34 135.27c-.1.37-.12.75-.13 1.11 0 2.02 1.28 3.97 3.29 5.09.49.28 1.03.5 1.59.65.9.91 2.12 1.62 3.55 1.96 1.3.3 2.6.26 3.75-.07a4.24 4.24 0 0 0 4.04 1.4 7.24 7.24 0 0 0 4.1 2.6c3.46.8 6.8-.82 7.64-3.69l.07-.23c.71-3-1.59-6.13-5.14-6.97-.85-.2-1.69-.26-2.5-.17-.22-2.47-2.3-4.74-5.25-5.44a7.1 7.1 0 0 0-5.21.68 7.67 7.67 0 0 0-2.11-.84c-3.3-.79-6.55.7-7.53 3.33-.06.21-.12.4-.16.6Z" fill="#E8E8E8"/><path opacity="0.08" d="M249.34 135.27c-.1.37-.13.75-.13 1.11 0 2.02 1.28 3.97 3.29 5.09.49.28 1.03.5 1.59.65a7.47 7.47 0 0 0 7.3 1.9 4.24 4.24 0 0 0 4.04 1.39 7.24 7.24 0 0 0 4.1 2.6c3.46.8 6.8-.82 7.64-3.68v-.15c-1.36 1.95-4.14 2.95-6.99 2.26a7.23 7.23 0 0 1-4.09-2.59 4.3 4.3 0 0 1-4.04-1.4 7.46 7.46 0 0 1-3.76.07 7.33 7.33 0 0 1-3.54-1.96c-2.85-.82-5.16-3.43-5.25-5.88-.06.21-.12.4-.16.6Z" fill="#000"/></g><path d="M220.46 51.44c15.8 1.95 26.3-.05 28.72-2.1.37-.32.4-.87.1-1.22a.86.86 0 0 0-1.22-.1c-1.82 1.56-11.73 3.64-27.39 1.7-10.76-1.33-18.62-4.03-24.94-6.2-2.66-.9-5.18-1.77-7.53-2.4-.28-.08-.56-.13-.84-.19.41.64.77 1.33 1.05 2.04 2.11.6 4.38 1.36 6.77 2.19 6.38 2.19 14.33 4.91 25.28 6.28ZM216.31 81.72c4.3 3.07 8.8 6.8 11.42 10.59.69-.04 1.38-.02 2.08.07-2.26-3.71-6.45-7.76-12.5-12.08-2.61-1.86-6.92-4.4-11.9-7.35-8.66-5.11-20.02-11.83-24.59-16.53-.7.14-1.42.2-2.16.18 4.06 4.96 15.58 11.75 25.86 17.84 4.95 2.94 9.24 5.46 11.8 7.28ZM152.95 68.48c.36.22.78.46 1.2.68 2.79 1.55 13.2 7.59 29.67 20.41 11.22 8.74 23.79 14.85 33.28 16.49.68.12 1.35.2 2 .28-.23-.58-.43-1.18-.56-1.79-9.25-1.22-22.12-7.36-33.64-16.33-16.56-12.91-27.09-19-29.92-20.57-.4-.21-.8-.45-1.14-.66-4.03-2.38-7.38-3.34-10.1-3.51.28.58.5 1.2.68 1.83 2.61.31 5.5 1.38 8.53 3.17ZM107.9 108.2c.05.37.34.66.71.73.08 0 .18.02.26 0 .75-.1 18.56-2.47 23.84-4.58 2.53-1.01 5.35-2.34 7.08-4.48 1.95-2.43 2.22-5.43.83-9.19a31.32 31.32 0 0 0-4.12-7.35c-1.28-1.84-2.4-3.45-3-5.33a9.83 9.83 0 0 1-1.88-.41c.59 2.58 2 4.6 3.46 6.71 1.4 2.02 2.85 4.1 3.9 6.98 2.34 6.31-.92 9.06-6.92 11.47-5.08 2.03-23.25 4.47-23.43 4.48a.84.84 0 0 0-.73.96Z" fill="#434344"/><path d="M177.56 51.13a4.8 4.8 0 1 1 2.74-9.21 4.8 4.8 0 0 1-2.74 9.21ZM177.55 54.52c.4.07.8.1 1.18.12.21.01.37-.15.39-.36 0-.21-.16-.37-.37-.39-.7 0-1.4-.13-2.07-.35a.37.37 0 0 0-.46.24c-.06.2.04.4.24.46.35.13.72.22 1.1.28Zm-3.03-1.21c.14.02.29-.03.38-.15a.38.38 0 0 0-.1-.52c-.58-.4-1.1-.87-1.54-1.41a.4.4 0 0 0-.53-.06.4.4 0 0 0-.05.53 7.9 7.9 0 0 0 1.7 1.55c.04.03.08.04.14.06Zm6.35 1.07a.3.3 0 0 0 .17 0c.75-.2 1.46-.5 2.12-.91a.36.36 0 0 0 .12-.51.36.36 0 0 0-.51-.12c-.6.36-1.26.64-1.93.82-.2.06-.32.25-.26.45.04.14.15.24.3.27Zm-9.13-4.45c.07 0 .15 0 .2-.02.2-.08.27-.3.2-.49a7.54 7.54 0 0 1-.55-2.03.37.37 0 0 0-.4-.32.37.37 0 0 0-.33.42c.09.76.29 1.5.6 2.22.05.12.16.2.28.22Zm12.85 2.18c.13.02.26-.03.33-.12.53-.56.97-1.22 1.3-1.9.1-.2.01-.41-.16-.5a.37.37 0 0 0-.49.17 6.9 6.9 0 0 1-1.19 1.73.37.37 0 0 0 .03.53c.05.05.12.08.18.09Zm-13.36-6.51c.2.02.39-.1.43-.3v-.03c.13-.7.35-1.37.65-2a.36.36 0 0 0-.16-.5.36.36 0 0 0-.5.17 8.74 8.74 0 0 0-.71 2.2l-.01.02c-.04.2.1.4.3.44Zm15.28 2.59c.2.02.4-.1.43-.3.13-.77.15-1.55.07-2.3a.36.36 0 0 0-.42-.33c-.2.02-.35.2-.31.42.08.7.06 1.39-.06 2.1-.05.17.09.38.3.4Zm-13.36-6.54c.13.02.26-.03.33-.12a8.1 8.1 0 0 1 1.63-1.33.36.36 0 0 0 .11-.5.36.36 0 0 0-.5-.13c-.66.41-1.26.89-1.8 1.47a.37.37 0 0 0 .03.53c.07.04.14.07.2.08Zm12.85 2.2c.06 0 .14.02.2-.02.19-.07.27-.3.2-.48-.3-.7-.72-1.37-1.2-1.98a.4.4 0 0 0-.53-.05.4.4 0 0 0-.06.52c.45.54.81 1.14 1.09 1.8.08.12.19.2.3.22Zm-9.11-4.47c.04.02.1.02.15 0a7.81 7.81 0 0 1 2.09-.25c.2.01.37-.15.38-.36.02-.21-.15-.37-.36-.39a7.94 7.94 0 0 0-2.29.27c-.2.06-.32.25-.26.45.03.16.15.27.29.28Zm6.34 1.1c.14.02.29-.03.37-.15a.38.38 0 0 0-.09-.52 8.05 8.05 0 0 0-2.07-1.01.37.37 0 1 0-.22.7c.66.22 1.3.52 1.88.92.04.03.09.05.13.06Z" fill="#152E59"/><path d="M133.91 72.55a4.8 4.8 0 1 1 2.74-9.2 4.8 4.8 0 0 1-2.74 9.2ZM133.9 75.96c.4.06.8.1 1.18.12.2.01.37-.15.38-.36.02-.21-.15-.37-.36-.39a7.78 7.78 0 0 1-2.07-.35.37.37 0 1 0-.22.7c.35.12.72.22 1.1.28Zm-3.04-1.23c.14.02.29-.03.37-.15a.38.38 0 0 0-.09-.52 7.5 7.5 0 0 1-1.55-1.41.4.4 0 0 0-.52-.06.4.4 0 0 0-.06.52 8.2 8.2 0 0 0 1.7 1.56c.06.03.1.06.15.06Zm6.35 1.08c.04.01.1.02.16 0a8 8 0 0 0 2.12-.91.36.36 0 0 0 .12-.5.36.36 0 0 0-.5-.12c-.6.36-1.26.64-1.94.81-.2.06-.32.25-.26.45.04.14.16.24.3.27Zm-9.12-4.44c.07 0 .15 0 .2-.03.19-.07.27-.3.2-.48a7.5 7.5 0 0 1-.55-2.03.37.37 0 1 0-.73.1c.09.76.29 1.5.6 2.22.05.11.16.2.28.22Zm12.85 2.17c.13.02.25-.02.33-.11.53-.57.97-1.22 1.3-1.9.1-.2.01-.42-.16-.5a.37.37 0 0 0-.5.17c-.3.63-.7 1.21-1.18 1.72a.35.35 0 0 0 .03.52.5.5 0 0 0 .18.1Zm-13.36-6.52c.2.03.39-.08.43-.28l.01-.05c.12-.68.34-1.36.64-1.99a.36.36 0 0 0-.16-.49.36.36 0 0 0-.5.17 8.74 8.74 0 0 0-.71 2.2c-.05.2.09.4.29.44Zm15.29 2.59c.2.03.38-.1.43-.3.13-.76.14-1.54.06-2.3a.36.36 0 0 0-.41-.32c-.2.02-.36.2-.32.4.09.7.06 1.4-.05 2.1-.06.2.08.4.28.42Zm-13.36-6.54c.12.02.25-.02.33-.11a8.1 8.1 0 0 1 1.62-1.34.36.36 0 0 0 .12-.5.36.36 0 0 0-.5-.12c-.67.4-1.27.88-1.8 1.46a.37.37 0 0 0 .02.53c.07.04.13.07.2.08Zm12.84 2.2c.06.01.14.02.2-.01.19-.08.27-.3.2-.49-.3-.7-.71-1.37-1.2-1.97a.4.4 0 0 0-.53-.06.4.4 0 0 0-.06.52c.45.54.81 1.14 1.1 1.8.07.12.18.2.29.22Zm-9.11-4.45c.04.01.1.02.15 0a7.8 7.8 0 0 1 2.09-.25c.2.01.37-.15.38-.36.01-.21-.15-.38-.36-.39a7.94 7.94 0 0 0-2.3.27c-.19.06-.31.25-.25.45.03.15.15.26.29.28Zm6.34 1.08c.14.03.3-.03.38-.15a.38.38 0 0 0-.1-.52 8.05 8.05 0 0 0-2.07-1 .37.37 0 1 0-.22.7c.67.21 1.3.51 1.88.92.03.02.08.05.13.05Z" fill="#FFAD01"/><path d="M95.72 115.16a4.8 4.8 0 1 1 2.74-9.22 4.8 4.8 0 0 1-2.74 9.22ZM95.71 118.56c.4.07.79.1 1.18.12.2.01.37-.15.38-.36.02-.2-.15-.37-.36-.38a7.2 7.2 0 0 1-2.07-.36.37.37 0 0 0-.47.24c-.05.2.05.4.24.46.36.13.73.2 1.1.28Zm-3.04-1.23c.14.03.29-.03.37-.15a.38.38 0 0 0-.09-.52c-.58-.4-1.1-.87-1.55-1.41a.4.4 0 0 0-.52-.06.4.4 0 0 0-.06.53c.5.6 1.08 1.12 1.7 1.55l.15.06Zm6.35 1.08a.3.3 0 0 0 .16 0c.75-.2 1.46-.5 2.12-.9a.35.35 0 0 0 .12-.51.36.36 0 0 0-.5-.12 7.3 7.3 0 0 1-1.94.82c-.2.05-.32.25-.26.44.04.15.17.25.3.27Zm-9.12-4.44c.06 0 .14 0 .2-.02.19-.08.27-.3.2-.49a7.52 7.52 0 0 1-.55-2.03.36.36 0 0 0-.41-.32.37.37 0 0 0-.32.42c.08.76.29 1.5.6 2.22.05.12.15.2.28.22Zm12.85 2.18c.13.02.25-.03.33-.12.53-.56.97-1.22 1.3-1.9.1-.2.01-.41-.16-.5a.37.37 0 0 0-.5.17c-.3.63-.7 1.22-1.18 1.73a.35.35 0 0 0 .03.51c.05.05.12.09.18.1Zm-13.36-6.53c.2.03.39-.1.43-.3l.01-.02c.13-.7.34-1.38.64-2a.36.36 0 0 0-.16-.5.36.36 0 0 0-.5.17 8.73 8.73 0 0 0-.71 2.19v.03c-.06.22.08.4.29.43Zm15.28 2.6c.2.02.4-.1.44-.3.12-.77.14-1.55.06-2.31a.37.37 0 0 0-.41-.32c-.2.02-.36.2-.32.41.08.7.06 1.4-.05 2.1-.06.2.08.38.28.41Zm-13.36-6.55c.13.02.26-.02.33-.11a8.1 8.1 0 0 1 1.63-1.34.36.36 0 0 0 .12-.5.36.36 0 0 0-.5-.12c-.67.4-1.27.89-1.8 1.47a.37.37 0 0 0 .02.53c.07.03.14.07.2.07Zm12.85 2.21c.06 0 .14.01.2-.02.19-.08.27-.3.2-.48-.3-.71-.71-1.38-1.2-1.98a.4.4 0 0 0-.53-.06.4.4 0 0 0-.06.53c.45.54.81 1.14 1.1 1.8.07.11.18.2.29.21Zm-9.11-4.46c.04.02.1.02.15 0a7.85 7.85 0 0 1 2.08-.25c.21.01.38-.15.39-.36.01-.2-.15-.37-.36-.39a7.92 7.92 0 0 0-2.3.27c-.19.06-.31.25-.26.45.04.16.16.26.3.28Zm6.34 1.08c.14.03.29-.02.38-.15a.38.38 0 0 0-.1-.52 8.06 8.06 0 0 0-2.07-1 .37.37 0 0 0-.23.7c.68.22 1.3.52 1.9.92.02.02.07.06.12.05Z" fill="#3485F4"/><path d="M227.09 107.1a4.8 4.8 0 1 1 2.73-9.2 4.8 4.8 0 0 1-2.73 9.2ZM227.08 110.51c.39.07.79.1 1.17.12.21.01.38-.15.39-.36.01-.21-.15-.37-.36-.39a7.2 7.2 0 0 1-2.07-.35.37.37 0 0 0-.23.7c.36.13.72.22 1.1.28Zm-3.04-1.23c.14.02.28-.03.37-.15a.38.38 0 0 0-.1-.52c-.58-.4-1.1-.87-1.54-1.41a.4.4 0 0 0-.52-.06.4.4 0 0 0-.06.53c.5.6 1.07 1.12 1.7 1.55.06.03.1.06.15.06Zm6.34 1.08a.3.3 0 0 0 .17 0c.74-.2 1.45-.5 2.12-.91a.35.35 0 0 0 .12-.5.36.36 0 0 0-.51-.12 7.3 7.3 0 0 1-1.93.82c-.2.05-.32.24-.26.44a.4.4 0 0 0 .3.27Zm-9.11-4.44c.06 0 .14 0 .2-.03.19-.07.27-.3.2-.48a7.54 7.54 0 0 1-.55-2.03.36.36 0 0 0-.41-.32.37.37 0 0 0-.32.42c.08.76.28 1.5.6 2.22.04.11.15.2.28.22Zm12.85 2.18c.12.02.25-.03.33-.12.53-.56.97-1.22 1.3-1.9.09-.2 0-.41-.16-.5a.37.37 0 0 0-.5.17c-.3.63-.7 1.21-1.18 1.73a.37.37 0 0 0 .02.53c.05.05.13.07.19.09Zm-13.37-6.53c.21.03.39-.08.43-.28l.02-.05c.12-.68.33-1.35.64-1.99a.36.36 0 0 0-.17-.49.36.36 0 0 0-.49.17 8.7 8.7 0 0 0-.72 2.2c-.04.2.1.4.3.44Zm15.29 2.6c.2.03.39-.1.43-.3.13-.76.15-1.54.06-2.3a.37.37 0 0 0-.41-.32c-.2.02-.36.2-.32.42.09.7.06 1.39-.05 2.1-.06.17.09.36.29.4Zm-13.36-6.53c.12.02.25-.03.33-.12a8.1 8.1 0 0 1 1.62-1.33.36.36 0 0 0 .12-.51.36.36 0 0 0-.5-.12c-.67.41-1.27.89-1.8 1.47a.37.37 0 0 0 .02.53c.07.04.15.06.2.08Zm12.84 2.2c.07 0 .15 0 .2-.03.2-.08.28-.3.2-.48-.3-.71-.7-1.38-1.2-1.98a.4.4 0 0 0-.52-.06.4.4 0 0 0-.06.52c.45.55.8 1.15 1.09 1.8.08.12.18.2.3.22Zm-9.1-4.47c.04.02.1.02.14 0a7.81 7.81 0 0 1 2.1-.25c.2.01.36-.15.38-.36 0-.21-.16-.37-.36-.39a7.94 7.94 0 0 0-2.3.27c-.2.06-.32.25-.26.45.04.16.15.26.3.28Zm6.34 1.1c.14.02.28-.03.37-.15a.38.38 0 0 0-.1-.52 8.06 8.06 0 0 0-2.07-1.01.37.37 0 1 0-.22.7c.67.22 1.3.52 1.88.92.03.03.09.05.13.06Z" fill="#FC3508"/><path d="M280.15 29.93 259.4 53.3l-17.42-23.9 38.17.53Z" fill="#4951F5"/><path opacity="0.24" d="m258.68 52.32.72.98 20.75-23.37-2.24.73-.5.54-18.73 21.12Z" fill="#fff"/><path opacity="0.24" d="m241.98 29.4 1.47 2.05 34.4-.78 2.3-.74-38.17-.53Z" fill="#000002"/><path d="m247.42 49.73 4.49-6.71 25.5-11.82 2.74-1.27-2.24.73-28.34 9.18-2.15 9.9Z" fill="#2E3DAA"/><path d="m247.42 49.73 7.93-1.98-3.44-4.73-4.49 6.71Z" fill="#20307F"/></g><defs><clipPath id="agrowth"><path fill="#fff" transform="matrix(-1 0 0 1 359 15)" d="M0 0h359v121H0z"/></clipPath></defs></svg>